<?xml version="1.0" standalone="no"?>
<!DOCTYPE svg PUBLIC "-//W3C//DTD SVG 20010904//EN"
 "http://www.w3.org/TR/2001/REC-SVG-20010904/DTD/svg10.dtd">
<svg version="1.0" xmlns="http://www.w3.org/2000/svg"
 width="700.000000pt" height="700.000000pt" viewBox="0 0 700.000000 700.000000"
 preserveAspectRatio="xMidYMid meet">
<metadata>
Created by potrace 1.14, written by Peter Selinger 2001-2017
</metadata>
<g transform="translate(0.000000,700.000000) scale(0.100000,-0.100000)"
fill="#000000" stroke="none">
<path d="M3135 5658 c-16 -4 -41 -10 -55 -13 -14 -2 -419 -223 -900 -491 -481
-267 -909 -504 -950 -526 -41 -23 -90 -50 -110 -61 -19 -11 -130 -73 -246
-138 -115 -64 -219 -121 -230 -127 -267 -151 -280 -160 -319 -237 -40 -81 -41
-176 -2 -257 15 -31 42 -69 60 -83 18 -15 40 -33 50 -41 9 -8 21 -14 25 -14 5
0 29 -13 55 -30 26 -16 47 -27 47 -24 0 3 12 -3 28 -14 22 -15 203 -117 377
-212 17 -9 69 -38 116 -64 l86 -48 0 -716 c0 -394 3 -740 6 -768 40 -349 280
-630 634 -741 l88 -28 1285 -2 c751 -2 1302 1 1325 7 22 5 51 11 65 13 39 8
150 46 194 69 157 79 296 214 379 368 42 78 86 205 94 269 2 25 6 55 8 66 2
11 4 345 4 741 l1 722 287 161 c158 88 289 158 291 156 3 -3 6 -202 6 -442 2
-507 1 -497 86 -583 43 -44 68 -60 114 -74 144 -45 297 22 358 158 22 51 22
51 23 609 1 603 2 601 -54 679 -24 35 -141 128 -141 112 0 -3 -6 -2 -12 4 -7
5 -215 122 -463 260 -247 137 -470 261 -495 274 -25 14 -106 59 -180 101 -74
41 -155 86 -180 99 -544 304 -1422 791 -1475 819 -89 47 -207 67 -280 47z
m395 -774 c173 -96 342 -190 375 -208 33 -18 80 -44 105 -58 25 -14 66 -37 92
-51 26 -15 83 -46 125 -70 43 -25 103 -58 133 -74 45 -25 428 -238 630 -350
25 -14 86 -48 135 -75 50 -28 93 -53 97 -57 6 -5 -367 -219 -446 -256 -12 -5
-23 -12 -26 -16 -3 -3 -41 -25 -85 -48 -44 -23 -93 -50 -110 -60 -16 -10 -136
-76 -265 -148 -129 -72 -257 -143 -285 -158 -106 -59 -292 -163 -335 -187 -25
-14 -128 -71 -230 -128 -102 -57 -196 -109 -209 -116 -21 -11 -29 -11 -55 5
-17 10 -58 33 -91 51 -33 18 -73 41 -90 50 -257 144 -384 215 -423 236 -26 14
-54 29 -62 34 -20 12 -142 80 -210 117 -30 17 -134 74 -230 128 -96 54 -195
109 -220 123 -45 25 -294 163 -381 211 -26 14 -99 55 -163 90 -131 72 -130 69
-38 116 21 11 69 37 107 58 39 22 86 48 105 59 19 10 413 230 875 488 462 257
845 469 850 469 6 1 152 -78 325 -175z m-1692 -1978 c42 -23 102 -57 132 -73
115 -64 701 -388 830 -460 74 -42 173 -96 219 -121 l84 -45 108 0 107 0 114
63 c62 34 217 120 343 190 127 70 246 136 265 147 19 11 62 35 95 53 33 18
160 89 283 157 123 68 229 126 236 129 19 7 16 -1084 -3 -1141 -35 -101 -119
-174 -223 -193 -24 -4 -585 -8 -1248 -7 l-1205 0 -50 25 c-70 34 -128 96 -154
164 -20 55 -21 70 -21 606 0 303 2 550 5 550 3 0 40 -20 83 -44z"/>
</g>
</svg>
