<svg width="48" height="48" viewBox="0 0 48 48" fill="none" xmlns="http://www.w3.org/2000/svg">
<circle cx="24" cy="24" r="24" fill="white"/>
<path d="M24.3 24.22C24.8336 23.7581 25.2616 23.1869 25.5549 22.545C25.8482 21.9032 26 21.2057 26 20.5C26 19.1739 25.4732 17.9021 24.5355 16.9645C23.5979 16.0268 22.3261 15.5 21 15.5C19.6739 15.5 18.4021 16.0268 17.4645 16.9645C16.5268 17.9021 16 19.1739 16 20.5C16 21.2057 16.1518 21.9032 16.4451 22.545C16.7384 23.1869 17.1664 23.7581 17.7 24.22C16.3001 24.8539 15.1125 25.8775 14.279 27.1685C13.4455 28.4596 13.0015 29.9633 13 31.5C13 31.7652 13.1054 32.0196 13.2929 32.2071C13.4804 32.3946 13.7348 32.5 14 32.5C14.2652 32.5 14.5196 32.3946 14.7071 32.2071C14.8946 32.0196 15 31.7652 15 31.5C15 29.9087 15.6321 28.3826 16.7574 27.2574C17.8826 26.1321 19.4087 25.5 21 25.5C22.5913 25.5 24.1174 26.1321 25.2426 27.2574C26.3679 28.3826 27 29.9087 27 31.5C27 31.7652 27.1054 32.0196 27.2929 32.2071C27.4804 32.3946 27.7348 32.5 28 32.5C28.2652 32.5 28.5196 32.3946 28.7071 32.2071C28.8946 32.0196 29 31.7652 29 31.5C28.9985 29.9633 28.5545 28.4596 27.721 27.1685C26.8875 25.8775 25.6999 24.8539 24.3 24.22ZM21 23.5C20.4067 23.5 19.8266 23.3241 19.3333 22.9944C18.8399 22.6648 18.4554 22.1962 18.2284 21.6481C18.0013 21.0999 17.9419 20.4967 18.0576 19.9147C18.1734 19.3328 18.4591 18.7982 18.8787 18.3787C19.2982 17.9591 19.8328 17.6734 20.4147 17.5576C20.9967 17.4419 21.5999 17.5013 22.1481 17.7284C22.6962 17.9554 23.1648 18.3399 23.4944 18.8333C23.8241 19.3266 24 19.9067 24 20.5C24 21.2956 23.6839 22.0587 23.1213 22.6213C22.5587 23.1839 21.7956 23.5 21 23.5ZM30.74 23.82C31.38 23.0993 31.798 22.2091 31.9438 21.2563C32.0896 20.3036 31.9569 19.3291 31.5618 18.45C31.1666 17.5709 30.5258 16.8248 29.7165 16.3014C28.9071 15.7781 27.9638 15.4997 27 15.5C26.7348 15.5 26.4804 15.6054 26.2929 15.7929C26.1054 15.9804 26 16.2348 26 16.5C26 16.7652 26.1054 17.0196 26.2929 17.2071C26.4804 17.3946 26.7348 17.5 27 17.5C27.7956 17.5 28.5587 17.8161 29.1213 18.3787C29.6839 18.9413 30 19.7044 30 20.5C29.9986 21.0252 29.8593 21.5409 29.5961 21.9954C29.3328 22.4499 28.9549 22.8274 28.5 23.09C28.3517 23.1755 28.2279 23.2977 28.1404 23.4447C28.0528 23.5918 28.0045 23.7589 28 23.93C27.9958 24.0998 28.0349 24.2678 28.1137 24.4183C28.1924 24.5687 28.3081 24.6967 28.45 24.79L28.84 25.05L28.97 25.12C30.1754 25.6917 31.1923 26.596 31.901 27.7263C32.6096 28.8566 32.9805 30.1659 32.97 31.5C32.97 31.7652 33.0754 32.0196 33.2629 32.2071C33.4504 32.3946 33.7048 32.5 33.97 32.5C34.2352 32.5 34.4896 32.3946 34.6771 32.2071C34.8646 32.0196 34.97 31.7652 34.97 31.5C34.9782 29.9654 34.5938 28.4543 33.8535 27.1101C33.1131 25.7659 32.0413 24.6333 30.74 23.82Z" fill="#748AFF"/>
</svg>
