<svg width="48" height="48" viewBox="0 0 48 48" fill="none" xmlns="http://www.w3.org/2000/svg">
<circle cx="24" cy="24" r="24" fill="#716AF4"/>
<path d="M27.71 24.71C28.6904 23.9387 29.406 22.8809 29.7572 21.6839C30.1085 20.487 30.0779 19.2103 29.6698 18.0315C29.2617 16.8527 28.4963 15.8304 27.4801 15.1069C26.4639 14.3833 25.2474 13.9945 24 13.9945C22.7525 13.9945 21.5361 14.3833 20.5199 15.1069C19.5037 15.8304 18.7383 16.8527 18.3302 18.0315C17.9221 19.2103 17.8915 20.487 18.2428 21.6839C18.594 22.8809 19.3096 23.9387 20.29 24.71C18.6101 25.383 17.1443 26.4994 16.0489 27.9399C14.9535 29.3805 14.2696 31.0913 14.07 32.89C14.0556 33.0213 14.0671 33.1542 14.104 33.2811C14.1409 33.4079 14.2025 33.5263 14.2851 33.6293C14.452 33.8375 14.6948 33.9708 14.96 34C15.2252 34.0292 15.4912 33.9518 15.6993 33.7849C15.9075 33.618 16.0408 33.3752 16.07 33.11C16.2896 31.1552 17.2217 29.3498 18.6882 28.0388C20.1547 26.7278 22.0529 26.003 24.02 26.003C25.9871 26.003 27.8852 26.7278 29.3518 28.0388C30.8183 29.3498 31.7504 31.1552 31.97 33.11C31.9972 33.3557 32.1144 33.5827 32.2991 33.747C32.4838 33.9114 32.7228 34.0015 32.97 34H33.08C33.3421 33.9698 33.5817 33.8373 33.7466 33.6313C33.9114 33.4252 33.9881 33.1624 33.96 32.9C33.7595 31.0962 33.0719 29.381 31.9708 27.9382C30.8698 26.4954 29.3969 25.3795 27.71 24.71ZM24 24C23.2089 24 22.4355 23.7654 21.7777 23.3259C21.1199 22.8864 20.6072 22.2616 20.3045 21.5307C20.0017 20.7998 19.9225 19.9956 20.0769 19.2196C20.2312 18.4437 20.6122 17.731 21.1716 17.1716C21.731 16.6122 22.4437 16.2312 23.2196 16.0769C23.9956 15.9225 24.7998 16.0017 25.5307 16.3045C26.2616 16.6072 26.8863 17.1199 27.3259 17.7777C27.7654 18.4355 28 19.2089 28 20C28 21.0609 27.5786 22.0783 26.8284 22.8284C26.0783 23.5786 25.0609 24 24 24Z" fill="white"/>
</svg>
