<svg width="48" height="48" viewBox="0 0 48 48" fill="none" xmlns="http://www.w3.org/2000/svg">
<circle cx="24" cy="24" r="24" fill="white"/>
<path d="M33.4899 22.19L32.4899 21.64L23.4899 16.64H23.3799C23.3186 16.6141 23.255 16.594 23.1899 16.58H22.9999H22.8199C22.7516 16.594 22.6846 16.6141 22.6199 16.64H22.5099L13.5099 21.64C13.356 21.7272 13.228 21.8537 13.1389 22.0065C13.0499 22.1594 13.0029 22.3331 13.0029 22.51C13.0029 22.6869 13.0499 22.8606 13.1389 23.0134C13.228 23.1663 13.356 23.2928 13.5099 23.38L15.9999 24.76V29.5C15.9999 30.2956 16.3159 31.0587 16.8786 31.6213C17.4412 32.1839 18.2042 32.5 18.9999 32.5H26.9999C27.7955 32.5 28.5586 32.1839 29.1212 31.6213C29.6838 31.0587 29.9999 30.2956 29.9999 29.5V24.76L31.9999 23.64V26.5C31.9999 26.7652 32.1052 27.0196 32.2928 27.2071C32.4803 27.3946 32.7347 27.5 32.9999 27.5C33.2651 27.5 33.5194 27.3946 33.707 27.2071C33.8945 27.0196 33.9999 26.7652 33.9999 26.5V23.06C33.9996 22.8828 33.9522 22.7089 33.8626 22.556C33.773 22.4031 33.6443 22.2768 33.4899 22.19ZM27.9999 29.5C27.9999 29.7652 27.8945 30.0196 27.707 30.2071C27.5194 30.3946 27.2651 30.5 26.9999 30.5H18.9999C18.7347 30.5 18.4803 30.3946 18.2928 30.2071C18.1052 30.0196 17.9999 29.7652 17.9999 29.5V25.87L22.5099 28.37L22.6599 28.43H22.7499C22.8329 28.4404 22.9169 28.4404 22.9999 28.43C23.0829 28.4404 23.1669 28.4404 23.2499 28.43H23.3399C23.393 28.4188 23.4437 28.3985 23.4899 28.37L27.9999 25.87V29.5ZM22.9999 26.36L16.0599 22.5L22.9999 18.64L29.9399 22.5L22.9999 26.36Z" fill="#716AF4"/>
</svg>
