<svg width="48" height="48" viewBox="0 0 48 48" fill="none" xmlns="http://www.w3.org/2000/svg">
<circle cx="24" cy="24" r="24" fill="white"/>
<path d="M34 23.0001C34.0028 22.2952 33.8193 21.6021 33.4681 20.991C33.1169 20.3799 32.6104 19.8725 32 19.5201C32.015 19.347 32.015 19.1731 32 19.0001C32 18.2044 31.6839 17.4413 31.1213 16.8787C30.5587 16.3161 29.7956 16.0001 29 16.0001H28.82C28.6535 15.5384 28.3762 15.1246 28.0125 14.795C27.6488 14.4654 27.2099 14.2301 26.7341 14.1097C26.2583 13.9892 25.7602 13.9874 25.2835 14.1043C24.8068 14.2211 24.3661 14.4532 24 14.7801C23.6339 14.4532 23.1931 14.2211 22.7165 14.1043C22.2398 13.9874 21.7417 13.9892 21.2659 14.1097C20.7901 14.2301 20.3511 14.4654 19.9874 14.795C19.6238 15.1246 19.3465 15.5384 19.18 16.0001H19C18.2043 16.0001 17.4413 16.3161 16.8787 16.8787C16.3161 17.4413 16 18.2044 16 19.0001C15.9849 19.1731 15.9849 19.347 16 19.5201C15.4324 19.8408 14.9519 20.2955 14.6002 20.8444C14.2485 21.3934 14.0363 22.0199 13.9821 22.6696C13.9279 23.3193 14.0333 23.9723 14.2891 24.572C14.545 25.1716 14.9435 25.6996 15.45 26.1101C15.1223 26.7213 14.9591 27.4073 14.9765 28.1007C14.994 28.794 15.1914 29.4709 15.5494 30.065C15.9074 30.659 16.4138 31.1497 17.0187 31.489C17.6237 31.8282 18.3064 32.0043 19 32.0001H19.18C19.3465 32.4617 19.6238 32.8755 19.9874 33.2051C20.3511 33.5347 20.7901 33.77 21.2659 33.8905C21.7417 34.0109 22.2398 34.0127 22.7165 33.8959C23.1931 33.779 23.6339 33.5469 24 33.2201C24.3661 33.5469 24.8068 33.779 25.2835 33.8959C25.7602 34.0127 26.2583 34.0109 26.7341 33.8905C27.2099 33.77 27.6488 33.5347 28.0125 33.2051C28.3762 32.8755 28.6535 32.4617 28.82 32.0001H29C29.6893 31.9957 30.3658 31.8133 30.9639 31.4705C31.5619 31.1277 32.0613 30.6361 32.4134 30.0435C32.7655 29.4509 32.9586 28.7773 32.9737 28.0882C32.9889 27.399 32.8257 26.7176 32.5 26.1101C32.9664 25.7366 33.3433 25.2634 33.6028 24.7252C33.8624 24.1871 33.9981 23.5976 34 23.0001ZM23 20.5501C22.7822 20.4255 22.5548 20.3185 22.32 20.2301C22.068 20.1452 21.7927 20.1639 21.5545 20.282C21.3163 20.4002 21.1349 20.6081 21.05 20.8601C20.9651 21.112 20.9838 21.3874 21.102 21.6255C21.2201 21.8637 21.428 22.0452 21.68 22.1301C22.0649 22.2692 22.3979 22.5231 22.634 22.8575C22.87 23.192 22.9978 23.5907 23 24.0001V25.5501C22.7822 25.4255 22.5548 25.3185 22.32 25.2301C22.068 25.1452 21.7927 25.1639 21.5545 25.282C21.3163 25.4002 21.1349 25.6081 21.05 25.8601C20.9651 26.112 20.9838 26.3874 21.102 26.6255C21.2201 26.8637 21.428 27.0452 21.68 27.1301C22.0649 27.2692 22.3979 27.5231 22.634 27.8575C22.87 28.192 22.9978 28.5907 23 29.0001V31.0001C23 31.2653 22.8946 31.5196 22.7071 31.7072C22.5196 31.8947 22.2652 32.0001 22 32.0001C21.8065 31.9988 21.6176 31.9414 21.4561 31.8349C21.2945 31.7284 21.1674 31.5774 21.09 31.4001C21.2577 31.3017 21.4181 31.1914 21.57 31.0701C21.6711 30.986 21.7547 30.8829 21.8159 30.7665C21.8772 30.6502 21.9149 30.5229 21.927 30.392C21.9391 30.261 21.9252 30.129 21.8863 30.0034C21.8473 29.8779 21.784 29.7612 21.7 29.6601C21.6159 29.5589 21.5128 29.4754 21.3965 29.4141C21.2801 29.3528 21.1528 29.3151 21.0219 29.303C20.891 29.291 20.759 29.3048 20.6334 29.3437C20.5078 29.3827 20.3911 29.446 20.29 29.5301C19.9289 29.834 19.472 30.0005 19 30.0001C18.4696 30.0001 17.9608 29.7893 17.5858 29.4143C17.2107 29.0392 17 28.5305 17 28.0001C17.0048 27.6236 17.1157 27.2562 17.32 26.9401C17.5444 26.9803 17.772 27.0004 18 27.0001C18.2652 27.0001 18.5196 26.8947 18.7071 26.7072C18.8946 26.5196 19 26.2653 19 26.0001C19 25.7348 18.8946 25.4805 18.7071 25.2929C18.5196 25.1054 18.2652 25.0001 18 25.0001C17.7638 25.0014 17.5295 24.9573 17.31 24.8701C16.9503 24.7403 16.6354 24.5103 16.4025 24.2071C16.1696 23.9039 16.0284 23.5403 15.9958 23.1593C15.9632 22.7784 16.0404 22.3961 16.2184 22.0577C16.3964 21.7193 16.6676 21.439 17 21.2501C17.1421 21.3808 17.2961 21.498 17.46 21.6001C17.6907 21.7327 17.9647 21.7682 18.2216 21.6988C18.4785 21.6294 18.6974 21.4608 18.83 21.2301C18.9626 20.9993 18.9981 20.7254 18.9287 20.4684C18.8593 20.2115 18.6907 19.9927 18.46 19.8601C18.3192 19.7824 18.2018 19.6684 18.12 19.5301C18.0275 19.3695 17.9857 19.1848 18 19.0001C18 18.7348 18.1053 18.4805 18.2929 18.2929C18.4804 18.1054 18.7348 18.0001 19 18.0001C19.0696 17.9903 19.1403 17.9903 19.21 18.0001C19.2629 18.1607 19.3264 18.3177 19.4 18.4701C19.4653 18.5846 19.5527 18.6852 19.657 18.7659C19.7614 18.8465 19.8806 18.9058 20.008 18.9402C20.1353 18.9746 20.2682 18.9834 20.399 18.9662C20.5298 18.9491 20.6559 18.9062 20.77 18.8401C20.9917 18.7067 21.1531 18.4925 21.2202 18.2426C21.2873 17.9928 21.255 17.7266 21.13 17.5001C21.0461 17.3467 21.0014 17.1749 21 17.0001C21 16.7348 21.1053 16.4805 21.2929 16.2929C21.4804 16.1054 21.7348 16.0001 22 16.0001C22.2652 16.0001 22.5196 16.1054 22.7071 16.2929C22.8946 16.4805 23 16.7348 23 17.0001V20.5501ZM30.69 24.8701C30.4705 24.9573 30.2362 25.0014 30 25.0001C29.7348 25.0001 29.4804 25.1054 29.2929 25.2929C29.1053 25.4805 29 25.7348 29 26.0001C29 26.2653 29.1053 26.5196 29.2929 26.7072C29.4804 26.8947 29.7348 27.0001 30 27.0001C30.228 27.0004 30.4556 26.9803 30.68 26.9401C30.8843 27.2562 30.9952 27.6236 31 28.0001C31 28.5305 30.7893 29.0392 30.4142 29.4143C30.0391 29.7893 29.5304 30.0001 29 30.0001C28.528 30.0005 28.0711 29.834 27.71 29.5301C27.5058 29.3603 27.2425 29.2787 26.9781 29.303C26.7136 29.3274 26.4697 29.4558 26.3 29.6601C26.1302 29.8643 26.0486 30.1276 26.073 30.392C26.0973 30.6564 26.2258 30.9003 26.43 31.0701C26.5819 31.1914 26.7423 31.3017 26.91 31.4001C26.8326 31.5774 26.7054 31.7284 26.5439 31.8349C26.3824 31.9414 26.1935 31.9988 26 32.0001C25.7348 32.0001 25.4804 31.8947 25.2929 31.7072C25.1053 31.5196 25 31.2653 25 31.0001V29.0001C25.0022 28.5907 25.13 28.192 25.366 27.8575C25.6021 27.5231 25.935 27.2692 26.32 27.1301C26.5719 27.0452 26.7799 26.8637 26.898 26.6255C27.0162 26.3874 27.0349 26.112 26.95 25.8601C26.8651 25.6081 26.6836 25.4002 26.4455 25.282C26.2073 25.1639 25.9319 25.1452 25.68 25.2301C25.4452 25.3185 25.2178 25.4255 25 25.5501V24.0001C25.0022 23.5907 25.13 23.192 25.366 22.8575C25.6021 22.5231 25.935 22.2692 26.32 22.1301C26.5719 22.0452 26.7799 21.8637 26.898 21.6255C27.0162 21.3874 27.0349 21.112 26.95 20.8601C26.8651 20.6081 26.6836 20.4002 26.4455 20.282C26.2073 20.1639 25.9319 20.1452 25.68 20.2301C25.4452 20.3185 25.2178 20.4255 25 20.5501V17.0001C25 16.7348 25.1053 16.4805 25.2929 16.2929C25.4804 16.1054 25.7348 16.0001 26 16.0001C26.2652 16.0001 26.5196 16.1054 26.7071 16.2929C26.8946 16.4805 27 16.7348 27 17.0001C26.9986 17.1749 26.9539 17.3467 26.87 17.5001C26.8035 17.6136 26.76 17.7391 26.7421 17.8695C26.7242 17.9999 26.7322 18.1325 26.7656 18.2598C26.799 18.3871 26.8573 18.5065 26.937 18.6112C27.0167 18.7159 27.1162 18.8039 27.23 18.8701C27.3441 18.9362 27.4702 18.9791 27.601 18.9962C27.7318 19.0134 27.8646 19.0046 27.992 18.9702C28.1193 18.9358 28.2386 18.8765 28.343 18.7959C28.4473 18.7152 28.5347 18.6146 28.6 18.5001C28.6748 18.338 28.7383 18.1709 28.79 18.0001C28.8596 17.9903 28.9303 17.9903 29 18.0001C29.2652 18.0001 29.5196 18.1054 29.7071 18.2929C29.8946 18.4805 30 18.7348 30 19.0001C29.9985 19.1961 29.9393 19.3873 29.83 19.5501C29.7482 19.6798 29.6346 19.7865 29.5 19.8601C29.2692 19.9927 29.1006 20.2115 29.0312 20.4684C28.9619 20.7254 28.9974 20.9993 29.13 21.2301C29.2626 21.4608 29.4814 21.6294 29.7384 21.6988C29.9953 21.7682 30.2692 21.7327 30.5 21.6001C30.6795 21.503 30.8473 21.3855 31 21.2501C31.3335 21.4357 31.6069 21.7129 31.7879 22.0489C31.969 22.3849 32.0501 22.7657 32.0217 23.1463C31.9933 23.527 31.8566 23.8915 31.6277 24.1969C31.3988 24.5024 31.0873 24.7359 30.73 24.8701H30.69Z" fill="#FF8C4B"/>
</svg>
