<svg width="48" height="48" viewBox="0 0 48 48" fill="none" xmlns="http://www.w3.org/2000/svg">
<circle cx="24" cy="24" r="24" fill="#716AF4"/>
<path d="M27.0981 24.6338L25 23.4228V19C25 18.7348 24.8946 18.4804 24.7071 18.2929C24.5196 18.1054 24.2652 18 24 18C23.7348 18 23.4804 18.1054 23.2929 18.2929C23.1054 18.4804 23 18.7348 23 19V24C23 24.1756 23.0461 24.3481 23.1339 24.5001C23.2217 24.6522 23.3479 24.7784 23.5 24.8662L26.0981 26.3662C26.2119 26.432 26.3375 26.4746 26.4678 26.4918C26.598 26.509 26.7304 26.5004 26.8573 26.4664C26.9842 26.4324 27.1032 26.3737 27.2074 26.2938C27.3117 26.2138 27.3991 26.114 27.4648 26.0003C27.5305 25.8865 27.5731 25.7609 27.5902 25.6306C27.6073 25.5003 27.5986 25.368 27.5646 25.2411C27.5305 25.1142 27.4718 24.9952 27.3918 24.891C27.3117 24.7868 27.212 24.6994 27.0981 24.6338ZM24 14C22.0222 14 20.0888 14.5865 18.4443 15.6853C16.7998 16.7841 15.5181 18.3459 14.7612 20.1732C14.0043 22.0004 13.8063 24.0111 14.1922 25.9509C14.578 27.8907 15.5304 29.6725 16.9289 31.0711C18.3275 32.4696 20.1093 33.422 22.0491 33.8079C23.9889 34.1937 25.9996 33.9957 27.8268 33.2388C29.6541 32.4819 31.2159 31.2002 32.3147 29.5557C33.4135 27.9112 34 25.9778 34 24C33.9971 21.3487 32.9425 18.8069 31.0678 16.9322C29.1931 15.0575 26.6513 14.0029 24 14ZM24 32C22.4178 32 20.871 31.5308 19.5554 30.6518C18.2398 29.7727 17.2145 28.5233 16.609 27.0615C16.0035 25.5997 15.845 23.9911 16.1537 22.4393C16.4624 20.8874 17.2243 19.462 18.3432 18.3431C19.462 17.2243 20.8874 16.4624 22.4393 16.1537C23.9911 15.845 25.5997 16.0035 27.0615 16.609C28.5233 17.2145 29.7727 18.2398 30.6518 19.5554C31.5308 20.871 32 22.4177 32 24C31.9976 26.121 31.1539 28.1544 29.6542 29.6542C28.1544 31.1539 26.121 31.9976 24 32Z" fill="white"/>
</svg>
