<svg width="515" height="499" viewBox="0 0 515 499" fill="none" xmlns="http://www.w3.org/2000/svg">
<path d="M299.631 433.505C389.869 433.505 463.022 428.125 463.022 421.488C463.022 414.85 389.869 409.47 299.631 409.47C209.393 409.47 136.24 414.85 136.24 421.488C136.24 428.125 209.393 433.505 299.631 433.505Z" fill="#FFAD61"/>
<path d="M136.243 463.386C203.933 463.386 258.807 458.006 258.807 451.368C258.807 444.73 203.933 439.35 136.243 439.35C68.5533 439.35 13.6794 444.73 13.6794 451.368C13.6794 458.006 68.5533 463.386 136.243 463.386Z" fill="#FFAD61"/>
<path d="M164.23 295.88C159.721 307.265 156.584 319.146 154.885 331.273C153.545 340.241 152.819 349.289 152.714 358.355C148.387 365.461 145.147 373.175 143.102 381.24C140.558 392.897 143.759 400.197 153.363 405.291C147.361 406.658 145.983 411.106 146.626 413.034C147.27 414.962 156.484 414.043 156.484 414.043C156.484 414.043 155.798 416.382 157.998 416.748C160.198 417.114 162.905 413.95 162.905 413.95C162.905 413.95 162.126 418.222 165.749 418.489C166.854 418.51 167.944 418.226 168.899 417.668C169.853 417.11 170.635 416.299 171.158 415.325C171.158 415.325 172.031 418.67 175.057 417.891C178.082 417.111 179.55 413.01 179.55 413.01C182.898 414.091 186.407 414.596 189.923 414.497C192.781 414.649 195.626 414.022 198.155 412.682C198.155 412.682 199.463 417.808 202.598 417.888C203.419 417.971 204.243 417.77 204.934 417.319C205.625 416.867 206.14 416.193 206.394 415.408C206.394 415.408 209.529 419.645 212.706 418.542C215.884 417.44 214.65 413.907 214.65 413.907C214.65 413.907 218.754 418.014 220.607 416.291C222.46 414.569 220.431 411.833 220.431 411.833C226.425 415.755 241.008 415.838 237.471 410.113C235.527 408.277 233.265 406.81 230.796 405.785C242.178 400.042 244.228 385.335 238.939 373.745C233.983 362.883 226.614 349.544 226.614 349.544C226.614 349.544 225.127 312.746 210.514 288.727C222.182 279.096 218.791 264.366 215.948 259.837C213.107 255.304 210.245 250.866 210.245 250.866C210.245 250.866 207.842 225.394 197.736 220.161C194.062 223.667 191.416 238.024 191.416 238.024C183.102 237.337 174.734 238.287 166.785 240.819C166.785 240.819 156.385 230.628 146.781 228.465C141.601 234.133 148.343 255.699 148.343 255.699C148.343 255.699 141.647 274.074 148.81 284.081C152.421 289.688 157.874 293.861 164.23 295.88Z" fill="#FF8C4B"/>
<path d="M203.411 348.396C203.115 344.96 203.262 336.696 203.328 333.249C203.322 333.171 203.342 333.092 203.385 333.025C203.426 332.957 203.491 332.905 203.566 332.878C203.64 332.849 203.722 332.846 203.798 332.87C203.875 332.893 203.941 332.939 203.988 333.004C205.147 334.163 206.124 333.821 206.292 332.838C206.837 328.857 207.029 324.839 206.869 320.823C206.865 320.733 206.893 320.644 206.949 320.572C207.003 320.501 207.081 320.45 207.168 320.428C207.257 320.409 207.349 320.421 207.43 320.463C207.51 320.505 207.574 320.574 207.608 320.658C207.806 321.138 209.136 320.893 209.4 319.667C210.557 309.984 210.175 300.179 208.268 290.615C199.545 296.988 184.55 300.715 165.959 296.128C165.255 299.07 164.868 302.078 164.806 305.102C164.806 306.373 165.033 308.709 166.042 309.465C166.576 309.874 166.931 309.398 167.441 308.888C167.486 308.819 167.551 308.765 167.627 308.734C167.703 308.703 167.787 308.695 167.868 308.712C167.949 308.731 168.022 308.773 168.077 308.834C168.133 308.895 168.169 308.972 168.181 309.054C168.255 310.085 169.176 330.385 171.144 333.335C171.478 334.005 172.693 333.682 172.906 332.737C173.075 332.003 173.777 332.275 173.777 332.758C173.777 333.159 170.001 361.138 173.614 379.019C175.851 390.094 183.191 393.324 189.695 392.457C207.245 390.11 204.933 366.034 203.411 348.396Z" fill="white"/>
<path d="M227.531 349.175C227.03 328.097 221.568 307.433 211.589 288.86C215.101 285.808 217.683 281.829 219.041 277.379C222.603 264.536 212.665 251.814 211.45 250.324C210.094 242.784 205.232 219.157 197.489 218.748C194.116 218.748 191.882 228.344 190.584 236.656C187.425 236.48 175.098 236.037 166.493 239.235C164.341 237.526 151.378 227.407 146.62 227.063C146.287 227.053 145.957 227.12 145.654 227.259C145.352 227.398 145.086 227.605 144.876 227.864C141.696 231.708 146.331 253.25 146.833 255.504C145.587 259.095 142.254 270.498 145.896 280.751C144.206 281.232 142.559 281.851 140.97 282.604C140.735 282.749 140.564 282.977 140.49 283.242C140.416 283.508 140.445 283.792 140.571 284.037C140.697 284.282 140.911 284.47 141.17 284.565C141.429 284.659 141.714 284.652 141.969 284.545C143.5 283.819 145.09 283.223 146.721 282.764C147.356 284.067 148.102 285.312 148.951 286.486C147.856 287.215 146.833 288.053 145.902 288.985C145.801 289.085 145.722 289.204 145.668 289.334C145.614 289.465 145.586 289.605 145.587 289.746C145.588 290.031 145.701 290.303 145.902 290.505C146.104 290.705 146.377 290.817 146.661 290.817C146.946 290.817 147.219 290.705 147.421 290.505C148.289 289.634 149.246 288.857 150.275 288.184C153.629 291.852 157.931 294.523 162.707 295.901C155.729 315.328 152.124 335.806 152.048 356.448C142.169 373.403 134.14 395.505 151.247 405.122C149.919 405.468 148.698 406.138 147.694 407.074C146.691 408.01 145.936 409.181 145.498 410.481C144.163 414.232 147.536 415.57 151.559 415.57C153.022 415.543 154.48 415.431 155.93 415.236C155.935 415.676 156.066 416.105 156.305 416.474C156.545 416.842 156.884 417.135 157.284 417.319C158.408 417.853 160.069 417.348 162.357 415.802C162.368 416.397 162.513 416.981 162.78 417.512C163.047 418.043 163.43 418.507 163.901 418.87C164.371 419.233 164.917 419.487 165.498 419.611C166.079 419.735 166.681 419.727 167.259 419.588C168.818 419.303 170.244 418.523 171.325 417.364C171.997 418.035 172.841 418.508 173.765 418.73C174.688 418.953 175.655 418.916 176.559 418.624C177.462 418.332 178.267 417.794 178.884 417.072C179.501 416.349 179.906 415.47 180.054 414.531C185.97 415.765 192.085 415.696 197.972 414.323C198.258 415.511 198.832 416.611 199.643 417.527C200.355 418.226 201.259 418.699 202.239 418.884C203.22 419.07 204.233 418.961 205.152 418.571C205.76 418.312 206.313 417.933 206.778 417.46C208.107 418.878 209.943 419.712 211.885 419.781C214.144 419.781 215.356 418.085 215.714 415.88C217.428 417.063 219.38 418.088 220.827 417.407C222.274 416.726 222.362 414.988 222.031 413.455C228.439 416.494 241.231 417.241 238.852 410.572C238.395 409.263 237.618 408.09 236.592 407.157C235.567 406.225 234.324 405.563 232.978 405.232C235.92 403.493 238.394 401.065 240.187 398.156C249.15 383.308 232.949 357.126 227.531 349.175ZM238.211 397.273C235.829 400.917 232.245 403.612 228.082 404.887C227.411 405.096 226.941 406.933 229.926 406.933C231.366 406.828 232.8 407.197 234.011 407.983C235.221 408.769 236.141 409.93 236.631 411.287C236.946 412.126 236.671 412.473 236.585 412.574C235.277 414.11 228.25 414.072 220.595 410.518C219.538 408.919 218.22 407.509 216.697 406.345L221.503 389.524C225.358 377.831 227.394 365.615 227.539 353.303C234.724 364.712 245.498 385.877 238.201 397.267L238.211 397.273ZM213.741 412.171C213.239 412.419 213.375 412.868 213.455 413.816C213.599 414.988 213.314 416.171 212.654 417.151C211.795 417.984 208.134 416.974 207.373 414.414C207.373 412.94 205.133 413.538 205.133 414.331C205.133 415.618 205.25 416.553 203.032 416.713C200.551 416.908 199.619 414.085 199.416 411.605C199.286 410.024 199.715 409.085 199.718 388.982C207.4 380.014 206.086 362.282 204.983 350.558C204.592 345.373 204.482 340.17 204.655 334.973C205.118 335.124 205.616 335.126 206.08 334.978C206.544 334.83 206.95 334.54 207.239 334.148C208.478 332.496 208.361 324.483 208.361 322.264C208.775 322.239 209.178 322.127 209.546 321.936C209.914 321.745 210.238 321.48 210.497 321.156C211.335 317.626 211.693 313.998 211.565 310.372C211.745 303.622 211.128 296.875 209.728 290.27C209.651 290.003 236.799 335.577 219.145 388.55L214.043 406.412C214.003 406.547 214.008 406.691 214.056 406.824C214.104 406.956 214.193 407.07 214.31 407.149C216.809 408.646 218.672 411.009 219.546 413.789C219.89 415.658 219.735 415.618 218.635 415.159C217.389 414.59 216.236 413.839 215.212 412.929C214.371 412.2 214.2 411.92 213.725 412.166L213.741 412.171ZM197.51 412.102C191.891 413.439 186.049 413.541 180.387 412.401C180.724 409.635 180.15 412.366 180.136 392.48C181.258 392.947 182.43 393.292 183.626 393.505C186.032 394.11 188.539 394.201 190.982 393.77C193.425 393.339 195.75 392.397 197.804 391.006C197.641 412.094 197.318 410.035 197.499 412.096L197.51 412.102ZM170.257 414.27C169.675 416.857 165.985 418.008 164.941 417.135C163.972 416.229 164.14 414.08 164.247 412.823C164.303 412.152 163.823 411.699 162.413 412.913C161.46 413.756 160.404 414.474 159.27 415.049C157.981 415.666 157.148 415.647 158.184 413.05C159.205 410.745 160.9 408.804 163.046 407.48C163.163 407.401 163.252 407.287 163.3 407.154C163.348 407.021 163.352 406.876 163.313 406.74C158.061 388.339 154.037 377.592 153.954 357.044C153.991 336.947 157.407 317 164.058 298.037C163.604 300.589 163.355 303.174 163.321 305.764C163.377 308.18 164.442 311.552 166.829 311.104C167.08 315.485 167.972 329.553 169.635 333.617C169.791 334.121 170.114 334.558 170.551 334.854C170.987 335.15 171.512 335.288 172.038 335.246C170.559 348.596 167.734 382.238 177.816 391.065C177.816 396.023 177.816 406.86 178.07 408.764C178.529 412.094 177.896 416.966 174.58 416.721C172.751 416.59 172.22 415.605 172.463 414.665C172.727 413.541 170.738 412.927 170.247 414.264L170.257 414.27ZM147.501 411.183C148.863 407.6 151.893 406.644 155.679 406.933C156.48 406.933 156.87 405.064 156.042 404.797C151.796 403.486 148.16 400.698 145.795 396.936C140.1 387.591 145.795 372.508 152.112 360.752C152.747 379.41 156.384 389.412 161.174 406.185C158.84 407.897 157.073 410.269 156.101 412.996C151.776 413.669 148.358 413.474 147.536 412.497C147.442 412.385 147.162 412.038 147.49 411.178L147.501 411.183ZM159.471 284.695C161.105 284.695 160.955 282.308 159.532 282.543C156.459 282.956 153.484 283.918 150.75 285.381C150.017 284.381 149.391 283.307 148.881 282.177C152.443 281.47 156.082 281.233 159.705 281.472C159.983 281.465 160.247 281.351 160.443 281.154C160.638 280.957 160.751 280.693 160.756 280.415C160.762 280.137 160.66 279.869 160.472 279.664C160.284 279.46 160.025 279.335 159.748 279.317C155.814 279.119 151.87 279.439 148.019 280.268C143.878 268.968 149.087 255.971 149.087 255.704C149.087 255.437 144.145 232.208 146.655 229.378C150.307 229.572 164.258 239.977 165.879 241.609C166.21 241.94 166.581 241.764 166.848 241.673C174.967 238.383 185.735 239.016 191.703 239.088C191.943 239.052 192.164 238.935 192.33 238.757C192.495 238.578 192.594 238.348 192.611 238.106C193.98 228.734 196.391 221.247 197.51 221.061C202.353 221.328 207.389 239.644 209.392 251.098C209.415 251.28 209.492 251.451 209.613 251.589C215.207 258.86 219.369 268.231 216.988 276.936C214.785 285.181 204.706 294.515 188.403 296.379C178.257 297.543 160.52 296.112 152.109 287.092C154.438 285.95 156.915 285.143 159.471 284.695ZM194.399 390.592C191.036 391.954 187.331 392.226 183.805 391.369C177.781 389.999 175.701 385.495 174.436 378.988C172.33 363.79 172.388 348.369 174.609 333.187C174.834 331.401 172.676 331.206 172.452 332.675C172.452 333.19 171.95 333.27 171.715 332.776C170.065 329.265 169.013 311.202 169.013 309.13C169.017 308.911 168.951 308.697 168.824 308.518C168.698 308.339 168.518 308.205 168.311 308.135C168.104 308.062 167.879 308.058 167.669 308.122C167.459 308.187 167.275 308.316 167.144 308.492C166.877 308.797 166.941 308.807 166.61 309.002C164.789 307.598 166.057 299.123 166.647 297.019C180.662 300.343 196.036 299.745 208.032 291.775C209.063 296.619 209.554 301.561 209.501 306.514C209.72 311.04 209.481 315.576 208.788 320.053C208.622 320.133 208.45 320.203 208.275 320.262C208.138 320.09 207.952 319.965 207.741 319.901C207.531 319.841 207.307 319.846 207.1 319.916C206.892 319.987 206.711 320.118 206.58 320.294C206.45 320.47 206.377 320.683 206.372 320.902C206.532 324.98 206.318 329.059 205.726 333.096C205.518 333.109 205.31 333.071 205.12 332.987C204.929 332.903 204.762 332.775 204.631 332.613C204.487 332.467 204.304 332.366 204.104 332.322C203.904 332.278 203.696 332.293 203.504 332.365C203.313 332.439 203.148 332.568 203.029 332.735C202.91 332.902 202.842 333.1 202.834 333.305C202.754 337.83 202.658 343.985 202.917 348.542C204.086 362.071 206.604 384.796 194.399 390.592Z" fill="#3D1D0B"/>
<path d="M188.11 261.552C187.458 261.413 186.853 261.11 186.35 260.673C186.199 260.523 186.008 260.421 185.799 260.38C185.591 260.338 185.375 260.36 185.178 260.441C184.982 260.522 184.813 260.659 184.695 260.835C184.576 261.011 184.512 261.219 184.51 261.432C184.51 262.16 185.279 262.596 185.984 262.983C184.695 265.717 186.689 269.85 189.255 269.85C193.284 269.85 192.061 261.493 188.11 261.552Z" fill="#3D1D0B"/>
<path d="M167.488 263.917C166.788 263.842 166.132 263.54 165.619 263.057C165.471 262.901 165.278 262.794 165.067 262.75C164.856 262.706 164.637 262.726 164.438 262.809C164.239 262.891 164.07 263.032 163.952 263.213C163.835 263.393 163.775 263.605 163.78 263.821C163.78 264.547 164.514 264.934 165.171 265.289C163.879 268.029 165.884 272.154 168.442 272.154C172.241 272.154 171.483 264.323 167.488 263.917Z" fill="#3D1D0B"/>
<path d="M180.638 280.658C180.975 280.223 181.706 279.323 181.399 278.442C180.785 276.704 177.167 277.107 175.341 277.355C173.739 277.553 171.747 278.074 171.905 279.66C172.004 280.642 173.026 281.422 173.889 282.023C174.957 282.784 176.126 283.398 177.36 283.841C178.072 283.841 180.195 281.23 180.638 280.658Z" fill="#3D1D0B"/>
<path d="M187.734 282.276C187.015 283.974 185.716 285.363 184.07 286.194C182.423 287.025 180.535 287.245 178.741 286.815C178.458 286.748 178.16 286.796 177.912 286.948C177.664 287.1 177.486 287.344 177.417 287.627C177.35 287.91 177.397 288.209 177.549 288.457C177.701 288.705 177.946 288.883 178.229 288.951C179.741 289.283 181.307 289.274 182.815 288.924C184.323 288.575 185.734 287.895 186.946 286.933C188.136 285.937 189.073 284.674 189.683 283.248C189.76 283.119 189.81 282.975 189.828 282.826C189.847 282.677 189.835 282.526 189.793 282.382C189.75 282.237 189.679 282.104 189.582 281.988C189.486 281.873 189.367 281.779 189.232 281.712C189.098 281.645 188.951 281.606 188.801 281.599C188.651 281.591 188.501 281.614 188.36 281.667C188.219 281.72 188.091 281.802 187.984 281.906C187.876 282.011 187.791 282.137 187.734 282.276Z" fill="#3D1D0B"/>
<path d="M215.059 280.223C209.661 277.729 203.741 276.574 197.801 276.856C197.264 276.842 196.727 276.881 196.199 276.974C194.96 277.388 195.176 279.347 196.479 279.177C202.673 278.616 208.902 279.684 214.555 282.274C214.796 282.27 215.03 282.187 215.22 282.038C215.409 281.888 215.544 281.68 215.604 281.446C215.662 281.211 215.64 280.963 215.542 280.741C215.443 280.52 215.273 280.337 215.059 280.223Z" fill="#3D1D0B"/>
<path d="M197.705 280.407C194.525 279.788 195.155 282.188 196.317 282.38C201.011 282.93 205.395 285.005 208.796 288.286C208.947 288.437 209.138 288.539 209.347 288.582C209.555 288.624 209.771 288.604 209.969 288.524C210.164 288.441 210.331 288.303 210.45 288.126C210.568 287.95 210.633 287.743 210.636 287.531C210.637 287.389 210.609 287.249 210.555 287.119C210.501 286.988 210.421 286.87 210.321 286.77C206.849 283.432 202.453 281.216 197.705 280.407Z" fill="#3D1D0B"/>
<path d="M149.174 233.049C149.023 232.928 148.843 232.849 148.651 232.819C148.46 232.789 148.265 232.809 148.084 232.878C147.903 232.947 147.743 233.062 147.62 233.211C147.497 233.36 147.415 233.539 147.382 233.729C147.241 234.667 147.962 234.53 151.339 237.919C152.963 239.467 154.498 241.107 155.94 242.823C154.824 242.573 153.387 242.436 152.647 243.304C152.165 243.981 151.963 244.818 152.082 245.641C152.201 246.463 152.633 247.208 153.288 247.72L150.447 250.767C149.545 251.896 151.248 253.231 152.049 252.211C155.993 247.915 156.193 247.939 156.022 247.216C155.814 246.34 154.832 246.465 154.42 245.507C154.185 244.578 154.252 244.69 154.687 244.69C157.507 244.69 158.901 246.874 160.001 245.686C160.162 245.504 160.257 245.273 160.27 245.03C160.283 244.788 160.212 244.548 160.07 244.351C156.791 240.258 153.144 236.475 149.174 233.049Z" fill="#3D1D0B"/>
<path d="M197.005 242.263C201.328 243.955 202.038 245.154 202.855 245.154C203.15 245.159 203.434 245.047 203.647 244.843C203.86 244.639 203.984 244.359 203.992 244.065C203.671 237.96 202.44 231.938 200.34 226.197C200.248 225.921 200.05 225.693 199.789 225.563C199.529 225.432 199.227 225.411 198.951 225.503C198.675 225.595 198.447 225.793 198.317 226.053C198.186 226.314 198.165 226.615 198.257 226.891C200 231.848 201.124 237.001 201.605 242.233C200.334 241.523 199.015 240.909 197.654 240.391C196.49 239.571 195.611 241.769 197.005 242.263Z" fill="#3D1D0B"/>
<path d="M405.898 410.953C403.517 403.81 398.091 379.321 389.611 356.463C379.86 371.682 368.457 392.324 368.457 393.173C370.489 395.205 369.124 395.434 376.688 405.767C381.986 413.02 387.908 419.795 394.385 426.017C395.619 424.618 401.06 418.69 408.296 410.531C407.719 410.779 407.062 411.025 406.486 411.273C406.368 411.274 406.253 411.245 406.149 411.19C406.047 411.133 405.96 411.052 405.898 410.953Z" fill="#FFE55D"/>
<path d="M439.232 307.32C436.435 307.436 433.703 308.197 431.249 309.544C449.405 345.856 448.956 355.623 451.169 361.153C454.785 356.916 458.138 352.464 461.211 347.819C469.029 334.039 464.826 307.213 439.232 307.32Z" fill="#FFE55D"/>
<path d="M450.759 362.884C449.835 361.039 443.788 330.478 426.887 304.275C407.545 274.286 380.634 266.494 350.666 289.542C350.501 289.625 350.421 289.79 350.255 289.87C350.089 289.95 350.007 290.119 349.844 290.201C349.021 290.858 348.196 291.435 347.374 292.094C328.882 306.95 312.237 329.798 299.715 349.713C292.591 361.003 286.053 372.652 280.125 384.613C280.381 387.798 280.987 390.943 281.935 393.995C289.264 416.802 318.274 434.264 337.004 422.313C340.963 419.712 344.397 416.389 347.126 412.517C347.126 406.216 346.023 400.681 356.759 395.314C366.761 372.806 374.381 340.154 379.187 336.964C389.133 341.684 404.306 401.514 406.477 410.389C424.635 402.889 440.806 391.282 453.723 376.48C453.72 375.495 451.699 366.644 450.759 362.884Z" fill="#FFE55D"/>
<path d="M506.483 195.541C506.483 195.376 506.403 195.295 506.403 195.13C506.32 195.047 506.32 194.964 506.237 194.801C504.499 193.347 502.39 192.406 500.147 192.083C477.639 187.341 449.15 194.073 466.398 198.67C480.384 202.398 506.483 199.968 506.483 195.541Z" fill="#FFAD61"/>
<path d="M423.182 297.362C451.497 290.687 472.486 247.81 474.627 243.364L436.433 226.089C431.408 233.613 425.179 240.26 417.997 245.762C406.705 253.646 387.714 250.528 373.878 238.438C366.206 231.98 358.031 226.144 349.431 220.987C354.771 228.065 356.336 237.122 357.826 245.927C359.321 257.274 362.982 268.228 368.61 278.194C388.795 270.296 406.815 277.762 420.795 294.326C421.623 295.298 422.44 296.291 423.182 297.362Z" fill="#FFAD61"/>
<path d="M359.226 257.595C355.645 244.21 356.16 229.573 347.042 219.649C341.534 212.763 330.291 213.414 321.528 213.97L322.105 221.459C322.14 221.941 322.024 222.422 321.773 222.835C321.522 223.248 321.149 223.572 320.706 223.763C318.335 224.816 315.747 225.29 313.157 225.147C310.567 225.004 308.048 224.248 305.807 222.941C305.562 222.798 305.357 222.594 305.212 222.349C305.068 222.104 304.989 221.826 304.982 221.542L304.736 216.685C296.725 219 289.083 222.444 282.041 226.911C281.024 227.598 280.22 228.556 279.721 229.677C263.338 256.554 246.565 307.871 237.735 339.991C229.64 369.444 225.392 391.479 223.907 397.775C222.901 402.029 222.695 403.35 226.788 405.265C238.443 410.725 251.259 410.095 263.829 407.323C267.124 406.597 268.523 406.541 269.169 403.62C270.974 395.594 272.771 387.514 274.533 379.542C276.071 381.275 277.745 382.882 279.539 384.348C279.54 384.337 279.542 384.326 279.545 384.316C279.554 384.296 279.57 384.28 279.59 384.27L279.622 384.265C295.602 352.308 319.405 314.015 347.216 291.154C353.339 285.827 360.281 281.524 367.775 278.41C364.131 271.826 361.262 264.842 359.226 257.598V257.595Z" fill="#FFAD61"/>
<path d="M450.261 402.72C447.858 397.425 446.17 391.834 445.241 386.094C436.66 394.066 427.087 400.899 416.76 406.426C417.139 408.151 417.606 409.851 418.159 411.528C421.868 411.757 425.403 413.179 428.237 415.582C431.07 417.985 433.051 421.241 433.883 424.862C438.985 425.193 445.487 425.273 453.061 425.028C452.853 418.849 453.889 412.692 456.105 406.92C454.891 406.669 453.743 406.166 452.736 405.442C451.729 404.718 450.885 403.791 450.261 402.72Z" fill="#FF8C4B"/>
<path d="M366.635 393.42C364.29 393.264 361.949 393.778 359.885 394.902C360.003 398.119 359.138 401.296 357.405 404.009C355.075 407.494 351.752 410.2 347.868 411.777C348.05 418.196 348.599 424.599 349.512 430.955C355.623 430.079 361.849 430.499 367.786 432.189C367.915 430.961 368.305 429.775 368.93 428.71C369.555 427.646 370.4 426.727 371.409 426.016C377.443 421.939 383.261 418.606 384.909 417.618C367.911 398.197 369.631 393.42 366.635 393.42Z" fill="#FF8C4B"/>
<path d="M320.541 204.4C315.888 207.184 310.704 208.961 305.322 209.617C306.04 222.527 305.81 221.878 306.475 222.212C308.607 223.447 311.001 224.158 313.462 224.287C315.922 224.415 318.377 223.958 320.626 222.951C320.908 222.823 321.145 222.614 321.307 222.35C321.469 222.085 321.548 221.779 321.534 221.47C321.16 217.104 320.754 207.554 320.541 204.4Z" fill="white"/>
<path d="M320.541 209.78L320.13 204.512C315.793 207.512 310.735 209.303 305.477 209.699C306.136 210.028 310.827 212.086 320.541 209.78Z" fill="#FFAD61"/>
<path d="M453.637 212.581C456.703 215.928 460.834 218.109 465.326 218.754C463.664 216.892 462.303 214.781 461.295 212.498C459.849 212.116 458.52 211.382 457.426 210.362C455.789 211.526 455.335 210.883 453.637 212.581Z" fill="white"/>
<path d="M339.636 154.88C338.75 154.382 337.759 154.1 336.744 154.056C335.728 154.013 334.717 154.21 333.792 154.632C335.618 160.975 335.928 167.658 334.697 174.141C344.469 173.653 344.603 157.406 339.636 154.88Z" fill="white"/>
<path d="M235.016 408.894C232.498 408.29 233.868 408.215 230.405 409.142C228.215 409.729 216.59 412.784 215.015 415.069C214.534 415.763 214.977 416.001 215.672 416.137C216.676 416.244 217.688 416.26 218.694 416.191C216.406 417.459 214.459 419.76 214.689 420.666C214.689 421.427 217.963 421.133 219.864 420.866C218.326 421.904 216.595 423.496 216.993 424.534C216.993 425.909 226.792 425.602 231.027 425.426C234.036 426.521 244.251 425.349 247.616 421.982C250.681 418.361 253.104 414.241 254.776 409.801C248.184 410.605 241.507 410.298 235.018 408.894H235.016Z" fill="white"/>
<path d="M322.679 165.499C325.005 156.351 314.052 143.071 301.853 142.286C290.906 141.578 283.58 129.28 282.343 126.893H282.261C281.438 127.387 269.829 134.548 269.752 154.88C269.642 182.819 276.651 210.809 304.403 208.958C308.611 208.873 312.739 207.801 316.457 205.828C320.174 203.855 323.376 201.037 325.806 197.6C317.411 189.203 320.925 172.406 322.679 165.499Z" fill="white"/>
<path d="M466.069 219.493C460.893 218.937 456.096 216.517 452.572 212.685C453.557 211.796 454.681 211.075 455.899 210.549C458.078 209.462 456.299 205.035 450.06 207.972C449.661 206.867 449.345 205.735 449.112 204.584C448.316 204.878 447.547 205.238 446.808 205.652C441.841 208.626 438.576 223.186 438.082 225.653V225.736L455.944 233.802C455.944 233.802 459.034 226.462 459.682 224.678C462.661 224.151 465.516 223.077 468.104 221.512C467.385 220.881 466.705 220.207 466.069 219.493Z" fill="white"/>
<path d="M450.592 207.065C451.942 206.396 453.467 206.165 454.954 206.405C454.804 205.758 454.792 205.086 454.92 204.433C455.047 203.781 455.311 203.163 455.694 202.619C456.061 202.093 456.586 201.698 457.193 201.492C457.8 201.285 458.457 201.278 459.069 201.471C459.168 200.19 459.389 198.921 459.728 197.683C453.15 193.923 448.485 200.043 450.592 207.065Z" fill="white"/>
<path d="M457.762 209.78C458.582 210.605 459.605 211.201 460.726 211.51C459.53 208.586 458.942 205.449 458.996 202.291C457.06 201.565 454.871 203.444 455.792 206.654C457.714 207.38 458.16 209.382 457.762 209.78Z" fill="white"/>
<path d="M506.729 196.939C501.749 202.749 465.717 202.974 460.716 196.859C459.377 201.858 459.753 207.161 461.784 211.921C463.651 216.199 466.724 219.84 470.628 222.398C474.532 224.957 479.096 226.321 483.764 226.326C487.364 226.342 490.92 225.534 494.16 223.964C497.4 222.393 500.237 220.102 502.453 217.265C504.67 214.428 506.208 211.121 506.949 207.598C507.69 204.075 507.615 200.429 506.729 196.939Z" fill="white"/>
<path d="M275.269 188.438C276.862 188.438 278.39 187.805 279.517 186.679C280.644 185.552 281.276 184.024 281.276 182.431C281.276 180.838 280.644 179.31 279.517 178.183C278.39 177.056 276.862 176.423 275.269 176.423C273.676 176.423 272.148 177.056 271.021 178.183C269.894 179.31 269.261 180.838 269.261 182.431C269.261 184.024 269.894 185.552 271.021 186.679C272.148 187.805 273.676 188.438 275.269 188.438Z" fill="#FFAD61"/>
<path d="M312.715 182.415C314.308 182.415 315.836 181.782 316.963 180.655C318.09 179.529 318.723 178.001 318.723 176.407C318.723 174.814 318.09 173.286 316.963 172.159C315.836 171.033 314.308 170.4 312.715 170.4C311.122 170.4 309.594 171.033 308.467 172.159C307.34 173.286 306.708 174.814 306.708 176.407C306.708 178.001 307.34 179.529 308.467 180.655C309.594 181.782 311.122 182.415 312.715 182.415Z" fill="#FFAD61"/>
<path d="M508.401 196.222C508.436 196.132 508.455 196.037 508.455 195.941C508.428 191.333 496.477 190.177 491.901 189.72C490.419 181.804 484.839 174.88 490.99 170.301C491.679 169.767 492.424 169.314 493.214 168.948C493.367 168.917 493.511 168.855 493.637 168.764C493.764 168.673 493.869 168.557 493.946 168.422C494.022 168.286 494.068 168.136 494.08 167.981C494.092 167.826 494.07 167.67 494.015 167.525C493.976 167.388 493.908 167.261 493.818 167.151C493.727 167.042 493.615 166.952 493.488 166.887C493.361 166.823 493.222 166.785 493.08 166.776C492.938 166.767 492.796 166.787 492.662 166.836C491.319 167.334 490.09 168.097 489.048 169.08C488.006 170.063 487.173 171.246 486.598 172.558C484.425 177.804 488.392 183.462 489.565 189.544C487.748 189.43 485.927 189.383 484.107 189.405C486.414 181.28 479.445 173.762 480.703 168.104C480.999 166.935 481.561 165.85 482.346 164.935C483.13 164.019 484.116 163.297 485.226 162.825C485.369 162.766 485.506 162.695 485.637 162.612C487.084 162.454 486.585 159.995 485.09 160.497C483.748 160.996 482.521 161.758 481.48 162.739C480.439 163.721 479.605 164.901 479.029 166.211C476.049 173.081 484.516 182.111 481.757 189.266C476.951 189.314 461.014 190.334 459.906 194.991C459.746 195.381 459.861 195.343 459.709 195.872C454.531 193.41 449.125 196.192 448.775 203.53C447.94 203.831 447.135 204.211 446.372 204.664C441.032 207.751 437.9 221.192 437.163 224.689L436.549 224.396C436.471 224.356 436.386 224.332 436.298 224.325C436.211 224.319 436.123 224.329 436.04 224.357C435.957 224.384 435.88 224.428 435.814 224.486C435.747 224.543 435.693 224.613 435.655 224.692L435.508 224.986C430.533 232.424 424.404 239.022 417.352 244.53C408.202 250.949 390.265 250.607 375.04 237.321C366.704 230.339 357.795 224.071 348.407 218.583C341.66 211.836 333.169 211.726 322.641 212.423C322.374 212.442 322.529 213.361 321.795 204.146C323.668 202.681 325.332 200.966 326.74 199.049C330.091 201.535 334.13 202.921 338.301 203.017C338.552 203.05 338.807 203.015 339.039 202.915C339.272 202.815 339.472 202.654 339.62 202.448C340.781 200.785 337.941 196.935 336.651 194.871C348.634 197.487 362.59 199.471 364.59 195.151C367.567 188.834 361.223 189.656 360.449 184.396C359.73 179.505 378.071 172.248 367.869 160.353C358.743 149.708 358.337 144.376 357.84 134.013C357.453 125.961 356.788 110.966 337.356 104.675C325.554 100.876 317.451 103.239 312.642 106.01C307.209 102.502 294.072 95.8645 281.806 103.68C266.571 113.454 271.757 120.749 266.657 124.097C254.97 131.709 250.669 141.003 254.212 150.973C258.925 164.23 258.425 163.498 254.057 169.37C249.689 175.236 253.056 190.628 264.11 197.818C274.039 204.194 266.625 210.731 280.811 211.588C285.149 211.908 289.501 211.187 293.504 209.484C296.876 210.365 300.366 210.704 303.845 210.488L304.112 215.446C298.099 217.208 282.33 223.285 279.406 227.487C276.042 233.118 272.974 238.92 270.213 244.869C249.027 288.024 232.545 350.113 222.581 397.145C221.36 402.901 221.168 404.888 229.162 407.889C225.376 408.909 216.309 411.437 213.924 414.12C213.655 414.394 213.467 414.738 213.382 415.112C213.297 415.487 213.318 415.878 213.443 416.241C213.569 416.604 213.793 416.925 214.09 417.168C214.388 417.411 214.748 417.566 215.129 417.615C214.531 417.89 214.023 418.329 213.665 418.88C213.306 419.432 213.111 420.074 213.102 420.731C213.244 422.053 214.477 422.534 215.82 422.55C215.621 422.828 215.481 423.145 215.411 423.48C215.341 423.815 215.342 424.161 215.413 424.495C215.485 424.83 215.625 425.146 215.826 425.424C216.027 425.701 216.283 425.933 216.578 426.106C219.126 427.478 227.405 426.742 229.99 426.694C234.27 427.158 238.598 426.934 242.806 426.031C249.214 425.025 253.486 415.965 256.041 409.995C258.38 409.667 266.78 408.393 268.667 406.944C269.57 406.233 270.203 405.235 270.464 404.116C270.531 403.849 270.464 404.076 275.27 382.369C276.261 383.517 277.39 384.534 278.635 385.397C280.885 411.101 309.414 431.953 330.558 426.328C336.895 424.413 342.453 420.523 346.423 415.226C346.872 424.125 347.793 428.413 348.241 433.793C348.532 437.296 348.378 440.695 351.04 443.653C355.488 448.758 364.029 451.396 367.281 445.167C370.341 439.259 366.875 430.629 372.253 426.891C376.506 423.987 380.891 421.282 385.394 418.782C388.048 421.807 390.876 424.674 393.864 427.369C393.933 427.422 394.013 427.461 394.098 427.483C394.183 427.505 394.271 427.51 394.358 427.497C394.445 427.484 394.529 427.455 394.606 427.412C394.68 427.365 394.746 427.306 394.798 427.236C394.798 427.236 403.609 417.517 410.306 410.019C412.06 409.242 413.777 408.399 415.461 407.558C417.33 415.114 420.689 424.467 428.422 425.687C440.599 426.747 452.844 426.747 465.022 425.687C466.968 425.509 468.809 424.722 470.283 423.438C471.757 422.155 472.789 420.439 473.233 418.536C473.676 416.632 473.508 414.637 472.753 412.834C471.998 411.031 470.694 409.512 469.027 408.492C463.302 404.81 454.494 407.624 451.386 401.892C449.076 396.683 447.437 391.202 446.508 385.581C449.363 383.049 452.03 380.312 454.486 377.392C455.354 376.46 455.26 376.324 454.385 372.14C453.752 369.118 452.849 365.105 452.032 362.125C455.802 357.759 459.271 353.143 462.416 348.308C464.826 343.487 466.046 338.159 465.973 332.771C465.9 327.382 464.536 322.089 461.997 317.336C457.073 308.955 448.756 305.732 439.035 305.732C436.198 305.797 433.414 306.514 430.899 307.828C428.991 304.581 426.918 301.433 424.689 298.397C446.316 292.414 468.915 261.284 476.201 243.102C476.266 242.943 476.267 242.765 476.203 242.605C476.139 242.446 476.016 242.318 475.859 242.247L457.575 233.944L460.611 225.72C463.316 225.047 465.895 223.945 468.25 222.455C487.752 237.142 514.099 218.078 508.401 196.222ZM468.311 219.851C465.915 217.806 463.973 215.282 462.61 212.442C461.247 209.602 460.494 206.508 460.397 203.359C460.312 201.583 460.51 199.805 460.982 198.091C463.708 200.072 470.308 201.076 473.654 201.474C482.74 202.523 491.936 202.1 500.888 200.221C502.749 199.824 504.528 199.107 506.145 198.104C506.841 201.635 506.7 205.279 505.734 208.745C504.767 212.212 503.003 215.404 500.581 218.065C498.16 220.727 495.149 222.785 491.789 224.074C488.429 225.363 484.815 225.847 481.234 225.488C476.444 225.006 471.924 223.036 468.311 219.854V219.851ZM451.546 359.588C447.224 342.222 440.74 325.466 432.248 309.713C434.435 308.673 436.812 308.09 439.232 307.999C448.903 307.967 456.187 311.563 460.307 318.534C462.649 322.962 463.906 327.882 463.976 332.891C464.046 337.899 462.925 342.853 460.707 347.344C457.955 351.642 454.893 355.734 451.546 359.588ZM453.17 376.033C440.529 390.448 424.773 401.798 407.096 409.221C403.834 396.301 391.45 350.097 383.416 339.409C382.092 337.623 380.25 336.288 378.141 335.585C376.033 334.883 373.758 334.846 371.628 335.481C370.269 335.711 370.611 337.839 372.135 337.617C373.724 337.229 375.379 337.198 376.981 337.526C371.756 342.741 366.416 371.87 356.321 394.68C345.617 400.439 346.541 405.382 346.541 412.145C343.857 415.854 340.533 419.054 336.726 421.596C322.361 430.736 300.998 422.072 289.301 406.426C280.907 395.196 280.696 386.008 280.875 384.742C292.265 361.684 305.951 339.833 321.726 319.52C335.61 301.972 354.903 282.303 376.728 277.368C408.623 271.043 429.463 303.51 441.165 333.994C446.321 347.648 450.336 361.705 453.17 376.022V376.033ZM452.387 424.392C446.39 424.649 440.384 424.599 434.392 424.242C433.503 420.648 431.504 417.426 428.679 415.033C425.854 412.64 422.346 411.199 418.655 410.914C418.211 409.579 417.854 408.166 417.531 406.783C427.38 401.453 436.542 394.942 444.815 387.394C445.72 392.814 447.357 398.084 449.683 403.061C450.891 405.151 452.863 406.69 455.183 407.355C453.174 412.8 452.226 418.579 452.387 424.381V424.392ZM377.128 405.288C374.255 401.316 371.596 397.193 369.164 392.937C370.581 389.271 382.287 368.976 389.351 357.874C394.98 373.36 400.832 394.306 404.934 410.26C405.11 410.778 405.185 411.613 405.964 411.811C401.471 416.908 394.59 424.59 394.243 424.979C387.993 418.91 382.267 412.323 377.128 405.288ZM350.161 430.14C349.547 425.316 348.605 416.523 348.605 412.147C352.081 410.88 355.091 408.587 357.237 405.572C359.382 402.557 360.562 398.962 360.62 395.262C361.992 394.696 367.068 392.859 367.877 394.784C372.5 402.835 377.959 410.376 384.164 417.282C381.817 418.617 376.522 421.661 371.182 425.383C369.212 426.768 367.864 428.872 367.428 431.241C361.806 429.74 355.942 429.366 350.175 430.14H350.161ZM297.893 276.615C298.964 271.221 299.159 265.689 298.47 260.232C297.055 249.399 293.987 238.846 289.373 228.943C288.991 227.989 287.619 228.094 287.344 229.354V229.602C287.344 229.701 287.368 229.797 287.408 229.885C292.639 241.04 297.765 258.556 296.403 271.42C293.904 292.246 276.069 370.21 268.593 403.465C267.992 406.135 266.75 405.993 263.752 406.669C251.497 409.339 238.192 410.14 226.906 404.533C223.841 403.013 223.659 402.164 224.375 399.083C229.264 378.097 241.847 312.482 269.442 251.36C272.806 243.65 276.651 236.159 280.955 228.932C282.973 225.904 292.503 221.947 295.853 220.591C299.922 231.071 311.78 235.009 323.216 231.29C325.036 230.886 326.659 229.862 327.807 228.393C328.954 226.923 329.555 225.101 329.506 223.237C329.413 219.992 328.179 216.884 326.022 214.458C333.402 214.129 341.938 214.458 346.538 220.164C352.842 227.026 354.516 236.6 356.115 245.865C357.672 257.197 361.309 268.143 366.843 278.153C335.07 291.3 305.433 335.668 288.612 365.652C288.044 366.664 279.505 382.107 279.302 383.247C278.175 382.325 277.172 381.262 276.317 380.083C280.338 362.485 294.385 297.094 297.907 276.613L297.893 276.615ZM232.414 422.467C233.851 421.581 235.428 420.949 237.079 420.598C238.534 420.598 238.109 418.091 236.702 418.462C233.439 419.116 227.977 421.479 228.564 424.752C225.459 424.961 222.343 424.921 219.246 424.632C217.219 424.317 216.669 424.146 218.995 422.646C221.278 421.172 221.833 421.698 227.907 419.751C228.046 419.713 228.176 419.648 228.29 419.56C228.403 419.472 228.499 419.362 228.57 419.237C228.641 419.112 228.687 418.974 228.705 418.831C228.723 418.688 228.713 418.543 228.675 418.404C228.637 418.266 228.572 418.136 228.483 418.022C228.395 417.908 228.285 417.813 228.16 417.742C228.035 417.67 227.897 417.624 227.754 417.606C227.612 417.588 227.467 417.599 227.328 417.637C222.655 418.403 221.486 419.53 218.533 419.941C217.486 420.158 216.416 420.248 215.348 420.208C216.386 418.449 223.825 415.981 225.761 415.381C226.024 415.283 226.241 415.087 226.364 414.834C226.487 414.581 226.508 414.29 226.423 414.022C226.337 413.754 226.154 413.53 225.909 413.393C225.664 413.256 225.376 413.217 225.104 413.285C223.168 413.883 217.596 415.829 215.492 415.266C216.827 413.13 230.711 409.571 233.039 408.935C239.741 410.668 246.709 411.119 253.579 410.27C252.063 414.32 249.853 418.075 247.048 421.367C245.586 422.753 243.726 423.644 241.73 423.917C237.663 425.121 226.871 426.157 232.414 422.467ZM334.606 155.029C335.381 154.767 336.203 154.672 337.018 154.749C337.833 154.827 338.622 155.075 339.334 155.478C343.606 157.656 343.74 172.117 335.506 173.393C336.533 167.279 336.226 161.012 334.606 155.029ZM282.092 127.795C284.095 131.245 291.317 142.312 301.807 142.947C313.884 143.78 324.219 156.871 322.033 165.333C318.268 180.397 319.275 191.557 324.946 197.666C322.105 201.368 318.368 204.286 314.088 206.144C309.808 208.002 305.125 208.74 300.48 208.287C275.852 207.31 270.328 179.385 270.422 154.887C270.494 136.974 279.59 129.512 282.092 127.8V127.795ZM320.273 222.5C318.13 223.482 315.781 223.933 313.426 223.814C311.072 223.695 308.78 223.01 306.747 221.816C306.48 221.632 306.597 222.471 305.927 210.402C310.755 210.021 315.412 208.439 319.472 205.799L320.778 221.712C320.792 221.88 320.751 222.049 320.661 222.191C320.571 222.334 320.436 222.443 320.279 222.503L320.273 222.497V222.5ZM304.272 217.579L304.472 221.549C304.469 221.952 304.575 222.348 304.778 222.695C304.981 223.043 305.274 223.33 305.626 223.525C307.96 224.884 310.583 225.67 313.28 225.818C315.978 225.967 318.671 225.474 321.141 224.38C321.71 224.133 322.188 223.715 322.509 223.184C322.829 222.652 322.977 222.035 322.93 221.416L322.396 214.698C322.7 214.677 322.978 214.655 323.264 214.647C327.346 217.851 328.366 223.806 326.705 226.468C324.588 229.939 317.256 230.74 313.088 230.432C309.81 230.347 306.63 229.29 303.953 227.395C301.276 225.501 299.222 222.854 298.051 219.79C298.876 219.379 302.526 218.121 304.277 217.584L304.272 217.579ZM368.918 277.352C355.034 251.587 360.705 238.175 351.723 223.186C359.352 227.877 366.613 233.144 373.441 238.939C387.547 251.221 406.867 254.377 418.38 246.311C425.52 240.922 431.701 234.369 436.664 226.927L473.729 243.7C469.307 252.74 449.621 290.11 423.453 296.619C409.651 278.375 390.478 269.278 368.918 277.352ZM459.602 223.886C458.801 224.129 459.177 223.709 455.701 233.231L438.987 225.685C440.25 219.405 443.317 208.76 447.296 206.581C447.758 206.325 448.236 206.09 448.722 205.882C448.799 206.389 448.914 206.888 449.061 207.38C447.225 208.793 445.982 210.84 445.574 213.12C445.395 214.063 447.552 214.455 447.71 213.515C447.922 211.994 448.673 210.598 449.826 209.583C450.979 208.567 452.458 207.999 453.995 207.98C455.098 207.98 457.364 208.99 455.89 209.743C452.855 211.299 450.345 213.139 450.991 217.112C450.991 218.767 453.359 218.548 453.172 216.765C453.066 216.074 453.13 215.369 453.359 214.709C456.771 218.092 461.221 220.23 465.994 220.78C466.207 220.994 466.424 221.208 466.637 221.411C464.37 222.444 462.015 223.272 459.602 223.883V223.886ZM458.563 209.561C458.609 208.851 458.426 208.145 458.042 207.546C457.657 206.947 457.092 206.486 456.427 206.232C455.939 204.138 457.119 202.707 458.414 202.886C458.416 205.385 458.814 207.866 459.591 210.239C459.235 210.033 458.892 209.807 458.563 209.561ZM460.734 213.123C461.508 214.762 462.445 216.319 463.529 217.769C460.088 216.968 456.946 215.203 454.473 212.68C455.303 212.148 456.187 211.708 457.108 211.361C458.184 212.188 459.415 212.786 460.729 213.123H460.734ZM458.064 197.559C458.358 197.68 458.662 197.805 458.956 197.947C458.742 198.818 458.582 199.702 458.478 200.593C457.853 200.589 457.236 200.721 456.667 200.98C456.099 201.239 455.594 201.618 455.188 202.092C454.781 202.566 454.483 203.123 454.313 203.724C454.143 204.325 454.107 204.956 454.206 205.572C453.127 205.514 452.048 205.681 451.036 206.061C449.752 200.435 453.127 195.509 458.059 197.559H458.064ZM482.094 192.446C482.374 192.043 482.631 191.621 482.863 191.186C484 191.186 487.757 191.226 489.476 191.333C489.74 193.538 489.124 195.758 487.762 197.511C486.873 198.673 488.713 199.848 489.565 198.734C491.126 196.66 491.887 194.088 491.701 191.499C494.493 191.75 506.295 193.21 505.777 195.704C503.619 201.022 465.094 201.524 461.791 195.626C461.791 194.761 463.828 193.984 464.64 193.619C469.725 192.096 474.997 191.287 480.305 191.216L480.276 191.269C479.389 192.358 481.167 193.629 482.102 192.446H482.094Z" fill="#3D1D0B"/>
<path d="M293.484 174.123L290.469 163.475C290.37 163.214 290.175 163.001 289.924 162.879C289.673 162.756 289.386 162.734 289.119 162.816C288.852 162.897 288.627 163.077 288.488 163.319C288.349 163.561 288.307 163.847 288.371 164.118C291.185 173.842 291.193 173.783 291.358 174.603C291.289 174.87 291.412 174.638 288.379 186.688C288.321 186.958 288.369 187.241 288.511 187.478C288.652 187.716 288.879 187.891 289.144 187.969C289.41 188.048 289.695 188.023 289.943 187.9C290.191 187.777 290.384 187.566 290.482 187.307C293.841 173.877 293.705 174.921 293.484 174.123Z" fill="#3D1D0B"/>
<path d="M305.717 187.392C304.704 189.301 303.204 190.908 301.369 192.048C299.534 193.189 297.429 193.823 295.269 193.886C294.062 193.902 293.934 193.827 293.603 194.099C293.413 194.274 293.289 194.509 293.253 194.765C293.217 195.02 293.271 195.281 293.406 195.501C293.742 196.088 294.401 196.115 295.162 196.115C298.369 196.045 301.457 194.892 303.925 192.844C305.392 191.586 306.646 190.099 307.639 188.442C307.708 188.315 307.752 188.177 307.767 188.034C307.782 187.891 307.769 187.746 307.729 187.608C307.688 187.47 307.621 187.342 307.53 187.23C307.44 187.118 307.328 187.025 307.201 186.957C306.947 186.818 306.647 186.786 306.369 186.867C306.091 186.949 305.856 187.138 305.717 187.392Z" fill="#3D1D0B"/>
<path d="M306.085 161.934C305.556 161.813 305.06 161.576 304.633 161.24C304.53 161.143 304.41 161.067 304.278 161.017C304.146 160.967 304.005 160.943 303.864 160.947C303.723 160.951 303.584 160.982 303.455 161.04C303.327 161.098 303.21 161.18 303.114 161.283C303.017 161.385 302.941 161.506 302.89 161.638C302.84 161.77 302.816 161.91 302.82 162.051C302.824 162.192 302.856 162.331 302.914 162.46C302.971 162.589 303.054 162.705 303.156 162.802C303.479 163.069 303.832 163.301 304.206 163.491C303.028 166.204 305.047 170.166 307.535 170.166C311.714 170.168 310.264 161.387 306.085 161.934Z" fill="#3D1D0B"/>
<path d="M278.159 165.634C277.636 165.512 277.146 165.276 276.725 164.943C276.567 164.798 276.37 164.704 276.158 164.674C275.947 164.643 275.731 164.678 275.539 164.772C275.348 164.866 275.19 165.015 275.083 165.199C274.977 165.384 274.928 165.596 274.941 165.808C274.952 165.949 274.99 166.087 275.053 166.213C275.117 166.34 275.205 166.452 275.312 166.545C275.63 166.758 275.956 166.975 276.308 167.172C275.027 170.083 277.478 174.515 280.214 173.794C281.798 173.372 282.58 171.276 281.915 168.921C281.298 166.75 279.635 165.362 278.159 165.637V165.634Z" fill="#3D1D0B"/>
<path d="M298.594 153.538C300.121 153.101 301.739 153.095 303.268 153.522C304.798 153.948 306.179 154.79 307.259 155.955C308.126 157.023 309.787 155.669 308.861 154.513C307.496 153.043 305.751 151.979 303.818 151.44C301.886 150.901 299.842 150.907 297.914 151.458C296.699 151.942 297.294 153.96 298.594 153.538Z" fill="#3D1D0B"/>
<path d="M279.897 155.416C280.052 155.271 280.163 155.084 280.217 154.878C280.271 154.672 280.265 154.455 280.201 154.252C280.137 154.049 280.018 153.868 279.855 153.73C279.693 153.592 279.496 153.503 279.285 153.472C277.835 153.225 276.344 153.456 275.036 154.13C273.728 154.804 272.675 155.885 272.036 157.21C270.803 159.803 273.886 159.784 273.886 158.455C276.135 154.313 279.048 156.134 279.897 155.416Z" fill="#3D1D0B"/>
<path d="M62.3379 437.868C62.3407 439.274 62.0658 440.667 61.529 441.967C60.9922 443.267 60.204 444.447 59.2098 445.442C58.2155 446.436 57.0347 447.224 55.7351 447.761C54.4354 448.298 53.0426 448.572 51.6365 448.57H39.8565C38.4506 448.572 37.058 448.297 35.7587 447.76C34.4594 447.223 33.2789 446.435 32.2849 445.441C31.2909 444.446 30.503 443.266 29.9664 441.966C29.4297 440.667 29.1549 439.274 29.1578 437.868V363.789H24.2183V437.868C24.2176 439.922 24.6216 441.956 25.4072 443.854C26.1928 445.752 27.3446 447.476 28.7969 448.929C30.2491 450.381 31.9733 451.533 33.8709 452.319C35.7686 453.105 37.8025 453.51 39.8565 453.509H51.6285C55.7767 453.508 59.7551 451.861 62.6903 448.93C64.1424 447.477 65.294 445.753 66.0793 443.855C66.8645 441.957 67.268 439.922 67.2667 437.868V364.2H62.3379V437.868Z" fill="#FFAD61"/>
<path d="M230.493 364.282V437.95C230.496 439.355 230.221 440.748 229.684 442.048C229.148 443.347 228.36 444.528 227.366 445.522C226.372 446.516 225.191 447.304 223.892 447.841C222.593 448.378 221.2 448.653 219.794 448.651H208.022C206.616 448.653 205.224 448.378 203.925 447.841C202.625 447.304 201.445 446.515 200.451 445.521C199.456 444.527 198.668 443.347 198.131 442.047C197.594 440.748 197.319 439.356 197.321 437.95V363.86H192.384V437.942C192.383 441.035 193.3 444.059 195.018 446.632C196.736 449.204 199.178 451.21 202.036 452.394C203.932 453.179 205.969 453.582 208.022 453.582H219.794C223.941 453.58 227.919 451.934 230.853 449.003C232.306 447.551 233.458 445.826 234.244 443.928C235.03 442.03 235.433 439.996 235.432 437.942V364.282H230.493Z" fill="#FFAD61"/>
<path d="M213.784 342.797C213.517 342.821 213.784 342.797 148.345 342.797L151.885 353.004H223.909C222.886 351.845 223.73 352.742 213.784 342.797Z" fill="#FFAD61"/>
<path d="M119.041 261.885H1.66528L38.7783 352.932C157.126 352.932 151.236 353.036 150.969 352.769L119.041 261.885Z" fill="#FFAD61"/>
<path d="M248.931 352.748C223.774 352.748 225.934 352.852 225.617 352.537C214.058 340.923 214.67 341.28 213.831 341.144H148.416L120.088 260.921C120.001 260.739 119.864 260.586 119.693 260.478C119.523 260.37 119.325 260.313 119.124 260.313H1.0883C0.917132 260.31 0.747749 260.348 0.594424 260.424C0.441098 260.5 0.308323 260.612 0.20729 260.75C0.106257 260.888 0.0399279 261.049 0.0138903 261.218C-0.0121473 261.387 0.0028709 261.56 0.0576792 261.722C0.0576792 261.722 35.8357 350.137 36.9037 352.748H14.7427C14.5656 352.748 14.3959 352.818 14.2707 352.944C14.1455 353.069 14.0752 353.239 14.0752 353.416V363.786C14.0754 363.963 14.1455 364.133 14.2701 364.258C14.3317 364.321 14.4054 364.37 14.4866 364.404C14.5678 364.437 14.6549 364.454 14.7427 364.453H22.5551V437.878C22.5608 442.42 24.3674 446.774 27.5788 449.985C30.7902 453.197 35.1442 455.003 39.6858 455.009H51.4552C55.997 455.004 60.3514 453.198 63.563 449.986C66.7745 446.775 68.581 442.42 68.5859 437.878V364.453H190.728V437.878C190.733 442.42 192.54 446.774 195.751 449.985C198.963 453.197 203.317 455.003 207.858 455.009H219.628C224.17 455.004 228.524 453.198 231.736 449.986C234.947 446.775 236.754 442.42 236.759 437.878V364.453H248.931C249.063 364.455 249.193 364.417 249.303 364.344C249.413 364.27 249.499 364.165 249.548 364.042C249.581 363.961 249.598 363.874 249.599 363.786V353.416C249.597 353.239 249.526 353.07 249.402 352.945C249.277 352.82 249.108 352.749 248.931 352.748ZM229.002 364.453V437.878C229.002 440.321 228.032 442.663 226.305 444.391C224.578 446.118 222.236 447.089 219.793 447.09H208.021C205.579 447.088 203.238 446.116 201.511 444.389C199.784 442.662 198.814 440.32 198.812 437.878V364.453H229.002ZM30.6479 364.453H60.8402V437.878C60.8395 440.321 59.8688 442.664 58.1415 444.391C56.4141 446.118 54.0716 447.089 51.6287 447.09H39.8567C37.4146 447.088 35.0731 446.116 33.3465 444.389C31.6199 442.662 30.6493 440.32 30.6479 437.878V364.453ZM66.5994 437.878C66.5959 441.848 65.0175 445.654 62.2107 448.46C59.4039 451.267 55.5981 452.846 51.6287 452.849H39.8567C35.888 452.843 32.0834 451.264 29.2771 448.458C26.4707 445.652 24.8917 441.847 24.886 437.878V364.453H28.4905V437.878C28.4919 440.893 29.6898 443.783 31.821 445.915C33.9522 448.047 36.8424 449.245 39.8567 449.247H51.6287C54.6431 449.244 57.5331 448.046 59.6646 445.914C61.7961 443.783 62.9948 440.893 62.9976 437.878V364.867H66.6101L66.5994 437.878ZM39.1545 352.438L2.6636 262.636L118.336 262.67L149.866 352.5L39.1545 352.438ZM152.33 352.19L149.271 343.4C149.271 343.4 212.993 343.451 213.527 343.422L222.295 352.19H152.33ZM234.764 437.897C234.761 441.866 233.182 445.672 230.375 448.479C227.569 451.286 223.763 452.864 219.793 452.868H208.021C204.053 452.862 200.248 451.283 197.442 448.477C194.635 445.67 193.056 441.866 193.051 437.897V364.472H196.652V437.897C196.655 440.912 197.853 443.802 199.985 445.934C202.116 448.065 205.007 449.264 208.021 449.266H219.793C222.808 449.263 225.698 448.064 227.829 445.933C229.961 443.801 231.159 440.911 231.162 437.897V364.867H234.764V437.897Z" fill="#3D1D0B"/>
<path d="M72.3511 285.15C70.9761 280.664 67.2514 277.941 63.8685 278.942C60.4856 279.943 58.7955 284.255 60.0397 288.735C60.3748 290.42 61.2424 291.952 62.5144 293.106C63.7864 294.259 65.3956 294.974 67.1046 295.143C70.9947 295.149 73.9077 290.703 72.3511 285.15ZM65.1421 292.441C60.4669 289.795 60.7206 280.934 65.2249 280.934C70.3539 280.934 72.7356 291.47 67.8201 292.85C67.3704 292.964 66.9023 292.987 66.4437 292.916C65.985 292.846 65.5452 292.685 65.1501 292.441H65.1421Z" fill="#3D1D0B"/>
<path d="M88.1094 153.492C88.1094 151.917 88.2721 150.517 88.5977 149.293C88.9232 148.069 89.3594 146.975 89.9062 146.012C90.4661 145.035 91.1172 144.182 91.8594 143.453C92.6146 142.724 93.4219 142.118 94.2812 141.637C95.974 140.673 97.6406 140.191 99.2812 140.191C100.922 140.191 102.237 140.484 103.227 141.07C104.216 141.643 105.023 142.411 105.648 143.375C106.807 145.211 107.387 147.652 107.387 150.699C107.387 151.832 106.911 152.411 105.961 152.438L92.3281 152.73C92.4062 155.556 93.1354 157.646 94.5156 159C95.6875 160.146 97.2044 160.719 99.0664 160.719C101.84 160.719 104.092 160.139 105.824 158.98C105.941 158.98 106.085 159.078 106.254 159.273C106.579 159.664 106.742 160.003 106.742 160.289C106.742 160.914 105.961 161.715 104.398 162.691C102.602 163.811 100.505 164.371 98.1094 164.371C94.9844 164.371 92.5299 163.375 90.7461 161.383C88.9883 159.43 88.1094 156.799 88.1094 153.492ZM92.4453 150.211C96.1953 150.029 99.6263 149.788 102.738 149.488C102.882 145.348 101.449 143.277 98.4414 143.277C96.7617 143.277 95.388 143.928 94.3203 145.23C93.3438 146.428 92.7188 148.089 92.4453 150.211Z" fill="#FF8C4B"/>
<path d="M156.617 92.0977C156.357 92.0326 155.94 92 155.367 92H149.137C147.887 92 147.086 91.7786 146.734 91.3359C146.591 91.1667 146.52 90.9714 146.52 90.75C146.52 90.2031 146.624 89.7995 146.832 89.5391C147.145 89.6432 147.496 89.6953 147.887 89.6953C148.29 89.6953 148.59 89.5326 148.785 89.207C148.993 88.8815 149.091 88.276 149.078 87.3906V74.6172C149.078 73.3932 148.85 72.6315 148.395 72.332C148.212 72.2148 147.971 72.1562 147.672 72.1562C147.372 72.1562 147.132 72.2018 146.949 72.293C146.78 72.3841 146.637 72.4492 146.52 72.4883C146.415 72.5273 146.324 72.5273 146.246 72.4883C146.168 72.4362 146.09 72.3646 146.012 72.2734C145.816 72.0651 145.719 71.8503 145.719 71.6289C145.719 71.3945 145.797 71.1536 145.953 70.9062C146.122 70.6458 146.389 70.3529 146.754 70.0273C147.118 69.6888 147.535 69.3828 148.004 69.1094C149.059 68.4974 150.113 68.1914 151.168 68.1914C152.379 68.1914 153.095 68.9922 153.316 70.5938C153.382 71.0625 153.421 71.5443 153.434 72.0391C155.374 70.4115 157.483 69.2526 159.762 68.5625C160.582 68.3151 161.409 68.1914 162.242 68.1914C163.089 68.1914 163.889 68.3021 164.645 68.5234C165.413 68.7448 166.077 69.1029 166.637 69.5977C167.822 70.6393 168.414 72.2669 168.414 74.4805V87.7227C168.453 88.7383 168.831 89.3633 169.547 89.5977C169.742 89.6628 169.983 89.7214 170.27 89.7734C170.556 89.8255 170.81 89.8906 171.031 89.9688C171.266 90.0339 171.448 90.112 171.578 90.2031C171.799 90.3724 171.91 90.6458 171.91 91.0234C171.91 91.4792 171.806 91.8372 171.598 92.0977C171.337 92.0326 170.921 92 170.348 92H164.117C162.867 92 162.066 91.7786 161.715 91.3359C161.572 91.1667 161.5 90.9714 161.5 90.75C161.5 90.2031 161.604 89.7995 161.812 89.5391C162.125 89.6432 162.411 89.6953 162.672 89.6953C162.945 89.6953 163.173 89.6628 163.355 89.5977C163.538 89.5195 163.681 89.3958 163.785 89.2266C163.967 88.9141 164.059 88.3021 164.059 87.3906V75.8672C164.059 73.6536 163.401 72.4167 162.086 72.1562C161.682 72.0781 161.174 72.0391 160.562 72.0391C159.964 72.0391 159.299 72.1302 158.57 72.3125C157.841 72.4948 157.158 72.7292 156.52 73.0156C155.296 73.5625 154.267 74.2526 153.434 75.0859V87.7227C153.473 88.7383 153.844 89.3633 154.547 89.5977C154.755 89.6628 154.996 89.7214 155.27 89.7734C155.556 89.8255 155.816 89.8906 156.051 89.9688C156.285 90.0339 156.467 90.112 156.598 90.2031C156.819 90.3724 156.93 90.6458 156.93 91.0234C156.93 91.4792 156.826 91.8372 156.617 92.0977Z" fill="white"/>
<path d="M215.629 132.207C215.134 132.702 214.887 133.184 214.887 133.652C214.887 134.121 215.023 134.479 215.297 134.727C215.57 134.961 215.928 135.143 216.371 135.273C217.048 135.456 217.797 135.547 218.617 135.547H220.297C224.542 135.547 227.335 136.562 228.676 138.594C229.171 139.349 229.418 140.267 229.418 141.348C229.418 142.441 229.236 143.398 228.871 144.219C228.507 145.039 228.018 145.762 227.406 146.387C226.794 147.025 226.085 147.572 225.277 148.027C224.47 148.483 223.617 148.854 222.719 149.141C220.961 149.727 219.32 150.02 217.797 150.02C216.273 150.02 214.939 149.896 213.793 149.648C212.66 149.414 211.651 149.043 210.766 148.535C208.852 147.428 207.895 145.84 207.895 143.77C207.895 142.012 208.773 140.436 210.531 139.043C211.065 138.626 211.632 138.255 212.23 137.93C211.527 137.344 211.176 136.556 211.176 135.566C211.176 134.017 211.944 132.715 213.48 131.66C211.228 130.801 209.75 129.264 209.047 127.051C208.826 126.322 208.715 125.508 208.715 124.609C208.715 123.711 208.852 122.865 209.125 122.07C209.411 121.276 209.796 120.566 210.277 119.941C210.772 119.316 211.345 118.77 211.996 118.301C212.647 117.832 213.344 117.441 214.086 117.129C215.544 116.504 217.074 116.191 218.676 116.191C221.319 116.191 223.428 116.855 225.004 118.184C225.173 117.533 225.258 116.862 225.258 116.172C225.258 115.482 225.108 114.922 224.809 114.492C225.316 113.893 226.072 113.594 227.074 113.594C227.647 113.594 228.103 113.75 228.441 114.062C229.092 114.622 229.418 115.182 229.418 115.742C229.418 116.289 229.333 116.771 229.164 117.188C228.995 117.591 228.773 117.975 228.5 118.34C228.018 119.017 227.393 119.629 226.625 120.176C227.146 121.152 227.406 122.285 227.406 123.574C227.406 124.85 227.12 126.042 226.547 127.148C225.987 128.242 225.232 129.173 224.281 129.941C222.328 131.517 219.919 132.305 217.055 132.305C216.664 132.305 216.189 132.272 215.629 132.207ZM214.672 128.047C215.141 128.503 215.674 128.841 216.273 129.062C216.872 129.284 217.51 129.395 218.188 129.395C218.878 129.395 219.522 129.297 220.121 129.102C220.733 128.906 221.26 128.62 221.703 128.242C222.654 127.435 223.129 126.289 223.129 124.805C223.129 123.164 222.706 121.797 221.859 120.703C220.896 119.492 219.542 118.887 217.797 118.887C215.596 118.887 214.171 119.785 213.52 121.582C213.298 122.194 213.188 122.949 213.188 123.848C213.188 124.746 213.318 125.553 213.578 126.27C213.852 126.986 214.216 127.578 214.672 128.047ZM214.691 139.082C212.986 140.241 212.133 141.556 212.133 143.027C212.133 144.303 212.875 145.273 214.359 145.938C215.544 146.484 217.003 146.758 218.734 146.758C220.31 146.758 221.768 146.497 223.109 145.977C224.867 145.286 225.746 144.16 225.746 142.598C225.746 140.501 224.047 139.453 220.648 139.453L218.91 139.473C217.139 139.473 215.733 139.342 214.691 139.082Z" fill="#FFE55D"/>
<path d="M245.527 43C243.535 43 242.539 42.5443 242.539 41.6328C242.539 41.151 242.637 40.7865 242.832 40.5391C243.145 40.6432 243.438 40.6953 243.711 40.6953C244.844 40.6953 245.43 40.0117 245.469 38.6445V14.1914C245.469 13.2799 245.378 12.7005 245.195 12.4531C244.896 12.0365 244.414 11.8281 243.75 11.8281C243.451 11.8281 243.158 11.8607 242.871 11.9258C242.598 11.9779 242.402 11.9779 242.285 11.9258C242.181 11.8607 242.096 11.776 242.031 11.6719C241.771 11.2422 242.096 10.6953 243.008 10.0312C244.44 8.97656 245.853 8.44922 247.246 8.44922C248.73 8.44922 249.564 9.25 249.746 10.8516C249.798 11.3333 249.824 11.8411 249.824 12.375V38.7227C249.863 39.7383 250.234 40.3633 250.938 40.5977C251.146 40.6628 251.387 40.7214 251.66 40.7734C251.947 40.8255 252.207 40.8906 252.441 40.9688C252.676 41.0339 252.858 41.112 252.988 41.2031C253.21 41.3724 253.32 41.6458 253.32 42.0234C253.32 42.4792 253.216 42.8372 253.008 43.0977C252.747 43.0326 252.331 43 251.758 43H245.527Z" fill="#FFAD61"/>
<path d="M352.34 26.5586C352.783 26.5586 353.193 26.4935 353.57 26.3633C353.935 26.2201 354.254 26.0182 354.527 25.7578C355.1 25.2109 355.387 24.4753 355.387 23.5508C355.387 22.6654 355.048 21.9167 354.371 21.3047C353.72 20.6927 352.939 20.3867 352.027 20.3867C351.116 20.3867 350.387 20.6602 349.84 21.207C349.293 21.7539 349.02 22.4961 349.02 23.4336C349.02 24.319 349.345 25.0677 349.996 25.6797C350.634 26.2656 351.415 26.5586 352.34 26.5586ZM353.531 54C355.536 54 356.539 53.5443 356.539 52.6328C356.539 52.1641 356.435 51.7995 356.227 51.5391C355.914 51.6432 355.628 51.6953 355.367 51.6953C354.156 51.6953 353.564 50.9271 353.59 49.3906V36.3047C353.59 35.3932 353.72 34.7617 353.98 34.4102C354.228 34.0456 354.677 33.8633 355.328 33.8633C355.81 33.8633 356.246 33.9219 356.637 34.0391C356.871 34.0651 357.04 33.8828 357.145 33.4922C357.236 33.1406 357.184 32.8346 356.988 32.5742C356.793 32.3008 356.493 32.0208 356.09 31.7344C355.673 31.4349 355.217 31.1745 354.723 30.9531C353.655 30.4453 352.763 30.1914 352.047 30.1914C351.331 30.1914 350.803 30.2956 350.465 30.5039C350.113 30.7122 349.846 30.9922 349.664 31.3438C349.378 31.9167 349.234 32.8411 349.234 34.1172V49.7227C349.195 50.7513 348.824 51.3763 348.121 51.5977C347.926 51.6628 347.685 51.7214 347.398 51.7734C347.112 51.8255 346.858 51.8906 346.637 51.9688C346.402 52.0339 346.22 52.112 346.09 52.2031C345.868 52.3724 345.758 52.6458 345.758 53.0234C345.758 53.4922 345.855 53.8503 346.051 54.0977C346.324 54.0326 346.741 54 347.301 54H353.531Z" fill="white"/>
<path d="M412.508 105.125C412.508 103.12 411.674 101.792 410.008 101.141C409.474 100.932 408.895 100.828 408.27 100.828C407.658 100.828 407.085 100.88 406.551 100.984C406.03 101.089 405.568 101.251 405.164 101.473C404.253 101.967 403.797 102.677 403.797 103.602C403.797 104.487 404.174 105.255 404.93 105.906C405.763 106.596 407.312 107.449 409.578 108.465C411.844 109.467 413.589 110.568 414.812 111.766C416.049 112.951 416.668 114.318 416.668 115.867C416.668 117.612 415.952 119.083 414.52 120.281C412.84 121.674 410.516 122.371 407.547 122.371C403.914 122.371 401.401 121.596 400.008 120.047C399.526 119.5 399.285 118.803 399.285 117.957C399.285 115.913 399.786 114.721 400.789 114.383C401.036 114.305 401.271 114.266 401.492 114.266C402.104 114.266 402.436 114.454 402.488 114.832C402.775 118.087 404.598 119.715 407.957 119.715C409.975 119.715 411.323 119.148 412 118.016C412.221 117.651 412.332 117.208 412.332 116.688C412.332 116.167 412.163 115.691 411.824 115.262C411.499 114.832 411.043 114.435 410.457 114.07C409.871 113.693 409.174 113.328 408.367 112.977L405.77 111.805C401.785 109.982 399.793 107.56 399.793 104.539C399.793 102.586 400.659 101.023 402.391 99.8516C404.031 98.7448 406.147 98.1914 408.738 98.1914C412.254 98.1914 414.441 98.9531 415.301 100.477C415.522 100.867 415.633 101.297 415.633 101.766C415.633 102.234 415.607 102.658 415.555 103.035C415.503 103.4 415.438 103.732 415.359 104.031C415.229 104.604 415.079 105.008 414.91 105.242C414.572 105.49 414.083 105.613 413.445 105.613C412.82 105.613 412.508 105.451 412.508 105.125Z" fill="#FF8C4B"/>
<path d="M458.715 64.0977C458.454 64.0326 458.038 64 457.465 64H451.234C449.984 64 449.184 63.7786 448.832 63.3359C448.689 63.1667 448.617 62.9714 448.617 62.75C448.617 62.2031 448.721 61.7995 448.93 61.5391C449.242 61.6432 449.6 61.6953 450.004 61.6953C450.408 61.6953 450.707 61.5326 450.902 61.207C451.098 60.8815 451.189 60.276 451.176 59.3906V35.1914C451.176 34.293 451.085 33.7135 450.902 33.4531C450.629 33.0365 450.147 32.8281 449.457 32.8281H449.066C448.949 32.8281 448.812 32.8477 448.656 32.8867C448.513 32.9128 448.389 32.8997 448.285 32.8477C448.181 32.7826 448.09 32.6979 448.012 32.5938C447.738 32.1901 448.051 31.6432 448.949 30.9531C450.264 29.9505 451.605 29.4492 452.973 29.4492C454.457 29.4492 455.29 30.25 455.473 31.8516C455.525 32.3333 455.551 32.8411 455.551 33.375V44.0195C457.517 42.3659 459.62 41.2135 461.859 40.5625C462.68 40.3151 463.507 40.1914 464.34 40.1914C465.186 40.1914 465.987 40.3021 466.742 40.5234C467.51 40.7448 468.168 41.1029 468.715 41.5977C469.913 42.6654 470.512 44.293 470.512 46.4805V59.5859C470.512 60.6667 470.876 61.3307 471.605 61.5781C471.814 61.6562 472.061 61.7214 472.348 61.7734C472.634 61.8255 472.888 61.8906 473.109 61.9688C473.344 62.0339 473.526 62.112 473.656 62.2031C473.878 62.3724 473.988 62.6458 473.988 63.0234C473.988 63.4922 473.891 63.8503 473.695 64.0977C473.422 64.0326 473.005 64 472.445 64H466.215C464.965 64 464.164 63.7786 463.812 63.3359C463.669 63.1667 463.598 62.9714 463.598 62.75C463.598 62.1901 463.695 61.7865 463.891 61.5391C464.216 61.6432 464.568 61.6953 464.945 61.6953C465.323 61.6953 465.609 61.5586 465.805 61.2852C466.013 61.0117 466.13 60.5104 466.156 59.7812V47.8672C466.156 45.6536 465.499 44.4167 464.184 44.1562C463.78 44.0781 463.272 44.0391 462.66 44.0391C462.061 44.0391 461.397 44.1302 460.668 44.3125C459.952 44.4948 459.275 44.7292 458.637 45.0156C457.374 45.5885 456.345 46.2721 455.551 47.0664V59.5859C455.551 60.6667 455.915 61.3307 456.645 61.5781C456.853 61.6562 457.1 61.7214 457.387 61.7734C457.673 61.8255 457.927 61.8906 458.148 61.9688C458.383 62.0339 458.565 62.112 458.695 62.2031C458.917 62.3724 459.027 62.6458 459.027 63.0234C459.027 63.4792 458.923 63.8372 458.715 64.0977Z" fill="#FFE55D"/>
</svg>
