<svg width="48" height="48" viewBox="0 0 48 48" fill="none" xmlns="http://www.w3.org/2000/svg">
<circle cx="24" cy="24" r="24" fill="white"/>
<path d="M31 16H17C16.2044 16 15.4413 16.3161 14.8787 16.8787C14.3161 17.4413 14 18.2044 14 19V29C14 29.7956 14.3161 30.5587 14.8787 31.1213C15.4413 31.6839 16.2044 32 17 32H31C31.7956 32 32.5587 31.6839 33.1213 31.1213C33.6839 30.5587 34 29.7956 34 29V19C34 18.2044 33.6839 17.4413 33.1213 16.8787C32.5587 16.3161 31.7956 16 31 16ZM30.59 18L24.71 23.88C24.617 23.9737 24.5064 24.0481 24.3846 24.0989C24.2627 24.1497 24.132 24.1758 24 24.1758C23.868 24.1758 23.7373 24.1497 23.6154 24.0989C23.4936 24.0481 23.383 23.9737 23.29 23.88L17.41 18H30.59ZM32 29C32 29.2652 31.8946 29.5196 31.7071 29.7071C31.5196 29.8946 31.2652 30 31 30H17C16.7348 30 16.4804 29.8946 16.2929 29.7071C16.1054 29.5196 16 29.2652 16 29V19.41L21.88 25.29C22.4425 25.8518 23.205 26.1674 24 26.1674C24.795 26.1674 25.5575 25.8518 26.12 25.29L32 19.41V29Z" fill="#748AFF"/>
</svg>
