<svg width="155" height="154" viewBox="0 0 155 154" fill="none" xmlns="http://www.w3.org/2000/svg">
<path d="M40.6554 133.473L46.2518 106.281C46.2518 106.281 46.6198 104.493 48.4078 104.861L111.298 117.805C111.298 117.805 113.085 118.173 112.717 119.961L107.121 147.153C107.121 147.153 106.753 148.941 104.965 148.573L42.0753 135.629C42.0753 135.629 40.2873 135.261 40.6554 133.473Z" fill="#FF8C4B"/>
<path d="M111.374 117.425L48.4857 104.482C48.2013 104.423 47.9082 104.421 47.623 104.475C47.3378 104.53 47.0662 104.64 46.8237 104.8C46.5812 104.96 46.3726 105.166 46.2097 105.406C46.0469 105.646 45.933 105.916 45.8746 106.201L40.2783 133.395C39.9603 134.935 41.5595 137.274 42.8016 137.547L105.688 150.491C106.263 150.605 106.86 150.488 107.349 150.165C107.838 149.841 108.179 149.339 108.3 148.765L113.902 121.584C114.205 120.08 113.002 117.762 111.374 117.425ZM46.6285 106.359C46.7056 105.984 46.9282 105.656 47.2475 105.446C47.5668 105.235 47.9565 105.161 48.3309 105.238L111.219 118.181C111.593 118.258 111.922 118.481 112.132 118.8C112.342 119.119 112.417 119.509 112.34 119.883L106.743 147.075C106.665 147.449 106.443 147.777 106.124 147.987C105.805 148.197 105.416 148.272 105.041 148.196L42.1532 135.252C41.7791 135.175 41.4509 134.952 41.2407 134.633C41.0305 134.314 40.9555 133.925 41.0321 133.551L46.6285 106.359Z" fill="#3D1D0B"/>
<path d="M104.48 119.946L99.5438 143.893C99.5023 144.099 99.4206 144.295 99.3035 144.469C99.1864 144.643 99.0361 144.792 98.8613 144.908C98.6865 145.024 98.4905 145.105 98.2846 145.145C98.0787 145.185 97.8668 145.185 97.6612 145.143L44.1731 134.057C43.7577 133.973 43.3926 133.728 43.1581 133.375C42.9236 133.022 42.8389 132.59 42.9226 132.175L47.8506 108.207C47.9376 107.79 48.1868 107.424 48.5433 107.19C48.8998 106.957 49.3344 106.874 49.7518 106.961L103.221 118.07C103.635 118.156 103.998 118.401 104.233 118.752C104.468 119.102 104.557 119.531 104.48 119.946Z" fill="white"/>
<path d="M97.9787 145.561C97.663 145.561 101.488 146.177 44.0948 134.437C43.5803 134.331 43.1285 134.026 42.8382 133.589C42.5479 133.151 42.4427 132.616 42.5456 132.101L47.4736 108.132C47.5817 107.615 47.8905 107.162 48.3322 106.872C48.7739 106.583 49.3125 106.48 49.8298 106.587L103.3 117.695C103.812 117.801 104.262 118.103 104.553 118.537C104.844 118.971 104.953 119.502 104.856 120.015L99.9183 143.972C99.8271 144.419 99.5844 144.822 99.2311 145.111C98.8777 145.401 98.4354 145.56 97.9787 145.561ZM49.4279 107.315C49.1469 107.315 48.8747 107.412 48.6567 107.59C48.4387 107.767 48.2882 108.013 48.2305 108.288L43.3025 132.235C43.2691 132.393 43.2672 132.555 43.2967 132.713C43.3262 132.871 43.3866 133.021 43.4745 133.156C43.5623 133.29 43.6759 133.406 43.8086 133.497C43.9414 133.587 44.0907 133.65 44.2481 133.683L97.7199 144.76C97.877 144.794 98.0392 144.796 98.197 144.766C98.3549 144.737 98.5054 144.677 98.6399 144.589C98.7744 144.501 98.8901 144.387 98.9806 144.255C99.071 144.122 99.1343 143.973 99.1668 143.815L104.102 119.868C104.161 119.553 104.093 119.228 103.914 118.962C103.735 118.696 103.459 118.51 103.145 118.445C45.7765 106.418 49.6234 107.315 49.4279 107.315Z" fill="#3D1D0B"/>
<path d="M103.95 133.474C102.515 131.71 104.149 129.358 106.547 129.792C108.946 130.227 109.645 133.006 107.685 134.152C107.08 134.488 106.377 134.604 105.696 134.48C105.016 134.357 104.398 134.001 103.95 133.474ZM104.208 131.789C104.062 132.169 104.037 132.585 104.136 132.98C104.235 133.375 104.454 133.73 104.762 133.996C105.071 134.262 105.454 134.427 105.859 134.468C106.264 134.508 106.672 134.423 107.027 134.223C107.382 134.023 107.667 133.719 107.842 133.352C108.018 132.984 108.076 132.572 108.009 132.17C107.941 131.768 107.751 131.397 107.465 131.107C107.179 130.817 106.811 130.623 106.41 130.55C105.954 130.429 105.468 130.49 105.057 130.722C104.645 130.953 104.34 131.336 104.207 131.789H104.208Z" fill="#3D1D0B"/>
<path d="M45.1725 64.0235C44.8449 63.3643 44.2833 62.8509 43.5974 62.5837C42.9115 62.3164 42.1506 62.3145 41.4634 62.5782C40.824 62.875 40.2635 63.3182 39.8271 63.8718C39.7417 62.2548 38.7622 60.4568 36.9781 60.2097C35.9679 60.0372 34.8776 60.6501 34.99 61.7027C35.144 62.6483 36.52 63.081 36.664 65.0037C36.741 65.8784 35.817 66.7123 35.171 67.1597C34.3871 67.6895 33.5396 68.1184 32.6484 68.4363L33.7518 73.3343C35.4017 72.5035 37.1637 71.9173 38.9825 71.5941C40.4093 71.3084 41.9308 71.4517 43.2621 70.9096C45.8686 69.7754 46.6039 66.6484 45.1725 64.0235Z" fill="white"/>
<path d="M45.5145 63.8477C45.2708 63.3905 44.9355 62.9884 44.5296 62.6665C44.0599 62.3531 43.525 62.1508 42.9655 62.0749C42.406 61.999 41.8365 62.0515 41.3003 62.2284C40.8621 62.4332 40.4563 62.7012 40.096 63.0238C39.9723 62.243 39.613 61.5186 39.0663 60.9477C38.5196 60.3767 37.8115 59.9864 37.0368 59.8291C35.7509 59.6119 34.4611 60.4374 34.6043 61.7641C34.7976 62.9445 36.1351 63.1793 36.2745 65.0358C36.2616 65.4315 36.0931 65.8062 35.8055 66.0784C35.7883 66.0214 35.7586 65.969 35.7187 65.925C35.6787 65.8809 35.6295 65.8462 35.5745 65.8235C35.5264 65.8045 35.4749 65.7954 35.4232 65.7967C35.3715 65.798 35.3206 65.8098 35.2735 65.8312C33.6257 66.5843 32.5969 67.0632 31.157 67.7562C30.7058 68.0234 30.8121 68.4661 33.6411 74.3128C33.6833 74.4003 33.7571 74.4687 33.8476 74.5041C33.9382 74.5396 34.0388 74.5394 34.1292 74.5037C35.506 73.9593 36.7865 73.3102 38.1671 72.7843C38.2147 72.7662 38.2583 72.7387 38.2952 72.7036C38.3322 72.6685 38.3618 72.6265 38.3823 72.5798C38.4029 72.5332 38.414 72.483 38.415 72.432C38.416 72.3811 38.4068 72.3304 38.3881 72.283L38.3273 72.129C38.5706 72.0759 38.8108 72.0158 39.0565 71.975C40.4648 71.6932 42.0002 71.8418 43.4139 71.2659C46.1998 70.0531 47.0668 66.6921 45.5145 63.8477ZM45.3866 67.8371C45.2432 68.4348 44.9635 68.9912 44.5693 69.4629C44.1751 69.9346 43.6771 70.3086 43.1144 70.5559C42.3093 70.833 41.4668 70.9865 40.6157 71.011C39.7448 71.0607 38.8805 71.1932 38.0347 71.4068C37.4641 70.0069 36.1551 66.91 36.1328 66.8568C36.4158 66.6319 36.6446 66.3461 36.8023 66.0208C36.9599 65.6954 37.0425 65.3388 37.0437 64.9773C36.8943 62.9976 35.4829 62.35 35.3682 61.6663C35.2842 60.8786 36.1513 60.4635 36.9205 60.5952C39.4107 60.9394 39.4084 64.121 39.5 64.2335C39.9365 64.7627 40.1795 65.425 40.1887 66.111C40.198 66.797 39.9729 67.4656 39.5508 68.0065C39.4883 68.0872 39.4605 68.1895 39.4734 68.2908C39.4863 68.3921 39.539 68.4841 39.6197 68.5466C39.7005 68.6091 39.8028 68.6369 39.9041 68.624C40.0054 68.6111 40.0974 68.5585 40.1599 68.4777C40.6573 67.837 40.935 67.053 40.9518 66.242C40.9686 65.4311 40.7235 64.6363 40.2531 63.9755C40.6198 63.5446 41.0714 63.1939 41.5798 62.9452C41.9959 62.8126 42.4365 62.7747 42.8692 62.8342C43.3019 62.8938 43.7159 63.0493 44.0807 63.2894C44.6685 63.8729 45.0971 64.5972 45.3257 65.3932C45.5543 66.1893 45.5753 67.0306 45.3866 67.8371Z" fill="#3D1D0B"/>
<path d="M130.824 34.303C129.124 33.8795 127.424 35.6435 127.58 37.537H127.324C127.016 36.1202 126.42 34.4277 124.994 34.199C123.568 33.9703 122.398 35.6351 122.597 37.0519C122.934 38.478 123.802 39.7224 125.022 40.533C126.232 41.3367 127.297 42.3402 128.17 43.5006L130.9 39.4196C131.524 38.6313 131.951 37.7052 132.146 36.7184C132.232 36.2255 132.148 35.7179 131.908 35.2789C131.668 34.8399 131.285 34.4957 130.824 34.303Z" fill="white"/>
<path d="M130.917 33.9295C129.389 33.5484 127.837 34.6995 127.355 36.2064C126.846 34.7681 126.087 33.9834 125.055 33.8194C123.369 33.5484 121.975 35.4179 122.223 37.1412C122.581 38.6634 123.506 39.9918 124.81 40.8549C125.984 41.6339 127.017 42.6073 127.864 43.7332C127.901 43.7821 127.949 43.8215 128.004 43.848C128.059 43.8746 128.12 43.8875 128.182 43.8858C128.243 43.8841 128.303 43.8677 128.357 43.8381C128.41 43.8084 128.456 43.7664 128.49 43.7154L131.208 39.6552C131.87 38.816 132.323 37.8309 132.529 36.7816C132.63 36.1933 132.525 35.5881 132.231 35.0684C131.938 34.5487 131.474 34.1464 130.917 33.9295ZM131.769 36.6407C131.583 37.5781 131.175 38.4575 130.58 39.2056L128.146 42.8446C127.313 41.8265 126.332 40.9391 125.236 40.2119C124.104 39.4644 123.297 38.3157 122.979 36.9972C122.825 35.9 123.672 34.5617 124.731 34.5617C126.074 34.5617 126.665 36.2996 126.948 37.6171C127.046 38.0706 128.01 38.0513 127.965 37.5046C127.816 35.6982 129.459 34.3715 130.673 34.6556C131.054 34.8128 131.37 35.0951 131.57 35.4559C131.769 35.8167 131.839 36.2346 131.769 36.6407Z" fill="#3D1D0B"/>
<path d="M37.6587 89.9401C36.8217 88.7227 34.9105 88.2284 33.9681 89.3318C33.0256 90.4352 33.6932 92.0992 34.3777 93.3735L34.1683 93.5637C32.9363 91.8581 30.4915 91.9513 29.6037 93.221C29.3782 93.669 29.3128 94.1806 29.4183 94.6708C29.5238 95.1611 29.7938 95.6005 30.1835 95.916C30.9753 96.533 31.9003 96.9565 32.8847 97.1527L37.6402 98.4617C37.5454 97.0132 37.6996 95.5592 38.096 94.1628C38.4891 92.7505 38.3328 91.2418 37.6587 89.9401Z" fill="white"/>
<path d="M37.9758 89.722C37.0017 88.3052 34.7926 87.7731 33.6761 89.0813C32.8514 90.0461 33.0601 91.3089 33.5013 92.4224C32.8452 91.9733 32.0439 91.7883 31.2574 91.9044C30.4708 92.0204 29.757 92.429 29.2586 93.0484C28.9976 93.5763 28.9235 94.1772 29.0485 94.7527C29.1736 95.3282 29.4904 95.8442 29.947 96.2162C30.7784 96.8638 31.7486 97.31 32.7814 97.5198L37.5369 98.8326C37.5961 98.849 37.6584 98.8509 37.7186 98.8383C37.7787 98.8256 37.8349 98.7988 37.8826 98.76C37.9302 98.7211 37.9679 98.6715 37.9924 98.6151C38.0169 98.5588 38.0276 98.4974 38.0235 98.4361C37.9313 97.0308 38.0813 95.6202 38.467 94.2657C38.89 92.744 38.7142 91.1181 37.9758 89.722ZM37.7255 94.0571C37.366 95.3223 37.1994 96.6345 37.2312 97.9494L32.9592 96.7713C32.0369 96.5874 31.1697 96.192 30.4259 95.6163C30.1121 95.3622 29.8919 95.0108 29.8 94.6176C29.7081 94.2244 29.7498 93.8118 29.9185 93.4449C30.6592 92.3877 32.7837 92.3084 33.8563 93.7922C34.1766 94.2365 34.9412 93.612 34.7164 93.1939C33.7847 91.4591 33.6384 90.3126 34.2613 89.5841C35.0313 88.6871 36.6483 89.1576 37.3167 90.1231C37.9456 91.3355 38.0917 92.7413 37.7255 94.0571Z" fill="#3D1D0B"/>
<path d="M52.7338 136.004C52.6772 136.004 52.6213 135.992 52.57 135.968C52.5188 135.944 52.4735 135.909 52.4373 135.866C52.4011 135.822 52.375 135.771 52.3608 135.716C52.3465 135.661 52.3445 135.604 52.355 135.549L57.5571 107.882C57.5664 107.832 57.5855 107.785 57.6131 107.742C57.6408 107.7 57.6765 107.663 57.7183 107.635C57.7601 107.606 57.807 107.586 57.8565 107.576C57.906 107.566 57.9571 107.565 58.0068 107.574C58.0565 107.584 58.1038 107.603 58.1462 107.631C58.1885 107.658 58.225 107.694 58.2535 107.736C58.282 107.777 58.3021 107.824 58.3124 107.874C58.3228 107.923 58.3233 107.974 58.314 108.024L53.1111 135.69C53.0946 135.778 53.0479 135.858 52.979 135.915C52.9102 135.973 52.8234 136.004 52.7338 136.004Z" fill="white"/>
<path d="M62.3199 137.926C62.2628 137.926 62.2063 137.913 62.1546 137.889C62.1029 137.864 62.0573 137.829 62.0211 137.784C61.9849 137.74 61.959 137.688 61.9453 137.633C61.9316 137.577 61.9304 137.52 61.9419 137.464L67.144 110.891C67.1525 110.84 67.171 110.792 67.1986 110.748C67.2261 110.705 67.2621 110.667 67.3044 110.638C67.3467 110.609 67.3945 110.588 67.4448 110.577C67.4952 110.567 67.5472 110.567 67.5977 110.576C67.6482 110.586 67.6962 110.606 67.7389 110.635C67.7815 110.664 67.818 110.701 67.8461 110.744C67.8743 110.787 67.8935 110.835 67.9026 110.886C67.9117 110.937 67.9106 110.989 67.8994 111.039L62.6972 137.611C62.6807 137.7 62.634 137.779 62.5652 137.836C62.4963 137.894 62.4096 137.925 62.3199 137.926Z" fill="white"/>
<path d="M71.3554 140.113C71.2987 140.113 71.2426 140.101 71.1912 140.077C71.1398 140.053 71.0944 140.017 71.0582 139.974C71.022 139.93 70.9959 139.879 70.9818 139.824C70.9677 139.769 70.9659 139.711 70.9766 139.656L76.1887 112.541C76.1974 112.491 76.2161 112.442 76.2436 112.399C76.2711 112.356 76.307 112.319 76.349 112.29C76.3911 112.261 76.4385 112.24 76.4886 112.23C76.5386 112.219 76.5903 112.219 76.6405 112.228C76.6907 112.238 76.7386 112.257 76.7812 112.286C76.8238 112.314 76.8603 112.351 76.8886 112.393C76.917 112.436 76.9365 112.484 76.9462 112.534C76.9558 112.584 76.9554 112.636 76.9449 112.686L71.7327 139.801C71.7158 139.889 71.6688 139.968 71.6 140.025C71.5312 140.082 71.4447 140.113 71.3554 140.113Z" fill="white"/>
<path d="M80.1238 141.483C80.0668 141.483 80.0104 141.47 79.9588 141.446C79.9072 141.421 79.8617 141.386 79.8256 141.342C79.7895 141.297 79.7636 141.246 79.75 141.19C79.7363 141.135 79.7351 141.077 79.7465 141.021L85.2243 114.448C85.2344 114.399 85.2542 114.352 85.2825 114.31C85.3108 114.268 85.3471 114.232 85.3893 114.204C85.4315 114.176 85.4787 114.157 85.5284 114.147C85.578 114.138 85.6291 114.138 85.6786 114.148C85.7282 114.158 85.7752 114.178 85.8172 114.206C85.8591 114.235 85.895 114.271 85.9229 114.313C85.9508 114.355 85.9701 114.402 85.9797 114.452C85.9893 114.502 85.989 114.553 85.9789 114.602L80.5004 141.175C80.4827 141.262 80.4355 141.34 80.3669 141.396C80.2983 141.452 80.2125 141.483 80.1238 141.483Z" fill="white"/>
<path d="M88.8929 143.67C88.8346 143.67 88.7771 143.657 88.7246 143.631C88.6722 143.606 88.6262 143.569 88.5902 143.523C88.5541 143.477 88.529 143.424 88.5166 143.367C88.5042 143.31 88.5049 143.251 88.5187 143.194L95.0906 116.355C95.1174 116.259 95.1806 116.176 95.2669 116.126C95.3532 116.075 95.4557 116.06 95.5529 116.084C95.65 116.108 95.7342 116.168 95.7874 116.253C95.8407 116.338 95.8589 116.44 95.8383 116.537L89.2664 143.374C89.2463 143.458 89.1986 143.533 89.1308 143.587C89.0631 143.64 88.9793 143.67 88.8929 143.67Z" fill="white"/>
<path d="M97.9787 145.561C97.663 145.561 101.488 146.177 44.0948 134.437C43.5803 134.331 43.1285 134.026 42.8382 133.589C42.5479 133.151 42.4427 132.616 42.5456 132.101L47.4736 108.132C47.5817 107.615 47.8905 107.162 48.3322 106.872C48.7739 106.583 49.3125 106.48 49.8298 106.587L103.3 117.695C103.812 117.801 104.262 118.103 104.553 118.537C104.844 118.971 104.953 119.502 104.856 120.015L99.9183 143.972C99.8271 144.419 99.5844 144.822 99.2311 145.111C98.8777 145.401 98.4354 145.56 97.9787 145.561ZM49.4279 107.315C49.1469 107.315 48.8747 107.412 48.6567 107.59C48.4387 107.767 48.2882 108.013 48.2305 108.288L43.3025 132.235C43.2691 132.393 43.2672 132.555 43.2967 132.713C43.3262 132.871 43.3866 133.021 43.4745 133.156C43.5623 133.29 43.6759 133.406 43.8086 133.497C43.9414 133.587 44.0907 133.65 44.2481 133.683L97.7199 144.76C97.877 144.794 98.0392 144.796 98.197 144.766C98.3549 144.737 98.5054 144.677 98.6399 144.589C98.7744 144.501 98.8901 144.387 98.9806 144.255C99.071 144.122 99.1343 143.973 99.1668 143.815L104.102 119.868C104.161 119.553 104.093 119.228 103.914 118.962C103.735 118.696 103.459 118.51 103.145 118.445C45.7765 106.418 49.6234 107.315 49.4279 107.315Z" fill="#3D1D0B"/>
<path d="M58.6577 56.643C57.8233 56.1932 56.9662 55.7868 56.0897 55.4256C50.0111 52.7455 45.156 47.8871 42.48 41.8066C34.8262 24.708 47.7237 8.45794 64.6968 4.98139C73.0046 3.19725 81.627 3.52313 89.7765 5.92926C98.6099 8.63042 107.095 15.2216 110.843 23.8379C115.54 34.6418 109.956 48.7697 99.6201 54.0442C92.9673 57.4384 85.3559 58.143 77.9739 58.799C72.9058 59.2495 66.9028 57.3953 64.8685 62.927C62.5687 69.1419 60.8401 75.5535 59.7041 82.0823C57.6051 94.2798 56.6703 110.129 61.1309 121.96C54.7399 105.003 57.0499 86.1548 60.1792 68.3008C60.7806 64.8751 62.3391 58.7158 58.6577 56.643Z" fill="#FF8C4B"/>
<path d="M59.0483 37.6217C64.3359 38.193 68.9621 41.5063 72.6288 45.364C72.8745 45.622 76.5358 42.8022 76.8993 42.5104C77.5923 41.9537 78.2637 41.3793 78.8966 40.7702C79.7059 39.9909 79.6766 39.7692 78.7349 39.1054C77.4032 38.0132 75.8379 37.2421 74.1604 36.8517C73.4373 36.7377 72.7051 36.7747 71.9828 36.633C71.2605 36.4913 70.5198 36.1394 69.7852 35.9484C68.2292 35.5648 66.6112 35.5032 65.0305 35.7675C62.925 35.9086 60.8793 36.5271 59.0483 37.5762V37.6217Z" fill="white"/>
<path d="M61.2669 122.322C61.1715 122.358 61.0656 122.355 60.9726 122.313C60.8796 122.271 60.8071 122.194 60.7711 122.098C54.3092 105.136 56.5299 85.953 59.8016 68.2337C60.4007 64.6271 61.7905 58.9368 58.4688 56.9787C57.6482 56.5368 56.8055 56.1374 55.9439 55.7821C49.8081 53.0154 44.895 48.1015 42.1294 41.9652C34.5995 25.0214 46.8541 8.07211 64.6234 4.60403C72.9929 2.81614 81.6764 3.14591 89.8863 5.56345C99.4936 8.60264 107.656 15.5473 111.196 23.6877C115.908 34.5216 110.58 48.8667 99.7962 54.3899C93.0764 57.8072 85.4249 58.5071 78.0244 59.1839C72.9671 59.6205 67.1482 57.821 65.2301 63.0624C62.9413 69.2566 61.2187 75.6455 60.0834 82.1507C58.5119 91.4023 56.603 108.863 61.491 121.827C61.527 121.922 61.5236 122.028 61.4816 122.121C61.4396 122.214 61.3624 122.286 61.2669 122.322ZM64.7781 5.3594C55.4026 7.18815 47.3877 12.9362 43.3321 20.7248C36.3613 34.1166 43.6501 49.3842 56.2488 55.0752C57.1377 55.4418 58.0069 55.8543 58.853 56.3111C62.6144 58.521 61.23 64.3329 60.5601 68.3662C58.4264 79.9162 56.7686 91.8966 57.6179 103.507C57.3886 89.628 59.7244 75.8263 64.5079 62.796C66.6369 56.9787 72.9371 58.8498 77.9413 58.4186C85.2817 57.7502 92.8623 57.0572 99.4458 53.7039C109.886 48.3585 115.048 34.4754 110.49 23.9949C107.036 16.0524 99.0547 9.27177 89.6607 6.29957C81.5741 3.92014 73.0215 3.59646 64.7781 5.35786V5.3594Z" fill="#3D1D0B"/>
<path d="M70.5276 32.8789C70.6484 33.9191 69.7121 34.9286 69.8346 35.8364C70.0455 36.417 71.4516 37.706 72.5357 37.3764C73.3827 37.12 73.6006 35.9974 73.7053 35.2204C73.1133 35.0566 72.5442 34.8191 72.0113 34.5136C71.3637 34.1302 70.8466 33.5605 70.5276 32.8789Z" fill="white"/>
<path d="M73.9323 35.4917C73.9155 35.6714 73.8836 35.8494 73.8368 36.0238C73.6874 36.5766 73.5989 37.7455 72.7588 37.6793C72.4098 37.6023 72.0957 37.413 71.8648 37.1403C71.4152 36.6046 71.0769 35.9847 70.8696 35.3167C70.6623 34.6488 70.5902 33.9463 70.6575 33.2502L73.9323 35.4917Z" fill="#FFE55D"/>
<path d="M88.6265 35.6434C88.6891 35.5816 88.767 35.5376 88.8523 35.5159C88.9376 35.4943 89.0271 35.4957 89.1116 35.5202C89.6152 35.7582 89.244 36.6136 89.1116 36.937C89.0069 37.1216 88.9291 37.3203 88.8806 37.5269C90.8826 35.2869 94.5632 36.2387 93.5221 36.9563C92.8684 37.4067 92.0099 37.3367 91.3153 37.6886C91.9219 37.4612 92.5734 37.3797 93.2172 37.4506C93.5542 37.4955 93.8661 37.6532 94.1019 37.898C94.2652 38.0443 94.179 38.1991 93.9687 38.2784C93.1679 38.5764 92.3333 38.3354 91.544 38.7065C91.9231 38.5992 92.32 38.57 92.7107 38.6205C93.1014 38.6711 93.4778 38.8004 93.8171 39.0006C93.8981 39.0467 93.9666 39.112 94.0165 39.1908C94.0501 39.2796 94.0493 39.3777 94.0141 39.4658C93.9788 39.5539 93.9118 39.6256 93.8263 39.6667C93.2395 39.9424 92.9847 39.5589 91.6764 39.7714C92.1844 39.7893 92.6683 39.9922 93.037 40.342C93.4552 40.6746 93.037 40.9218 92.6852 40.9218C92.3333 40.9218 91.7342 40.7509 91.2106 40.7793C90.687 40.8078 90.4352 41.5285 89.927 41.8065C89.5577 42.0046 89.1385 42.0902 88.7211 42.053C88.3036 42.0158 87.9062 41.8573 87.5777 41.5971C85.8961 39.9993 86.9895 36.8608 88.6265 35.6434Z" fill="white"/>
<path d="M94.571 38.0073C94.5526 37.8623 94.4845 37.7282 94.3785 37.6277C94.2128 37.4601 94.0179 37.3241 93.8033 37.2265C94.3423 36.7914 94.0551 36.1077 93.2643 35.8875C92.0549 35.5937 90.7789 35.7727 89.6969 36.388C89.9503 35.166 88.9354 34.8326 88.3772 35.3492C87.2781 36.2554 86.5682 37.5484 86.3936 38.9621C84.4987 39.3833 83.4676 40.4713 82.3196 42.0305C80.1192 39.4305 77.2475 37.4841 74.0174 36.4034L74.1799 35.8243C75.4025 36.1543 76.6985 36.0866 77.8801 35.6308C79.0617 35.1751 80.0675 34.3551 80.7518 33.2895C81.0023 33.2034 81.2318 33.0654 81.4251 32.8844C81.6185 32.7033 81.7714 32.4835 81.8737 32.2392C81.8975 32.2894 81.9325 32.3336 81.9759 32.3684C82.0193 32.4031 82.07 32.4275 82.1242 32.4398C82.1785 32.452 82.2348 32.4517 82.2889 32.439C82.343 32.4263 82.3935 32.4014 82.4366 32.3663C82.9656 32.0583 83.105 32.2246 83.7009 31.8049C84.2313 31.1662 84.5623 30.3857 84.6527 29.5604C85.1965 27.6059 85.5156 25.5958 85.6036 23.569C85.6828 21.2748 85.1343 19.0026 84.0174 16.9971C84.4788 16.9185 84.9513 16.9336 85.4067 17.0414C85.8622 17.1492 86.2913 17.3476 86.6685 17.6246C86.7453 17.5394 86.7945 17.4331 86.8097 17.3194C86.825 17.2058 86.8056 17.0902 86.754 16.9878C86.6347 16.792 86.4722 16.6261 86.2789 16.5027C85.8553 16.2218 85.3898 16.0097 84.8998 15.8744C85.2594 15.8142 85.6275 15.827 85.982 15.912C86.3365 15.9971 86.6703 16.1527 86.9634 16.3695C87.014 16.143 86.98 15.9059 86.868 15.7027C86.756 15.4995 86.5736 15.3443 86.3551 15.2661C85.9153 15.114 85.4443 15.0748 84.9853 15.1521C85.4208 14.8512 85.9398 14.6947 86.4691 14.7048L85.8885 14.068C85.8397 13.9937 85.769 13.9365 85.6863 13.9041C85.6035 13.8717 85.5128 13.8657 85.4265 13.887C84.4054 14.0739 83.4493 14.5199 82.6499 15.1822C79.3997 11.8904 72.5467 10.7162 67.8659 14.4992C67.0829 13.7415 66.1383 13.1713 65.1031 12.8314C65.0034 12.784 64.8931 12.7636 64.783 12.7719C64.673 12.7803 64.567 12.8172 64.4756 12.8791C64.1267 13.1012 63.8072 13.3663 63.5246 13.6683C64.1115 13.4974 64.7349 13.4974 65.3218 13.6683C64.8484 13.6554 64.3774 13.7408 63.9387 13.9192C63.5 14.0976 63.1031 14.3651 62.7731 14.7048C62.7546 14.8022 62.7546 14.9022 62.7731 14.9997C62.7777 15.3784 62.8062 15.7565 62.8586 16.1316C63.5228 15.3659 64.4169 14.8357 65.4073 14.6201C64.9952 14.7578 64.6212 14.9905 64.3156 15.2993C64.01 15.6081 63.7812 15.9845 63.6478 16.398L64.1714 16.5404C64.2984 16.2838 64.4966 16.0692 64.7425 15.9223C64.9883 15.7755 65.2713 15.7027 65.5574 15.7127C65.8481 15.7413 66.13 15.8285 66.386 15.9691C65.8039 16.662 65.3123 17.426 64.923 18.2429C63.6264 20.894 63.0089 23.8257 63.1258 26.7745C63.2039 27.2036 63.3792 27.6092 63.6385 27.9599C63.8977 28.3107 64.2338 28.5974 64.6211 28.7981C64.6625 28.8238 64.7091 28.8397 64.7576 28.8446C64.806 28.8495 64.8549 28.8433 64.9006 28.8263C64.9462 28.8094 64.9874 28.7822 65.0209 28.7469C65.0544 28.7115 65.0794 28.669 65.0939 28.6225C65.1494 28.8697 65.2643 29.0997 65.4288 29.2924C65.7841 29.5656 66.1665 29.8014 66.57 29.9962C67.2946 30.3542 68.0545 30.73 68.8476 31.0742C69.2194 31.8362 69.6792 32.552 70.2175 33.2071C70.194 33.2375 70.1763 33.272 70.1651 33.3087C69.9942 33.9178 69.6184 35.2653 69.5992 35.33C62.7962 34.9696 58.5112 36.8099 55.2148 39.7644C55.1566 39.8164 55.1155 39.8849 55.0971 39.9607C55.0786 40.0366 55.0837 40.1163 55.1116 40.1892C55.1395 40.2621 55.1889 40.3248 55.2533 40.369C55.3176 40.4132 55.3939 40.4368 55.472 40.4366C55.857 41.8118 57.3 42.5518 58.6921 42.7066C61.4674 43.0957 64.2867 42.412 66.5754 40.7947C68.697 42.1566 70.6375 43.7819 72.3504 45.6318C72.4082 45.6937 72.4848 45.7347 72.5683 45.7487C72.6518 45.7626 72.7376 45.7486 72.8124 45.7088C74.1649 44.967 75.4577 44.1213 76.6793 43.1794C77.8119 43.9786 79.0623 44.5961 80.3853 45.0097L80.1959 45.3076C80.1676 45.3503 80.1482 45.3982 80.1386 45.4485C80.1291 45.4988 80.1297 45.5504 80.1403 45.6005C80.151 45.6506 80.1716 45.698 80.2008 45.74C80.23 45.782 80.2673 45.8178 80.3105 45.8452C80.3537 45.8727 80.4019 45.8912 80.4524 45.8998C80.5028 45.9084 80.5545 45.9068 80.6044 45.8952C80.6542 45.8835 80.7012 45.8621 80.7427 45.8321C80.7841 45.8021 80.8192 45.7641 80.8458 45.7204C81.4033 45.0189 82.5544 42.7482 84.0551 41.1258C84.6851 40.4623 85.4891 39.9895 86.3752 39.7613C86.4082 40.5746 86.7542 41.3437 87.3407 41.9081C87.7307 42.2121 88.2004 42.3967 88.693 42.4394C89.1856 42.4822 89.6801 42.3814 90.1166 42.1491C90.313 42.0286 90.4883 41.8767 90.6356 41.6994C90.878 42.1777 91.0211 42.7001 91.0562 43.2351C91.0913 43.7701 91.0176 44.3067 90.8396 44.8125C90.4187 45.9761 89.7975 47.0571 89.0039 48.0065C88.9698 48.045 88.9437 48.09 88.9273 48.1388C88.9108 48.1876 88.9043 48.2392 88.9082 48.2906C88.912 48.3419 88.9262 48.392 88.9497 48.4378C88.9732 48.4836 89.0057 48.5242 89.0452 48.5572C89.0847 48.5902 89.1305 48.615 89.1797 48.63C89.229 48.6451 89.2807 48.6501 89.332 48.6447C89.3832 48.6394 89.4328 48.6238 89.4779 48.599C89.523 48.5742 89.5627 48.5405 89.5945 48.5001C90.4468 47.4813 91.1134 46.3207 91.5642 45.0713C91.7891 44.4351 91.8756 43.7582 91.818 43.0859C91.7603 42.4136 91.5599 41.7614 91.23 41.1727C91.7174 41.145 92.2803 41.3152 92.6853 41.3152C93.4669 41.3152 93.8626 40.6438 93.4053 40.164C94.2592 40.124 94.5672 39.565 94.3447 38.9967C94.2635 38.8645 94.1501 38.7551 94.0151 38.6787C94.3531 38.5563 94.5749 38.3699 94.571 38.0073ZM81.8707 42.6973L81.7937 42.809C80.7351 42.4541 79.7224 41.9749 78.7768 41.3814C79.0999 41.0853 79.4167 40.7823 79.727 40.4728C80.5262 41.1278 81.2457 41.8744 81.8707 42.6973ZM73.8103 37.1441C75.7148 37.8205 77.506 38.781 79.1233 39.9931C78.7943 40.3242 78.458 40.6466 78.1146 40.9602C76.5121 39.9199 75.0557 38.6701 73.7841 37.2442C73.7926 37.2088 73.8003 37.1764 73.8103 37.1441ZM70.7303 33.7707C71.5086 34.5856 72.4587 35.2169 73.5115 35.6187C73.2035 36.8854 73.3429 36.3887 73.2721 36.6359C72.2595 37.1095 70.7557 36.4095 70.209 35.6072L70.7311 33.7707H70.7303ZM69.4151 36.0861C69.3789 36.274 69.342 36.4619 69.3181 36.6521C69.3202 36.6783 69.3256 36.7042 69.3343 36.7291C68.0813 37.7243 66.6896 38.531 65.2032 39.1238C63.6526 38.3249 61.9958 37.7519 60.2829 37.4221C63.1974 36.3317 66.3112 35.8762 69.4159 36.0861H69.4151ZM59.0201 38.0065C60.8136 38.2166 62.5606 38.7184 64.1922 39.4918C63.4746 39.716 62.7447 39.899 62.0062 40.0401C61.0959 40.2333 60.1552 40.2333 59.245 40.0401C58.5654 39.8852 57.9691 39.4799 57.5748 38.9051C58.0317 38.5672 58.515 38.2667 59.0201 38.0065ZM58.7853 41.9335C58.114 41.8588 57.4723 41.6168 56.9188 41.2297C56.7127 41.0847 56.539 40.8984 56.4086 40.6828C56.2782 40.4672 56.1939 40.2268 56.1611 39.9769C56.416 39.7621 56.6693 39.5442 56.9365 39.344C57.4432 40.0776 58.2073 40.5939 59.0771 40.7901C60.0925 41.0051 61.1417 41.0051 62.1571 40.7901C63.1749 40.5932 64.1754 40.3159 65.1493 39.9608C65.388 40.087 65.626 40.2149 65.8585 40.3458C63.7704 41.7133 61.2579 42.2786 58.7853 41.9374V41.9335ZM66.5099 39.846C66.3652 39.7606 66.2204 39.6712 66.0749 39.5896C66.565 39.3753 67.045 39.1384 67.5132 38.8797C67.1966 39.221 66.8617 39.5449 66.5099 39.8499V39.846ZM72.703 44.878C71.0574 43.1284 69.2087 41.5818 67.196 40.2711C68.1854 39.3779 68.89 38.4623 69.9572 37.285C70.3343 37.7436 70.852 38.0651 71.4302 38.1998C71.6632 38.2997 71.9139 38.3519 72.1674 38.3533C72.4209 38.3548 72.6722 38.3054 72.9063 38.2082C73.4039 40.0171 74.5075 41.6002 76.0325 42.6927C74.9742 43.4979 73.8617 44.2293 72.703 44.8818V44.878ZM76.657 42.1961C75.2923 41.2644 74.2692 39.9126 73.7433 38.3461C74.8814 39.5297 76.1467 40.5841 77.5163 41.49C77.2306 41.7341 76.9465 41.9651 76.657 42.1961ZM77.2945 42.665C77.5972 42.4186 77.9052 42.1791 78.1985 41.9212C79.1919 42.5493 80.2476 43.0731 81.3486 43.4843L80.8165 44.322C79.5643 43.9557 78.3762 43.3978 77.2945 42.6681V42.665ZM93.3383 39.3879C92.7681 39.2947 92.1867 39.2947 91.6165 39.3879C91.5224 39.4034 91.4373 39.4534 91.3779 39.5281C91.3185 39.6028 91.2889 39.6969 91.295 39.7921C91.301 39.8874 91.3422 39.977 91.4106 40.0436C91.479 40.1102 91.5697 40.149 91.6651 40.1525C92.0358 40.1669 92.3916 40.3021 92.6784 40.5375C92.1861 40.4595 91.6896 40.4119 91.1915 40.395C90.4585 40.4351 90.1628 41.2313 89.7485 41.4661C89.4499 41.6251 89.1122 41.6956 88.7749 41.6695C88.4376 41.6433 88.1148 41.5214 87.8443 41.3183C86.4044 39.9515 87.3223 37.0933 88.8553 35.9521C88.9323 35.8936 89.0139 35.772 88.9778 36.0792C88.9398 36.3101 88.8717 36.5351 88.7752 36.7483C88.6534 36.9654 88.5632 37.1988 88.5073 37.4413C88.4911 37.5633 88.5112 37.6872 88.565 37.7978C88.7878 38.1564 88.8927 38.5756 88.8651 38.9968C88.8375 39.418 88.6787 39.82 88.411 40.1463C88.3463 40.2254 88.3156 40.3269 88.3257 40.4285C88.3358 40.5302 88.3859 40.6237 88.4649 40.6884C88.544 40.7532 88.6455 40.7838 88.7471 40.7737C88.8488 40.7636 88.9423 40.7135 89.007 40.6345C89.3468 40.2176 89.5587 39.7113 89.617 39.1766C89.6754 38.642 89.5777 38.1019 89.3358 37.6215C89.8251 37.1575 90.4231 36.8239 91.075 36.6512C91.7269 36.4786 92.4116 36.4726 93.0665 36.6336C93.1183 36.6483 93.1684 36.6687 93.2158 36.6944C92.499 37.1095 90.6302 37.0794 90.9613 37.8425C91.0003 37.9326 91.0722 38.0043 91.1624 38.0431C91.2526 38.0819 91.3542 38.0848 91.4464 38.0512C92.131 37.7568 92.9021 37.7348 93.6024 37.9896C92.8801 38.162 92.1786 37.9849 91.3832 38.3584C91.2947 38.3992 91.225 38.472 91.1881 38.5622C91.1511 38.6523 91.1498 38.7532 91.1843 38.8443C91.2187 38.9354 91.2865 39.0101 91.3739 39.0533C91.4612 39.0964 91.5617 39.1048 91.655 39.0768C91.9839 38.9816 92.3289 38.9554 92.6684 38.9998C93.0078 39.0442 93.3345 39.1582 93.6278 39.3348C93.5351 39.3696 93.4372 39.3886 93.3383 39.391V39.3879Z" fill="#3D1D0B"/>
<path d="M81.6198 21.3629C81.6185 21.7179 81.4966 22.0619 81.2741 22.3385C81.0022 22.5988 80.2091 22.3385 79.8665 22.3385V20.7901C79.5046 22.1884 79.55 22.1607 79.4476 22.2531C79.3645 22.2946 79.443 22.3108 78.107 22.0729C78.2449 21.3471 78.2449 20.6019 78.107 19.8761C78.05 20.5229 77.9191 21.161 77.7166 21.778C77.7028 21.8431 77.6698 21.9026 77.6219 21.9489C77.5828 21.9653 77.5408 21.9737 77.4984 21.9737C77.4559 21.9737 77.4139 21.9653 77.3748 21.9489C76.7554 21.9111 76.1408 21.8158 75.5391 21.664C75.7776 20.9205 75.8234 20.1286 75.6723 19.3625C75.6246 19.8468 75.4821 21.2105 75.0447 21.5185C74.7783 21.7187 74.3217 21.5185 74.0268 21.5185C73.6711 21.5185 74.2878 21.0111 74.0838 19.9307C73.9856 20.4072 73.8224 20.8679 73.5987 21.2998C73.4447 21.4808 73.2545 21.326 73.0928 21.2228C73.306 20.3861 73.3229 19.5115 73.1421 18.6672C72.8824 21.1554 71.8212 23.4919 70.1183 25.3246C69.759 25.725 69.3254 26.0519 68.8416 26.2871C68.7931 26.5851 68.4251 26.7938 68.2349 26.3903C67.9969 25.8859 67.3009 25.2091 66.7888 25.7812C65.4914 27.2311 66.6464 29.6882 68.539 30.3912C68.3615 29.9736 68.2093 29.5458 68.0832 29.1099C68.072 29.0674 68.0692 29.0232 68.0751 28.9796C68.081 28.9361 68.0954 28.8942 68.1175 28.8562C68.1396 28.8182 68.1689 28.785 68.2039 28.7584C68.2388 28.7317 68.2786 28.7123 68.3211 28.701C68.3636 28.6898 68.4078 28.6871 68.4514 28.693C68.4949 28.6988 68.5369 28.7132 68.5748 28.7353C68.6128 28.7574 68.646 28.7868 68.6727 28.8217C68.6993 28.8567 68.7188 28.8965 68.73 28.939C69.237 31.0412 70.4609 32.9009 72.1911 34.1981C72.9866 34.7527 73.9035 35.1086 74.8649 35.236C75.8262 35.3634 76.8041 35.2586 77.7166 34.9303C78.5208 34.5596 79.2429 34.0322 79.8407 33.3789C80.4384 32.7256 80.8998 31.9596 81.1978 31.1258C82.1854 27.9636 82.3308 24.5985 81.6198 21.3629Z" fill="white"/>
<path d="M67.0843 26.1803C67.0042 26.1757 66.9253 26.202 66.864 26.2538C66.8027 26.3056 66.7636 26.379 66.7548 26.4588C66.746 26.5386 66.7682 26.6188 66.8167 26.6827C66.8653 26.7466 66.9365 26.7895 67.0158 26.8024C67.3438 26.9102 67.832 27.1328 67.7981 27.4739C67.7991 27.5197 67.8096 27.5649 67.8288 27.6066C67.8481 27.6482 67.8757 27.6855 67.91 27.716C67.9443 27.7465 67.9845 27.7696 68.0281 27.7839C68.0717 27.7982 68.1178 27.8034 68.1634 27.7991C68.2091 27.7948 68.2534 27.7811 68.2936 27.759C68.3338 27.7368 68.369 27.7066 68.397 27.6702C68.425 27.6339 68.4452 27.5921 68.4563 27.5476C68.4675 27.5031 68.4694 27.4568 68.4618 27.4115C68.4257 27.072 68.2648 26.758 68.0103 26.5305C67.7557 26.303 67.4257 26.1782 67.0843 26.1803Z" fill="#3D1D0B"/>
<path d="M78.4303 24.2497C78.0664 24.5127 77.7619 24.8492 77.5364 25.2375C77.3109 25.6258 77.1695 26.0571 77.1213 26.5035C77.1768 27.4955 77.4322 28.4662 77.8721 29.3571C78.0338 29.7467 78.6713 29.5758 78.5189 29.1761C78.134 28.4072 77.8862 27.577 77.7866 26.7229C77.7828 26.324 77.8802 25.9307 78.0698 25.5797C78.2594 25.2288 78.535 24.9317 78.8708 24.7163C78.9014 24.6874 78.9261 24.6527 78.9433 24.6143C78.9605 24.5758 78.97 24.5344 78.9713 24.4923C78.9725 24.4501 78.9654 24.4082 78.9504 24.3688C78.9354 24.3295 78.9128 24.2934 78.8839 24.2628C78.8549 24.2321 78.8203 24.2075 78.7818 24.1903C78.7434 24.173 78.7019 24.1635 78.6598 24.1623C78.6177 24.1611 78.5758 24.1682 78.5364 24.1832C78.497 24.1982 78.461 24.2208 78.4303 24.2497Z" fill="#3D1D0B"/>
<path d="M83.5382 26.0377C82.618 25.0226 81.3389 24.4054 79.9716 24.3168C79.9278 24.3164 79.8843 24.3247 79.8437 24.3413C79.8031 24.3578 79.7662 24.3823 79.7352 24.4133C79.7042 24.4442 79.6796 24.481 79.663 24.5216C79.6463 24.5621 79.6379 24.6056 79.6382 24.6494C79.6388 24.7376 79.6741 24.822 79.7366 24.8842C79.799 24.9465 79.8834 24.9817 79.9716 24.9821C81.1627 25.0681 82.2725 25.618 83.0624 26.5136C83.1256 26.5761 83.211 26.611 83.2999 26.6107C83.3888 26.6104 83.4739 26.575 83.5368 26.5122C83.5997 26.4493 83.6351 26.3641 83.6354 26.2752C83.6356 26.1864 83.6007 26.101 83.5382 26.0377Z" fill="#3D1D0B"/>
<path d="M74.2077 24.0697C73.5381 24.195 72.906 24.4715 72.3597 24.8782C72.2861 24.923 72.2324 24.9941 72.2094 25.077C72.1863 25.16 72.1958 25.2486 72.2357 25.3248C72.2573 25.363 72.2862 25.3965 72.3208 25.4235C72.3554 25.4504 72.395 25.4703 72.4373 25.4819C72.4796 25.4935 72.5238 25.4966 72.5673 25.491C72.6108 25.4855 72.6527 25.4714 72.6908 25.4496C73.1728 25.1003 73.7208 24.8526 74.3015 24.7215C74.8822 24.5905 75.4834 24.5788 76.0688 24.6873C76.4668 24.7643 76.6493 24.1976 76.2998 24.0713C75.6086 23.9402 74.899 23.9397 74.2077 24.0697Z" fill="#3D1D0B"/>
<path d="M77.8983 31.0311C77.1283 30.9653 76.3836 30.7246 75.7208 30.3273C75.649 30.2861 75.5692 30.261 75.4868 30.2537C75.4044 30.2465 75.3214 30.2573 75.2436 30.2853C75.1658 30.3134 75.095 30.3581 75.0362 30.4163C74.9774 30.4744 74.9319 30.5447 74.903 30.6222C74.7266 31.1504 74.7065 31.7184 74.8453 32.2577C74.9293 32.4987 75.0644 32.7188 75.2411 32.903C75.4179 33.0872 75.6323 33.2311 75.8697 33.325C76.1071 33.4189 76.3619 33.4605 76.6168 33.4471C76.8717 33.4337 77.1208 33.3655 77.347 33.2471C77.3867 33.2261 77.4218 33.1973 77.4502 33.1624C77.4785 33.1275 77.4996 33.0873 77.5121 33.0441C77.5245 33.0009 77.5282 32.9557 77.5228 32.911C77.5174 32.8664 77.5031 32.8233 77.4807 32.7843C77.4584 32.7453 77.4283 32.7113 77.3925 32.6841C77.3567 32.657 77.3157 32.6373 77.2721 32.6263C77.2286 32.6153 77.1832 32.6132 77.1388 32.6202C77.0944 32.6271 77.0518 32.6428 77.0136 32.6666C76.8939 32.7489 76.7577 32.8043 76.6145 32.8287C76.4712 32.8531 76.3244 32.8461 76.1841 32.8081C76.0439 32.77 75.9136 32.7019 75.8024 32.6085C75.6911 32.515 75.6015 32.3985 75.5398 32.2669C75.4503 31.8762 75.4546 31.4699 75.5521 31.0811C76.266 31.4902 77.0756 31.7028 77.8983 31.6971C77.9839 31.693 78.0646 31.6561 78.1237 31.5941C78.1827 31.5321 78.2157 31.4498 78.2157 31.3641C78.2157 31.2785 78.1827 31.1961 78.1237 31.1341C78.0646 31.0721 77.9839 31.0352 77.8983 31.0311Z" fill="#3D1D0B"/>
<path d="M75.4396 25.3771C75.4066 25.34 75.3651 25.3114 75.3187 25.2938C75.2723 25.2762 75.2222 25.2701 75.1729 25.276C75.1236 25.2819 75.0765 25.2997 75.0355 25.3277C74.9945 25.3558 74.9609 25.3933 74.9376 25.4372C74.7744 25.7021 74.2816 25.7667 74.1045 25.7975C73.9261 25.8397 73.7601 25.9229 73.6196 26.0405C73.4791 26.1581 73.368 26.307 73.2952 26.4751C73.135 27.0064 73.3013 27.7456 73.9227 27.8072C74.0124 27.8052 74.1007 27.7852 74.1826 27.7485C74.2644 27.7118 74.3381 27.6592 74.3993 27.5936C74.4605 27.528 74.5079 27.4509 74.5389 27.3667C74.5699 27.2826 74.5837 27.193 74.5796 27.1035C74.5991 26.8544 74.5512 26.6046 74.441 26.3804C74.8162 26.3007 75.1609 26.1159 75.435 25.8476C75.4977 25.7856 75.5333 25.7014 75.5342 25.6133C75.535 25.5252 75.5011 25.4403 75.4396 25.3771Z" fill="#3D1D0B"/>
<path d="M81.5089 25.5426C81.3855 25.6549 81.2382 25.7378 81.0782 25.785C80.9181 25.8322 80.7495 25.8426 80.5849 25.8152C80.3541 25.8196 80.1329 25.908 79.9627 26.0639C79.7956 26.2357 79.6808 26.4514 79.6318 26.6859C79.5827 26.9204 79.6013 27.164 79.6855 27.3883C80.0859 28.0413 81.2848 27.6062 80.9044 26.469C81.2702 26.454 81.6193 26.3118 81.8916 26.067C81.9478 26.0119 81.9824 25.9383 81.9889 25.8598C81.9954 25.7813 81.9734 25.703 81.9269 25.6394C81.8805 25.5757 81.8127 25.5309 81.7359 25.5132C81.6592 25.4954 81.5786 25.5059 81.5089 25.5426Z" fill="#3D1D0B"/>
<path d="M67.452 31.7826C67.4374 31.7764 67.4212 31.7741 67.4066 31.7687L67.9564 29.7852C67.9662 29.7055 67.9469 29.6248 67.9021 29.5582C67.8572 29.4915 67.7898 29.4433 67.7122 29.4224C67.6346 29.4015 67.5521 29.4093 67.4798 29.4444C67.4075 29.4795 67.3503 29.5396 67.3188 29.6135L66.7652 31.6155C66.6774 31.6016 66.5896 31.5831 66.5011 31.5762C66.4186 31.5728 66.3379 31.601 66.2756 31.655C66.2132 31.7091 66.1737 31.7848 66.1653 31.8669C66.1568 31.949 66.18 32.0313 66.2301 32.0969C66.2802 32.1625 66.3534 32.2065 66.4348 32.2199C66.4757 32.2307 66.538 32.2438 66.5888 32.2538L66.4449 32.7743C66.435 32.8541 66.4543 32.9347 66.4991 33.0014C66.544 33.068 66.6115 33.1163 66.689 33.1371C66.7666 33.158 66.8492 33.1502 66.9214 33.1151C66.9937 33.08 67.0509 33.02 67.0824 32.946L67.2256 32.4271L67.2433 32.4325C67.6553 32.5918 67.8632 31.9042 67.452 31.7826Z" fill="#3D1D0B"/>
<path d="M122.256 104.815C130.406 101.634 137.72 95.8174 139.812 87.7524C141.191 82.4394 140.274 75.9137 136.809 71.8412C130.871 64.8727 122.143 61.2922 113.431 60.1718C106.564 59.2261 99.5696 60.1458 93.1805 62.8345C86.2027 65.8444 79.7724 72.2431 77.3084 80.0109C75.9836 84.2037 76.1587 88.7269 77.8039 92.8048C79.449 96.8827 82.4616 100.261 86.3251 102.361C89.3551 104.015 94.8845 104.348 96.6247 107.763C97.0653 108.827 97.2351 109.984 97.119 111.13C96.8719 117.76 94.4223 124.118 90.1574 129.2C95.0095 125.071 98.5114 119.581 100.211 113.44C100.84 111.159 101.504 108.428 103.719 107.601C104.737 107.314 105.804 107.249 106.849 107.411C112.109 107.629 117.357 106.745 122.256 104.815Z" fill="white"/>
<path d="M90.157 129.585C90.0838 129.585 90.0121 129.564 89.9503 129.525C89.8886 129.485 89.8393 129.429 89.8084 129.363C89.7774 129.296 89.766 129.223 89.7755 129.15C89.7851 129.077 89.8151 129.009 89.8621 128.953C94.0624 123.931 96.4792 117.657 96.7343 111.115C96.8461 110.025 96.6861 108.924 96.2685 107.91C94.6361 104.712 89.193 104.379 86.1391 102.698C82.1957 100.558 79.1207 97.1106 77.4423 92.9494C75.7639 88.7881 75.5868 84.1723 76.9415 79.8947C79.2738 72.5081 85.4377 65.836 93.026 62.4827C99.4799 59.7673 106.545 58.8365 113.482 59.7877C123.227 60.9565 131.617 65.1484 137.1 71.5894C140.449 75.5164 141.688 82.0499 140.185 87.8472C138.26 95.2631 131.777 101.577 122.398 105.172C117.455 107.144 112.149 108.038 106.834 107.794C105.83 107.635 104.804 107.695 103.826 107.97C101.805 108.727 101.166 111.43 100.584 113.541C98.8714 119.76 95.3258 125.318 90.4088 129.492C90.3388 129.552 90.2494 129.585 90.157 129.585ZM93.3309 63.1895C85.9451 66.4536 79.9437 72.9447 77.6753 80.1295C76.3746 84.237 76.5447 88.6692 78.1566 92.6648C79.7684 96.6604 82.7213 99.9701 86.508 102.025C89.5017 103.673 95.1374 104.001 96.9677 107.592C97.4397 108.722 97.6233 109.952 97.502 111.171C97.2978 116.353 95.7693 121.395 93.0622 125.818C96.247 122.234 98.5654 117.967 99.8382 113.344C100.51 110.905 101.198 108.138 103.583 107.247C104.663 106.935 105.797 106.864 106.907 107.036C112.101 107.252 117.282 106.376 122.115 104.462C131.24 100.901 137.578 94.8373 139.44 87.6624C140.884 82.0969 139.708 75.8422 136.514 72.0977C131.156 65.8037 122.942 61.7027 113.384 60.56C106.585 59.6234 99.6588 60.5316 93.3309 63.1895Z" fill="#3D1D0B"/>
<path d="M81.8644 97.3961C81.2441 97.06 80.5531 96.8753 79.8478 96.8571C81.0844 95.8307 81.9591 93.9565 81.0844 92.378C80.6109 91.4663 79.4805 90.9689 78.6974 91.6742C78.3971 92.1192 78.2139 92.6327 78.1646 93.1672C77.9868 93.8717 77.5987 94.5053 77.0519 94.9837C76.3959 95.5642 75.1731 95.3225 74.427 95.0691C73.5304 94.7554 72.6795 94.3237 71.8968 93.7855L68.6443 97.6278C70.291 98.464 71.8146 99.5232 73.1719 100.776C74.2499 101.748 75.0453 103.059 76.2719 103.876C78.863 105.346 81.8567 103.856 82.9393 101.251C83.1405 100.846 83.2509 100.401 83.2627 99.9486C83.238 99.4451 83.0992 98.9537 82.857 98.5116C82.6148 98.0694 82.2754 97.688 81.8644 97.3961Z" fill="white"/>
<path d="M82.0487 97.0578C81.6228 96.8266 81.1648 96.6602 80.6897 96.5642C81.244 95.9989 81.6119 95.2773 81.7436 94.4966C81.8754 93.7158 81.7647 92.9135 81.4266 92.1976C80.836 91.058 79.4153 90.5036 78.4398 91.3844C78.0705 91.8744 77.8459 92.4581 77.7914 93.0692C77.6331 93.6989 77.2863 94.2652 76.7973 94.6924C76.4591 94.9147 76.048 94.9974 75.65 94.9234C75.6802 94.8789 75.7007 94.8286 75.7103 94.7757C75.7199 94.7228 75.7182 94.6685 75.7055 94.6163C75.6928 94.5641 75.6694 94.5151 75.6366 94.4725C75.6038 94.4299 75.5625 94.3946 75.5153 94.369C74.1973 93.6457 72.8728 92.9342 71.5421 92.2345C71.1009 92.0035 70.9962 91.9512 68.1487 97.3512C67.9431 97.7416 67.7945 98.0242 67.7391 98.1212C67.6899 98.2082 67.6765 98.3108 67.7016 98.4075C67.7267 98.5042 67.7885 98.5874 67.8738 98.6394C68.4513 98.9913 69.0288 99.3154 69.6102 99.6404C71.8878 100.914 71.6738 100.903 71.8786 100.903C72.1358 100.903 72.2197 100.698 72.3159 100.538C72.5177 100.713 72.7202 100.885 72.9189 101.066C74.0931 102.128 74.7984 103.356 76.082 104.21C78.8386 105.773 82.1103 104.25 83.2838 101.421C83.6425 100.668 83.715 99.8099 83.4878 99.0071C83.2605 98.2042 82.7491 97.5114 82.0487 97.0578ZM82.5877 101.1C81.5867 103.516 78.8232 104.873 76.4893 103.553C75.3505 102.793 74.646 101.582 73.4394 100.492C73.2036 100.28 72.9648 100.071 72.7233 99.866C73.5627 98.4645 74.3971 97.06 75.2265 95.6526C75.5808 95.7451 75.9511 95.7586 76.3112 95.692C76.6713 95.6255 77.0123 95.4806 77.3102 95.2676C77.9291 94.7234 78.3632 94 78.5522 93.1978C78.5946 92.7442 78.7459 92.3075 78.9934 91.925C79.1178 91.8225 79.2672 91.7549 79.4263 91.7292C79.5855 91.7035 79.7486 91.7206 79.8989 91.7787C81.3203 92.3508 81.6491 94.8587 79.6063 96.5527C79.5462 96.6027 79.5028 96.6699 79.4818 96.7453C79.4608 96.8206 79.4633 96.9005 79.4889 96.9745C79.5145 97.0484 79.5619 97.1127 79.625 97.159C79.6881 97.2052 79.7637 97.2312 79.8419 97.2334C80.4715 97.2498 81.0889 97.411 81.646 97.7046C82.0059 97.9587 82.3036 98.2908 82.5169 98.6761C82.7303 99.0615 82.8537 99.4901 82.878 99.9299C82.8667 100.337 82.7663 100.737 82.5839 101.101L82.5877 101.1Z" fill="#3D1D0B"/>
<path d="M125.861 15.1691C125.528 14.9257 125.145 14.7592 124.741 14.6817C125.182 14.4592 125.531 14.0891 125.728 13.6358C125.925 13.1824 125.957 12.6744 125.819 12.2C125.786 12.0635 125.723 11.936 125.635 11.8267C125.546 11.7175 125.435 11.6292 125.308 11.5683C125.182 11.5073 125.043 11.4753 124.903 11.4744C124.763 11.4735 124.624 11.5038 124.496 11.5632C124.283 11.7922 124.135 12.0748 124.068 12.3809C123.906 12.7696 123.631 13.1008 123.279 13.3319C122.526 13.8332 121.087 12.8545 120.388 12.2192L118.196 14.2451C119.082 14.8587 119.876 15.595 120.555 16.4319C121.006 17.1489 121.525 17.8209 122.105 18.4385C122.426 18.6671 122.793 18.8247 123.18 18.9008C123.567 18.9768 123.966 18.9696 124.35 18.8797C124.734 18.7897 125.095 18.6191 125.408 18.3791C125.721 18.1391 125.979 17.8352 126.166 17.4876C126.414 17.133 126.521 16.6982 126.464 16.2691C126.408 15.8399 126.192 15.4474 125.861 15.1691Z" fill="white"/>
<path d="M125.559 14.5454C125.872 14.2271 126.094 13.8307 126.203 13.3974C126.311 12.9641 126.302 12.5097 126.175 12.0814C126.125 11.8893 126.032 11.7108 125.904 11.5593C125.775 11.4077 125.615 11.2868 125.433 11.2055C125.252 11.1243 125.055 11.0847 124.857 11.0897C124.658 11.0947 124.463 11.1441 124.286 11.2344C123.992 11.499 123.789 11.8491 123.705 12.2354C123.572 12.5541 123.346 12.8255 123.057 13.0147C122.936 13.0743 122.799 13.0924 122.666 13.0663C122.671 13.0409 122.674 13.0151 122.674 12.9893C122.668 12.9364 122.651 12.8853 122.625 12.8391C122.598 12.793 122.563 12.7529 122.52 12.7213C121.673 12.0922 121.134 11.701 120.394 11.1674C120.316 11.112 120.221 11.0872 120.126 11.098C120.031 11.1088 119.944 11.1544 119.881 11.226C119.018 12.2051 118.217 13.2374 117.482 14.3167C117.429 14.396 117.406 14.4925 117.42 14.5873C117.433 14.6821 117.482 14.7685 117.556 14.8296C118.221 15.3816 118.925 15.8552 119.567 16.4042C119.631 16.4604 119.712 16.4929 119.797 16.4963C119.882 16.4996 119.965 16.4736 120.033 16.4227C120.096 16.4958 120.164 16.5667 120.224 16.6406C120.7 17.395 121.249 18.1004 121.865 18.7465C122.227 19.0077 122.641 19.189 123.079 19.2785C123.517 19.3679 123.969 19.3636 124.405 19.2656C124.841 19.1677 125.251 18.9784 125.609 18.7103C125.966 18.4422 126.263 18.1013 126.479 17.7101C126.662 17.4517 126.785 17.1551 126.838 16.8427C126.891 16.5302 126.872 16.2098 126.783 15.9055C126.695 15.6012 126.539 15.3209 126.327 15.0853C126.115 14.8498 125.852 14.6653 125.559 14.5454ZM125.834 17.2897C125.677 17.5858 125.46 17.8458 125.196 18.0532C124.933 18.2606 124.629 18.4108 124.305 18.4942C123.98 18.5776 123.642 18.5924 123.311 18.5376C122.98 18.4828 122.665 18.3596 122.384 18.176C121.812 17.5638 121.299 16.8986 120.852 16.1894C120.753 16.0669 120.645 15.9507 120.54 15.8329C120.887 15.4017 122.045 13.9471 122.201 13.7539C122.409 13.8314 122.632 13.8628 122.853 13.8459C123.075 13.829 123.29 13.7642 123.484 13.6561C123.919 13.3683 124.252 12.9518 124.439 12.4649C124.486 12.2456 124.587 12.0416 124.733 11.8712C125.027 11.7357 125.349 12.0437 125.442 12.307C125.55 12.696 125.522 13.1105 125.362 13.4811C125.201 13.8517 124.918 14.1559 124.56 14.3429C124.489 14.3798 124.431 14.438 124.395 14.5093C124.359 14.5806 124.345 14.6615 124.357 14.7407C124.369 14.82 124.405 14.8936 124.46 14.9513C124.516 15.009 124.588 15.048 124.667 15.0629C125.007 15.1265 125.33 15.2637 125.613 15.4648C125.874 15.6844 126.042 15.9949 126.083 16.3337C126.124 16.6724 126.035 17.0141 125.834 17.2897Z" fill="#3D1D0B"/>
<path d="M41.9863 80.6292C41.9863 81.7543 42.4332 82.8332 43.2288 83.6287C44.0243 84.4242 45.1032 84.8712 46.2283 84.8712C47.3533 84.8712 48.4322 84.4242 49.2278 83.6287C50.0233 82.8332 50.4702 81.7543 50.4702 80.6292C50.4702 79.5042 50.0233 78.4252 49.2278 77.6297C48.4322 76.8342 47.3533 76.3873 46.2283 76.3873C45.1032 76.3873 44.0243 76.8342 43.2288 77.6297C42.4332 78.4252 41.9863 79.5042 41.9863 80.6292Z" fill="#FF8C4B"/>
<path d="M46.2278 85.2561C45.3126 85.2561 44.4181 84.9847 43.6572 84.4763C42.8963 83.9679 42.3032 83.2452 41.953 82.3998C41.6028 81.5543 41.5112 80.624 41.6897 79.7265C41.8683 78.8289 42.3089 78.0045 42.956 77.3574C43.6031 76.7103 44.4276 76.2696 45.3251 76.0911C46.2226 75.9126 47.153 76.0042 47.9984 76.3544C48.8439 76.7046 49.5665 77.2977 50.0749 78.0585C50.5833 78.8194 50.8547 79.714 50.8547 80.6291C50.8533 81.8558 50.3653 83.0319 49.4979 83.8993C48.6305 84.7667 47.4545 85.2546 46.2278 85.2561ZM46.2278 76.7722C45.4649 76.7722 44.7192 76.9984 44.085 77.4222C43.4507 77.846 42.9563 78.4484 42.6644 79.1531C42.3725 79.8579 42.2961 80.6334 42.4449 81.3816C42.5938 82.1298 42.9611 82.817 43.5005 83.3564C44.0399 83.8958 44.7271 84.2631 45.4753 84.412C46.2235 84.5608 46.999 84.4844 47.7037 84.1925C48.4085 83.9005 49.0109 83.4062 49.4347 82.7719C49.8585 82.1377 50.0847 81.392 50.0847 80.6291C50.0843 79.606 49.6779 78.6249 48.9548 77.9012C48.2316 77.1775 47.2508 76.7703 46.2278 76.7691V76.7722Z" fill="#3D1D0B"/>
<path d="M45.075 79.7861C45.2099 79.7848 45.3417 79.7448 45.4546 79.671C45.5676 79.5972 45.6571 79.4926 45.7125 79.3695C45.7755 79.2465 45.7994 79.1072 45.7809 78.9703C45.7625 78.8334 45.7027 78.7053 45.6094 78.6034C45.5162 78.5014 45.394 78.4304 45.2592 78.3998C45.1245 78.3693 44.9836 78.3807 44.8555 78.4324C44.7062 78.4909 44.5815 78.5988 44.5021 78.738C44.4226 78.8773 44.3933 79.0396 44.419 79.1978C44.4446 79.3561 44.5237 79.5008 44.6431 79.6078C44.7624 79.7148 44.9149 79.7778 45.075 79.7861Z" fill="#3D1D0B"/>
<path d="M48.4651 79.86C48.3393 79.7951 48.1971 79.7694 48.0565 79.786C47.916 79.8027 47.7837 79.861 47.6766 79.9535C47.5695 80.0459 47.4925 80.1683 47.4556 80.3049C47.4186 80.4415 47.4233 80.586 47.4691 80.7199C47.5149 80.8537 47.5997 80.9708 47.7126 81.0561C47.8255 81.1414 47.9613 81.191 48.1026 81.1984C48.2439 81.2059 48.3842 81.171 48.5055 81.0981C48.6267 81.0251 48.7234 80.9176 48.7831 80.7893C48.8235 80.7075 48.8472 80.6185 48.8531 80.5274C48.8589 80.4363 48.8467 80.3449 48.8172 80.2586C48.7877 80.1722 48.7413 80.0926 48.6809 80.0241C48.6205 79.9557 48.5471 79.8999 48.4651 79.86Z" fill="#3D1D0B"/>
<path d="M46.466 80.3267C45.3264 79.7362 43.9388 82.4096 45.0738 83.001C46.2088 83.5923 47.6033 80.9196 46.466 80.3267Z" fill="#3D1D0B"/>
<path d="M125.802 117.768C125.802 118.893 126.249 119.972 127.045 120.767C127.84 121.563 128.919 122.01 130.044 122.01C131.169 122.01 132.248 121.563 133.044 120.767C133.839 119.972 134.286 118.893 134.286 117.768C134.286 116.643 133.839 115.564 133.044 114.768C132.248 113.973 131.169 113.526 130.044 113.526C128.919 113.526 127.84 113.973 127.045 114.768C126.249 115.564 125.802 116.643 125.802 117.768Z" fill="#FF8C4B"/>
<path d="M130.045 122.395C129.13 122.395 128.235 122.123 127.474 121.615C126.713 121.106 126.12 120.384 125.77 119.538C125.42 118.693 125.328 117.763 125.507 116.865C125.685 115.967 126.126 115.143 126.773 114.496C127.42 113.849 128.245 113.408 129.142 113.23C130.04 113.051 130.97 113.143 131.816 113.493C132.661 113.843 133.384 114.436 133.892 115.197C134.4 115.958 134.672 116.853 134.672 117.768C134.671 118.994 134.183 120.171 133.315 121.038C132.448 121.906 131.272 122.393 130.045 122.395ZM130.045 113.912C129.282 113.912 128.536 114.138 127.902 114.562C127.268 114.985 126.773 115.588 126.481 116.293C126.19 116.997 126.113 117.773 126.262 118.521C126.411 119.269 126.778 119.957 127.318 120.496C127.857 121.035 128.545 121.403 129.293 121.551C130.041 121.7 130.817 121.624 131.521 121.332C132.226 121.04 132.828 120.545 133.252 119.911C133.676 119.276 133.902 118.531 133.902 117.768C133.901 116.745 133.494 115.765 132.771 115.042C132.048 114.319 131.067 113.913 130.045 113.912Z" fill="#3D1D0B"/>
<path d="M128.553 116.655C128.478 116.604 128.394 116.569 128.305 116.552C128.216 116.534 128.125 116.535 128.037 116.555C127.949 116.574 127.865 116.612 127.792 116.664C127.719 116.717 127.657 116.785 127.611 116.862C127.546 116.97 127.511 117.092 127.508 117.218C127.505 117.343 127.535 117.467 127.595 117.577C127.655 117.688 127.742 117.78 127.849 117.846C127.956 117.912 128.078 117.949 128.203 117.954C128.352 117.946 128.495 117.891 128.611 117.797C128.727 117.704 128.81 117.575 128.849 117.431C128.888 117.287 128.88 117.135 128.827 116.995C128.774 116.856 128.678 116.737 128.553 116.655Z" fill="#3D1D0B"/>
<path d="M132.132 116.285C132.096 116.156 132.022 116.041 131.921 115.954C131.819 115.867 131.694 115.812 131.562 115.796C131.429 115.779 131.295 115.802 131.175 115.861C131.055 115.921 130.956 116.014 130.889 116.13C130.822 116.245 130.79 116.378 130.798 116.511C130.806 116.645 130.853 116.773 130.933 116.88C131.013 116.987 131.123 117.067 131.249 117.112C131.375 117.157 131.511 117.164 131.641 117.132C131.818 117.084 131.97 116.969 132.062 116.81C132.154 116.651 132.179 116.462 132.132 116.285Z" fill="#3D1D0B"/>
<path d="M130.053 117.388C128.858 117.625 129.316 120.358 130.507 120.358C130.694 120.347 130.872 120.274 131.011 120.149C131.151 120.025 131.245 119.856 131.277 119.672C131.555 118.695 130.931 117.213 130.053 117.388Z" fill="#3D1D0B"/>
<path d="M138.547 22.2624C138.547 23.3874 138.994 24.4664 139.79 25.2619C140.585 26.0574 141.664 26.5043 142.789 26.5043C143.914 26.5043 144.993 26.0574 145.789 25.2619C146.584 24.4664 147.031 23.3874 147.031 22.2624C147.031 21.1373 146.584 20.0584 145.789 19.2629C144.993 18.4674 143.914 18.0204 142.789 18.0204C141.664 18.0204 140.585 18.4674 139.79 19.2629C138.994 20.0584 138.547 21.1373 138.547 22.2624Z" fill="#FF8C4B"/>
<path d="M142.789 17.6334C141.873 17.6334 140.979 17.9048 140.218 18.4132C139.457 18.9216 138.864 19.6442 138.514 20.4897C138.164 21.3351 138.072 22.2655 138.251 23.163C138.429 24.0605 138.87 24.885 139.517 25.5321C140.164 26.1791 140.988 26.6198 141.886 26.7983C142.783 26.9769 143.714 26.8852 144.559 26.535C145.405 26.1848 146.127 25.5918 146.636 24.8309C147.144 24.07 147.415 23.1754 147.415 22.2603C147.414 21.0336 146.926 19.8576 146.059 18.9902C145.191 18.1228 144.015 17.6348 142.789 17.6334ZM142.789 26.1165C142.026 26.1165 141.28 25.8903 140.646 25.4664C140.011 25.0426 139.517 24.4402 139.225 23.7354C138.933 23.0306 138.857 22.255 139.006 21.5068C139.155 20.7586 139.522 20.0714 140.062 19.532C140.601 18.9926 141.288 18.6254 142.037 18.4766C142.785 18.3279 143.56 18.4044 144.265 18.6964C144.97 18.9885 145.572 19.4829 145.996 20.1173C146.42 20.7517 146.646 21.4975 146.645 22.2603C146.645 23.2832 146.238 24.264 145.515 24.9875C144.792 25.7109 143.811 26.1178 142.789 26.1188V26.1165Z" fill="#3D1D0B"/>
<path d="M142.159 20.5069C142.125 20.4207 142.072 20.3428 142.006 20.2781C141.939 20.2133 141.86 20.1633 141.773 20.1313C141.686 20.0992 141.593 20.0857 141.5 20.0918C141.408 20.0979 141.317 20.1234 141.235 20.1666C141.095 20.2357 140.983 20.3492 140.915 20.4892C140.846 20.6293 140.827 20.788 140.858 20.9405C140.89 21.093 140.971 21.2307 141.09 21.332C141.208 21.4333 141.357 21.4925 141.512 21.5002C141.629 21.4966 141.742 21.4649 141.844 21.4078C141.945 21.3507 142.031 21.27 142.095 21.1724C142.158 21.0749 142.198 20.9634 142.209 20.8475C142.22 20.7316 142.203 20.6148 142.159 20.5069Z" fill="#3D1D0B"/>
<path d="M144.067 21.738C144.033 21.8229 144.017 21.9136 144.019 22.0048C144.021 22.096 144.04 22.186 144.077 22.2696C144.114 22.3531 144.166 22.4286 144.232 22.4917C144.298 22.5549 144.376 22.6043 144.461 22.6374C144.591 22.6788 144.729 22.6823 144.861 22.6475C144.993 22.6126 145.111 22.5408 145.203 22.4406C145.295 22.3403 145.357 22.2158 145.381 22.0818C145.404 21.9477 145.389 21.8097 145.336 21.6841C145.283 21.5564 145.192 21.4483 145.075 21.3741C144.958 21.2999 144.821 21.2633 144.683 21.2691C144.545 21.275 144.411 21.3231 144.301 21.4069C144.191 21.4907 144.109 21.6063 144.067 21.738Z" fill="#3D1D0B"/>
<path d="M143 21.9565C141.82 21.4645 140.648 24.2388 141.835 24.737C143.022 25.2352 144.17 22.4463 143 21.9565Z" fill="#3D1D0B"/>
<path d="M69.7109 29.662C69.7109 30.2075 69.9276 30.7306 70.3133 31.1163C70.699 31.502 71.2221 31.7187 71.7676 31.7187C72.3131 31.7187 72.8362 31.502 73.2219 31.1163C73.6076 30.7306 73.8243 30.2075 73.8243 29.662C73.8243 29.1166 73.6076 28.5934 73.2219 28.2077C72.8362 27.822 72.3131 27.6053 71.7676 27.6053C71.2221 27.6053 70.699 27.822 70.3133 28.2077C69.9276 28.5934 69.7109 29.1166 69.7109 29.662Z" fill="#FFE55D"/>
<path d="M79.0364 29.9048C79.0364 30.3822 79.226 30.8401 79.5637 31.1778C79.9013 31.5154 80.3592 31.705 80.8366 31.705C81.3141 31.705 81.772 31.5154 82.1096 31.1778C82.4472 30.8401 82.6369 30.3822 82.6369 29.9048C82.6369 29.4273 82.4472 28.9694 82.1096 28.6318C81.772 28.2942 81.3141 28.1045 80.8366 28.1045C80.3592 28.1045 79.9013 28.2942 79.5637 28.6318C79.226 28.9694 79.0364 29.4273 79.0364 29.9048Z" fill="#FFE55D"/>
<path d="M109.55 93.5921C109.947 94.098 110.586 94.6001 111.156 94.3244C111.399 94.1785 111.597 93.9679 111.727 93.7161C112.864 91.8724 113.726 89.8727 114.286 87.7802C114.611 86.5636 112.515 87.9272 111.87 88.0751C111.475 88.1741 111.07 88.2314 110.662 88.246C110.291 88.253 109.939 88.1136 109.578 88.323C108.844 88.8574 108.325 89.6366 108.115 90.5198C108.304 91.6556 108.8 92.7181 109.55 93.5921Z" fill="white"/>
<path d="M111.984 90.2633C112.767 89.6912 113.416 88.9555 113.886 88.1073C113.963 87.9363 114.153 87.318 114.314 87.2325C113.19 87.8017 111.966 88.1472 110.71 88.2497C110.339 88.2566 109.987 88.1173 109.626 88.3267C109.385 88.5059 109.2 88.75 109.093 89.0305C108.837 89.5441 108.134 90.4981 108.807 90.9332C109.678 91.4906 111.143 90.8947 111.984 90.2633Z" fill="#FFE55D"/>
<path d="M93.8379 82.2269C93.1288 81.3338 92.5759 80.3274 92.2024 79.25C92.1254 79.0883 92.0122 78.9174 91.8405 78.8981C91.6688 78.8789 91.4108 79.2408 91.4031 79.5349C91.3835 80.3884 91.5901 81.2319 92.0022 81.9797C90.7702 80.6322 90.9373 79.5334 90.2812 79.4972C90.1737 79.5022 90.07 79.5381 89.9823 79.6005C89.8947 79.6629 89.8268 79.7492 89.7869 79.8491C89.7292 80.0577 89.7292 80.2781 89.7869 80.4866C89.9071 81.4433 90.3989 82.3143 91.1559 82.9114L89.5959 81.5254C89.4635 81.4207 89.2879 81.2944 89.1493 81.3829C89.1018 81.4178 89.0643 81.4647 89.0409 81.5189C89.0175 81.573 89.0089 81.6324 89.0161 81.6909C89.0284 82.133 89.1817 82.5595 89.4535 82.9083C89.7596 83.3518 90.1173 83.7574 90.5192 84.1164C89.1332 83.1532 89.0993 83.0815 88.9591 83.1647C88.915 83.1908 88.8813 83.2313 88.8637 83.2794C88.8294 83.4052 88.8235 83.537 88.8466 83.6652C88.8696 83.7935 88.921 83.915 88.9969 84.0209C89.6601 85.1619 90.6941 86.0413 91.9267 86.5127C92.2669 86.6559 92.633 86.7278 93.0021 86.7238C93.3713 86.7197 93.7356 86.6399 94.0726 86.4892C94.4097 86.3386 94.7121 86.1202 94.9613 85.8478C95.2104 85.5754 95.401 85.2548 95.5211 84.9057C95.9138 83.7899 95.5211 82.8128 95.3409 81.7002C95.3216 81.3326 95.3216 80.9643 95.3409 80.5968C95.3317 80.5193 95.3056 80.4448 95.2644 80.3785C95.2233 80.3122 95.1681 80.2558 95.1027 80.2132C95.0373 80.1706 94.9634 80.1429 94.8862 80.132C94.8089 80.1211 94.7302 80.1273 94.6556 80.1502C94.4774 80.2344 94.3285 80.3701 94.2282 80.5398C94.0386 80.7725 93.9049 81.0455 93.8372 81.338C93.7695 81.6304 93.7697 81.9345 93.8379 82.2269Z" fill="white"/>
<path d="M127.459 77.0154C126.351 73.604 124.083 70.6888 121.048 68.7764C119.871 68.1913 118.899 67.2625 118.262 66.1129C118.238 66.0279 118.181 65.9559 118.104 65.9126C118.027 65.8693 117.936 65.8583 117.851 65.8819C117.454 66.0823 117.081 66.3269 116.739 66.6111C116.816 66.3463 116.493 66.1345 116.246 66.2454C112.846 67.7125 110.146 70.4396 108.713 73.8545C108.359 74.7722 108.15 75.7388 108.091 76.7205C107.241 77.9383 106.512 79.2369 105.916 80.5974C105.444 81.6032 105.201 82.7011 105.203 83.8122C105.311 84.7709 105.698 85.6769 106.316 86.4178C106.983 87.245 107.799 87.9393 108.722 88.4645C108.645 88.6139 108.576 88.7663 108.502 88.918C108.273 88.9514 108.054 89.033 107.859 89.1575C105.996 88.8293 104.099 88.7413 102.214 88.8957C100.311 89.0221 98.4958 89.7456 97.0274 90.9632C96.9778 88.5941 96.6585 86.2383 96.0757 83.9415C96.0651 83.4083 95.9943 82.878 95.8647 82.3607C95.7074 81.7684 95.6597 81.1523 95.7238 80.5427C95.7097 80.423 95.6721 80.3072 95.6132 80.202C95.5543 80.0968 95.4753 80.0042 95.3806 79.9296C95.286 79.8549 95.1775 79.7997 95.0615 79.767C94.9454 79.7342 94.8241 79.7247 94.7043 79.7389C94.5366 79.7736 94.3783 79.8438 94.24 79.9449C94.1017 80.046 93.9867 80.1755 93.9028 80.3248C93.7524 80.5696 93.6204 80.8252 93.5078 81.0894C93.1152 80.4582 92.7942 79.7852 92.5507 79.0828C92.5005 78.9368 92.4121 78.8068 92.2947 78.7065C92.1773 78.6061 92.0352 78.5391 91.8831 78.5122C91.4211 78.4599 91.0361 79.0389 91.0176 79.5602C90.9341 79.4088 90.8075 79.2856 90.6539 79.2063C90.5002 79.127 90.3265 79.0951 90.1547 79.1149C89.9829 79.1346 89.8209 79.205 89.6892 79.317C89.5575 79.4291 89.4621 79.5778 89.4152 79.7443C89.3424 80.0011 89.339 80.2726 89.4052 80.5312C89.4254 80.6941 89.4555 80.8555 89.4953 81.0147C89.4021 80.9776 89.3015 80.9631 89.2017 80.9724C89.1019 80.9816 89.0056 81.0143 88.9209 81.0679C88.8234 81.1386 88.7455 81.2331 88.6949 81.3424C88.6442 81.4518 88.6223 81.5722 88.6314 81.6924C88.6409 82.0658 88.7358 82.4322 88.9086 82.7634C88.3549 82.902 88.3295 83.7436 88.6652 84.2056C88.962 84.7007 89.3269 85.1514 89.7494 85.5447C89.6924 86.8537 88.9471 88.4222 88.6152 89.7027L87.3016 94.7077C87.2727 94.7801 87.2598 94.858 87.2639 94.9359C87.2681 95.0138 87.289 95.0899 87.3254 95.1589C87.3685 95.2321 87.4326 95.2906 87.5093 95.327C87.586 95.3634 87.6719 95.3759 87.7559 95.3629C87.8248 95.3629 87.8925 95.3444 87.9518 95.3093C88.0112 95.2742 88.06 95.2238 88.0932 95.1633C88.1264 95.1029 88.1428 95.0347 88.1406 94.9658C88.1384 94.8968 88.1178 94.8298 88.0808 94.7716C89.5577 89.1506 89.3721 89.7596 89.8041 88.5061C90.0882 87.754 90.3089 86.9795 90.464 86.1907C91.3029 86.8257 92.327 87.1678 93.3792 87.1647C93.8743 87.1273 94.3494 86.9532 94.7514 86.6617C95.1534 86.3702 95.4666 85.9728 95.6561 85.5139C96.2063 88.7628 96.4433 92.0571 96.3637 95.3514C96.3619 95.4535 96.4007 95.5521 96.4716 95.6256C96.5425 95.6991 96.6397 95.7415 96.7418 95.7433C96.8439 95.7451 96.9425 95.7063 97.016 95.6354C97.0895 95.5645 97.1319 95.4673 97.1337 95.3652C97.1537 94.2272 97.1337 93.083 97.0875 91.9418C98.4934 90.5957 100.329 89.789 102.272 89.6642C103.944 89.5269 105.626 89.5856 107.284 89.839C106.817 90.542 106.546 91.3566 106.498 92.1992C106.451 93.0418 106.628 93.8818 107.013 94.633C107.247 95.027 107.514 95.4007 107.811 95.7502C107.847 95.7925 107.892 95.8264 107.942 95.8497C107.993 95.873 108.048 95.885 108.103 95.885C108.159 95.885 108.214 95.873 108.264 95.8497C108.315 95.8264 108.36 95.7925 108.396 95.7502C108.79 95.2946 109.225 94.8758 109.695 94.499C110.568 94.8393 110.508 95.001 110.798 94.9387C111.183 95.1181 111.255 94.6676 112.437 94.318C112.82 94.6782 113.118 95.1197 113.309 95.6101C113.338 95.6844 113.39 95.7478 113.456 95.7917C113.523 95.8355 113.601 95.8575 113.681 95.8547C113.761 95.852 113.838 95.8245 113.901 95.7761C113.965 95.7277 114.011 95.6608 114.035 95.5847C114.479 94.1537 114.492 92.6238 114.071 91.1857C116.157 91.572 118.099 92.5171 119.69 93.9201C121.282 95.3232 122.462 97.1317 123.107 99.1529C123.12 99.203 123.144 99.2499 123.176 99.2908C123.208 99.3316 123.248 99.3655 123.293 99.3905C123.339 99.4155 123.389 99.431 123.441 99.4361C123.492 99.4411 123.544 99.4357 123.594 99.4201C123.643 99.4046 123.689 99.3791 123.729 99.3453C123.768 99.3115 123.8 99.2701 123.823 99.2236C123.846 99.177 123.86 99.1263 123.863 99.0744C123.866 99.0226 123.858 98.9707 123.84 98.9219C123.131 96.6981 121.813 94.7176 120.035 93.2049C118.258 91.6922 116.092 90.7078 113.783 90.3633C113.766 90.3225 113.706 90.2016 113.696 90.1824C113.829 89.8559 113.868 89.7689 114.011 89.4124C114.703 89.268 115.368 89.0168 115.983 88.6678C116.438 88.9284 116.94 89.0965 117.461 89.1625C117.981 89.2284 118.509 89.1909 119.015 89.0521C119.521 88.9133 119.995 88.676 120.409 88.3537C120.822 88.0313 121.169 87.6304 121.427 87.174C123.117 86.2995 124.625 85.1112 125.87 83.6728C126.701 82.8129 127.325 81.7755 127.697 80.639C127.955 79.4324 127.872 78.1778 127.459 77.0154ZM94.8645 85.3352C94.5624 85.7706 94.1198 86.0888 93.6108 86.2366C93.1019 86.3844 92.5577 86.3526 92.0694 86.1468C90.9197 85.6809 89.9527 84.8536 89.3143 83.7898C89.2941 83.7619 89.2768 83.732 89.2628 83.7005L90.303 84.4258C90.3835 84.4835 90.4831 84.5079 90.5811 84.4941C90.6791 84.4802 90.768 84.4291 90.8294 84.3514C90.8907 84.2737 90.9198 84.1754 90.9105 84.0768C90.9013 83.9783 90.8544 83.8871 90.7797 83.8222C90.3953 83.4793 90.0536 83.0915 89.7617 82.6672C89.5765 82.4235 89.4452 82.1432 89.3767 81.8448C89.3767 81.8448 90.7904 83.1161 90.9167 83.2162C90.9949 83.2818 91.096 83.3137 91.1978 83.3049C91.2995 83.296 91.3935 83.247 91.4592 83.1688C91.5248 83.0906 91.5567 82.9895 91.5478 82.8878C91.539 82.7861 91.49 82.692 91.4118 82.6264L91.0907 82.3407C90.5717 81.811 90.2434 81.1238 90.1575 80.3872C90.1211 80.2594 90.1164 80.1246 90.1436 79.9945C90.1536 79.9687 90.1691 79.9454 90.189 79.9262C90.209 79.907 90.2329 79.8925 90.2591 79.8836C90.5363 79.8998 90.5232 80.9354 91.7175 82.2414C91.781 82.3109 91.8677 82.3548 91.9614 82.3647C92.055 82.3746 92.149 82.3499 92.2257 82.2952C92.3023 82.2405 92.3562 82.1596 92.3772 82.0678C92.3982 81.976 92.3849 81.8797 92.3397 81.7971C91.9627 81.1091 91.7724 80.3345 91.7876 79.5502C91.7929 79.4914 91.8108 79.4344 91.8399 79.3831C92.1822 80.3618 92.6683 81.2841 93.2822 82.1197C93.0385 82.5058 92.8941 82.9461 92.8616 83.4015C92.8291 83.8569 92.9095 84.3132 93.0958 84.73C93.1171 84.7681 93.1458 84.8017 93.1801 84.8287C93.2144 84.8558 93.2537 84.8758 93.2957 84.8877C93.3378 84.8996 93.3817 84.903 93.4251 84.8979C93.4685 84.8928 93.5105 84.8792 93.5486 84.8578C93.8227 84.7038 93.6756 84.4513 93.6456 84.2711C93.4948 83.714 93.558 83.1207 93.8227 82.6079C93.8838 82.6117 93.9449 82.6007 94.0008 82.5757C94.0567 82.5507 94.1057 82.5125 94.1435 82.4644C94.1814 82.4164 94.207 82.3598 94.2182 82.2996C94.2294 82.2394 94.2258 82.1774 94.2077 82.1189C94.1592 81.8753 94.1659 81.624 94.2273 81.3833C94.2887 81.1427 94.4033 80.9188 94.5627 80.7283C95.0709 79.8852 94.933 81.2673 94.9615 81.7578C95.1648 83.0129 95.6276 83.9931 94.8645 85.3352ZM108.126 94.9094C107.969 94.702 107.824 94.4864 107.69 94.2634C107.405 93.6996 107.258 93.0758 107.262 92.4438C107.266 91.8118 107.421 91.1898 107.713 90.6297C107.715 91.0135 107.8 91.3923 107.964 91.7393C108.34 92.4801 108.814 93.1667 109.374 93.7806C108.928 94.1236 108.509 94.501 108.122 94.9094H108.126ZM110.786 94.0886C109.898 93.3455 109.173 92.4283 108.654 91.3936C108.523 91.1195 108.465 90.8164 108.485 90.5135C108.765 89.9429 109.05 89.3585 109.332 88.774C110.563 89.3701 111.93 89.6266 113.293 89.5171C112.718 91.171 111.87 92.7164 110.782 94.0886H110.786ZM113.529 94.405C113.317 94.1066 113.067 93.8364 112.787 93.6012C112.567 93.4164 112.349 93.5604 112.067 93.6535C112.564 92.93 112.983 92.1557 113.316 91.3435C113.615 92.3343 113.686 93.3798 113.525 94.402L113.529 94.405Z" fill="#3D1D0B"/>
<path d="M121.02 85.7365C120.83 85.2229 120.03 85.2799 119.634 85.4601C119.29 85.6141 118.992 85.2291 119.193 84.9981C118.985 84.492 118.871 83.9526 118.854 83.4057C118.822 82.5056 118.807 81.6047 118.854 80.7053C118.854 80.3534 119.425 77.633 119.805 77.633C118.764 77.636 117.734 77.4179 116.783 76.9931C115.832 76.5684 114.982 75.9466 114.289 75.169C114.946 75.1858 115.59 74.9891 116.125 74.6085C114.892 74.7462 113.647 74.4913 112.568 73.8801C112.715 73.8627 112.857 73.8134 112.983 73.7357C113.109 73.658 113.216 73.5537 113.298 73.4302C113.379 73.3066 113.432 73.1667 113.454 73.0203C113.476 72.8739 113.466 72.7246 113.424 72.5826C113.337 72.5987 113.251 72.6198 113.166 72.6458C110.334 74.6413 108.09 77.3624 106.672 80.5236C106.266 81.3136 106.008 82.1716 105.913 83.0546C105.925 83.7011 106.023 84.3431 106.205 84.9634C107.625 88.2999 114.021 90.7523 117.332 86.706C117.599 86.3725 118.074 86.8484 117.799 87.1718C117.455 87.5761 117.065 87.9379 116.635 88.2498C118.402 88.9959 120.378 88.1974 120.899 86.793C121.061 86.4656 121.104 86.092 121.02 85.7365Z" fill="white"/>
<path d="M112.669 77.1581C112.721 77.5812 112.721 78.0092 112.669 78.4324C112.601 78.8325 112.4 79.1978 112.098 79.4688C111.479 80.0029 110.779 80.4361 110.025 80.7524C109.644 80.9426 109.978 81.5224 110.358 81.3238C111.201 80.962 111.979 80.4638 112.66 79.8492C112.981 79.4876 113.208 79.053 113.323 78.5832C113.437 78.1135 113.435 77.6229 113.316 77.1542C113.314 77.0665 113.278 76.983 113.216 76.9209C113.154 76.8588 113.071 76.823 112.983 76.8208C112.939 76.8206 112.896 76.8291 112.855 76.8458C112.815 76.8625 112.778 76.887 112.747 76.918C112.716 76.949 112.691 76.9858 112.675 77.0264C112.658 77.0669 112.649 77.1104 112.65 77.1542L112.669 77.1581Z" fill="#3D1D0B"/>
<path d="M109.908 86.2639C109.579 86.2233 109.272 86.0762 109.033 85.8449C108.795 85.6136 108.639 85.3108 108.589 84.9827C108.522 84.4566 108.568 83.9223 108.725 83.4157C108.756 83.3181 108.824 83.2366 108.914 83.1893C109.005 83.1419 109.111 83.1325 109.208 83.1631C109.306 83.1938 109.388 83.2619 109.435 83.3526C109.482 83.4433 109.492 83.5491 109.461 83.6467C109.337 84.0464 109.299 84.468 109.352 84.8833C109.376 85.0392 109.45 85.183 109.562 85.2939C109.674 85.4047 109.819 85.4767 109.975 85.4993C110.404 85.5055 110.713 84.861 111.345 83.7283C110.57 83.5381 109.824 83.2406 109.131 82.8444C109.042 82.7933 108.977 82.7091 108.951 82.6103C108.924 82.5114 108.938 82.406 108.989 82.3173C109.04 82.2286 109.124 82.1638 109.223 82.1371C109.322 82.1105 109.427 82.1242 109.516 82.1752C110.289 82.617 111.132 82.9237 112.009 83.0823C112.069 83.0933 112.126 83.1184 112.175 83.1558C112.223 83.1931 112.262 83.2415 112.288 83.2969C112.315 83.3523 112.327 83.4132 112.325 83.4744C112.323 83.5357 112.306 83.5955 112.276 83.649L111.525 84.9904C111.159 85.6672 110.671 86.284 109.908 86.2639Z" fill="#3D1D0B"/>
<path d="M112.013 76.2496C111.951 76.2498 111.89 76.2347 111.835 76.2057C111.533 76.048 111.201 75.9582 110.861 75.9427C110.521 75.9271 110.182 75.9861 109.867 76.1156C109.82 76.1374 109.769 76.1494 109.717 76.151C109.665 76.1525 109.613 76.1435 109.565 76.1245C109.516 76.1056 109.472 76.077 109.435 76.0406C109.398 76.0042 109.369 75.9606 109.349 75.9126C109.329 75.8645 109.32 75.813 109.32 75.7611C109.321 75.7091 109.332 75.6579 109.353 75.6104C109.374 75.5629 109.405 75.5201 109.443 75.4847C109.481 75.4492 109.525 75.4218 109.574 75.4041C109.993 75.2313 110.444 75.1524 110.896 75.173C111.349 75.1936 111.791 75.3133 112.192 75.5235C112.269 75.5635 112.329 75.6279 112.365 75.7065C112.4 75.7851 112.408 75.8733 112.387 75.957C112.367 76.0406 112.319 76.115 112.251 76.168C112.183 76.2211 112.099 76.2498 112.013 76.2496Z" fill="#3D1D0B"/>
<path d="M116.996 81.4038C116.899 81.4041 116.805 81.3674 116.733 81.301C116.662 81.2347 116.618 81.1438 116.611 81.0466C116.58 80.6044 116.453 80.1743 116.238 79.7863C116.024 79.3982 115.728 79.0616 115.37 78.7997C115.327 78.7706 115.291 78.7331 115.263 78.6897C115.235 78.6462 115.216 78.5976 115.208 78.5467C115.199 78.4958 115.201 78.4437 115.212 78.3935C115.224 78.3432 115.246 78.2959 115.277 78.2542C115.307 78.2126 115.346 78.1775 115.39 78.1511C115.434 78.1247 115.484 78.1075 115.535 78.1005C115.586 78.0934 115.638 78.0968 115.688 78.1103C115.738 78.1238 115.784 78.1472 115.825 78.1791C116.273 78.5069 116.644 78.9282 116.912 79.4138C117.18 79.8994 117.34 80.4377 117.38 80.9911C117.383 81.0438 117.376 81.0968 117.359 81.1466C117.341 81.1965 117.314 81.2422 117.278 81.2809C117.242 81.3196 117.198 81.3505 117.15 81.3717C117.101 81.3928 117.049 81.4038 116.996 81.4038Z" fill="#3D1D0B"/>
<path d="M110.9 76.8346C110.868 76.7098 110.618 76.4365 110.386 76.5019C109.879 76.6274 109.385 77.0409 109.53 77.5953C109.556 77.7334 109.625 77.86 109.726 77.9575C109.827 78.0549 109.956 78.1185 110.095 78.1394C110.234 78.1603 110.376 78.1375 110.502 78.0741C110.627 78.0107 110.73 77.9098 110.795 77.7855C110.947 77.4927 110.985 77.1535 110.9 76.8346Z" fill="#3D1D0B"/>
<path d="M114.775 80.5883C114.296 80.6961 113.788 81.2221 113.905 81.7133C113.935 81.8064 113.986 81.8914 114.054 81.9617C114.122 82.032 114.205 82.0857 114.297 82.1188C114.388 82.1518 114.487 82.1633 114.584 82.1523C114.681 82.1412 114.774 82.108 114.856 82.0552C115.072 81.9217 115.247 81.7308 115.361 81.5039C115.712 80.8209 115.102 80.2596 114.775 80.5883Z" fill="#3D1D0B"/>
<path d="M120.692 86.0477C120.407 85.794 120.036 85.659 119.655 85.6708C119.274 85.6825 118.912 85.8401 118.644 86.1109C118.605 86.1435 118.572 86.1837 118.549 86.229C118.525 86.2743 118.511 86.3239 118.506 86.3749C118.502 86.4259 118.508 86.4772 118.524 86.5259C118.539 86.5745 118.565 86.6196 118.598 86.6583C118.631 86.6971 118.672 86.7289 118.718 86.7517C118.764 86.7746 118.813 86.7881 118.865 86.7914C118.916 86.7948 118.967 86.788 119.015 86.7713C119.063 86.7547 119.108 86.7286 119.146 86.6945C119.152 86.6891 119.75 86.184 120.141 86.5852C120.213 86.6582 120.31 86.6998 120.412 86.7009C120.463 86.7014 120.513 86.692 120.56 86.6731C120.607 86.6543 120.65 86.6264 120.686 86.591C120.722 86.5556 120.751 86.5134 120.771 86.4669C120.791 86.4203 120.801 86.3704 120.802 86.3198C120.802 86.2692 120.793 86.219 120.774 86.172C120.755 86.1251 120.727 86.0823 120.692 86.0462V86.0477Z" fill="#3D1D0B"/>
<path d="M112.622 85.5835C112.622 86.1404 112.843 86.6745 113.237 87.0683C113.63 87.4621 114.164 87.6833 114.721 87.6833C115.278 87.6833 115.812 87.4621 116.206 87.0683C116.6 86.6745 116.821 86.1404 116.821 85.5835C116.821 85.0266 116.6 84.4925 116.206 84.0987C115.812 83.7049 115.278 83.4837 114.721 83.4837C114.164 83.4837 113.63 83.7049 113.237 84.0987C112.843 84.4925 112.622 85.0266 112.622 85.5835Z" fill="#FFE55D"/>
<path d="M105.992 79.6334C105.992 79.8686 106.039 80.1015 106.129 80.3188C106.219 80.5361 106.351 80.7335 106.517 80.8998C106.683 81.0661 106.881 81.1981 107.098 81.2881C107.315 81.3781 107.548 81.4244 107.783 81.4244C108.019 81.4244 108.252 81.3781 108.469 81.2881C108.686 81.1981 108.884 81.0661 109.05 80.8998C109.216 80.7335 109.348 80.5361 109.438 80.3188C109.528 80.1015 109.574 79.8686 109.574 79.6334C109.574 79.3982 109.528 79.1653 109.438 78.948C109.348 78.7307 109.216 78.5333 109.05 78.367C108.884 78.2006 108.686 78.0687 108.469 77.9787C108.252 77.8887 108.019 77.8424 107.783 77.8424C107.548 77.8424 107.315 77.8887 107.098 77.9787C106.881 78.0687 106.683 78.2006 106.517 78.367C106.351 78.5333 106.219 78.7307 106.129 78.948C106.039 79.1653 105.992 79.3982 105.992 79.6334Z" fill="#FFE55D"/>
</svg>
