<svg width="154" height="154" viewBox="0 0 154 154" fill="none" xmlns="http://www.w3.org/2000/svg">
<path d="M58.8665 92.2373L47.7639 97.4995C63.6313 102.834 77.7539 112.544 93.6559 117.734C94.0784 117.939 94.5597 117.988 95.0148 117.872C95.4698 117.756 95.8692 117.483 96.1422 117.101C103.149 110.171 110.509 103.34 119.37 99.0187L111.558 96.731L58.8665 92.2373Z" fill="#FF8C4B"/>
<path d="M93.5056 118.088C77.6691 112.923 63.4194 103.169 47.6406 97.8643C47.5678 97.8398 47.504 97.7941 47.4574 97.733C47.4108 97.672 47.3835 97.5984 47.3791 97.5218C47.3746 97.4451 47.3932 97.3689 47.4323 97.3029C47.4715 97.2368 47.5296 97.184 47.599 97.1512L59.303 91.5841C59.349 91.5574 59.4001 91.5405 59.453 91.5344C59.5059 91.5284 59.5595 91.5335 59.6103 91.5492C59.6612 91.5649 59.7082 91.5911 59.7485 91.6259C59.7887 91.6607 59.8213 91.7036 59.8442 91.7516C59.8671 91.7997 59.8797 91.852 59.8813 91.9052C59.8829 91.9584 59.8735 92.0114 59.8536 92.0608C59.8337 92.1102 59.8038 92.1549 59.7658 92.1921C59.7277 92.2294 59.6824 92.2583 59.6326 92.2771L48.784 97.4361C64.261 102.821 78.275 112.304 93.7775 117.363C94.1253 117.546 94.5282 117.595 94.9097 117.5C95.2912 117.406 95.6248 117.175 95.8472 116.851C102.498 110.275 109.68 103.53 118.323 99.107L111.452 97.095C111.404 97.0808 111.358 97.0572 111.319 97.0255C111.279 96.9938 111.247 96.9546 111.222 96.9103C111.173 96.8207 111.162 96.7153 111.191 96.6172C111.219 96.5192 111.286 96.4366 111.375 96.3876C111.465 96.3386 111.57 96.3271 111.668 96.3558L119.48 98.6435C119.555 98.6653 119.621 98.7092 119.67 98.7693C119.719 98.8294 119.749 98.903 119.755 98.9803C119.762 99.0577 119.745 99.1352 119.707 99.2028C119.668 99.2703 119.611 99.3247 119.541 99.3588C110.609 103.716 103.217 110.645 96.4155 117.369C96.0867 117.805 95.6179 118.114 95.0881 118.245C94.5582 118.376 93.9994 118.32 93.5056 118.088Z" fill="#3D1D0B"/>
<path d="M78.506 76.2106L51.9949 89.0819C67.8902 94.8687 83.5621 101.198 99.0103 108.069C106.804 100.737 115.026 93.6026 124.788 89.2082C109.823 83.3727 94.3211 79.0193 78.506 76.2106Z" fill="white"/>
<path d="M99.0098 108.453C98.4785 108.453 80.9918 100.05 51.8627 89.4429C51.7918 89.4169 51.7301 89.3707 51.6852 89.3099C51.6404 89.2491 51.6145 89.1765 51.6106 89.1011C51.6068 89.0256 51.6252 88.9507 51.6636 88.8857C51.7019 88.8207 51.7586 88.7684 51.8265 88.7353L65.2345 82.2257C65.3264 82.1811 65.4323 82.1748 65.5288 82.2082C65.6253 82.2417 65.7046 82.3121 65.7493 82.404C65.7939 82.4959 65.8002 82.6017 65.7667 82.6982C65.7333 82.7948 65.6629 82.8741 65.571 82.9187L52.98 89.0317C68.502 94.7077 83.8284 100.905 98.9328 107.614C105.877 101.088 114.064 93.815 123.804 89.2389C110.539 84.1271 96.8558 80.1748 82.9083 77.4263C82.8579 77.4174 82.8098 77.3985 82.7667 77.3708C82.7237 77.3431 82.6866 77.3071 82.6576 77.2649C82.6287 77.2226 82.6084 77.175 82.5981 77.1249C82.5878 77.0748 82.5875 77.0231 82.5974 76.9728C82.6073 76.9226 82.6271 76.8748 82.6557 76.8323C82.6842 76.7899 82.721 76.7535 82.7638 76.7254C82.8066 76.6973 82.8545 76.678 82.9049 76.6686C82.9552 76.6593 83.0069 76.66 83.0569 76.6709C97.3469 79.4865 111.359 83.5621 124.93 88.85C125.001 88.8776 125.062 88.9254 125.106 88.9875C125.149 89.0496 125.173 89.1232 125.175 89.1991C125.177 89.2749 125.157 89.3497 125.116 89.4139C125.076 89.4781 125.017 89.5289 124.948 89.56C114.867 94.0968 106.411 101.637 99.277 108.348C99.2049 108.416 99.1091 108.454 99.0098 108.453Z" fill="#3D1D0B"/>
<path d="M30.4139 63.6789C30.6671 61.0141 31.4708 58.4309 32.7739 56.0928C35.3234 52.1658 40.1159 50.4241 44.6458 49.2483C49.1757 48.0725 65.3773 42.7472 68.0361 48.0163C68.6481 49.5072 68.9048 51.12 68.7861 52.7272C68.7686 59.1689 68.4247 65.6056 67.7558 72.0126C67.746 72.3065 67.6685 72.5943 67.5294 72.8534C67.2414 73.2062 66.8381 73.4462 66.3906 73.531C55.1971 76.9583 43.3976 79.092 31.9154 81.0901C31.5686 81.1943 31.1958 81.1685 30.8667 81.0177C30.5758 80.7963 30.3787 80.4736 30.3146 80.1137C28.8739 74.7422 29.8256 69.1074 30.4139 63.6789Z" fill="#FFE55D"/>
<path d="M140.799 103.169C137.681 103.169 135.157 101.586 135.157 99.6516V106.676C135.157 107.977 135.674 109.224 136.592 110.145C137.511 111.065 138.758 111.584 140.059 111.586H141.448C142.748 111.584 143.995 111.065 144.913 110.145C145.832 109.224 146.348 107.977 146.348 106.676V100.248C145.854 101.902 143.512 103.169 140.799 103.169Z" fill="#FFE55D"/>
<path d="M146.782 99.6517C146.782 97.4633 144.134 95.7493 140.755 95.7493C137.375 95.7493 134.728 97.4633 134.728 99.6517L134.773 106.676C134.778 108.078 135.336 109.42 136.326 110.412C137.316 111.403 138.658 111.964 140.059 111.971H141.452C142.854 111.966 144.197 111.407 145.187 110.415C146.177 109.422 146.734 108.078 146.736 106.676C146.735 97.4487 146.782 100.592 146.782 99.6517ZM145.966 106.676C145.965 107.874 145.489 109.023 144.642 109.871C143.796 110.719 142.649 111.197 141.451 111.201H140.062C138.864 111.197 137.716 110.719 136.87 109.871C136.024 109.023 135.548 107.874 135.546 106.676V101.609C137.846 104.164 143.586 104.222 145.969 101.637L145.966 106.676Z" fill="#3D1D0B"/>
<path d="M15.5935 83.8432C15.4985 83.8438 15.4066 83.8093 15.3355 83.7462C15.2644 83.6832 15.2192 83.596 15.2085 83.5016C15.1978 83.4072 15.2224 83.3122 15.2775 83.2348C15.3327 83.1574 15.4145 83.1032 15.5072 83.0825L128.164 57.0434C128.262 57.0234 128.364 57.0426 128.449 57.0969C128.533 57.1512 128.593 57.2362 128.615 57.334C128.638 57.4318 128.622 57.5345 128.57 57.6203C128.518 57.7061 128.434 57.7682 128.337 57.7934C15.2739 83.9926 15.6713 83.8432 15.5935 83.8432Z" fill="#3D1D0B"/>
<path d="M30.6931 111.958C36.1185 113.964 41.4741 116.17 46.7599 118.576C47.9149 119.101 60.0963 125.718 60.0963 125.718C60.0963 125.718 71.1451 112.611 79.4357 107.469C73.3073 104.583 67.0264 102.032 60.6207 99.8285C59.474 99.354 58.2426 99.1182 57.0017 99.1355C55.9232 99.2737 54.8769 99.5981 53.9094 100.094C46.6945 103.295 40.4382 105.843 30.6931 111.958Z" fill="white"/>
<path d="M59.7192 125.798C58.7552 124.851 48.3756 119.73 46.6007 118.926C41.3344 116.532 35.9838 114.328 30.5593 112.318C30.4918 112.293 30.4326 112.25 30.3885 112.193C30.3443 112.136 30.317 112.068 30.3096 111.996C30.3023 111.925 30.3151 111.852 30.3467 111.788C30.3783 111.723 30.4274 111.669 30.4885 111.63C39.3589 106.065 44.8728 103.667 53.7556 99.7424C54.7566 99.2297 55.8392 98.8952 56.9549 98.7537C58.2625 98.7256 59.5614 98.9719 60.768 99.4767C67.179 101.683 73.4656 104.236 79.5998 107.124C79.6607 107.152 79.7129 107.196 79.7514 107.252C79.7898 107.307 79.8132 107.371 79.8191 107.438C79.825 107.505 79.8133 107.572 79.7851 107.633C79.7569 107.694 79.7132 107.747 79.6584 107.786C72.4229 112.917 65.9395 119.033 60.396 125.958C60.3505 126.015 60.2898 126.057 60.2209 126.081C60.152 126.105 60.0779 126.108 60.007 126.092C59.9361 126.075 59.8715 126.038 59.8206 125.986C59.7696 125.934 59.7345 125.869 59.7192 125.798ZM31.5611 111.869C36.7201 113.799 41.8868 115.935 46.9187 118.225C47.0381 118.279 57.7988 123.371 60.0649 125.142C65.455 118.47 71.7143 112.551 78.6758 107.541C72.748 104.776 66.6792 102.325 60.4946 100.196C59.3906 99.7364 58.2045 99.5067 57.0088 99.5206C55.9897 99.6564 55.0016 99.9664 54.0874 100.437C46.5068 103.789 40.7372 106.183 31.5611 111.869Z" fill="#3D1D0B"/>
<path d="M76.2103 82.0514C76.1856 80.6076 77.7017 76.5898 80.4453 76.2286C83.6692 77.2635 84.5355 77.8164 85.1369 78.8274C85.7382 79.8384 85.7629 80.6076 84.9205 80.6076C85.2816 81.45 85.1315 82.277 83.7724 82.1638C84.169 83.1548 83.7886 83.9348 82.86 83.5952C80.7084 82.8324 78.4778 82.3145 76.2103 82.0514Z" fill="white"/>
<path d="M74.6889 47.4549C78.1439 44.0145 82.9726 43.3439 85.8278 44.7599C86.6416 45.2263 87.3622 45.8392 87.953 46.5678C94.7621 54.8892 92.6099 71.8885 80.7827 74.4973C78.8205 74.9242 76.7742 74.7327 74.9253 73.9491C73.0764 73.1655 71.5156 71.8283 70.4578 70.1214C69.5982 68.7565 69.0252 67.2311 68.7737 65.6379C68.5222 64.0446 68.5974 62.4169 68.9948 60.8537C68.3458 60.8253 67.7181 60.6131 67.1851 60.2418C66.6521 59.8704 66.2355 59.3552 65.9841 58.7562C65.5758 57.843 65.3647 56.854 65.3647 55.8537C65.3647 54.8534 65.5758 53.8643 65.9841 52.9511C66.079 52.6706 66.2413 52.4177 66.4568 52.2146C66.6722 52.0114 66.9343 51.8643 67.2199 51.7861C67.5042 51.7755 67.7874 51.8245 68.0515 51.9301C68.7594 52.2841 69.5252 52.5079 70.3123 52.5908C71.9308 52.5815 73.547 48.5922 74.6889 47.4549Z" fill="white"/>
<path d="M69.7588 62.3595C69.7588 63.3339 70.1458 64.2683 70.8348 64.9572C71.5237 65.6462 72.4581 66.0332 73.4325 66.0332C74.4068 66.0332 75.3412 65.6462 76.0301 64.9572C76.7191 64.2683 77.1061 63.3339 77.1061 62.3595C77.1061 61.3852 76.7191 60.4508 76.0301 59.7619C75.3412 59.0729 74.4068 58.6859 73.4325 58.6859C72.4581 58.6859 71.5237 59.0729 70.8348 59.7619C70.1458 60.4508 69.7588 61.3852 69.7588 62.3595Z" fill="#FFE55D"/>
<path d="M85.248 69.3098C85.248 69.727 85.3302 70.1401 85.4899 70.5256C85.6495 70.911 85.8836 71.2613 86.1786 71.5563C86.4736 71.8513 86.8238 72.0853 87.2093 72.245C87.5947 72.4046 88.0079 72.4868 88.4251 72.4868C88.8423 72.4868 89.2554 72.4046 89.6409 72.245C90.0263 72.0853 90.3765 71.8513 90.6716 71.5563C90.9666 71.2613 91.2006 70.911 91.3603 70.5256C91.5199 70.1401 91.6021 69.727 91.6021 69.3098C91.6021 68.8926 91.5199 68.4795 91.3603 68.094C91.2006 67.7086 90.9666 67.3583 90.6716 67.0633C90.3765 66.7683 90.0263 66.5343 89.6409 66.3746C89.2554 66.215 88.8423 66.1328 88.4251 66.1328C88.0079 66.1328 87.5947 66.215 87.2093 66.3746C86.8238 66.5343 86.4736 66.7683 86.1786 67.0633C85.8836 67.3583 85.6495 67.7086 85.4899 68.094C85.3302 68.4795 85.248 68.8926 85.248 69.3098Z" fill="#FFE55D"/>
<path d="M84.9414 68.1015C84.8508 68.1013 84.7631 68.0692 84.6938 68.0108C84.6245 67.9523 84.578 67.8713 84.5626 67.7819C84.244 65.9172 84.0518 64.0331 83.9874 62.1424C83.9581 61.8931 83.9943 61.6405 84.0925 61.4094C84.1907 61.1784 84.3474 60.977 84.5472 60.825C85.0109 60.4052 85.5091 60.025 86.0364 59.6885C86.1224 59.6335 86.2268 59.615 86.3265 59.6371C86.4262 59.6591 86.5131 59.7198 86.5681 59.8059C86.623 59.892 86.6415 59.9963 86.6195 60.096C86.5974 60.1958 86.5367 60.2826 86.4506 60.3376C85.9537 60.6554 85.4841 61.0142 85.0469 61.4102C84.9313 61.5003 84.8384 61.6164 84.7759 61.749C84.7499 61.8607 84.7429 61.976 84.7551 62.0901C84.8189 63.9546 85.008 65.8127 85.321 67.6518C85.3305 67.707 85.3277 67.7637 85.313 67.8177C85.2982 67.8718 85.2719 67.922 85.2357 67.9648C85.1996 68.0076 85.1545 68.0421 85.1037 68.0657C85.0528 68.0893 84.9975 68.1015 84.9414 68.1015Z" fill="#3D1D0B"/>
<path d="M101.013 35.3658C100.962 35.3582 100.913 35.3404 100.869 35.3135C100.825 35.2867 100.787 35.2513 100.757 35.2095C100.727 35.1677 100.706 35.1203 100.694 35.0701C100.683 35.0199 100.682 34.968 100.691 34.9173C100.7 34.8667 100.719 34.8183 100.747 34.7752C100.775 34.7321 100.811 34.695 100.854 34.6662C100.897 34.6373 100.945 34.6174 100.995 34.6074C101.046 34.5974 101.098 34.5977 101.148 34.6081C101.654 34.6968 102.175 34.5835 102.599 34.2926C103.023 34.0017 103.316 33.5563 103.415 33.052C103.487 32.5057 103.414 31.9499 103.201 31.4415C102.988 30.933 102.644 30.4902 102.204 30.1583C101.255 29.4573 100.141 29.0128 98.9705 28.8678C95.2403 28.2651 91.4181 29.0335 88.2105 31.0307C87.3208 31.5481 86.5537 32.2521 85.9621 33.0943C85.9338 33.1374 85.8972 33.1744 85.8544 33.2031C85.8116 33.2318 85.7634 33.2516 85.7128 33.2613C85.6622 33.271 85.6102 33.2705 85.5598 33.2598C85.5094 33.249 85.4617 33.2282 85.4194 33.1987C85.3772 33.1691 85.3413 33.1314 85.314 33.0878C85.2866 33.0441 85.2682 32.9954 85.26 32.9445C85.2518 32.8936 85.2539 32.8416 85.2662 32.7916C85.2785 32.7415 85.3007 32.6944 85.3315 32.6531C85.9846 31.7226 86.8311 30.9443 87.8132 30.3716C91.1724 28.2811 95.1743 27.4759 99.0806 28.1047C100.379 28.2677 101.614 28.7623 102.666 29.5408C103.218 29.9579 103.649 30.5148 103.914 31.1539C104.179 31.793 104.269 32.4913 104.174 33.1767C104.04 33.8836 103.633 34.5093 103.042 34.9189C102.45 35.3285 101.721 35.489 101.013 35.3658Z" fill="#3D1D0B"/>
<path d="M57.8402 53.6625C56.2471 53.6625 55.591 51.7891 56.2586 50.4062C56.6297 49.6667 57.1456 49.0092 57.7755 48.4727C61.4199 45.057 65.149 43.179 68.8466 42.9033C68.8971 42.8996 68.9479 42.9058 68.9961 42.9217C69.0442 42.9376 69.0888 42.9628 69.1271 42.9959C69.1655 43.029 69.197 43.0694 69.2199 43.1146C69.2427 43.1599 69.2563 43.2093 69.2601 43.2598C69.2638 43.3104 69.2575 43.3612 69.2417 43.4093C69.2258 43.4575 69.2005 43.502 69.1674 43.5404C69.1343 43.5788 69.094 43.6103 69.0487 43.6331C69.0034 43.6559 68.9541 43.6696 68.9035 43.6733C65.3862 43.9359 61.8149 45.7446 58.2883 49.0494C57.7324 49.5205 57.277 50.0987 56.9493 50.7496C56.8154 51.0268 56.7537 51.3334 56.7699 51.6408C56.786 51.9482 56.8795 52.2466 57.0417 52.5083C57.2018 52.7165 57.4373 52.8534 57.6974 52.8896C57.9576 52.9257 58.2215 52.8582 58.4323 52.7016C58.5155 52.6394 58.619 52.6106 58.7224 52.621C58.8257 52.6314 58.9214 52.6802 58.9906 52.7578C59.0227 52.7934 59.0474 52.8352 59.063 52.8806C59.0787 52.9261 59.0851 52.9741 59.0818 53.0221C59.0785 53.07 59.0656 53.1168 59.0438 53.1596C59.022 53.2024 58.9919 53.2404 58.9552 53.2714C58.6391 53.5252 58.2456 53.6632 57.8402 53.6625Z" fill="#3D1D0B"/>
<path d="M71.5687 39.8085C71.4922 39.8085 71.4174 39.7857 71.3539 39.743C68.9866 38.1541 66.2431 37.2157 63.3986 37.0219C60.5541 36.8281 57.7086 37.3857 55.1477 38.6389C55.0558 38.6839 54.9498 38.6906 54.8529 38.6574C54.7561 38.6243 54.6764 38.554 54.6314 38.4621C54.5864 38.3702 54.5797 38.2642 54.6128 38.1674C54.646 38.0706 54.7162 37.9909 54.8081 37.9459C57.4906 36.6331 60.4712 36.0488 63.4508 36.2515C66.4304 36.4542 69.3043 37.4368 71.7843 39.1009C71.8543 39.1464 71.9075 39.2134 71.9361 39.2919C71.9646 39.3703 71.9669 39.4559 71.9426 39.5357C71.9182 39.6156 71.8686 39.6854 71.8012 39.7346C71.7338 39.7838 71.6522 39.8097 71.5687 39.8085Z" fill="#3D1D0B"/>
<path d="M79.8644 57.8574C79.8529 57.8336 79.839 57.8112 79.8228 57.7904C79.6901 57.6173 79.5133 57.4831 79.3109 57.4019C79.1085 57.3206 78.888 57.2952 78.6724 57.3284C78.5715 57.3438 78.4807 57.3987 78.4202 57.481C78.3597 57.5633 78.3344 57.6663 78.3498 57.7673C78.3652 57.8683 78.4201 57.959 78.5024 58.0195C78.5848 58.08 78.6877 58.1053 78.7887 58.0899C78.8609 58.079 78.9347 58.0859 79.0036 58.1099C79.0726 58.1339 79.1347 58.1743 79.1845 58.2277C79.2036 58.288 79.2036 58.3528 79.1846 58.4131C79.1656 58.4735 79.1284 58.5265 79.0782 58.565C78.8917 58.7146 78.6754 58.8228 78.4437 58.8822C78.3517 58.9061 78.2717 58.9632 78.2192 59.0425C78.1668 59.1219 78.1455 59.2178 78.1596 59.3119C78.1721 59.4064 78.2198 59.4927 78.2932 59.5535C78.3666 59.6143 78.4602 59.6452 78.5554 59.6399C78.5903 59.6399 78.6242 59.6518 78.6515 59.6736C78.6788 59.6955 78.6979 59.7259 78.7056 59.76C78.637 60.1073 78.1612 60.0726 77.9071 59.8039C77.8646 59.7593 77.8121 59.7255 77.7538 59.7054C77.6956 59.6852 77.6334 59.6794 77.5725 59.6883C77.5115 59.6972 77.4536 59.7206 77.4035 59.7565C77.3535 59.7925 77.3128 59.8399 77.2849 59.8948C76.8805 59.8394 76.471 59.8298 76.0645 59.8663C75.9623 59.8756 75.8681 59.925 75.8025 60.0038C75.7368 60.0826 75.7052 60.1842 75.7145 60.2863C75.7238 60.3884 75.7732 60.4827 75.852 60.5483C75.9308 60.6139 76.0324 60.6456 76.1345 60.6363C77.0884 60.5473 78.0459 60.763 78.8696 61.2523C78.9571 61.2999 79.0598 61.3117 79.1559 61.2852C79.252 61.2587 79.334 61.1959 79.3848 61.1102C79.4356 61.0244 79.4511 60.9222 79.4281 60.8252C79.4051 60.7282 79.3454 60.6439 79.2615 60.5901C79.2138 60.5616 79.1656 60.5341 79.1167 60.5077C79.2887 60.3689 79.4061 60.1738 79.4484 59.9569C79.4906 59.74 79.455 59.5151 79.3477 59.3219C79.4193 59.276 79.4885 59.2264 79.5549 59.1733C79.7488 59.0221 79.8852 58.8092 79.9415 58.5699C79.9978 58.3305 79.9706 58.0791 79.8644 57.8574Z" fill="#3D1D0B"/>
<path d="M89.0187 62.1077C88.9645 62.002 88.8888 61.9087 88.7965 61.8339C88.7043 61.7591 88.5974 61.7043 88.4827 61.6731C88.3681 61.642 88.2482 61.6351 88.1307 61.6529C88.0132 61.6707 87.9008 61.7128 87.8005 61.7766C87.7165 61.8323 87.6576 61.9187 87.6366 62.0173C87.6156 62.1159 87.6341 62.2189 87.6881 62.304C87.7422 62.3891 87.8275 62.4496 87.9257 62.4725C88.0239 62.4954 88.1271 62.4789 88.2133 62.4265C88.328 62.3549 88.3565 62.4858 88.2749 62.5227C88.1339 62.5697 87.7074 62.495 87.4494 62.8045C87.4122 62.8492 87.3856 62.9018 87.3716 62.9582C87.3575 63.0147 87.3565 63.0735 87.3685 63.1304C87.3805 63.1874 87.4052 63.2408 87.4409 63.2868C87.4765 63.3328 87.5221 63.3701 87.5742 63.3959C87.6176 63.4184 87.6562 63.4494 87.6876 63.487C87.7189 63.5246 87.7425 63.5681 87.7568 63.6149C87.7712 63.6618 87.776 63.711 87.7711 63.7597C87.7662 63.8084 87.7516 63.8557 87.7282 63.8987C87.6412 63.9908 87.5236 64.0481 87.3974 64.0597C87.2713 64.0713 87.1452 64.0365 87.0429 63.9619C86.9797 63.9155 86.904 63.8895 86.8257 63.8873C86.7474 63.8851 86.6703 63.9068 86.6047 63.9495C86.4564 63.853 86.3021 63.7661 86.1427 63.6893C86.0518 63.652 85.9501 63.6508 85.8584 63.6861C85.7668 63.7213 85.692 63.7903 85.6495 63.8789C85.607 63.9674 85.5999 64.0689 85.6298 64.1625C85.6596 64.2561 85.7241 64.3347 85.8101 64.3823C86.5348 64.7288 87.1104 65.3247 87.4317 66.0609C87.4726 66.1545 87.5489 66.2281 87.644 66.2654C87.7391 66.3027 87.8451 66.3008 87.9388 66.2599C88.0324 66.2191 88.106 66.1427 88.1433 66.0476C88.1806 65.9525 88.1786 65.8465 88.1378 65.7529C87.9895 65.4135 87.796 65.0957 87.5626 64.8081C87.7352 64.7899 87.901 64.7313 88.0466 64.637C88.1922 64.5426 88.3135 64.4152 88.4006 64.2651C88.4876 64.115 88.538 63.9464 88.5476 63.7732C88.5572 63.5999 88.5258 63.4269 88.4558 63.2681C88.5745 63.2373 88.6851 63.1811 88.78 63.1034C88.8748 63.0256 88.9517 62.9282 89.0052 62.8179C89.0587 62.7075 89.0877 62.5869 89.09 62.4643C89.0923 62.3416 89.068 62.22 89.0187 62.1077Z" fill="#3D1D0B"/>
<path d="M75.751 57.142C75.7469 57.0916 75.7528 57.0409 75.7683 56.9928C75.7838 56.9446 75.8086 56.9 75.8414 56.8614C75.8741 56.8229 75.9141 56.7912 75.9592 56.7681C76.0042 56.7451 76.0533 56.7311 76.1037 56.727C78.213 56.554 80.2518 55.8858 82.0543 54.7766C82.0972 54.7474 82.1457 54.7272 82.1967 54.7172C82.2477 54.7073 82.3002 54.7077 82.351 54.7186C82.4018 54.7294 82.4499 54.7505 82.4924 54.7804C82.5348 54.8103 82.5708 54.8486 82.5981 54.8928C82.6254 54.937 82.6435 54.9863 82.6513 55.0376C82.659 55.089 82.6563 55.1414 82.6432 55.1917C82.6302 55.242 82.6071 55.2892 82.5753 55.3303C82.5436 55.3714 82.5039 55.4057 82.4585 55.4311C80.5525 56.6043 78.3967 57.3113 76.1661 57.4947C76.1157 57.4988 76.0649 57.4929 76.0168 57.4774C75.9686 57.4619 75.924 57.4371 75.8855 57.4044C75.8469 57.3716 75.8152 57.3316 75.7922 57.2866C75.7691 57.2416 75.7551 57.1924 75.751 57.142Z" fill="#3D1D0B"/>
<path d="M74.7029 69.8549C73.9614 69.7587 73.8736 69.0942 74.2933 68.7769C77.0845 66.2552 81.3773 67.2115 81.6521 69.2205C81.6661 69.3206 81.64 69.4222 81.5797 69.5033C81.5193 69.5844 81.4294 69.6385 81.3295 69.654C79.6886 69.9065 77.933 69.6047 76.3245 69.7826C75.7879 69.8628 75.2445 69.8871 74.7029 69.8549ZM75.1141 69.0942C76.2886 68.9893 77.4679 68.9479 78.6468 68.9702C79.3417 69.0022 80.0379 68.995 80.732 68.9486C79.9928 67.9284 77.2501 67.4695 75.1141 69.0942Z" fill="#3D1D0B"/>
<path d="M85.9307 79.8303C85.7643 78.8532 85.2227 77.9798 84.4215 77.3963C83.7468 76.9047 82.9954 76.5283 82.1977 76.2821C82.2978 75.926 82.322 75.5529 82.269 75.1869C82.2159 74.8208 82.0867 74.4699 81.8897 74.1569C80.2289 71.5212 73.9634 71.1724 70.861 70.7997C70.2702 69.9918 69.7229 69.1528 69.2217 68.2864C69.0178 67.7524 68.6117 67.3203 68.0913 67.0837C66.5513 66.1166 64.8512 62.2666 64.7804 61.8869C64.7617 61.7866 64.7039 61.6977 64.6197 61.64C64.5355 61.5822 64.4318 61.5603 64.3314 61.5789C58.9852 62.5739 53.8223 64.3799 49.0215 66.9343C46.3589 68.3596 43.0194 70.3993 40.8056 73.5524C39.82 74.9485 38.7744 77.0544 39.3911 79.1811C39.6714 79.9906 40.1312 80.7261 40.736 81.3325C41.3409 81.939 42.0752 82.4007 42.8839 82.6831C44.4249 83.2189 46.0473 83.4829 47.6786 83.4631C57.0172 83.8212 72.2817 82.3543 76.0401 82.4406C78.0657 82.721 80.0649 83.167 82.0176 83.7742C83.8833 84.3055 84.5239 83.3399 84.1312 82.5176C85.0552 82.583 85.7328 81.9832 85.4933 81.0546C85.6608 80.9018 85.7882 80.7103 85.8645 80.4969C85.9407 80.2834 85.9635 80.0545 85.9307 79.8303ZM85.1453 80.1937C84.5867 79.608 83.8638 79.2053 83.0717 79.0387C82.9769 79.0184 82.8779 79.0347 82.7946 79.0842C82.7112 79.1338 82.6496 79.213 82.6221 79.3059C82.5946 79.3989 82.6032 79.4988 82.6461 79.5857C82.6891 79.6727 82.7632 79.7402 82.8538 79.7748C83.455 80.0081 84.0018 80.3628 84.46 80.8166C84.564 80.8943 84.6475 80.996 84.7035 81.1131C84.7594 81.2302 84.7861 81.3592 84.7811 81.4888C84.6887 81.8346 84.0311 81.7914 83.6892 81.6213C83.1047 81.188 82.4091 80.9295 81.6834 80.8759C81.5921 80.8821 81.5061 80.9206 81.4406 80.9845C81.3751 81.0484 81.3346 81.1335 81.3261 81.2245C81.3177 81.3156 81.342 81.4067 81.3946 81.4815C81.4472 81.5563 81.5248 81.61 81.6133 81.6328C82.2325 81.7906 82.7957 82.1171 83.2403 82.5761C83.4513 82.7955 83.4937 82.9749 83.4713 83.0104C83.3566 83.1959 82.8353 83.2059 82.2393 83.035C80.4294 82.4729 78.5801 82.0462 76.7069 81.7583C76.5775 79.7394 78.6057 77.3285 80.2281 76.5447C80.734 76.6571 81.2337 76.8011 81.7358 76.9481C82.5363 77.1726 83.2918 77.5342 83.9688 78.0169C84.5923 78.4682 85.0211 79.1395 85.1684 79.8949C85.1674 79.9951 85.1584 80.095 85.1415 80.1937H85.1453Z" fill="#3D1D0B"/>
<path d="M48.9205 114.018C49.8876 115.347 79.1276 108.485 85.7103 108.551C81.1258 104.076 75.5948 97.2461 70.2764 93.7048C68.7126 92.6646 38.9836 95.405 37.2026 96.5715C40.1771 100.809 44.7509 108.287 48.9205 114.018Z" fill="white"/>
<path d="M49.8985 114.56C49.1516 114.56 48.7597 114.452 48.6087 114.245C44.3506 108.387 39.9701 101.183 36.887 96.7887C36.8573 96.7464 36.8365 96.6986 36.8257 96.6481C36.8149 96.5976 36.8143 96.5454 36.8241 96.4947C36.8339 96.444 36.8537 96.3957 36.8825 96.3528C36.9113 96.31 36.9485 96.2733 36.9917 96.2451C39.1277 94.8468 68.8697 92.3042 70.4867 93.3807C75.8767 96.972 81.3537 103.759 85.9761 108.272C86.0311 108.325 86.0688 108.394 86.0844 108.47C86.0999 108.545 86.0925 108.623 86.0632 108.694C86.0339 108.765 85.9839 108.826 85.9198 108.868C85.8557 108.911 85.7804 108.933 85.7035 108.932C79.7314 108.885 54.9643 114.56 49.8985 114.56ZM49.2055 113.753C51.0789 114.527 77.349 108.604 84.801 108.189C80.3035 103.68 75.1137 97.3885 70.0648 94.0205C68.561 93.1897 41.6464 95.509 37.7895 96.7317C40.764 101.031 45.1761 108.209 49.2016 113.753H49.2055Z" fill="#3D1D0B"/>
<path d="M120.791 98.6606H106.072C105.638 98.6606 104.198 99.011 102.802 99.2913C102.707 99.3275 102.626 99.3916 102.568 99.475C102.511 99.5585 102.48 99.6574 102.48 99.7587C102.48 99.8599 102.511 99.9588 102.568 100.042C102.626 100.126 102.707 100.19 102.802 100.226C104.527 100.573 105.738 100.859 106.07 100.859H120.79C120.936 100.863 121.083 100.837 121.219 100.784C121.356 100.73 121.481 100.65 121.586 100.548C121.691 100.445 121.775 100.323 121.832 100.187C121.889 100.052 121.918 99.9067 121.918 99.7598C121.918 99.613 121.889 99.4676 121.832 99.3323C121.775 99.197 121.691 99.0745 121.586 98.9721C121.481 98.8696 121.356 98.7893 121.219 98.7358C121.083 98.6823 120.936 98.6567 120.79 98.6606H120.791Z" fill="#3D1D0B"/>
<path d="M119.752 100.501C120.013 99.2722 120.039 98.0054 119.829 96.7671C119.367 94.1044 117.945 92.9733 115.725 92.653C115.136 92.5786 114.538 92.6262 113.969 92.7927C113.399 92.9592 112.87 93.2411 112.414 93.6209C110.247 95.3611 109.522 96.6239 109.026 98.6659C109.93 98.7429 110.258 98.6659 111.105 98.7652C111.665 98.7652 111.694 98.0946 112.371 98.5027C113.594 99.2411 112.51 100.922 111.72 101.568C111.489 101.759 111.204 101.953 111.177 102.255C111.15 102.557 111.521 102.898 111.883 102.979C113.401 103.317 114.704 101.875 115.02 100.537C114.982 101.022 114.844 101.493 114.613 101.921C114.383 102.349 114.066 102.725 113.682 103.023C113.537 103.12 113.411 103.243 113.311 103.385C113.024 103.982 113.669 104.663 114.36 104.642C114.838 104.62 115.295 104.435 115.653 104.117C116.085 103.755 116.439 103.309 116.694 102.806C116.948 102.303 117.099 101.754 117.136 101.191C117.08 101.985 116.916 102.767 116.647 103.515C116.594 103.611 116.571 103.721 116.581 103.831C116.592 103.94 116.635 104.044 116.706 104.128C116.776 104.212 116.871 104.273 116.977 104.302C117.083 104.332 117.195 104.328 117.299 104.292C118.712 104.073 119.498 101.717 119.752 100.501Z" fill="white"/>
<path d="M120.818 72.02C119.904 70.894 118.736 70.0016 117.409 69.4166C113.302 67.3923 107.082 66.5445 103.458 69.5791C101.12 71.8337 102.577 75.6252 102.654 75.6921C105.437 78.1227 107.563 81.214 108.838 84.6816C110.113 88.1492 110.495 91.8817 109.95 95.5358C109.834 95.6898 109.721 95.8438 109.612 95.9978C109.257 96.5029 109.006 97.0742 108.876 97.678C108.746 98.2817 108.739 98.9054 108.854 99.5121C108.947 99.837 109.111 100.137 109.333 100.392C109.555 100.647 109.83 100.85 110.139 100.987C110.866 101.333 111.659 101.004 111.683 100.264C111.648 99.9878 111.522 99.7312 111.327 99.5337C111.273 99.4273 111.258 99.3055 111.284 99.1892C111.309 99.0728 111.375 98.969 111.468 98.8953C111.623 98.8107 111.801 98.7809 111.974 98.8108C112.147 98.8408 112.305 98.9287 112.422 99.0601C112.779 99.7338 112.057 100.793 111.405 101.339C111.244 101.438 111.105 101.57 110.997 101.726C110.889 101.882 110.815 102.059 110.779 102.245C110.796 102.519 110.904 102.779 111.086 102.985C111.269 103.19 111.514 103.329 111.784 103.379C112.152 103.461 112.534 103.455 112.9 103.363C112.48 104.59 114.351 106.038 116.233 104.117C116.313 104.337 116.473 104.519 116.681 104.625C116.889 104.732 117.13 104.756 117.354 104.692C119.179 104.346 119.938 101.464 120.126 100.585C120.371 99.4041 120.414 98.1898 120.253 96.9942C126.52 89.9641 125.995 78.525 120.818 72.02ZM119.375 100.428C118.588 104.065 116.657 104.328 116.994 103.669C117.275 102.885 117.447 102.067 117.505 101.236C117.511 101.134 117.476 101.034 117.409 100.957C117.341 100.88 117.246 100.834 117.143 100.827C117.041 100.821 116.941 100.855 116.864 100.923C116.787 100.991 116.741 101.086 116.735 101.188C116.702 101.702 116.564 102.203 116.331 102.662C116.098 103.121 115.774 103.528 115.379 103.857C115.091 104.116 114.723 104.266 114.336 104.284C114.245 104.291 114.154 104.279 114.068 104.25C113.982 104.22 113.902 104.174 113.834 104.113C113.766 104.053 113.712 103.979 113.673 103.897C113.634 103.814 113.612 103.725 113.609 103.634C113.688 103.523 113.788 103.428 113.902 103.354C114.327 103.022 114.679 102.605 114.934 102.13C115.19 101.655 115.344 101.132 115.386 100.594C115.393 100.498 115.363 100.403 115.303 100.328C115.243 100.253 115.157 100.203 115.062 100.188C114.967 100.174 114.87 100.195 114.789 100.248C114.709 100.301 114.652 100.382 114.629 100.475C114.376 101.542 113.276 102.922 111.951 102.631C111.864 102.612 111.783 102.573 111.713 102.519C111.643 102.465 111.585 102.397 111.544 102.319C111.556 102.185 111.825 101.994 111.951 101.891C112.747 101.235 113.698 99.8316 113.067 98.6512C112.84 98.3536 112.513 98.1479 112.146 98.0722C111.78 97.9965 111.398 98.0558 111.072 98.2393C110.812 98.4169 110.625 98.6831 110.546 98.9883C110.468 99.2934 110.503 99.6167 110.645 99.8979C110.689 99.9749 111.228 100.658 110.468 100.296C110.257 100.207 110.069 100.072 109.917 99.9003C109.765 99.7286 109.655 99.5248 109.593 99.3042C109.492 98.7247 109.524 98.13 109.687 97.5649C109.85 96.9997 110.139 96.4789 110.532 96.0417C112.626 93.2343 114.468 92.5428 116.684 93.3991C117.781 93.8208 118.679 94.6418 119.196 95.6975C119.637 97.2368 119.699 98.8602 119.375 100.428Z" fill="#3D1D0B"/>
<path d="M17.4106 77.8521C14.0296 83.4854 9.11081 92.0655 3.84863 99.6431C17.338 100.734 30.852 101.463 44.3907 101.831C43.8571 90.6102 44.2097 87.3108 43.3419 78.2779L17.4106 77.8521Z" fill="white"/>
<path d="M44.7959 118.906C42.8978 109.358 44.695 103.326 44.7551 101.953C44.7707 101.907 44.7775 101.859 44.7751 101.811C44.2546 90.8611 44.5864 87.1982 43.7256 78.24C43.7165 78.1458 43.673 78.0582 43.6034 77.994C43.5338 77.9298 43.443 77.8934 43.3483 77.892L17.4178 77.467C17.3496 77.4625 17.2816 77.4777 17.2219 77.5109C17.1623 77.5441 17.1134 77.5938 17.0813 77.6541C16.4583 78.6912 15.783 79.8293 15.0631 81.0421C3.87269 99.9009 3.24129 99.2526 3.50078 99.807C3.53811 99.8858 3.6011 99.9496 3.67942 99.9879C4.78797 105.513 4.72686 111.209 3.50001 116.709C3.48792 116.763 3.48753 116.819 3.49887 116.873C3.5102 116.927 3.53299 116.978 3.5657 117.022C3.59841 117.066 3.64027 117.103 3.68845 117.13C3.73663 117.157 3.79 117.173 3.84497 117.177C21.2716 118.586 40.5663 119.366 44.4178 119.366C44.4748 119.367 44.5311 119.354 44.5827 119.33C44.6342 119.305 44.6797 119.27 44.7159 119.226C44.7521 119.182 44.778 119.13 44.7918 119.075C44.8057 119.02 44.807 118.962 44.7959 118.906ZM17.6272 78.2408L42.991 78.6566C43.8072 87.3291 43.4853 90.6324 43.9866 101.434C30.8233 101.067 17.6716 100.359 4.5449 99.3119C9.56068 92.0223 14.1021 84.1213 17.6272 78.2408Z" fill="#3D1D0B"/>
<path d="M28.9572 104.335C28.8709 104.335 25.2658 104.062 4.28328 102.597C4.23282 102.594 4.18354 102.581 4.13827 102.558C4.09299 102.535 4.05261 102.504 4.01943 102.466C3.98625 102.428 3.96092 102.383 3.94489 102.335C3.92886 102.287 3.92244 102.237 3.926 102.186C3.92901 102.136 3.94211 102.086 3.96452 102.041C3.98694 101.995 4.01822 101.955 4.05653 101.921C4.09484 101.888 4.1394 101.863 4.1876 101.847C4.2358 101.832 4.28665 101.826 4.33718 101.83L28.9841 103.565C29.0862 103.568 29.1827 103.612 29.2524 103.687C29.3221 103.762 29.3592 103.861 29.3556 103.963C29.3521 104.065 29.3081 104.162 29.2333 104.231C29.1586 104.301 29.0593 104.338 28.9572 104.335Z" fill="white"/>
<path d="M43.689 107.631L11.9173 105.721C11.8667 105.718 11.8173 105.705 11.7717 105.683C11.7262 105.661 11.6854 105.63 11.6518 105.592C11.6182 105.554 11.5924 105.51 11.5758 105.462C11.5593 105.414 11.5523 105.363 11.5554 105.313C11.5584 105.262 11.5714 105.213 11.5935 105.167C11.6157 105.122 11.6466 105.081 11.6845 105.047C11.7224 105.014 11.7665 104.988 11.8144 104.971C11.8623 104.955 11.9129 104.948 11.9635 104.951L43.7344 106.862C43.8366 106.868 43.932 106.915 43.9999 106.991C44.0678 107.068 44.1025 107.168 44.0963 107.27C44.0902 107.372 44.0438 107.468 43.9673 107.536C43.8907 107.604 43.7904 107.638 43.6882 107.632L43.689 107.631Z" fill="white"/>
<path d="M40.9377 110.75C40.6097 110.75 40.9308 110.758 8.96883 108.671C8.9183 108.668 8.86891 108.655 8.82347 108.633C8.77804 108.61 8.73746 108.579 8.70406 108.541C8.67066 108.503 8.64509 108.459 8.62882 108.411C8.61255 108.363 8.6059 108.312 8.60924 108.262C8.6177 108.161 8.66514 108.067 8.74156 108C8.81798 107.933 8.91741 107.898 9.01888 107.903L40.9623 109.982C41.0644 109.985 41.1611 110.029 41.231 110.103C41.3008 110.178 41.3383 110.277 41.335 110.379C41.3317 110.481 41.288 110.578 41.2135 110.648C41.139 110.718 41.0398 110.755 40.9377 110.752V110.75Z" fill="white"/>
<path d="M31.5378 111.983L16.7846 111.114C16.734 111.111 16.6846 111.099 16.639 111.076C16.5934 111.054 16.5526 111.023 16.519 110.986C16.4511 110.909 16.4163 110.809 16.4223 110.707C16.4283 110.605 16.4747 110.509 16.5511 110.441C16.6276 110.373 16.7279 110.338 16.83 110.344L31.5855 111.213C31.6876 111.219 31.7832 111.265 31.8511 111.342C31.9191 111.418 31.9538 111.519 31.9478 111.621C31.9418 111.723 31.8954 111.818 31.819 111.886C31.7425 111.954 31.6422 111.989 31.5401 111.983H31.5378Z" fill="white"/>
<path d="M33.1248 116.311C33.0362 116.311 33.3319 116.336 4.45613 114.402C4.35402 114.396 4.25877 114.349 4.19134 114.272C4.1239 114.195 4.0898 114.094 4.09654 113.992C4.10328 113.89 4.15031 113.795 4.22727 113.727C4.30424 113.66 4.40484 113.626 4.50695 113.632L33.151 115.54C33.2531 115.544 33.3496 115.588 33.4195 115.662C33.4893 115.737 33.5266 115.836 33.5232 115.938C33.5199 116.04 33.4761 116.137 33.4015 116.207C33.3269 116.277 33.2276 116.314 33.1255 116.31L33.1248 116.311Z" fill="white"/>
<path d="M38.8402 99.4758C38.4143 99.4758 27.8946 98.0397 12.2752 97.2875C12.2246 97.285 12.1751 97.2726 12.1294 97.251C12.0837 97.2294 12.0427 97.199 12.0087 97.1615C11.9747 97.124 11.9485 97.0802 11.9314 97.0326C11.9144 96.985 11.9069 96.9345 11.9094 96.884C11.9112 96.8333 11.923 96.7834 11.9444 96.7374C11.9657 96.6913 11.996 96.65 12.0335 96.6159C12.071 96.5817 12.115 96.5554 12.1629 96.5385C12.2107 96.5216 12.2615 96.5144 12.3121 96.5175C21.1916 96.9472 30.054 97.6779 38.884 98.7081C38.9861 98.7139 39.0818 98.7601 39.1498 98.8364C39.2179 98.9127 39.2529 99.0129 39.2471 99.115C39.2413 99.2172 39.1951 99.3128 39.1188 99.3809C39.0425 99.4489 38.9423 99.4839 38.8402 99.4781V99.4758Z" fill="#3D1D0B"/>
<path d="M38.415 97.6581C38.338 97.6581 38.1978 97.6335 27.7828 96.4261C27.6835 96.4119 27.5937 96.3595 27.5325 96.28C27.4712 96.2006 27.4434 96.1004 27.455 96.0007C27.4665 95.9011 27.5165 95.8099 27.5942 95.7465C27.672 95.6832 27.7714 95.6527 27.8714 95.6615L38.4589 96.8935C38.5094 96.8964 38.5589 96.9092 38.6045 96.9312C38.6501 96.9532 38.691 96.984 38.7247 97.0218C38.7584 97.0596 38.7843 97.1036 38.801 97.1514C38.8177 97.1993 38.8248 97.2499 38.8219 97.3005C38.819 97.351 38.8062 97.4005 38.7842 97.4461C38.7622 97.4917 38.7314 97.5325 38.6936 97.5663C38.6558 97.6 38.6118 97.6259 38.564 97.6426C38.5162 97.6593 38.4655 97.6664 38.415 97.6635V97.6581Z" fill="#3D1D0B"/>
<path d="M38.7491 95.5875C38.6721 95.5875 38.8122 95.5968 23.2721 93.9397C23.1727 93.9264 23.0824 93.8748 23.0204 93.7959C22.9585 93.717 22.9298 93.617 22.9404 93.5173C22.951 93.4176 23.0002 93.3259 23.0774 93.2618C23.1546 93.1978 23.2537 93.1664 23.3537 93.1743L38.7876 94.8198C38.8382 94.8225 38.8877 94.8351 38.9334 94.8569C38.9791 94.8788 39.02 94.9094 39.0539 94.947C39.0877 94.9847 39.1138 95.0286 39.1307 95.0763C39.1476 95.1241 39.1549 95.1747 39.1522 95.2252C39.1495 95.2758 39.1369 95.3253 39.1151 95.371C39.0933 95.4167 39.0626 95.4576 39.025 95.4915C38.9874 95.5253 38.9434 95.5515 38.8957 95.5683C38.8479 95.5852 38.7973 95.5925 38.7468 95.5898L38.7491 95.5875Z" fill="#3D1D0B"/>
<path d="M38.2675 90.9669C35.2306 90.7459 22.9837 89.9282 20.4204 89.7464C20.3183 89.7392 20.2232 89.6917 20.1562 89.6143C20.0891 89.537 20.0555 89.4362 20.0627 89.3341C20.07 89.232 20.1175 89.1369 20.1948 89.0699C20.2722 89.0028 20.373 88.9692 20.4751 88.9764C23.0376 89.1582 35.2853 89.9774 38.3237 90.1969C38.4258 90.2043 38.5207 90.252 38.5877 90.3295C38.6546 90.407 38.688 90.5079 38.6806 90.61C38.6731 90.7121 38.6254 90.8071 38.5479 90.874C38.4705 90.9409 38.3696 90.9743 38.2675 90.9669Z" fill="#3D1D0B"/>
<path d="M38.6672 89.3136C38.6672 89.3136 26.485 88.6098 20.6915 88.1817C20.641 88.1779 20.5917 88.1643 20.5464 88.1415C20.5011 88.1187 20.4608 88.0871 20.4277 88.0488C20.3946 88.0104 20.3693 87.9658 20.3534 87.9177C20.3375 87.8695 20.3313 87.8187 20.335 87.7682C20.3388 87.7176 20.3524 87.6683 20.3752 87.623C20.3981 87.5777 20.4296 87.5374 20.4679 87.5043C20.5063 87.4712 20.5509 87.446 20.599 87.4301C20.6472 87.4142 20.698 87.4079 20.7485 87.4117C26.5358 87.839 33.5606 88.2448 38.6895 88.542C38.7916 88.545 38.8884 88.5884 38.9585 88.6627C39.0286 88.737 39.0663 88.8361 39.0634 88.9382C39.0604 89.0403 39.017 89.137 38.9427 89.2072C38.8684 89.2773 38.7693 89.315 38.6672 89.312V89.3136Z" fill="#3D1D0B"/>
<path d="M38.9309 87.5673L22.1949 86.4192C22.0928 86.4123 21.9976 86.365 21.9303 86.2879C21.8631 86.2108 21.8292 86.1101 21.8361 86.008C21.843 85.9059 21.8903 85.8107 21.9674 85.7435C22.0445 85.6762 22.1452 85.6423 22.2473 85.6492L38.9832 86.7973C39.0853 86.8042 39.1805 86.8514 39.2478 86.9285C39.3151 87.0057 39.349 87.1063 39.342 87.2085C39.3351 87.3106 39.2879 87.4057 39.2108 87.473C39.1337 87.5403 39.033 87.5742 38.9309 87.5673Z" fill="#3D1D0B"/>
<path d="M39.5105 85.8762L22.666 84.7828C22.5642 84.7761 22.4693 84.7293 22.402 84.6526C22.3348 84.576 22.3006 84.4758 22.3072 84.374C22.3149 84.2725 22.362 84.1781 22.4384 84.1109C22.5148 84.0437 22.6145 84.0091 22.7161 84.0144L39.5606 85.1078C39.6111 85.1111 39.6606 85.1243 39.706 85.1467C39.7515 85.1691 39.7921 85.2002 39.8255 85.2382C39.8589 85.2763 39.8845 85.3206 39.9008 85.3686C39.9171 85.4165 39.9238 85.4673 39.9206 85.5178C39.9173 85.5684 39.9041 85.6178 39.8817 85.6632C39.8593 85.7087 39.8282 85.7493 39.7901 85.7827C39.752 85.8161 39.7077 85.8417 39.6598 85.8581C39.6118 85.8744 39.5611 85.8811 39.5105 85.8778V85.8762Z" fill="#3D1D0B"/>
<path d="M39.6735 84.3579L26.9608 83.5447C26.8586 83.5382 26.7633 83.4914 26.6957 83.4146C26.6282 83.3377 26.5939 83.2372 26.6004 83.1351C26.6069 83.033 26.6538 82.9377 26.7306 82.8701C26.8074 82.8025 26.9079 82.7682 27.01 82.7747L39.7227 83.5879C39.7733 83.5911 39.8227 83.6043 39.8682 83.6266C39.9137 83.6489 39.9543 83.68 39.9878 83.7181C40.0212 83.7561 40.0469 83.8004 40.0632 83.8483C40.0796 83.8962 40.0863 83.9469 40.0831 83.9975C40.0799 84.0481 40.0667 84.0975 40.0444 84.143C40.022 84.1884 39.991 84.2291 39.9529 84.2625C39.9149 84.296 39.8706 84.3216 39.8227 84.338C39.7747 84.3543 39.724 84.3611 39.6735 84.3579Z" fill="#3D1D0B"/>
<path d="M25.0603 80.8775C25.0038 80.8776 24.9479 80.8652 24.8967 80.8412C24.8456 80.8172 24.8003 80.7823 24.7641 80.7388C24.728 80.6954 24.7018 80.6445 24.6875 80.5899C24.6732 80.5352 24.6711 80.478 24.6814 80.4224C24.5929 80.4394 24.4789 80.4394 24.3734 80.4671L23.0891 80.8352C23.0074 80.8592 22.9202 80.8556 22.8408 80.8248C22.7615 80.794 22.6946 80.7377 22.6506 80.6649C22.6067 80.592 22.588 80.5067 22.5977 80.4221C22.6074 80.3376 22.6448 80.2586 22.7041 80.1976C23.131 79.7551 23.6728 79.4402 24.2687 79.2882C24.3281 79.273 24.3903 79.2721 24.4501 79.2857C24.5099 79.2993 24.5655 79.327 24.6125 79.3665C24.6594 79.4059 24.6962 79.456 24.7199 79.5126C24.7435 79.5692 24.7533 79.6306 24.7484 79.6917C24.8711 79.6997 24.9901 79.7372 25.0951 79.8012C25.2001 79.8652 25.288 79.9536 25.3513 80.059L25.4283 80.0467C25.5049 79.8762 25.6369 79.7367 25.8028 79.6508C25.9688 79.565 26.159 79.5379 26.3423 79.5739C26.6964 79.6765 27.0015 79.9034 27.2016 80.213C27.2288 80.2556 27.2474 80.3032 27.2562 80.353C27.265 80.4028 27.2639 80.4538 27.253 80.5032C27.2421 80.5525 27.2216 80.5993 27.1927 80.6407C27.1637 80.6822 27.1268 80.7175 27.0842 80.7447C27.0416 80.7719 26.994 80.7904 26.9442 80.7993C26.8945 80.8081 26.8434 80.807 26.7941 80.7961C26.7447 80.7852 26.6979 80.7647 26.6565 80.7357C26.6151 80.7067 26.5797 80.6699 26.5525 80.6273C26.4591 80.4816 26.3182 80.3728 26.1537 80.3193C26.1622 80.3697 26.1606 80.4213 26.149 80.4711C26.1374 80.5209 26.116 80.5679 26.0861 80.6093C26.0561 80.6507 26.0182 80.6858 25.9745 80.7124C25.9309 80.739 25.8824 80.7567 25.8318 80.7643C25.1326 80.8706 25.1096 80.8775 25.0603 80.8775Z" fill="#3D1D0B"/>
<path d="M136.162 74.046C136.914 74.8037 137.445 75.7521 137.698 76.7892C137.952 77.8263 137.918 78.9128 137.599 79.9319C136.598 82.4005 133.63 83.4131 130.972 83.5509C131.948 83.1798 133.051 82.6469 133.314 81.6698C133.576 80.6927 132.725 79.5376 131.741 79.0387C129.143 77.7235 125.654 78.7607 123.377 76.9597C122.376 76.165 121.805 74.9423 120.954 73.9852C119.106 71.9062 116.108 71.2725 113.323 71.2725C110.402 71.2725 107.356 71.9716 105.186 73.9128C104.164 74.8268 103.323 76.0734 102.039 76.6247C100.949 77.0229 99.7633 77.0798 98.6398 76.788C97.0658 76.558 95.6275 75.7682 94.5888 74.5634C92.9888 72.4298 94.4895 70.5025 94.3809 68.2348C93.9112 58.4266 80.1898 55.6022 79.7247 48.6691C79.0972 49.8834 78.7392 51.2188 78.6753 52.5841C78.6114 53.9495 78.843 55.3125 79.3544 56.5801C78.3014 55.6665 77.5532 54.4525 77.2105 53.1012C76.8677 51.7499 76.9468 50.326 77.4371 49.021C76.7772 50.685 74.9731 52.3951 73.7665 53.7226C72.2488 55.3974 70.4847 56.8735 69.3721 58.8678C68.6298 60.2069 68.2135 61.7021 68.157 63.2322C68.1006 64.7622 68.4055 66.2841 69.0471 67.6743C67.0398 66.8604 65.1702 62.5645 64.4541 60.6757C61.3672 52.5376 63.3507 42.5538 70.5209 38.723C70.9914 38.4712 76.172 36.9151 76.1358 37.1684C76.7772 31.3996 84.3748 30.6619 88.6306 32.1141C92.1312 33.3429 95.3306 35.302 98.0165 37.8615C100.702 40.421 102.813 43.5223 104.209 46.9597C104.907 48.5502 105.235 50.2784 105.168 52.014C105.082 53.5078 104.475 54.9523 104.508 56.4538C104.567 59.1658 106.426 60.2337 108.829 60.8474C111.022 61.3797 113.145 62.1626 115.159 63.1805C118.252 64.7898 119.679 67.0305 121.75 69.7802C122.05 70.2436 122.43 70.6507 122.871 70.9829C125.928 72.784 132.295 70.0466 136.162 74.046Z" fill="#FF8C4B"/>
<path d="M136.438 73.7779C133.225 70.4531 128.955 71.6858 124.626 71.1599C124.091 71.1015 123.573 70.9368 123.103 70.6756C122.691 70.3639 122.337 69.9824 122.057 69.5483C119.958 66.7424 118.432 64.4964 115.332 62.8362C113.295 61.8068 111.147 61.0146 108.929 60.4754C106.104 59.7185 104.934 58.5504 104.893 56.4437C104.857 54.9545 105.472 53.4322 105.553 52.0277C105.633 50.2372 105.294 48.4527 104.565 46.8156C103.167 43.3154 101.031 40.1577 98.3021 37.5573C95.5737 34.957 92.3169 32.9751 88.7536 31.7467C85.8838 30.7781 81.474 30.7565 78.5981 32.5883C77.8517 33.045 77.2142 33.6593 76.7301 34.3882C76.2459 35.117 75.9269 35.9429 75.7953 36.8079C73.9438 37.2091 72.1215 37.7344 70.3406 38.3803C62.9255 42.3073 60.9597 52.576 64.0936 60.8096C64.7658 62.5875 67.1366 67.879 69.0093 68.0545C69.5933 69.6117 70.5212 71.017 71.7237 72.1658C72.9262 73.3146 74.3725 74.1773 75.9547 74.6896C77.3801 75.0658 78.8673 75.1475 80.3254 74.9299C81.7835 74.7122 83.182 74.1997 84.4355 73.4237C86.7683 71.9593 88.6614 69.8909 89.914 67.4377C90.7482 65.8605 91.399 64.1928 91.8536 62.4674C93.1115 64.1446 93.8556 66.1507 93.9958 68.2424C94.0666 70.4546 92.5505 72.4828 94.2976 74.8097C95.3849 76.0761 96.8918 76.9087 98.5426 77.1552C99.7487 77.4693 101.022 77.4059 102.191 76.9734C103.577 76.3798 104.412 75.0977 105.445 74.1922C107.747 72.0932 111 71.6512 113.323 71.6512C115.623 71.6512 118.763 72.0993 120.665 74.2338C121.505 75.1801 122.073 76.4113 123.139 77.2552C125.54 79.1518 129.056 78.1022 131.566 79.3758C132.384 79.7885 133.15 80.7888 132.942 81.5634C132.724 82.3742 131.701 82.8555 130.835 83.1842C130.75 83.216 130.68 83.2765 130.635 83.3551C130.591 83.4337 130.575 83.5254 130.592 83.6142C130.608 83.703 130.655 83.7833 130.725 83.8409C130.794 83.8986 130.882 83.93 130.972 83.9296H130.991C134.442 83.7533 137.046 82.3126 137.966 80.0473C138.308 78.9624 138.347 77.8045 138.078 76.6993C137.808 75.594 137.241 74.5837 136.438 73.7779ZM85.294 72.0839C80.52 75.8839 73.8079 75.1639 70.4661 69.5252C69.5644 68.0415 68.9995 66.3779 68.8114 64.6519C68.5865 58.9331 70.0834 58.2031 74.7604 53.2151C75.3841 52.5506 76.0532 51.8383 76.6261 51.0999C76.5796 52.1856 76.7779 53.2678 77.2065 54.2664C77.635 55.265 78.2827 56.1544 79.1017 56.8687C79.167 56.9253 79.2494 56.9582 79.3357 56.9622C79.422 56.9663 79.5072 56.9412 79.5775 56.891C79.6478 56.8407 79.6991 56.7683 79.7233 56.6854C79.7475 56.6025 79.743 56.5138 79.7107 56.4337C78.8772 54.3697 78.8293 52.0718 79.576 49.9749C80.9181 54.4278 87.6456 57.4054 91.3616 61.856C90.4322 65.793 88.4864 69.6299 85.294 72.0839ZM137.243 79.7839C136.479 81.6627 134.555 82.4997 132.975 82.8724C133.315 82.5806 133.562 82.1957 133.685 81.7651C134.003 80.5793 133.014 79.2457 131.914 78.6905C129.244 77.3322 125.768 78.351 123.616 76.6531C122.685 75.9147 122.088 74.6773 121.241 73.7271C119.148 71.3786 115.78 70.8858 113.323 70.8858C110.866 70.8858 107.411 71.3609 104.93 73.6208C103.887 74.5371 103.074 75.7584 101.906 76.2612C100.875 76.6355 99.754 76.6857 98.6935 76.4052C97.2198 76.1912 95.8718 75.455 94.8951 74.3308C93.4144 72.3557 94.8397 70.5832 94.7635 68.2085C94.5983 65.6873 93.6151 63.2887 91.963 61.3771C87.9143 56.5114 80.4276 53.4184 80.105 48.6413C80.0999 48.5572 80.0674 48.4771 80.0124 48.4132C79.9574 48.3494 79.883 48.3053 79.8005 48.2878C79.7181 48.2704 79.6322 48.2804 79.5561 48.3164C79.4799 48.3525 79.4176 48.4125 79.3789 48.4873C78.3409 50.4932 78.0224 52.7944 78.4764 55.0069C77.9078 54.155 77.5494 53.1804 77.4307 52.1631C77.3119 51.1458 77.4363 50.1148 77.7934 49.1549C77.8253 49.0608 77.8195 48.9581 77.7774 48.8682C77.7353 48.7782 77.6601 48.708 77.5675 48.6723C77.4749 48.6365 77.372 48.6379 77.2804 48.6762C77.1887 48.7144 77.1154 48.7866 77.0758 48.8777C76.3395 50.3026 75.3653 51.5914 74.1952 52.6884C73.1496 53.8034 73.4368 53.5354 72.2148 54.7874C70.988 55.94 69.9178 57.2487 69.0316 58.6798C68.3695 59.8858 67.9578 61.2132 67.8212 62.5823C67.6847 63.9513 67.8261 65.3339 68.237 66.647C66.9503 65.3903 65.6752 62.8278 64.8097 60.537C61.8136 52.663 63.6585 42.7924 70.6994 39.0602C72.4316 38.438 74.2012 37.9257 75.9978 37.5263C76.0519 37.5466 76.1098 37.5545 76.1674 37.5493C76.2249 37.5442 76.2806 37.5262 76.3302 37.4966C76.3798 37.467 76.4221 37.4266 76.454 37.3785C76.4859 37.3303 76.5066 37.2756 76.5145 37.2183C76.5919 36.4062 76.8577 35.6233 77.2908 34.932C77.7239 34.2406 78.3123 33.6599 79.0093 33.2359C81.6812 31.5334 85.8084 31.5635 88.5026 32.4736C91.9627 33.6669 95.125 35.592 97.774 38.1177C100.423 40.6434 102.497 43.7104 103.853 47.1098C104.536 48.639 104.854 50.3061 104.781 51.9792C104.704 53.2882 104.081 54.8521 104.121 56.4568C104.183 59.5791 106.484 60.6148 108.736 61.2177C110.896 61.7426 112.989 62.5136 114.973 63.5154C117.673 64.9614 119.073 66.8441 120.851 69.2226C121.336 70.0161 121.951 70.7221 122.671 71.3108C123.242 71.6385 123.874 71.8458 124.529 71.9199C129.008 72.4651 132.999 71.2685 135.875 74.3069C136.585 75.0057 137.089 75.887 137.33 76.8539C137.572 77.8207 137.541 78.8355 137.243 79.7862V79.7839Z" fill="#3D1D0B"/>
<path d="M90.8271 63.192C90.7418 63.1919 90.6589 63.1634 90.5915 63.1111C89.7904 62.4905 89.1547 61.6819 88.7409 60.7568C88.3271 59.8318 88.1478 58.819 88.2191 57.8081C88.2278 57.7067 88.2755 57.6127 88.3522 57.5459C88.429 57.4791 88.5287 57.4447 88.6303 57.4501C88.6808 57.4536 88.73 57.467 88.7753 57.4896C88.8206 57.5122 88.861 57.5434 88.8941 57.5816C88.9273 57.6198 88.9527 57.6642 88.9687 57.7121C88.9847 57.7601 88.9911 57.8108 88.9876 57.8612C88.9253 58.7463 89.0825 59.633 89.4452 60.4427C89.8079 61.2523 90.3648 61.96 91.0666 62.5028C91.1302 62.5522 91.1768 62.6203 91.1997 62.6975C91.2226 62.7748 91.2207 62.8573 91.1942 62.9333C91.1678 63.0094 91.1181 63.0753 91.0523 63.1217C90.9864 63.1681 90.9077 63.1927 90.8271 63.192Z" fill="#3D1D0B"/>
<path d="M90.2216 59.5377C89.391 59.5378 88.5714 59.7267 87.8244 60.0899C87.0774 60.4531 86.4227 60.9812 85.9096 61.6344C85.4766 61.2102 84.9237 60.9294 84.3257 60.8297C84.7953 59.5244 84.7536 58.0898 84.209 56.814C83.6643 55.5382 82.6571 54.5157 81.3896 53.952C80.1222 53.3883 78.6883 53.325 77.3761 53.775C76.064 54.2249 74.9706 55.1547 74.3157 56.3776C73.3828 56.1004 72.4946 55.6904 71.6785 55.1602C71.6362 55.131 71.5884 55.1106 71.538 55.1002C71.4877 55.0897 71.4357 55.0895 71.3853 55.0995C71.3348 55.1095 71.2868 55.1294 71.2442 55.1583C71.2016 55.1871 71.1652 55.2241 71.1372 55.2673C71.1092 55.3104 71.09 55.3587 71.081 55.4093C71.0719 55.4599 71.0731 55.5119 71.0844 55.562C71.0958 55.6122 71.117 55.6596 71.147 55.7014C71.177 55.7432 71.215 55.7786 71.2588 55.8055C72.1072 56.3567 73.0282 56.7869 73.9954 57.0837C73.5169 58.3897 73.5516 59.8287 74.0925 61.1101C74.6335 62.3916 75.6405 63.4201 76.9102 63.988C78.1799 64.556 79.6178 64.6211 80.9337 64.1703C82.2496 63.7194 83.3454 62.7862 84 61.5589C84.2799 61.5767 84.5534 61.6501 84.8046 61.7748C85.0558 61.8994 85.2796 62.0729 85.463 62.285C84.8588 63.3322 84.6169 64.5496 84.775 65.7482C84.9331 66.9469 85.4823 68.0599 86.3374 68.9147C87.1926 69.7694 88.3058 70.3181 89.5045 70.4756C90.7033 70.6332 91.9205 70.3908 92.9675 69.7861C94.0144 69.1813 94.8326 68.248 95.295 67.1309C95.7575 66.0138 95.8384 64.7753 95.5253 63.6075C95.2121 62.4397 94.5224 61.4079 93.5631 60.672C92.6037 59.9362 91.4284 59.5374 90.2193 59.5377H90.2216ZM79.1552 63.6957C78.2208 63.6958 77.3074 63.4189 76.5304 62.8998C75.7535 62.3808 75.1479 61.6431 74.7902 60.7798C74.4326 59.9166 74.339 58.9667 74.5212 58.0503C74.7035 57.1339 75.1534 56.2921 75.8141 55.6314C76.4748 54.9707 77.3166 54.5207 78.233 54.3385C79.1494 54.1562 80.0993 54.2498 80.9626 54.6075C81.8258 54.9651 82.5636 55.5707 83.0826 56.3477C83.6016 57.1247 83.8785 58.0381 83.8784 58.9725C83.8772 60.225 83.3791 61.426 82.4935 62.3117C81.6078 63.1975 80.407 63.6958 79.1544 63.6972L79.1552 63.6957ZM90.2216 69.7532C89.2873 69.7534 88.3738 69.4764 87.5969 68.9574C86.8199 68.4384 86.2143 67.7006 85.8567 66.8374C85.499 65.9742 85.4054 65.0243 85.5877 64.1079C85.7699 63.1915 86.2198 62.3497 86.8805 61.689C87.5412 61.0283 88.383 60.5783 89.2995 60.3961C90.2159 60.2138 91.1658 60.3074 92.029 60.6651C92.8922 61.0227 93.63 61.6283 94.149 62.4053C94.668 63.1823 94.945 64.0957 94.9448 65.0301C94.9438 66.2826 94.4459 67.4835 93.5604 68.3693C92.6749 69.2551 91.4741 69.7534 90.2216 69.7548V69.7532Z" fill="#3D1D0B"/>
<path d="M144.019 70.2121L126.425 65.6914C126.16 65.6126 125.929 65.4496 125.766 65.2273C125.602 65.0049 125.516 64.7353 125.52 64.4594V57.1383C125.521 56.9696 125.555 56.8028 125.621 56.6474C125.686 56.492 125.781 56.3509 125.901 56.2324C126.021 56.1138 126.163 56.02 126.319 55.9564C126.476 55.8928 126.643 55.8606 126.811 55.8616C127.002 55.8616 125.853 55.4766 144.67 59.4074C144.955 59.4694 145.209 59.6271 145.392 59.8543C145.574 60.0815 145.672 60.3644 145.671 60.6556V69.0093C145.667 69.207 145.617 69.4011 145.525 69.5763C145.434 69.7516 145.303 69.9033 145.143 70.0197C144.983 70.1361 144.799 70.214 144.604 70.2474C144.409 70.2808 144.209 70.2687 144.019 70.2121Z" fill="white"/>
<path d="M149.225 57.1861L131.633 53.6688C131.169 53.6084 130.697 53.6667 130.261 53.8382C129.216 54.1793 126.535 55.4552 126.501 55.4698C126.12 55.5537 125.777 55.7638 125.529 56.0663C125.281 56.3687 125.143 56.7459 125.135 57.1369V64.4519C125.13 64.8138 125.243 65.1675 125.459 65.4582C125.675 65.7489 125.98 65.9603 126.328 66.0596C145.091 71.2625 144.062 70.6411 144.355 70.6473C144.777 70.657 145.185 70.5058 145.499 70.2245L149.485 68.0293C149.721 67.8827 149.916 67.6788 150.052 67.4364C150.188 67.194 150.26 66.9211 150.262 66.6433L150.534 58.8216C150.535 58.4406 150.406 58.0707 150.168 57.7733C149.929 57.4758 149.597 57.2687 149.225 57.1861ZM144.114 69.8388L126.534 65.3227C126.35 65.2668 126.189 65.1526 126.076 64.9973C125.962 64.842 125.903 64.6541 125.905 64.4619V57.1407C125.907 56.9033 126.002 56.6761 126.17 56.5086C126.338 56.3411 126.566 56.2469 126.803 56.2467C127.248 56.3076 131.972 57.1523 144.59 59.7841C144.789 59.8277 144.967 59.9379 145.094 60.0964C145.222 60.255 145.291 60.4523 145.291 60.6558V69.0018C145.289 69.1424 145.254 69.2806 145.189 69.4052C145.123 69.5298 145.03 69.6372 144.915 69.7187C144.8 69.8002 144.668 69.8536 144.529 69.8744C144.39 69.8953 144.248 69.8831 144.114 69.8388Z" fill="#3D1D0B"/>
<path d="M141.525 68.2686L128.261 64.8682C128.059 64.8199 127.88 64.7037 127.754 64.5391C127.628 64.3745 127.562 64.1716 127.568 63.9642V58.5396C127.564 58.4209 127.583 58.3026 127.624 58.1914C127.666 58.0802 127.729 57.9783 127.81 57.8915C127.891 57.8047 127.989 57.7347 128.097 57.6855C128.205 57.6363 128.321 57.6089 128.44 57.6048C128.594 57.5994 127.501 57.4323 141.971 60.2667C142.179 60.3071 142.367 60.4199 142.501 60.5853C142.635 60.7506 142.707 60.9579 142.703 61.1707V67.3099C142.719 67.46 142.698 67.6118 142.64 67.7515C142.583 67.8912 142.492 68.0142 142.374 68.1095C142.257 68.2048 142.118 68.2693 141.97 68.2971C141.821 68.3249 141.668 68.3151 141.525 68.2686Z" fill="white"/>
<path d="M141.798 68.6969C141.562 68.6969 142.653 68.8086 128.163 65.2419C127.878 65.1709 127.624 65.0048 127.445 64.7709C127.266 64.5369 127.172 64.249 127.178 63.9545V58.5398C127.173 58.3393 127.215 58.1404 127.301 57.9589C127.386 57.7775 127.513 57.6185 127.671 57.4946C127.829 57.3707 128.013 57.2854 128.21 57.2453C128.406 57.2053 128.61 57.2117 128.803 57.2639L142.04 59.8896C142.338 59.9468 142.606 60.1075 142.797 60.3433C142.988 60.579 143.089 60.8746 143.083 61.1779V67.3101C143.097 67.4872 143.074 67.6651 143.015 67.8328C142.957 68.0005 142.864 68.1543 142.744 68.2846C142.623 68.4148 142.477 68.5187 142.314 68.5896C142.151 68.6606 141.975 68.6971 141.798 68.6969ZM128.465 57.9893C128.396 57.9894 128.327 58.0037 128.262 58.0311C128.198 58.0585 128.14 58.0985 128.092 58.1489C128.044 58.1992 128.006 58.2587 127.981 58.3239C127.957 58.3891 127.945 58.4586 127.948 58.5283V63.966C127.944 64.0868 127.981 64.2053 128.054 64.3018C128.127 64.3982 128.23 64.4667 128.347 64.4958C142.677 68.0155 141.715 67.9408 141.855 67.9254C141.923 67.9186 141.989 67.8983 142.049 67.8658C142.109 67.8332 142.162 67.7891 142.205 67.7359C142.248 67.6826 142.28 67.6214 142.299 67.5557C142.319 67.4901 142.325 67.4212 142.317 67.3533V61.1709C142.32 61.0475 142.28 60.9269 142.202 60.8306C142.125 60.7343 142.016 60.6685 141.895 60.645C132.296 58.7631 128.543 57.9893 128.465 57.9893Z" fill="#3D1D0B"/>
<path d="M138.206 65.9677C138.129 65.9677 138.176 65.9677 136.429 65.5697C136.345 65.5504 136.27 65.5037 136.216 65.4371C136.162 65.3704 136.132 65.2875 136.13 65.2016L136.058 61.1976C136.057 61.1406 136.068 61.084 136.092 61.0321C136.116 60.9801 136.15 60.9341 136.194 60.8972C136.237 60.8604 136.289 60.8337 136.344 60.819C136.399 60.8044 136.457 60.8022 136.513 60.8126L138.275 61.1375C138.364 61.1538 138.444 61.2005 138.502 61.2698C138.559 61.339 138.591 61.4263 138.591 61.5164V65.5851C138.59 65.6868 138.55 65.7841 138.477 65.8558C138.405 65.9275 138.308 65.9677 138.206 65.9677ZM136.897 64.8859L137.821 65.0992V61.8344L136.836 61.6527L136.897 64.8859Z" fill="#3D1D0B"/>
<path d="M130.909 64.1405C130.832 64.1405 130.879 64.1405 129.132 63.7424C129.048 63.7231 128.973 63.6762 128.919 63.6092C128.865 63.5422 128.834 63.459 128.833 63.3728L128.77 59.3688C128.769 59.3118 128.781 59.2552 128.804 59.2033C128.828 59.1513 128.863 59.1053 128.906 59.0684C128.95 59.0316 129.001 59.0049 129.056 58.9903C129.111 58.9756 129.169 58.9734 129.225 58.9838L130.979 59.3095C131.068 59.3259 131.147 59.3726 131.205 59.4417C131.262 59.5107 131.294 59.5977 131.294 59.6876V63.7555C131.294 63.8576 131.254 63.9555 131.181 64.0277C131.109 64.0999 131.011 64.1405 130.909 64.1405ZM129.6 63.0625L130.524 63.275V60.0102L129.547 59.8293L129.6 63.0625Z" fill="#3D1D0B"/>
<path d="M135.239 62.3513C135.137 62.3513 135.039 62.3107 134.967 62.2385C134.895 62.1663 134.854 62.0684 134.854 61.9663V61.2147C134.854 61.1126 134.895 61.0147 134.967 60.9425C135.039 60.8703 135.137 60.8297 135.239 60.8297C135.342 60.8297 135.44 60.8703 135.512 60.9425C135.584 61.0147 135.624 61.1126 135.624 61.2147V61.9647C135.625 62.0154 135.615 62.0656 135.596 62.1125C135.576 62.1594 135.548 62.202 135.512 62.238C135.477 62.2739 135.434 62.3024 135.387 62.3218C135.34 62.3413 135.29 62.3513 135.239 62.3513Z" fill="#3D1D0B"/>
<path d="M135.239 64.729C135.137 64.729 135.039 64.6885 134.967 64.6163C134.895 64.5441 134.854 64.4461 134.854 64.344V63.6572C134.854 63.5551 134.895 63.4572 134.967 63.3849C135.039 63.3127 135.137 63.2722 135.239 63.2722C135.342 63.2722 135.44 63.3127 135.512 63.3849C135.584 63.4572 135.624 63.5551 135.624 63.6572V64.344C135.624 64.4461 135.584 64.5441 135.512 64.6163C135.44 64.6885 135.342 64.729 135.239 64.729Z" fill="#3D1D0B"/>
<path d="M144.416 55.2089C144.621 55.2089 144.817 55.29 144.961 55.4344C145.105 55.5788 145.186 55.7746 145.186 55.9789V57.2879C145.186 57.4921 145.105 57.6879 144.961 57.8323C144.817 57.9767 144.621 58.0579 144.416 58.0579C144.212 58.0579 144.016 57.9767 143.872 57.8323C143.728 57.6879 143.646 57.4921 143.646 57.2879V55.9789C143.646 55.7746 143.728 55.5788 143.872 55.4344C144.016 55.29 144.212 55.2089 144.416 55.2089Z" fill="white"/>
<path d="M144.417 54.8238C144.11 54.8238 143.817 54.9455 143.6 55.1621C143.383 55.3787 143.262 55.6724 143.262 55.9788V57.2878C143.262 57.5941 143.383 57.8879 143.6 58.1045C143.817 58.3211 144.11 58.4428 144.417 58.4428C144.723 58.4428 145.017 58.3211 145.233 58.1045C145.45 57.8879 145.572 57.5941 145.572 57.2878V55.9788C145.572 55.6724 145.45 55.3787 145.233 55.1621C145.017 54.9455 144.723 54.8238 144.417 54.8238ZM144.802 57.2878C144.802 57.3899 144.761 57.4878 144.689 57.56C144.617 57.6322 144.519 57.6728 144.417 57.6728C144.315 57.6728 144.217 57.6322 144.144 57.56C144.072 57.4878 144.032 57.3899 144.032 57.2878V55.9788C144.032 55.8767 144.072 55.7787 144.144 55.7065C144.217 55.6343 144.315 55.5938 144.417 55.5938C144.519 55.5938 144.617 55.6343 144.689 55.7065C144.761 55.7787 144.802 55.8767 144.802 55.9788V57.2878Z" fill="#3D1D0B"/>
<path d="M50.4669 111.637C50.4046 111.637 50.3433 111.622 50.2881 111.593C50.233 111.564 50.1858 111.522 50.1504 111.47C48.1746 108.623 46.1021 105.844 43.9365 103.138C43.8727 103.059 43.8431 102.957 43.8544 102.855C43.8657 102.754 43.9168 102.661 43.9965 102.597C44.0763 102.533 44.1781 102.504 44.2796 102.515C44.3812 102.526 44.474 102.577 44.5378 102.657C46.7144 105.377 48.7972 108.17 50.7826 111.032C50.8226 111.09 50.8461 111.158 50.8505 111.228C50.8549 111.298 50.84 111.368 50.8075 111.43C50.775 111.492 50.726 111.544 50.666 111.581C50.606 111.617 50.5371 111.637 50.4669 111.637Z" fill="#3D1D0B"/>
<path d="M53.2792 111.301C53.2194 111.301 53.1605 111.288 53.107 111.261C53.0536 111.234 53.0071 111.195 52.9712 111.147L48.8132 105.723C48.7511 105.642 48.7238 105.539 48.7372 105.438C48.7507 105.337 48.8038 105.245 48.8848 105.183C48.9659 105.121 49.0683 105.094 49.1695 105.107C49.2708 105.12 49.3625 105.174 49.4246 105.255L53.5826 110.679C53.627 110.736 53.6546 110.804 53.6622 110.876C53.6698 110.948 53.657 111.02 53.6254 111.085C53.5937 111.15 53.5445 111.205 53.4833 111.243C53.4221 111.281 53.3514 111.301 53.2792 111.301Z" fill="#3D1D0B"/>
<path d="M56.7328 111.284C56.6753 111.284 56.6186 111.271 56.5668 111.246C56.5149 111.222 56.4693 111.186 56.4332 111.141C54.0594 108.204 51.7948 105.18 49.6441 102.076C49.5862 101.992 49.5642 101.888 49.5829 101.788C49.6016 101.687 49.6595 101.598 49.7438 101.54C49.8282 101.482 49.9321 101.46 50.0326 101.479C50.1332 101.498 50.2223 101.556 50.2802 101.64C52.42 104.728 54.6733 107.736 57.0354 110.658C57.0809 110.715 57.1095 110.783 57.1177 110.856C57.1259 110.928 57.1134 111.001 57.0818 111.067C57.0501 111.132 57.0005 111.187 56.9387 111.226C56.8769 111.264 56.8055 111.285 56.7328 111.284Z" fill="#3D1D0B"/>
<path d="M60.2048 110.786C60.1438 110.786 60.0836 110.772 60.0292 110.744C59.9748 110.716 59.9279 110.676 59.8922 110.626L51.393 98.7813C51.3635 98.7402 51.3424 98.6937 51.3309 98.6444C51.3194 98.5952 51.3177 98.5442 51.3259 98.4942C51.3425 98.3935 51.3985 98.3034 51.4815 98.2439C51.5645 98.1843 51.6678 98.1602 51.7686 98.1768C51.8694 98.1934 51.9594 98.2494 52.019 98.3324L60.5213 110.177C60.5627 110.235 60.5872 110.303 60.5923 110.374C60.5973 110.445 60.5826 110.516 60.5499 110.579C60.5171 110.642 60.4675 110.695 60.4066 110.731C60.3457 110.768 60.2759 110.787 60.2048 110.786Z" fill="#3D1D0B"/>
<path d="M62.2482 109.421C62.1885 109.421 62.1295 109.407 62.0761 109.381C62.0226 109.354 61.9761 109.315 61.9402 109.267L57.9624 103.843C57.902 103.76 57.8767 103.657 57.8921 103.556C57.9076 103.455 57.9625 103.365 58.0448 103.304C58.1271 103.244 58.23 103.219 58.331 103.234C58.4319 103.25 58.5226 103.304 58.583 103.387L62.5616 108.811C62.603 108.869 62.6277 108.937 62.633 109.008C62.6383 109.078 62.6239 109.149 62.5915 109.212C62.5591 109.275 62.5099 109.328 62.4493 109.365C62.3887 109.402 62.3192 109.421 62.2482 109.421Z" fill="#3D1D0B"/>
<path d="M65.4217 109.883C65.3583 109.883 65.2958 109.867 65.2397 109.838C65.1837 109.808 65.1359 109.764 65.1007 109.712C62.4545 105.75 59.6793 101.876 56.7793 98.0955C56.7485 98.0554 56.7259 98.0096 56.7128 97.9607C56.6997 97.9118 56.6964 97.8608 56.703 97.8107C56.7096 97.7605 56.7261 97.7122 56.7514 97.6684C56.7767 97.6245 56.8104 97.5862 56.8505 97.5554C56.8906 97.5246 56.9365 97.502 56.9853 97.4889C57.0342 97.4758 57.0852 97.4725 57.1353 97.4791C57.1855 97.4857 57.2338 97.5021 57.2777 97.5275C57.3215 97.5528 57.3599 97.5864 57.3907 97.6266C60.2874 101.4 63.0971 105.327 65.7413 109.284C65.78 109.342 65.8024 109.409 65.8058 109.479C65.8093 109.548 65.7938 109.617 65.761 109.679C65.7282 109.74 65.6793 109.792 65.6196 109.828C65.5598 109.864 65.4914 109.883 65.4217 109.883Z" fill="#3D1D0B"/>
<path d="M68.0612 109.34C68.0015 109.34 67.9425 109.326 67.889 109.299C67.8356 109.272 67.7891 109.233 67.7532 109.186C65.6303 106.3 63.4307 103.471 61.1566 100.702C61.1245 100.663 61.1004 100.618 61.0857 100.57C61.071 100.522 61.066 100.471 61.0709 100.42C61.0759 100.37 61.0907 100.321 61.1145 100.277C61.1383 100.232 61.1707 100.192 61.2098 100.16C61.2488 100.128 61.2939 100.104 61.3423 100.089C61.3907 100.075 61.4415 100.07 61.4918 100.075C61.5421 100.08 61.591 100.094 61.6356 100.118C61.6803 100.142 61.7197 100.174 61.7518 100.214C64.0344 102.993 66.2425 105.832 68.3738 108.729C68.4154 108.786 68.4403 108.854 68.4458 108.925C68.4512 108.996 68.4369 109.067 68.4046 109.13C68.3722 109.193 68.323 109.246 68.2624 109.283C68.2018 109.32 68.1322 109.34 68.0612 109.34Z" fill="#3D1D0B"/>
<path d="M70.7835 108.327C70.7255 108.327 70.6682 108.314 70.6159 108.289C70.5636 108.264 70.5178 108.227 70.4817 108.182C67.6348 104.598 64.9857 100.862 62.546 96.9904C62.5183 96.9476 62.4992 96.8997 62.4901 96.8495C62.481 96.7994 62.4819 96.7479 62.4928 96.698C62.5038 96.6482 62.5245 96.6011 62.5539 96.5593C62.5832 96.5176 62.6205 96.4821 62.6637 96.4549C62.7068 96.4277 62.755 96.4094 62.8053 96.4009C62.8556 96.3925 62.9071 96.3941 62.9567 96.4058C63.0064 96.4174 63.0532 96.4388 63.0946 96.4687C63.1359 96.4986 63.1709 96.5364 63.1975 96.58C65.6222 100.428 68.2552 104.141 71.0846 107.703C71.1296 107.759 71.1577 107.828 71.1657 107.899C71.1738 107.971 71.1613 108.044 71.1299 108.109C71.0985 108.174 71.0493 108.23 70.988 108.268C70.9268 108.307 70.8559 108.327 70.7835 108.327Z" fill="#3D1D0B"/>
<path d="M74.8789 108.218C74.8235 108.218 74.7688 108.207 74.7184 108.184C74.6681 108.161 74.6233 108.127 74.5871 108.085C71.3053 104.281 68.1466 100.373 65.1161 96.3665C65.0548 96.2848 65.0285 96.1821 65.0429 96.081C65.0574 95.98 65.1114 95.8888 65.1931 95.8275C65.2748 95.7662 65.3774 95.7399 65.4785 95.7544C65.5796 95.7688 65.6708 95.8228 65.7321 95.9045C68.7541 99.8977 71.9029 103.793 75.1738 107.585C75.2211 107.642 75.2513 107.71 75.2609 107.783C75.2706 107.855 75.2592 107.929 75.2283 107.996C75.1973 108.062 75.1479 108.119 75.086 108.158C75.0241 108.198 74.9523 108.218 74.8789 108.218Z" fill="#3D1D0B"/>
<path d="M77.9622 107.577C77.9082 107.577 77.8548 107.566 77.8054 107.544C77.7561 107.522 77.7119 107.49 77.6757 107.45C74.292 103.706 70.9535 99.9205 67.6611 96.0956C67.5967 96.0179 67.5654 95.9181 67.5739 95.8175C67.5824 95.717 67.63 95.6238 67.7064 95.558C67.7829 95.4922 67.8822 95.4591 67.9829 95.4657C68.0835 95.4724 68.1776 95.5183 68.2448 95.5936C71.5173 99.3935 74.8829 103.209 78.2478 106.934C78.2977 106.989 78.3305 107.058 78.3422 107.131C78.3539 107.205 78.3441 107.28 78.3139 107.348C78.2836 107.416 78.2343 107.474 78.1719 107.515C78.1095 107.555 78.0366 107.577 77.9622 107.577Z" fill="#3D1D0B"/>
<path d="M29.9873 78.2369C29.8898 78.2372 29.7959 78.2004 29.7244 78.1341C29.653 78.0678 29.6093 77.9769 29.6023 77.8797C29.2586 73.1379 29.4016 68.3734 30.0289 63.6608C30.2592 60.9407 31.0807 58.3036 32.4359 55.9339C35.1109 51.8159 40.0589 50.0734 44.5449 48.9084C51.0032 47.2371 57.6018 46.1649 64.2569 45.7052C64.3585 45.6996 64.4582 45.734 64.5349 45.8008C64.6115 45.8677 64.6591 45.9619 64.6673 46.0633C64.6743 46.165 64.6406 46.2654 64.5736 46.3424C64.5066 46.4193 64.4118 46.4666 64.3101 46.4737C57.7035 46.9297 51.1531 47.9943 44.7421 49.6538C40.3977 50.781 35.6168 52.4566 33.0966 56.3351C31.8014 58.6081 31.0173 61.1362 30.7989 63.7432C30.177 68.4101 30.0346 73.1283 30.3739 77.8242C30.3777 77.8772 30.3705 77.9304 30.3528 77.9804C30.335 78.0305 30.3072 78.0764 30.2709 78.1151C30.2345 78.1539 30.1906 78.1847 30.1418 78.2057C30.093 78.2266 30.0404 78.2373 29.9873 78.2369Z" fill="#3D1D0B"/>
<path d="M144.101 92.0655C143.863 91.4323 143.438 90.8866 142.882 90.5013C142.327 90.1161 141.666 89.9097 140.99 89.9097C140.314 89.9097 139.654 90.1161 139.098 90.5013C138.542 90.8866 138.117 91.4323 137.88 92.0655C137.65 92.6161 137.468 93.1851 137.335 93.7664C136.311 92.9918 135.654 92.663 135.082 93.018C134.931 93.1247 134.806 93.2649 134.718 93.4278C134.63 93.5907 134.58 93.7718 134.574 93.9569C134.567 94.1421 134.603 94.3262 134.68 94.495C134.756 94.6638 134.87 94.8126 135.014 94.9299C135.663 95.5027 136.364 96.0136 137.108 96.456C137.051 97.6595 136.94 98.8708 136.877 100.104C137.205 100.005 137.552 99.9887 137.888 100.056C138.223 100.123 138.538 100.272 138.802 100.489C139.144 100.766 139.336 100.927 139.715 100.706C140.47 100.508 141.269 100.565 141.987 100.87C142.052 100.887 142.121 100.887 142.186 100.87C142.258 100.831 142.32 100.775 142.367 100.707C142.666 100.456 143.019 100.278 143.399 100.187C143.778 100.096 144.174 100.095 144.554 100.183C144.635 96.9712 145.262 94.9892 144.101 92.0655Z" fill="white"/>
<path d="M146.482 95.1041L145.712 94.7083C145.904 94.5943 146.097 94.4888 146.301 94.3934C146.351 94.374 146.395 94.3448 146.433 94.3074C146.47 94.27 146.499 94.2254 146.519 94.1762C146.538 94.127 146.547 94.0743 146.545 94.0215C146.544 93.9686 146.531 93.9167 146.508 93.869C146.485 93.8213 146.453 93.7788 146.413 93.7442C146.373 93.7095 146.326 93.6835 146.276 93.6676C146.225 93.6518 146.172 93.6466 146.12 93.6522C146.067 93.6578 146.016 93.6742 145.97 93.7004C145.666 93.8459 145.371 94.0108 145.087 94.1939C144.951 93.3183 144.702 92.4641 144.346 91.6529L145.511 91.3157C145.607 91.2853 145.687 91.2187 145.735 91.13C145.782 91.0414 145.793 90.9377 145.765 90.8412C145.737 90.7446 145.672 90.6629 145.585 90.6134C145.497 90.564 145.394 90.5507 145.296 90.5765L144.283 90.8698C144.416 90.5618 144.543 90.2538 144.668 89.9397C144.689 89.8924 144.699 89.8415 144.7 89.79C144.7 89.7386 144.69 89.6875 144.67 89.64C144.65 89.5924 144.621 89.5493 144.585 89.5132C144.548 89.4771 144.504 89.4487 144.457 89.4297C144.409 89.4107 144.358 89.4015 144.306 89.4026C144.255 89.4037 144.204 89.4151 144.157 89.4362C144.11 89.4572 144.068 89.4875 144.033 89.5252C143.998 89.5629 143.97 89.6072 143.953 89.6555C143.831 89.9635 143.705 90.2682 143.575 90.5695C143.009 90.0188 142.283 89.6632 141.501 89.5547C140.719 89.4463 139.923 89.5906 139.229 89.9666C139.215 89.3707 139.246 88.7745 139.322 88.1833C139.335 88.082 139.307 87.9797 139.245 87.8988C139.183 87.8179 139.091 87.7652 138.989 87.7521C138.888 87.739 138.786 87.7667 138.705 87.8291C138.624 87.8915 138.571 87.9835 138.558 88.0847C138.501 88.5267 138.468 88.9714 138.458 89.4168C138.349 89.3229 138.237 89.2328 138.122 89.1466C138.082 89.1162 138.036 89.0942 137.987 89.0816C137.938 89.0691 137.887 89.0663 137.837 89.0734C137.787 89.0806 137.739 89.0975 137.695 89.1233C137.652 89.1491 137.614 89.1831 137.583 89.2236C137.553 89.264 137.531 89.31 137.518 89.359C137.506 89.408 137.503 89.459 137.51 89.509C137.517 89.5591 137.534 89.6072 137.56 89.6507C137.586 89.6942 137.62 89.7322 137.66 89.7626C137.954 89.9846 138.227 90.2337 138.475 90.5064C138.059 90.8998 137.735 91.3812 137.529 91.9155C137.362 92.3168 137.217 92.7268 137.094 93.1436C136.65 92.7976 136.125 92.5703 135.569 92.483L136.083 91.328C136.124 91.2347 136.127 91.1286 136.09 91.0333C136.054 90.9379 135.981 90.861 135.887 90.8194C135.794 90.7778 135.688 90.7751 135.593 90.8117C135.497 90.8483 135.42 90.9213 135.379 91.0146L134.999 91.867C134.94 91.7369 134.885 91.6052 134.833 91.4735C134.815 91.4263 134.787 91.3831 134.752 91.3465C134.717 91.3099 134.675 91.2805 134.629 91.2602C134.582 91.2398 134.532 91.2288 134.482 91.2278C134.431 91.2268 134.381 91.2358 134.333 91.2543C134.286 91.2728 134.243 91.3004 134.207 91.3356C134.17 91.3707 134.141 91.4128 134.121 91.4593C134.101 91.5058 134.09 91.5558 134.089 91.6064C134.088 91.6571 134.097 91.7075 134.116 91.7546C134.246 92.0865 134.397 92.41 134.567 92.7232C134.399 92.8342 134.261 92.9854 134.165 93.1631C134.069 93.3408 134.02 93.5394 134.02 93.7412C134.103 94.1825 134.306 94.5921 134.608 94.9247C134.226 95.0404 133.87 95.2306 133.561 95.4844C133.485 95.55 133.437 95.6428 133.428 95.743C133.419 95.8432 133.45 95.9429 133.514 96.0207C133.578 96.0984 133.67 96.1482 133.77 96.1592C133.87 96.1702 133.97 96.1417 134.049 96.0797C134.21 95.9476 134.389 95.8381 134.58 95.7539C134.463 96.102 134.359 96.4562 134.272 96.8119C134.247 96.9112 134.263 97.016 134.316 97.1034C134.369 97.1907 134.455 97.2535 134.554 97.2778C134.653 97.3021 134.758 97.286 134.846 97.233C134.933 97.18 134.996 97.0944 135.02 96.9952C135.122 96.5781 135.247 96.1668 135.394 95.7632C135.793 96.1118 136.238 96.4038 136.717 96.631C136.688 97.1885 136.525 99.49 136.495 100.086C136.492 100.147 136.504 100.208 136.53 100.264C136.556 100.32 136.594 100.368 136.643 100.406C136.691 100.444 136.748 100.469 136.808 100.481C136.869 100.492 136.931 100.489 136.99 100.471C137.267 100.39 137.561 100.38 137.843 100.442C138.126 100.504 138.388 100.635 138.607 100.824C138.75 101.012 138.957 101.14 139.189 101.185C139.42 101.23 139.66 101.189 139.863 101.068C140.539 100.906 141.25 100.967 141.888 101.242C142.027 101.283 142.176 101.28 142.312 101.232C142.449 101.184 142.567 101.094 142.65 100.975C142.902 100.773 143.197 100.63 143.512 100.558C143.828 100.486 144.155 100.486 144.47 100.558C144.526 100.571 144.584 100.571 144.639 100.559C144.695 100.547 144.747 100.522 144.792 100.487C144.837 100.452 144.874 100.408 144.9 100.357C144.926 100.306 144.94 100.25 144.942 100.193C144.977 98.8178 145.215 96.8712 145.18 95.2981L146.135 95.7878C146.18 95.8109 146.229 95.8249 146.28 95.8291C146.33 95.8332 146.381 95.8274 146.429 95.8119C146.477 95.7964 146.522 95.7716 146.56 95.7389C146.599 95.7061 146.631 95.6661 146.654 95.6211C146.677 95.5761 146.691 95.527 146.695 95.4766C146.699 95.4262 146.693 95.3754 146.678 95.3273C146.662 95.2791 146.637 95.2345 146.605 95.1959C146.572 95.1574 146.532 95.1256 146.487 95.1025L146.482 95.1041ZM134.94 94.0599C134.872 93.985 134.828 93.8912 134.814 93.7909C134.801 93.6906 134.818 93.5885 134.863 93.4981C134.909 93.4077 134.981 93.3332 135.069 93.2845C135.158 93.2358 135.26 93.2151 135.36 93.2253C135.928 93.3223 136.462 93.5653 136.907 93.9306C136.793 94.5398 136.737 95.1587 136.742 95.7786C136.013 95.3576 135.395 94.7683 134.94 94.0599ZM137.29 99.6378C137.367 98.3565 137.476 97.1577 137.516 95.948V95.9257C137.503 94.6472 137.75 93.3794 138.243 92.1996C138.411 91.7661 138.676 91.3774 139.019 91.0639C139.362 90.7505 139.773 90.5209 140.22 90.3932C138.418 92.8041 138.348 96.8766 138.346 99.7872C138.009 99.662 137.649 99.611 137.29 99.6378ZM140.61 100.209C140.241 100.205 139.873 100.262 139.522 100.377C139.471 100.407 139.415 100.428 139.428 100.432C139.351 100.432 139.252 100.36 139.12 100.25C139.12 98.8986 139.12 97.5735 139.24 96.1728C140.198 97.0529 140.212 97.1161 140.417 97.1161C140.494 97.116 140.57 97.0925 140.634 97.0488C140.698 97.005 140.747 96.943 140.775 96.8708C140.803 96.7986 140.809 96.7196 140.792 96.6441C140.774 96.5686 140.734 96.5002 140.677 96.4477L139.702 95.5514C139.942 95.4383 140.187 95.3375 140.436 95.2496C140.533 95.2156 140.612 95.1447 140.656 95.0525C140.7 94.9603 140.705 94.8543 140.671 94.7579C140.637 94.6616 140.567 94.5826 140.474 94.5385C140.382 94.4944 140.276 94.4887 140.18 94.5227C139.915 94.6174 139.652 94.7245 139.398 94.8446C139.548 93.283 140.134 91.795 141.088 90.5495C141.344 90.816 141.543 91.1334 141.669 91.4811C141.796 91.8288 141.848 92.1992 141.823 92.5685C142.044 95.167 142.016 97.7807 141.74 100.374C141.373 100.264 140.991 100.209 140.608 100.209H140.61ZM144.185 99.7418C143.61 99.7063 143.037 99.8402 142.538 100.127C142.616 99.327 142.672 98.5252 142.704 97.7213C142.926 97.9185 143.16 98.1023 143.404 98.2718C143.488 98.3301 143.591 98.3527 143.692 98.3346C143.793 98.3165 143.882 98.2591 143.94 98.1752C143.998 98.0913 144.021 97.9876 144.003 97.887C143.985 97.7865 143.927 97.6972 143.843 97.6389C143.561 97.4434 143.295 97.2269 143.045 96.9913C143.328 96.8346 143.622 96.7005 143.926 96.5902C144.019 96.5534 144.094 96.4818 144.136 96.3904C144.177 96.2991 144.181 96.1953 144.147 96.101C144.113 96.0068 144.043 95.9295 143.953 95.8857C143.863 95.8419 143.759 95.835 143.664 95.8664C143.346 95.9821 143.037 96.1213 142.74 96.2829C142.747 95.0406 142.697 93.7986 142.591 92.5608C142.634 91.8213 142.432 91.0884 142.016 90.4756C142.409 90.632 142.766 90.8674 143.064 91.1673C143.363 91.4672 143.597 91.8251 143.751 92.2189C144.79 94.8438 144.327 96.624 144.183 99.7418H144.185Z" fill="#3D1D0B"/>
<path d="M138.494 110.47C138.436 110.47 138.378 110.457 138.326 110.431C137.761 110.153 137.268 109.749 136.884 109.251C136.499 108.753 136.235 108.173 136.11 107.556C135.884 106.392 135.846 105.2 135.997 104.024C136.004 103.974 136.02 103.925 136.045 103.881C136.07 103.837 136.104 103.799 136.144 103.768C136.184 103.737 136.229 103.714 136.278 103.701C136.327 103.688 136.378 103.684 136.428 103.691C136.478 103.697 136.526 103.713 136.57 103.738C136.614 103.764 136.653 103.797 136.684 103.837C136.715 103.877 136.737 103.923 136.751 103.972C136.764 104.02 136.767 104.071 136.761 104.121C136.62 105.216 136.655 106.326 136.866 107.409C136.967 107.909 137.182 108.379 137.494 108.783C137.806 109.187 138.206 109.514 138.664 109.739C138.742 109.778 138.805 109.841 138.842 109.92C138.879 109.998 138.889 110.087 138.869 110.172C138.85 110.257 138.802 110.332 138.734 110.387C138.666 110.441 138.581 110.47 138.494 110.47Z" fill="#3D1D0B"/>
<path d="M97.6715 103.635C97.594 103.635 97.5183 103.611 97.4543 103.568C97.3903 103.524 97.341 103.462 97.3127 103.39C97.2844 103.318 97.2786 103.239 97.2959 103.164C97.3132 103.088 97.3528 103.02 97.4097 102.967C101.79 98.904 106.392 95.0857 111.193 91.5295C111.275 91.4778 111.373 91.459 111.469 91.4768C111.564 91.4946 111.649 91.5477 111.707 91.6255C111.765 91.7033 111.791 91.8 111.781 91.8964C111.77 91.9928 111.724 92.0818 111.651 92.1455C106.871 95.6844 102.291 99.4848 97.9309 103.529C97.8608 103.596 97.7681 103.633 97.6715 103.635Z" fill="#3D1D0B"/>
<path d="M98.6037 98.3365C98.5255 98.3364 98.4493 98.3125 98.385 98.268C98.3208 98.2235 98.2716 98.1605 98.244 98.0874C98.2164 98.0143 98.2118 97.9345 98.2306 97.8586C98.2495 97.7828 98.291 97.7145 98.3496 97.6628C102.217 94.2663 106.796 90.8999 110.766 88.0547C110.849 87.9952 110.952 87.9711 111.053 87.9877C111.154 88.0043 111.244 88.0603 111.303 88.1433C111.363 88.2263 111.387 88.3296 111.37 88.4304C111.354 88.5311 111.298 88.6212 111.215 88.6807C99.3575 97.1808 99.1342 98.3365 98.6037 98.3365Z" fill="#3D1D0B"/>
<path d="M90.1659 100.841C90.0912 100.841 90.0181 100.819 89.9556 100.779C89.8931 100.738 89.8438 100.679 89.8137 100.611C89.7837 100.543 89.7742 100.467 89.7864 100.393C89.7986 100.32 89.832 100.251 89.8825 100.196C95.1732 94.419 101.566 89.7588 108.685 86.49C108.731 86.4672 108.782 86.4538 108.833 86.4507C108.884 86.4476 108.936 86.4549 108.984 86.472C109.033 86.4892 109.078 86.5159 109.116 86.5506C109.154 86.5853 109.184 86.6272 109.206 86.674C109.227 86.7208 109.239 86.7714 109.241 86.8228C109.243 86.8743 109.234 86.9256 109.215 86.9736C109.197 87.0216 109.169 87.0655 109.133 87.1025C109.097 87.1395 109.054 87.169 109.007 87.1892C101.981 90.4153 95.6714 95.0147 90.45 100.717C90.4139 100.756 90.37 100.787 90.3211 100.809C90.2722 100.83 90.2193 100.841 90.1659 100.841Z" fill="#3D1D0B"/>
<path d="M97.4808 91.3927C97.401 91.3927 97.3233 91.3679 97.2582 91.3219C97.1931 91.2758 97.144 91.2106 97.1175 91.1354C97.0911 91.0602 97.0886 90.9786 97.1105 90.9019C97.1324 90.8252 97.1776 90.7573 97.2398 90.7074C99.8745 88.5912 102.776 86.8308 105.87 85.4714C105.963 85.4342 106.067 85.4346 106.159 85.4725C106.252 85.5105 106.326 85.583 106.366 85.6747C106.406 85.7664 106.409 85.8701 106.374 85.9638C106.339 86.0575 106.268 86.1338 106.178 86.1767C103.146 87.5079 100.302 89.2321 97.7203 91.3049C97.6527 91.3605 97.5683 91.3915 97.4808 91.3927Z" fill="#3D1D0B"/>
<path d="M86.7595 95.5065C86.6818 95.5065 86.606 95.4829 86.5419 95.439C86.4779 95.395 86.4286 95.3327 86.4006 95.2602C86.3726 95.1878 86.3672 95.1085 86.3851 95.0329C86.403 94.9573 86.4433 94.8889 86.5008 94.8366C91.0696 90.6907 96.1182 87.1066 101.539 84.1606C101.629 84.1118 101.734 84.1006 101.832 84.1296C101.93 84.1585 102.013 84.2252 102.061 84.315C102.11 84.4047 102.121 84.5102 102.092 84.6082C102.063 84.7061 101.997 84.7886 101.907 84.8374C96.5401 87.7542 91.5416 91.303 87.0182 95.408C86.9472 95.4718 86.855 95.5069 86.7595 95.5065Z" fill="#3D1D0B"/>
<path d="M69.4172 70.0118C66.2432 69.5975 57.6962 69.1039 51.5355 70.2189C51.4854 70.2276 51.4375 70.246 51.3947 70.2733C51.3518 70.3005 51.3147 70.336 51.2856 70.3776C51.2564 70.4193 51.2359 70.4663 51.225 70.5159C51.2141 70.5655 51.2132 70.6168 51.2222 70.6668C51.2313 70.7168 51.2501 70.7645 51.2777 70.8072C51.3053 70.8499 51.341 70.8867 51.3829 70.9155C51.4247 70.9443 51.4719 70.9645 51.5216 70.975C51.5713 70.9855 51.6226 70.986 51.6725 70.9766C57.7447 69.8778 66.1824 70.3667 69.3171 70.7756C69.4184 70.7889 69.5208 70.7614 69.6018 70.6991C69.6828 70.6369 69.7358 70.545 69.749 70.4437C69.7623 70.3425 69.7348 70.24 69.6726 70.159C69.6103 70.078 69.5185 70.0251 69.4172 70.0118Z" fill="white"/>
<path d="M134.159 60.3985C134.158 60.3091 134.127 60.2229 134.069 60.1545C134.012 60.086 133.932 60.0397 133.844 60.0235L132.09 59.6978C132.035 59.6875 131.978 59.6896 131.923 59.7039C131.868 59.7181 131.817 59.7443 131.774 59.7805C131.73 59.8166 131.696 59.8619 131.672 59.9131C131.648 59.9643 131.635 60.0201 131.635 60.0766V62.1518C131.635 62.2405 131.666 62.3266 131.722 62.3953C131.778 62.4641 131.856 62.5113 131.943 62.5291L133.412 62.8371L133.422 63.9921L132.171 63.7041C132.072 63.6812 131.967 63.6988 131.88 63.7531C131.794 63.8073 131.732 63.8937 131.71 63.9932C131.687 64.0928 131.704 64.1973 131.759 64.2839C131.813 64.3705 131.899 64.432 131.999 64.4548L133.726 64.8522C133.783 64.8652 133.841 64.8652 133.898 64.8522C133.955 64.8392 134.008 64.8135 134.053 64.777C134.099 64.7405 134.135 64.6943 134.16 64.6417C134.185 64.5891 134.198 64.5315 134.197 64.4733L134.159 60.3985ZM132.405 61.8391V60.5394L133.392 60.7226L133.404 62.0478L132.405 61.8391Z" fill="#3D1D0B"/>
<path d="M141.447 62.2017C141.446 62.1124 141.414 62.0261 141.357 61.9577C141.299 61.8893 141.22 61.843 141.132 61.8267L139.378 61.5018C139.322 61.4915 139.265 61.4935 139.21 61.5078C139.156 61.522 139.105 61.5481 139.062 61.5842C139.018 61.6203 138.983 61.6655 138.959 61.7165C138.935 61.7676 138.923 61.8234 138.923 61.8798V63.9588C138.923 64.0475 138.953 64.1333 139.01 64.2019C139.066 64.2705 139.144 64.3176 139.231 64.3354L140.701 64.6434L140.711 65.7984L139.459 65.5112C139.361 65.4921 139.26 65.5118 139.176 65.5662C139.092 65.6207 139.033 65.7055 139.011 65.8028C138.988 65.9001 139.004 66.0023 139.056 66.0878C139.108 66.1733 139.19 66.2355 139.287 66.2611L141.014 66.6585C141.071 66.6715 141.13 66.6715 141.186 66.6585C141.243 66.6455 141.296 66.6198 141.341 66.5833C141.387 66.5468 141.423 66.5006 141.448 66.448C141.473 66.3954 141.486 66.3378 141.485 66.2796L141.447 62.2017ZM139.693 63.6424V62.3426L140.679 62.5259L140.691 63.851L139.693 63.6424Z" fill="#3D1D0B"/>
</svg>
