<svg width="155" height="154" viewBox="0 0 155 154" fill="none" xmlns="http://www.w3.org/2000/svg">
<path d="M62.2332 19.0226C60.4532 20.1169 58.9095 21.5539 57.6921 23.2499C53.3834 22.7017 50.6429 24.2463 49.2298 26.5432C46.524 30.9399 49.1472 35.4244 53.0276 37.7013C52.978 38.7647 52.9839 39.8301 53.0454 40.8929C53.0489 42.4823 53.5395 44.0326 54.4515 45.3358C55.904 47.153 58.3204 48.345 60.6372 47.7798C60.6543 47.4798 60.7582 47.1913 60.9363 46.949C61.1143 46.7067 61.3589 46.5211 61.6405 46.4146C61.0609 45.9441 60.1849 44.5758 60.7769 44.1477C61.3688 43.7196 62.2903 44.2817 62.7063 44.6513C63.0784 45.0552 63.3631 45.5312 63.5429 46.0496C65.0162 44.4299 66.2028 42.5721 67.0521 40.5556C69.1098 36.3347 70.2779 31.7375 70.4841 27.0483C70.5404 22.764 67.3994 15.9072 62.2332 19.0226Z" fill="white"/>
<path d="M78.7153 5.68329H132.719C132.719 5.68329 138.298 5.68329 138.298 11.2488V128.963C138.298 128.963 138.298 134.529 132.719 134.529H78.7153C78.7153 134.529 73.137 134.529 73.137 128.963V11.2488C73.137 11.2488 73.137 5.68329 78.7153 5.68329Z" fill="#FFE55D"/>
<path d="M142.5 9.38232C142.473 7.80756 141.828 6.30612 140.705 5.19994C139.581 4.09375 138.068 3.47088 136.489 3.46487H82.4502C80.1337 3.67143 77.9215 4.52157 76.0646 5.91886C75.0704 6.41198 74.2336 7.17191 73.6484 8.1133C73.0631 9.05469 72.7525 10.1402 72.7515 11.248V128.963C72.7533 130.541 73.3823 132.053 74.5004 133.169C75.6185 134.285 77.1344 134.912 78.7156 134.914H132.72C138.045 134.914 142.5 130.112 142.5 127.101V9.38232ZM78.7156 134.144C77.339 134.142 76.0191 133.596 75.0456 132.625C74.0722 131.654 73.5247 130.337 73.5232 128.963V11.2488C73.5207 10.5696 73.6536 9.89659 73.9141 9.26904C74.1747 8.64149 74.5577 8.07188 75.0408 7.59333C75.524 7.11479 76.0977 6.73686 76.7285 6.48151C77.3594 6.22617 78.0349 6.09852 78.7156 6.10597H132.739C133.418 6.10262 134.09 6.23324 134.718 6.4903C135.346 6.74737 135.916 7.1258 136.397 7.60381C136.878 8.08182 137.259 8.64997 137.518 9.27554C137.778 9.9011 137.911 10.5717 137.91 11.2488V128.963C137.908 130.337 137.361 131.654 136.387 132.625C135.414 133.596 134.094 134.142 132.717 134.144H78.7156Z" fill="#3D1D0B"/>
<path d="M81.3973 10.7159H130.028C130.028 10.7159 135.054 10.7159 135.054 15.7301V115.857C135.054 115.857 135.054 120.871 130.028 120.871H81.3973C81.3973 120.871 76.3716 120.871 76.3716 115.857V15.7301C76.3716 15.7301 76.3716 10.7159 81.3973 10.7159Z" fill="white"/>
<path d="M135.439 115.858C135.437 117.289 134.867 118.661 133.852 119.673C132.838 120.685 131.462 121.255 130.028 121.256H81.3967C79.962 121.255 78.5865 120.686 77.572 119.674C76.5574 118.662 75.9867 117.289 75.9851 115.858V15.7302C75.9865 14.2987 76.5571 12.9262 77.5717 11.9139C78.5863 10.9017 79.9619 10.3324 81.3967 10.331H130.028C131.462 10.3326 132.838 10.902 133.853 11.9142C134.867 12.9264 135.438 14.2987 135.439 15.7302V115.858ZM81.3967 11.101C80.1666 11.1024 78.9872 11.5906 78.1174 12.4584C77.2476 13.3263 76.7583 14.5029 76.7569 15.7302V115.858C76.7583 117.085 77.2476 118.262 78.1175 119.129C78.9873 119.997 80.1667 120.485 81.3967 120.486H130.028C131.258 120.485 132.437 119.997 133.307 119.129C134.177 118.262 134.666 117.085 134.668 115.858V15.7302C134.666 14.5029 134.177 13.3263 133.307 12.4584C132.437 11.5906 131.258 11.1024 130.028 11.101H81.3967Z" fill="#3D1D0B"/>
<path d="M104.995 132.055C104.064 132.055 103.154 131.779 102.38 131.263C101.605 130.747 101.002 130.014 100.646 129.155C100.289 128.297 100.196 127.353 100.378 126.441C100.559 125.53 101.008 124.693 101.666 124.037C102.325 123.38 103.163 122.932 104.077 122.751C104.99 122.57 105.936 122.663 106.797 123.018C107.657 123.374 108.392 123.976 108.909 124.748C109.427 125.521 109.703 126.429 109.703 127.358C109.701 128.603 109.205 129.797 108.322 130.678C107.44 131.558 106.243 132.053 104.995 132.055ZM104.995 123.431C104.217 123.431 103.456 123.661 102.808 124.093C102.161 124.524 101.657 125.137 101.359 125.855C101.061 126.573 100.983 127.362 101.135 128.124C101.287 128.886 101.661 129.585 102.212 130.135C102.762 130.684 103.464 131.058 104.227 131.209C104.991 131.361 105.782 131.283 106.501 130.986C107.221 130.689 107.835 130.185 108.268 129.54C108.7 128.894 108.931 128.135 108.931 127.358C108.931 126.316 108.516 125.317 107.778 124.58C107.04 123.843 106.039 123.428 104.995 123.427V123.431Z" fill="white"/>
<path d="M106.073 9.48246C105.863 9.48246 105.658 9.42035 105.484 9.30398C105.309 9.1876 105.173 9.0222 105.093 8.8287C105.013 8.63519 104.992 8.42227 105.033 8.21688C105.074 8.01148 105.175 7.82283 105.323 7.67479C105.472 7.52675 105.661 7.42597 105.867 7.38521C106.073 7.34444 106.286 7.36552 106.48 7.44577C106.674 7.52603 106.84 7.66185 106.956 7.83606C107.073 8.01027 107.135 8.21505 107.135 8.42448C107.134 8.70508 107.022 8.97406 106.823 9.17241C106.624 9.37075 106.355 9.48226 106.073 9.48246Z" fill="#3D1D0B"/>
<path d="M88.7362 50.5473C88.7611 50.5936 88.7997 50.6312 88.8468 50.6548C88.8939 50.6785 88.9472 50.6871 88.9993 50.6794C89.0515 50.6717 89.1 50.6482 89.1383 50.612C89.1765 50.5758 89.2027 50.5288 89.2131 50.4772C89.3949 49.6159 89.7351 48.7956 90.2164 48.0579C90.6934 47.311 91.5878 46.5325 92.3449 46.9799C92.5758 47.1215 92.7612 47.3262 92.879 47.5697C93.1967 48.1147 93.3713 48.7309 93.3866 49.3612C93.4019 49.9915 93.2575 50.6155 92.9667 51.1752C92.6759 51.735 92.2482 52.2124 91.7231 52.5633C91.1981 52.9141 90.5928 53.127 89.9633 53.1822C89.5882 55.3428 88.9692 57.7468 86.9534 59.0843C82.2395 63.3547 73.8798 59.9729 74.0333 49.6833C73.9956 47.8859 74.62 46.1372 75.7883 44.7684C78.3868 46.7704 82.6508 46.0081 85.1081 47.3325C86.6103 48.0214 87.8731 49.1404 88.7362 50.5473Z" fill="white"/>
<path d="M75.8767 51.0362C75.602 51.693 75.9863 52.6933 76.7542 52.6386C77.5221 52.5839 77.5453 51.5129 77.3338 51.0362C77.1223 50.5596 76.7573 50.2154 76.278 50.3432C75.9875 50.4125 75.684 50.4073 75.396 50.328C75.108 50.2487 74.8449 50.0979 74.6311 49.8897C74.1294 49.4054 73.8632 50.0776 74.3015 50.4287C74.7498 50.791 75.3008 51.0035 75.8767 51.0362Z" fill="#3D1D0B"/>
<path d="M83.1966 49.6495C82.9226 50.3063 83.3062 51.3065 84.0741 51.2518C84.842 51.1971 84.8651 50.1261 84.6537 49.6495C84.4422 49.1728 84.0771 48.8286 83.5979 48.9565C83.3074 49.026 83.004 49.021 82.7159 48.9418C82.4279 48.8626 82.1647 48.7119 81.9509 48.5037C81.4493 48.0186 81.1792 48.6908 81.6222 49.0427C82.0701 49.4048 82.6209 49.6171 83.1966 49.6495Z" fill="#3D1D0B"/>
<path d="M105.473 43.1376C105.201 40.5869 104.396 38.1213 103.11 35.8996C102.455 34.7875 101.56 33.835 100.49 33.1117C99.4192 32.3884 98.2005 31.9125 96.9223 31.7185C98.0687 31.1445 99.3946 31.0406 100.617 31.429C98.772 30.3303 96.7566 29.5462 94.6534 29.109C92.7966 28.8492 90.904 29.1168 89.1926 29.8811C87.4813 30.6454 86.0205 31.8755 84.9778 33.4303L90.6688 40.9139C91.3164 41.4785 92.0026 41.9974 92.7224 42.467C94.0826 43.5251 95.1376 44.9239 95.7799 46.521C96.4222 48.1181 96.6289 49.8564 96.379 51.5591C97.7536 49.6874 98.3513 47.3586 98.0476 45.058C100.13 48.2619 101.116 52.0521 100.86 55.8619C103.063 52.8966 103.804 49.0705 103.673 45.3291C103.708 43.4495 103.186 41.6014 102.173 40.0161C102.938 40.2259 103.639 40.6205 104.215 41.165C104.79 41.7094 105.223 42.3869 105.473 43.1376Z" fill="#716AF4"/>
<path d="M105.858 43.0974C105.583 40.4916 104.761 37.9728 103.444 35.7054C102.308 33.7662 100.487 32.3202 98.3377 31.6506C99.0591 31.5229 99.8009 31.5729 100.499 31.7961C100.589 31.825 100.687 31.8197 100.773 31.7813C100.86 31.7428 100.929 31.6739 100.968 31.5876C101.007 31.5014 101.013 31.4038 100.984 31.3136C100.956 31.2234 100.895 31.1468 100.814 31.0985C98.9249 29.9736 96.8606 29.1724 94.7065 28.7285C92.7783 28.4656 90.8149 28.7468 89.0387 29.5402C87.2624 30.3336 85.7444 31.6075 84.6567 33.2176C84.639 33.2432 84.625 33.2712 84.615 33.3007C84.881 33.3521 85.1452 33.4137 85.4076 33.4855C86.4221 32.0456 87.8133 30.9111 89.4297 30.2059C91.046 29.5007 92.8254 29.2517 94.5738 29.4861C95.9811 29.7788 97.3505 30.2301 98.6557 30.8313C97.9913 30.8917 97.3444 31.0763 96.7486 31.3757C96.6758 31.4125 96.6166 31.4715 96.5794 31.544C96.5423 31.6165 96.5292 31.699 96.542 31.7794C96.5548 31.8598 96.5928 31.9342 96.6506 31.9917C96.7084 32.0492 96.783 32.087 96.8636 32.0995C98.0854 32.2823 99.2506 32.7359 100.274 33.4269C101.297 34.1179 102.151 35.0289 102.775 36.0927C103.694 37.6755 104.363 39.3894 104.76 41.1747C104.094 40.44 103.232 39.9105 102.274 39.6486C102.199 39.6282 102.12 39.6308 102.046 39.6563C101.973 39.6818 101.909 39.7288 101.862 39.7913C101.816 39.8537 101.79 39.9287 101.787 40.0063C101.784 40.0839 101.805 40.1605 101.847 40.2261C102.823 41.7537 103.324 43.5354 103.286 45.3466C103.48 48.5287 102.788 51.7023 101.285 54.5158C101.248 51.0823 100.238 47.7293 98.3724 44.8438C98.3249 44.7702 98.2537 44.7149 98.1705 44.6871C98.0873 44.6593 97.9971 44.6606 97.9147 44.6909C97.8324 44.7211 97.7628 44.7784 97.7175 44.8534C97.6722 44.9284 97.6538 45.0165 97.6655 45.1033C97.8906 46.7812 97.6129 48.4881 96.8675 50.009C96.8276 47.3871 95.7731 44.8822 93.9248 43.0181C93.9633 43.4171 93.9803 43.8178 93.9757 44.2186C94.8004 45.2256 95.4061 46.3929 95.7542 47.6461C96.1023 48.8994 96.1852 50.2112 95.9977 51.4981C95.9846 51.5836 96.0006 51.671 96.0433 51.7462C96.086 51.8215 96.1529 51.8802 96.2331 51.9129C96.3133 51.9456 96.4022 51.9505 96.4855 51.9266C96.5688 51.9028 96.6417 51.8517 96.6923 51.7815C97.8048 50.273 98.4373 48.4656 98.5075 46.594C100.004 49.4343 100.686 52.6318 100.478 55.834C100.472 55.9169 100.494 55.9993 100.539 56.0689C100.585 56.1385 100.652 56.1916 100.73 56.2203C100.808 56.249 100.893 56.2517 100.973 56.228C101.053 56.2043 101.123 56.1555 101.172 56.0889C103.751 52.6193 104.166 48.3119 104.061 45.3335C104.091 43.7577 103.745 42.1973 103.049 40.782C104.023 41.3203 104.759 42.2046 105.109 43.2591C105.14 43.3478 105.203 43.4221 105.285 43.4681C105.367 43.514 105.463 43.5284 105.555 43.5085C105.647 43.4886 105.729 43.4358 105.784 43.3601C105.84 43.2844 105.866 43.191 105.858 43.0974Z" fill="#3D1D0B"/>
<path d="M77.552 54.9255C77.4866 54.9255 77.4223 54.9088 77.3651 54.8771C77.3079 54.8455 77.2597 54.7998 77.2251 54.7445C77.1904 54.6891 77.1705 54.6259 77.167 54.5607C77.1636 54.4955 77.1768 54.4306 77.2055 54.3719C77.79 53.1747 78.2941 51.9399 78.7143 50.6759C78.7512 50.5957 78.7702 50.5085 78.7699 50.4203C78.5392 49.9918 78.26 49.5911 77.9379 49.226C77.902 49.1884 77.8741 49.144 77.8558 49.0954C77.8376 49.0468 77.8293 48.995 77.8316 48.9432C77.8339 48.8913 77.8467 48.8405 77.8693 48.7937C77.8918 48.7469 77.9235 48.7051 77.9626 48.6709C78.0017 48.6367 78.0474 48.6107 78.0968 48.5945C78.1462 48.5783 78.1984 48.5723 78.2502 48.5767C78.3021 48.5812 78.3525 48.596 78.3984 48.6204C78.4443 48.6448 78.4848 48.6782 78.5175 48.7186C78.8218 49.0644 79.0933 49.4377 79.3286 49.8335C79.443 49.9935 79.5132 50.1807 79.5321 50.3763C79.5509 50.5719 79.5177 50.769 79.4359 50.9477C79.0076 52.2336 78.4943 53.4896 77.8993 54.7076C77.8678 54.7729 77.8185 54.8279 77.7571 54.8664C77.6957 54.905 77.6246 54.9255 77.552 54.9255Z" fill="#3D1D0B"/>
<path d="M89.2064 51.4167C88.724 50.3238 88.006 49.3506 87.1034 48.5664C86.2008 47.7822 85.1359 47.2063 83.9846 46.8798C82.5557 46.5929 81.1081 46.4084 79.6527 46.3277C78.1817 46.2441 76.783 45.6636 75.6866 44.6815C74.4189 46.5747 73.8641 48.8547 74.1207 51.1171C74.2913 52.837 74.7409 54.5177 75.452 56.0937C76.0023 57.2733 76.6807 59.5171 78.1432 59.9098C76.3338 59.3937 74.6956 58.4044 73.3983 57.0443C72.1009 55.6842 71.1916 54.0029 70.7643 52.1744C70.6379 53.9026 70.9951 55.6319 71.7962 57.1693C70.0334 56.0983 68.7286 54.4161 68.1316 52.4449C67.5346 50.4737 67.6875 48.3521 68.561 46.4864C67.6445 47.6383 67.0255 48.9971 66.7581 50.4434C65.9864 48.1704 66.7365 45.6755 67.7799 43.5211C69.5322 39.8232 72.4544 36.8027 76.0965 34.9248C77.9664 33.98 79.547 33.086 81.7218 33.0537C86.5145 32.9836 91.3303 35.4884 93.1786 40.0045C94.2433 42.6196 94.2433 45.546 93.1786 48.1611C93.6347 47.06 91.1157 46.1691 90.0661 48.3013C89.7628 48.9234 89.0204 50.7522 89.2064 51.4167Z" fill="#716AF4"/>
<path d="M84.8947 48.0934C84.7749 47.8883 84.6075 47.7149 84.4067 47.5876C84.2059 47.4603 83.9774 47.3828 83.7404 47.3617C83.5034 47.3406 83.2648 47.3764 83.0446 47.4662C82.8243 47.556 82.6288 47.6971 82.4744 47.8778C82.4422 47.9182 82.4021 47.9518 82.3566 47.9764C82.3111 48.0011 82.261 48.0163 82.2095 48.0213C82.1579 48.0262 82.1059 48.0208 82.0565 48.0052C82.0071 47.9897 81.9613 47.9644 81.9219 47.9308C81.8825 47.8973 81.8503 47.8561 81.8272 47.8099C81.8041 47.7636 81.7905 47.7132 81.7873 47.6616C81.7842 47.6101 81.7914 47.5584 81.8087 47.5096C81.826 47.4609 81.8529 47.4162 81.8879 47.3781C82.1224 47.1043 82.4192 46.8904 82.7535 46.7544C83.0877 46.6184 83.4498 46.5641 83.8093 46.5961C84.1689 46.6282 84.5155 46.7456 84.8204 46.9385C85.1252 47.1315 85.3793 47.3944 85.5615 47.7053C85.6131 47.7935 85.6274 47.8986 85.6014 47.9973C85.5753 48.0961 85.511 48.1805 85.4226 48.232C85.3342 48.2834 85.2289 48.2978 85.1299 48.2718C85.0309 48.2458 84.9463 48.1816 84.8947 48.0934Z" fill="#3D1D0B"/>
<path d="M74.508 49.3861C74.7133 48.0047 75.9474 47.2501 77.1428 48.121C77.2255 48.1814 77.2808 48.272 77.2965 48.373C77.3122 48.474 77.2871 48.5771 77.2266 48.6596C77.1661 48.7421 77.0752 48.7973 76.974 48.813C76.8727 48.8286 76.7694 48.8035 76.6867 48.7432C76.5788 48.6431 76.446 48.5738 76.3021 48.5425C76.1582 48.5112 76.0085 48.5191 75.8687 48.5653C75.7 48.66 75.5572 48.7947 75.4531 48.9574C75.3489 49.1202 75.2865 49.306 75.2713 49.4985C75.2542 49.5976 75.199 49.6861 75.1174 49.7451C75.0358 49.8041 74.9343 49.8288 74.8347 49.8142C74.735 49.7995 74.645 49.7465 74.584 49.6665C74.5229 49.5865 74.4957 49.4859 74.508 49.3861Z" fill="#3D1D0B"/>
<path d="M90.8197 50.1923C90.7602 50.1923 90.7015 50.1786 90.6481 50.1523C90.5948 50.1259 90.5483 50.0876 90.5123 50.0403C90.4763 49.993 90.4517 49.9381 90.4405 49.8798C90.4293 49.8215 90.4318 49.7613 90.4477 49.7041C90.5666 49.2746 90.7728 48.8741 91.0535 48.5276C91.23 48.3163 91.4655 48.1621 91.7301 48.0848C91.9947 48.0075 92.2763 48.0104 92.5392 48.0933C92.5894 48.1068 92.6365 48.1303 92.6774 48.1623C92.7183 48.1944 92.7523 48.2344 92.7773 48.28C92.8024 48.3255 92.8179 48.3756 92.823 48.4273C92.8281 48.479 92.8227 48.5312 92.8071 48.5807C92.7914 48.6302 92.7659 48.6761 92.7321 48.7155C92.6982 48.755 92.6567 48.7872 92.6101 48.8102C92.5634 48.8332 92.5126 48.8466 92.4606 48.8495C92.4086 48.8524 92.3566 48.8448 92.3077 48.8271C92.1915 48.7905 92.0671 48.7891 91.95 48.8229C91.833 48.8568 91.7287 48.9244 91.6501 49.0173C91.4381 49.2806 91.2826 49.5847 91.1932 49.9105C91.1706 49.9918 91.1217 50.0635 91.0542 50.1144C90.9867 50.1653 90.9043 50.1927 90.8197 50.1923Z" fill="#3D1D0B"/>
<path d="M83.0281 53.4664H83.2087C83.3111 53.4634 83.408 53.42 83.4783 53.3457C83.5486 53.2714 83.5864 53.1723 83.5834 53.0702C83.5804 52.9681 83.5369 52.8714 83.4625 52.8012C83.388 52.7311 83.2887 52.6934 83.1863 52.6964C82.8861 52.7075 82.5862 52.6661 82.3004 52.5739C82.252 52.5588 82.2011 52.5533 82.1507 52.5577C82.1002 52.5621 82.0511 52.5765 82.0061 52.5999C81.9612 52.6232 81.9213 52.6552 81.8888 52.694C81.8562 52.7327 81.8317 52.7775 81.8165 52.8257C81.8013 52.874 81.7957 52.9247 81.8002 52.9751C81.8046 53.0255 81.819 53.0744 81.8424 53.1193C81.8659 53.1641 81.8979 53.2039 81.9368 53.2364C81.9756 53.2688 82.0205 53.2934 82.0688 53.3085L82.1699 53.3378C81.9766 54.0439 81.566 54.6717 80.9959 55.1324C80.4258 55.5932 79.725 55.8637 78.9926 55.9057C78.8902 55.9121 78.7946 55.9587 78.7267 56.0354C78.6588 56.1121 78.6243 56.2125 78.6306 56.3146C78.637 56.4167 78.6837 56.5121 78.7606 56.5799C78.8374 56.6476 78.9381 56.6821 79.0404 56.6757C79.7685 56.634 80.4737 56.4068 81.0889 56.0159C81.704 55.625 82.2085 55.0834 82.5543 54.4427C82.9455 55.2256 83.1432 56.0906 83.1308 56.9653C83.1274 57.0849 83.0917 57.2015 83.0275 57.3026C82.9632 57.4037 82.8728 57.4856 82.7657 57.5397C82.0531 57.5065 81.3568 57.3153 80.7275 56.9799C80.6827 56.9563 80.6336 56.9418 80.5831 56.9372C80.5327 56.9325 80.4818 56.9378 80.4334 56.9528C80.3849 56.9678 80.34 56.9921 80.301 57.0245C80.262 57.0568 80.2298 57.0965 80.2062 57.1412C80.1826 57.1859 80.168 57.2349 80.1634 57.2853C80.1587 57.3356 80.164 57.3864 80.179 57.4347C80.1941 57.483 80.2185 57.5279 80.2509 57.5667C80.2833 57.6056 80.323 57.6378 80.3679 57.6613C81.076 58.0342 81.8537 58.257 82.6523 58.3158C82.7813 58.3184 82.91 58.3007 83.0335 58.2635C83.2814 58.1594 83.4947 57.9874 83.6485 57.7673C83.8023 57.5471 83.8904 57.288 83.9025 57.0199C84.0507 55.7479 83.3785 54.5967 83.0281 53.4664Z" fill="#3D1D0B"/>
<path d="M93.211 66.9353C98.5662 64.5098 99.771 58.6193 98.2174 53.3833C95.9972 54.2956 93.9195 55.5208 92.0479 57.0215C91.3302 56.0782 90.6354 55.1178 89.9642 54.141C89.5951 55.6586 88.8469 57.0583 87.7893 58.2096L88.849 59.4162L85.5898 61.4459C84.8397 61.9226 83.4783 62.3815 83.5647 63.3709C83.7191 65.1489 85.7612 66.7766 87.3147 67.2979C89.2552 67.9266 91.3626 67.797 93.211 66.9353Z" fill="white"/>
<path d="M58.2365 47.8069C59.0236 48.084 59.8879 48.0451 60.6467 47.6983C60.6765 47.413 60.7856 47.1417 60.9616 46.9149C61.1376 46.6881 61.3737 46.5149 61.6431 46.4147C61.0635 45.9443 60.1875 44.576 60.7795 44.1479C61.3714 43.7197 62.2937 44.2818 62.7089 44.6514C63.552 45.6755 64.0025 46.9654 63.98 48.2905C64.0198 49.0907 63.9576 49.8928 63.7948 50.6775C63.1213 51.0547 62.3707 51.2744 61.5997 51.3199C60.8286 51.3654 60.0573 51.2355 59.344 50.94C58.3376 49.678 57.9957 48.7409 58.2365 47.8069Z" fill="white"/>
<path d="M57.8165 35.6546C57.7981 36.8445 58.0924 38.0184 58.67 39.0596C58.9457 39.5809 59.374 40.0061 59.898 40.2784C60.4219 40.5508 61.0165 40.6574 61.6027 40.5842C62.7751 40.3316 63.5322 39.1982 64.0878 38.124C65.1334 36.0945 65.9364 33.9495 66.4803 31.733C67.073 29.3114 66.4394 23.5587 62.6369 25.3166C61.7686 25.7402 61.0423 26.4063 60.5462 27.2339C58.902 29.7487 57.9597 32.6555 57.8165 35.6546Z" fill="white"/>
<path d="M61.2463 40.9893C60.6458 40.9912 60.0563 40.8289 59.5418 40.5199C59.0273 40.2109 58.6076 39.7671 58.3282 39.2368C57.7251 38.1384 57.4162 36.9033 57.4314 35.6509V35.6378C57.5768 32.5707 58.5405 29.598 60.2229 27.0269C61.3806 25.1081 63.8865 23.8445 65.5064 25.2059C67.09 26.5372 67.31 29.966 66.8554 31.8279C66.3047 34.0731 65.4916 36.246 64.4329 38.302C63.7491 39.6318 62.752 40.9893 61.2463 40.9893ZM58.2032 35.6656C58.1812 36.7875 58.4593 37.8951 59.0089 38.8741C59.2463 39.3289 59.6178 39.7 60.0732 39.9375C60.5286 40.175 61.046 40.2675 61.5557 40.2024C62.5938 39.9776 63.3046 38.8079 63.7468 37.9478C64.7768 35.9465 65.5686 33.8318 66.1061 31.6469C66.5128 29.9791 66.2874 26.8729 65.0094 25.7949C63.7452 24.7331 61.7572 25.9774 60.8766 27.4366C59.2443 29.8822 58.3193 32.7295 58.2032 35.6656Z" fill="#3D1D0B"/>
<path d="M105.284 102.367C101.194 102.943 97.017 101.125 94.028 98.2002C91.22 95.2097 89.1642 91.5965 88.0298 87.6582C88.0148 87.6093 88.0098 87.5579 88.0149 87.507C88.02 87.4562 88.0352 87.4068 88.0596 87.3619C88.0841 87.317 88.1172 87.2773 88.1572 87.2453C88.1971 87.2133 88.2431 87.1895 88.2923 87.1754C88.3416 87.1613 88.3931 87.1571 88.444 87.1631C88.4949 87.1691 88.5441 87.1851 88.5887 87.2103C88.6333 87.2355 88.6724 87.2692 88.7038 87.3096C88.7352 87.35 88.7582 87.3963 88.7715 87.4457C89.87 91.2619 91.8606 94.7636 94.5798 97.6628C97.6151 100.631 101.58 102.111 105.176 101.604C108.772 101.098 112.313 98.5244 114.669 94.7206C116.847 91.204 117.938 87.1423 118.991 83.2145C119.02 83.1197 119.086 83.04 119.173 82.9921C119.26 82.9443 119.363 82.9319 119.459 82.9577C119.555 82.9834 119.638 83.0453 119.689 83.1303C119.741 83.2154 119.757 83.317 119.735 83.4139C118.666 87.3956 117.56 91.512 115.322 95.1249C112.85 99.1242 109.096 101.831 105.284 102.367Z" fill="#3D1D0B"/>
<path d="M118.367 64.7476C118.264 64.7476 118.166 64.707 118.094 64.6348C118.021 64.5626 117.981 64.4647 117.981 64.3626C117.957 61.246 117.645 58.1383 117.05 55.0787C116.444 52.0694 114.747 49.3886 112.284 47.5489C109.703 45.7779 106.135 45.8056 104 47.6182C103.921 47.6806 103.822 47.7102 103.722 47.7006C103.622 47.6911 103.53 47.6432 103.465 47.567C103.4 47.4908 103.367 47.3924 103.374 47.2926C103.38 47.1928 103.425 47.0994 103.499 47.0322C105.892 45.0009 109.862 44.9532 112.734 46.9236C115.356 48.8786 117.162 51.7301 117.807 54.9316C118.411 58.0384 118.728 61.1941 118.753 64.3587C118.753 64.4096 118.743 64.4601 118.724 64.5073C118.705 64.5544 118.677 64.5973 118.641 64.6335C118.605 64.6696 118.562 64.6983 118.515 64.7179C118.468 64.7375 118.418 64.7476 118.367 64.7476Z" fill="#3D1D0B"/>
<path d="M118.796 101.444C118.73 101.444 118.665 101.427 118.607 101.395C118.55 101.362 118.501 101.316 118.467 101.259C118.433 101.203 118.413 101.138 118.411 101.072C118.409 101.006 118.424 100.941 118.454 100.882C123.25 91.6508 125.507 80.4773 125.162 67.6753C124.924 59.0005 123.525 52.3854 120.758 46.8552C120.364 45.8064 119.599 44.9378 118.607 44.4136C118.56 44.3912 118.518 44.3596 118.484 44.3207C118.45 44.2818 118.424 44.2364 118.408 44.1873C118.391 44.1381 118.385 44.0862 118.39 44.0346C118.394 43.983 118.409 43.9328 118.433 43.887C118.457 43.8412 118.49 43.8008 118.53 43.7681C118.571 43.7354 118.617 43.7111 118.667 43.6967C118.717 43.6823 118.769 43.6781 118.82 43.6843C118.872 43.6906 118.922 43.7071 118.967 43.7329C120.115 44.3354 121.003 45.3361 121.463 46.5465C124.267 52.1451 125.693 58.8665 125.933 67.6545C126.281 80.5905 123.996 91.8879 119.141 101.236C119.108 101.299 119.059 101.352 118.998 101.389C118.937 101.426 118.867 101.445 118.796 101.444Z" fill="#3D1D0B"/>
<path d="M83.4721 96.9335C81.2633 90.8359 80.6605 83.8058 81.5758 74.8099C81.5861 74.7078 81.6365 74.6139 81.7161 74.5489C81.7958 74.484 81.898 74.4532 82.0003 74.4634C82.1027 74.4736 82.1967 74.524 82.2619 74.6034C82.327 74.6828 82.3578 74.7848 82.3476 74.8869C81.4439 83.7635 82.0335 90.6865 84.1998 96.6717C87.8703 106.803 96.9964 114.587 107.1 112.886C116.818 111.091 121.502 100.292 123.066 95.7331C123.081 95.684 123.106 95.6384 123.139 95.5991C123.173 95.5598 123.213 95.5275 123.259 95.5042C123.305 95.4809 123.356 95.467 123.407 95.4634C123.458 95.4598 123.51 95.4665 123.559 95.4831C123.608 95.4997 123.653 95.526 123.691 95.5602C123.73 95.5945 123.761 95.6361 123.783 95.6826C123.805 95.729 123.818 95.7795 123.82 95.8309C123.822 95.8823 123.814 95.9336 123.796 95.9818C122.189 100.67 117.359 111.774 107.234 113.645C96.5588 115.44 87.2105 107.253 83.4721 96.9335Z" fill="#3D1D0B"/>
<path d="M128.5 75.2335C128.446 75.2337 128.393 75.2228 128.344 75.2014C128.295 75.1801 128.251 75.1488 128.215 75.1095C128.178 75.0703 128.151 75.0239 128.133 74.9734C128.116 74.9229 128.109 74.8694 128.114 74.8162C128.637 68.6562 129.093 61.509 127.875 54.7014C126.957 49.5763 124.645 42.3907 118.839 37.2617C113.522 32.5647 106.259 30.9477 100.346 33.1345C100.25 33.1699 100.144 33.1659 100.051 33.1232C99.9576 33.0805 99.8854 33.0028 99.8499 32.907C99.8144 32.8112 99.8185 32.7053 99.8612 32.6125C99.904 32.5197 99.982 32.4477 100.078 32.4123C106.258 30.1254 113.824 31.8032 119.35 36.685C125.322 41.9603 127.695 49.3215 128.634 54.5667C129.869 61.4651 129.41 68.67 128.882 74.8808C128.874 74.9767 128.831 75.0661 128.76 75.1314C128.689 75.1966 128.596 75.2331 128.5 75.2335Z" fill="#3D1D0B"/>
<path d="M128.379 28.4253C128.318 28.4255 128.257 28.411 128.202 28.383C128.147 28.355 128.1 28.3143 128.064 28.2644C125.791 25.1005 122.821 22.4993 119.382 20.661C115.943 18.8226 112.127 17.7963 108.228 17.6609C104.329 17.5255 100.451 18.2847 96.892 19.8801C93.3333 21.4755 90.1889 23.8644 87.7012 26.863C87.6696 26.9038 87.6301 26.9379 87.585 26.9633C87.5399 26.9886 87.4902 27.0046 87.4388 27.0104C87.3874 27.0162 87.3353 27.0115 87.2857 26.9968C87.2361 26.9821 87.19 26.9576 87.1501 26.9248C87.1102 26.8919 87.0773 26.8514 87.0534 26.8056C87.0295 26.7599 87.0151 26.7098 87.011 26.6583C87.0069 26.6069 87.0132 26.5551 87.0295 26.5061C87.0459 26.4572 87.0719 26.412 87.1061 26.3733C89.6692 23.2842 92.9085 20.8231 96.5748 19.1796C100.241 17.5361 104.236 16.7539 108.253 16.8933C112.27 17.0327 116.202 18.0899 119.745 19.9836C123.288 21.8773 126.348 24.557 128.689 27.8162C128.731 27.8735 128.755 27.941 128.76 28.0113C128.766 28.0815 128.752 28.1519 128.72 28.2147C128.688 28.2776 128.639 28.3304 128.579 28.3676C128.519 28.4047 128.45 28.4247 128.379 28.4253Z" fill="#3D1D0B"/>
<path d="M89.4047 119.843C85.0877 117.442 81.5442 113.866 79.1878 109.532C76.8313 105.197 75.7591 100.284 76.0964 95.3643C76.0994 95.3137 76.1125 95.2642 76.135 95.2187C76.1575 95.1732 76.1888 95.1327 76.2272 95.0995C76.2656 95.0662 76.3103 95.041 76.3586 95.0253C76.4069 95.0095 76.4579 95.0036 76.5085 95.0078C76.5591 95.0113 76.6085 95.0247 76.6539 95.0473C76.6992 95.0699 76.7397 95.1011 76.773 95.1393C76.8062 95.1775 76.8316 95.2219 76.8477 95.2698C76.8637 95.3178 76.8702 95.3685 76.8666 95.419C76.5398 100.195 77.5818 104.966 79.8709 109.173C82.1601 113.38 85.6019 116.851 89.7944 119.18C91.1287 120.022 92.6946 120.424 94.2706 120.329C94.373 120.323 94.4735 120.358 94.5503 120.426C94.627 120.494 94.6735 120.589 94.6796 120.691C94.6858 120.793 94.651 120.894 94.583 120.97C94.515 121.047 94.4193 121.093 94.3169 121.099C92.5879 121.205 90.8694 120.765 89.4047 119.843Z" fill="#3D1D0B"/>
<path d="M121.921 121.139C121.819 121.135 121.723 121.091 121.653 121.016C121.584 120.941 121.547 120.842 121.551 120.74C121.552 120.689 121.563 120.639 121.584 120.592C121.605 120.546 121.635 120.504 121.672 120.47C121.71 120.435 121.754 120.408 121.802 120.391C121.85 120.374 121.901 120.367 121.952 120.37C123.367 120.429 124.763 119.677 126.344 118.002C130.956 113.141 133.741 106.092 134.622 97.0515C134.632 96.9494 134.683 96.8555 134.762 96.7905C134.842 96.7255 134.944 96.6948 135.046 96.705C135.149 96.7152 135.243 96.7656 135.308 96.845C135.373 96.9244 135.404 97.0264 135.394 97.1285C134.495 106.345 131.641 113.546 126.904 118.534C125.536 119.979 123.908 121.216 121.921 121.139Z" fill="#3D1D0B"/>
<path d="M38.4562 98.8148C36.1008 99.6941 32.3408 100.09 30.4122 98.1595C29.8268 97.5587 29.3535 96.8586 29.0145 96.0921C27.595 93.5879 26.6004 90.8667 26.071 88.0386C25.5128 85.1783 26.0802 82.2135 27.6554 79.7596C28.9975 77.7183 32.418 75.3536 35.0342 76.4293C37.6505 77.505 40.2529 80.9592 41.7 83.1368C45.5024 88.8579 44.5354 96.544 38.4562 98.8148Z" fill="white"/>
<path d="M39.2948 79.5501C39.0257 80.2724 38.5408 80.8949 37.9056 81.3334C37.3175 81.7407 37.9542 83.9268 39.372 83.9999C40.0411 84.0338 40.1005 82.9989 39.9176 82.446C39.8426 82.2209 39.7232 82.013 39.5664 81.8346C39.4096 81.6562 39.2186 81.5109 39.0046 81.4073C39.4477 80.9538 39.791 80.4131 40.0125 79.8196C40.0358 79.7278 40.0243 79.6308 39.9804 79.5469C39.9364 79.463 39.8631 79.3983 39.7743 79.3649C39.6855 79.3316 39.5876 79.3321 39.4991 79.3662C39.4107 79.4004 39.3379 79.4658 39.2948 79.5501Z" fill="#3D1D0B"/>
<path d="M41.5288 91.6067C39.9799 91.6067 38.9156 88.5413 38.6841 87.0106C38.674 86.9422 38.6824 86.8724 38.7087 86.8084C38.7349 86.7445 38.7779 86.6888 38.8332 86.6471C38.8884 86.6054 38.9539 86.5794 39.0227 86.5717C39.0915 86.5639 39.1612 86.5748 39.2243 86.6032C40.2804 87.086 41.4374 87.3084 42.5977 87.2516C42.7 87.2465 42.8002 87.2821 42.8762 87.3507C42.9522 87.4193 42.9977 87.5152 43.0029 87.6173C43.008 87.7194 42.9722 87.8194 42.9035 87.8952C42.8347 87.971 42.7386 88.0165 42.6363 88.0216C41.597 88.0719 40.5577 87.9204 39.5762 87.5757C39.7914 88.4894 40.1593 89.3604 40.6644 90.1522C40.8705 90.4756 41.3783 90.9992 41.6885 90.7874C41.7938 90.6982 41.8737 90.583 41.9201 90.4532C42.1233 89.9778 42.2459 89.4719 42.2828 88.9563C42.29 88.8542 42.3375 88.7592 42.4149 88.692C42.4924 88.6249 42.5934 88.5911 42.6957 88.5983C42.798 88.6054 42.8933 88.6529 42.9606 88.7301C43.0279 88.8074 43.0617 88.9081 43.0546 89.0102C43.0133 89.6036 42.8735 90.1859 42.6409 90.7335C42.5688 90.9759 42.4231 91.19 42.2239 91.3464C42.0248 91.5028 41.7819 91.5937 41.5288 91.6067Z" fill="#3D1D0B"/>
<path d="M38.4652 94.6515C39.4098 96.3547 40.2634 98.1057 41.0436 99.8875C41.8239 101.669 38.2306 102.927 36.6369 103.302C36.2139 103.429 35.7651 103.445 35.3342 103.348C34.6406 103.039 34.0884 102.482 33.7868 101.786L32.7271 99.9806C32.1808 99.2361 31.9004 98.3303 31.9307 97.4081C32.1973 96.4384 32.7814 95.5857 33.59 94.9856C34.7769 94.067 37.6626 93.2046 38.4652 94.6515Z" fill="white"/>
<path d="M75.959 102.706C76.2677 100.171 77.5542 99.2506 78.2272 98.0855C78.324 97.9521 78.3858 97.7966 78.4071 97.6332C78.4284 97.4698 78.4085 97.3037 78.3491 97.15C78.2721 97.0339 78.1628 96.9429 78.0345 96.8882C77.9063 96.8334 77.7648 96.8174 77.6275 96.842C77.3519 96.8952 77.0921 97.0105 76.8681 97.1793C76.3532 97.5682 75.8868 98.0172 75.4789 98.5167C75.7699 97.9777 76.0693 97.2347 76.3132 96.6456C76.5293 96.2245 76.8534 95.5977 76.5293 95.168C76.4228 95.0504 76.2794 94.9724 76.1226 94.9468C75.9658 94.9212 75.805 94.9495 75.6665 95.0271C75.235 95.3461 74.8742 95.7506 74.6068 96.2152C74.2306 96.6952 73.9156 97.22 73.6691 97.7775C73.7602 97.0878 73.9045 96.4062 74.1006 95.7386C74.4563 94.5066 73.5819 94.2625 72.9475 94.9809C71.8925 96.1736 71.7189 97.8715 71.5877 99.4523C71.4216 99.2338 71.2115 99.0524 70.971 98.9197C70.7304 98.7871 70.4646 98.7062 70.1908 98.6823C68.6866 98.546 68.601 99.4138 69.1976 99.6648C70.0165 100.141 70.6131 100.921 70.8568 101.835C72.6073 101.515 74.4148 101.823 75.959 102.706Z" fill="white"/>
<path d="M62.8896 101.304C62.8168 101.304 62.7455 101.284 62.6839 101.245C62.6223 101.206 62.573 101.151 62.5415 101.086C62.08 100.128 61.8876 99.0641 61.9848 98.0064C62.0819 96.9486 62.4651 95.937 63.0933 95.0795C63.1537 94.997 63.2445 94.9418 63.3456 94.9261C63.4468 94.9103 63.5501 94.9353 63.6328 94.9956C63.7155 95.0558 63.7708 95.1464 63.7866 95.2473C63.8024 95.3483 63.7773 95.4513 63.7169 95.5338C63.1709 96.2788 62.8379 97.1577 62.7533 98.0767C62.6688 98.9957 62.8359 99.9204 63.2369 100.752C63.2652 100.811 63.2782 100.876 63.2745 100.941C63.2709 101.006 63.2508 101.069 63.2161 101.124C63.1814 101.179 63.1332 101.224 63.0761 101.256C63.019 101.288 62.9549 101.304 62.8896 101.304Z" fill="#3D1D0B"/>
<path d="M65.1627 100.142C65.0889 100.142 65.0165 100.121 64.9542 100.082C64.892 100.042 64.8425 99.9852 64.8116 99.9182C64.3611 98.9366 64.2434 97.8353 64.4764 96.7811C64.7094 95.7268 65.2803 94.777 66.1027 94.0754C66.1807 94.0093 66.2819 93.9767 66.3839 93.985C66.4859 93.9932 66.5805 94.0415 66.6468 94.1193C66.7132 94.1971 66.7458 94.298 66.7375 94.3998C66.7293 94.5017 66.6808 94.596 66.6028 94.6622C65.9083 95.2545 65.4262 96.0565 65.2294 96.9466C65.0326 97.8368 65.132 98.7668 65.5124 99.5956C65.5395 99.6542 65.5515 99.7187 65.5472 99.7831C65.5428 99.8476 65.5223 99.9099 65.4875 99.9644C65.4526 100.019 65.4046 100.064 65.3479 100.095C65.2912 100.126 65.2275 100.142 65.1627 100.142Z" fill="#3D1D0B"/>
<path d="M82.1376 104.494C82.0659 104.494 81.9957 104.474 81.9347 104.436C81.8738 104.398 81.8245 104.345 81.7924 104.281C81.7604 104.217 81.7468 104.145 81.7533 104.074C81.7597 104.003 81.7859 103.935 81.8289 103.878C82.18 103.419 82.4223 102.887 82.5374 102.321C82.6525 101.756 82.6374 101.172 82.4934 100.613C82.4708 100.515 82.4876 100.412 82.5401 100.326C82.5927 100.24 82.6768 100.178 82.7745 100.153C82.8722 100.129 82.9758 100.143 83.063 100.193C83.1502 100.244 83.2142 100.326 83.2412 100.423C83.4142 101.094 83.4322 101.796 83.294 102.475C83.1558 103.154 82.8649 103.793 82.4432 104.343C82.4072 104.39 82.3609 104.428 82.3079 104.454C82.2549 104.48 82.1967 104.493 82.1376 104.494Z" fill="#3D1D0B"/>
<path d="M82.3341 107.235C82.2574 107.235 82.1825 107.212 82.1189 107.169C82.0553 107.127 82.0059 107.066 81.9769 106.995C81.9479 106.925 81.9407 106.847 81.9562 106.772C81.9717 106.697 82.0092 106.628 82.064 106.575C82.6612 105.989 83.1332 105.288 83.4515 104.514C83.7699 103.741 83.9279 102.912 83.9162 102.076C83.9154 102.025 83.9245 101.975 83.9432 101.928C83.9618 101.881 83.9896 101.838 84.0248 101.802C84.0601 101.765 84.1022 101.736 84.1487 101.716C84.1952 101.696 84.2452 101.685 84.2959 101.685C84.347 101.682 84.398 101.69 84.4459 101.708C84.4937 101.726 84.5374 101.754 84.5741 101.789C84.6108 101.825 84.6398 101.867 84.6592 101.915C84.6787 101.962 84.6882 102.012 84.6872 102.063C84.7007 103.004 84.523 103.937 84.1648 104.807C83.8067 105.677 83.2755 106.465 82.6034 107.125C82.5318 107.195 82.4349 107.235 82.3341 107.235Z" fill="#3D1D0B"/>
<path d="M33.1679 90.5081C32.4602 89.2892 32.7535 87.4497 34.1712 87.107C33.6412 86.5649 33.2474 85.9052 33.0221 85.182C33.4249 85.289 33.8497 85.2819 34.2488 85.1614C34.6478 85.0408 35.0052 84.8117 35.281 84.4998C35.4139 84.338 35.5123 84.1509 35.5703 83.9499C35.6283 83.7489 35.6446 83.5382 35.6184 83.3307C35.5921 83.1232 35.5237 82.9233 35.4174 82.743C35.3111 82.5627 35.1691 82.4059 35.0001 82.2822C35.2115 82.3814 35.4538 82.3927 35.6736 82.3137C35.8935 82.2347 36.0729 82.0719 36.1724 81.861C36.2423 81.6398 36.2273 81.4006 36.1303 81.1899C36.0333 80.9792 35.8613 80.8119 35.6476 80.7206C36.566 80.0654 37.5037 79.916 37.8031 78.6247C37.8686 78.35 37.8779 78.065 37.8306 77.7866C37.7834 77.5082 37.6804 77.2422 37.5278 77.0043C37.3753 76.7665 37.1763 76.5617 36.9428 76.4022C36.7093 76.2427 36.446 76.1318 36.1685 76.076C36.3833 75.9976 36.5785 75.8737 36.7408 75.7129C36.903 75.5521 37.0284 75.3582 37.1084 75.1444C37.1884 74.9306 37.2211 74.7021 37.2042 74.4746C37.1873 74.247 37.1212 74.0258 37.0105 73.8262C36.8998 73.6265 36.747 73.4532 36.5628 73.318C36.3786 73.1828 36.1672 73.089 35.9432 73.043C35.7192 72.9971 35.4879 73 35.2651 73.0517C35.0424 73.1034 34.8335 73.2026 34.6528 73.3425C34.8363 73.1598 34.9797 72.941 35.0741 72.7001C35.1685 72.4592 35.2118 72.2014 35.2012 71.943C35.1906 71.6846 35.1264 71.4311 35.0126 71.1987C34.8988 70.9663 34.7379 70.76 34.5401 70.5928C33.6786 69.966 32.6223 69.6643 31.5588 69.7412C27.0825 69.7882 22.7545 71.3486 19.2821 74.1674C15.8096 76.9861 13.3981 80.8966 12.4415 85.2598C12.2047 86.2674 12.1799 87.313 12.3688 88.3306C12.5577 89.3483 12.9561 90.3157 13.5389 91.1718C14.1391 91.9445 14.9292 92.5495 15.8325 92.9282C16.7358 93.3068 17.7218 93.4464 18.6951 93.3332C18.333 93.7982 18.1563 94.3804 18.199 94.9676C18.2418 95.5549 18.501 96.1055 18.9266 96.5133C19.2588 96.7452 19.6696 96.836 20.0689 96.7659C20.4681 96.6957 20.8231 96.4703 21.0559 96.1391C21.6011 97.0775 22.379 97.8602 23.3148 98.4122C23.7897 98.6744 24.3418 98.7619 24.8748 98.6593C25.4077 98.5567 25.8876 98.2705 26.2306 97.8508C26.7848 98.4534 27.5431 98.83 28.3591 98.908C28.5324 98.9013 28.7025 98.8597 28.8593 98.7857C29.016 98.7116 29.1561 98.6067 29.2711 98.4772C29.3861 98.3477 29.4737 98.1963 29.5285 98.0322C29.5833 97.868 29.6042 97.6945 29.59 97.522C29.8524 98.0006 30.2804 98.3676 30.7941 98.5544C31.3078 98.7411 31.8721 98.7349 32.3815 98.5369C32.643 98.4047 32.8697 98.2133 33.0437 97.9779C33.2176 97.7425 33.3338 97.4697 33.3831 97.1815C33.4323 96.8932 33.4131 96.5974 33.3271 96.3178C33.2411 96.0383 33.0906 95.7827 32.8878 95.5716C33.6094 96.2823 34.9036 95.5716 35.1375 94.6361C35.2535 93.7094 35.0613 92.7704 34.5903 91.9634C33.9717 91.6434 33.473 91.1331 33.1679 90.5081Z" fill="white"/>
<path d="M34.2942 90.0228C34.2306 90.0229 34.1679 90.0072 34.1117 89.9773C34.0555 89.9473 34.0077 89.904 33.9724 89.8511C33.7897 89.5741 33.7126 89.2409 33.755 88.912C33.7975 88.5831 33.9568 88.2803 34.2039 88.0585C35.1903 87.2446 36.5663 88.2271 36.0122 88.7261C35.9362 88.7945 35.8362 88.83 35.734 88.8248C35.6318 88.8196 35.5359 88.7741 35.4673 88.6984C35.3723 88.5927 35.2398 88.528 35.0979 88.5178C34.956 88.5076 34.8156 88.5527 34.7064 88.6437C34.6002 88.7414 34.5324 88.8738 34.5153 89.0169C34.4982 89.16 34.5328 89.3046 34.613 89.4245C34.6515 89.4823 34.6737 89.5494 34.6771 89.6188C34.6806 89.6882 34.6651 89.7572 34.6325 89.8185C34.5998 89.8798 34.5511 89.9312 34.4916 89.9671C34.432 90.0031 34.3638 90.0223 34.2942 90.0228Z" fill="#3D1D0B"/>
<path d="M75.5082 102.641C74.02 101.894 72.3304 101.645 70.6893 101.93C70.2207 102.007 69.7885 102.229 69.4545 102.566C69.209 102.896 69.0393 103.276 68.9575 103.68C67.445 109.233 65.2411 114.575 62.3975 119.582C61.4714 121.162 60.1092 119.076 59.5003 118.273C57.7148 115.92 56.1042 113.441 54.6814 110.854C53.8393 109.218 52.6306 107.798 51.1491 106.703C50.9225 106.049 50.6128 105.425 50.2276 104.849C50.2276 104.849 50.9994 103.874 50.7624 103.297C50.514 102.744 50.1058 102.278 49.5901 101.959C44.9595 98.6191 40.0203 99.3937 34.8047 100.201C33.1545 100.435 31.5508 100.923 30.0514 101.65C29.8037 101.754 29.5797 101.908 29.3927 102.101C29.2057 102.293 29.0597 102.522 28.9632 102.772C28.8228 103.287 29.2542 103.951 29.7798 103.83C27.473 104.868 26.4882 104.606 25.701 107.319C25.5768 107.618 25.5768 107.955 25.701 108.254C25.8126 108.4 25.9672 108.508 26.1432 108.562C25.2755 109.433 24.5533 110.438 24.0039 111.537C22.375 114.872 21.0901 118.363 20.169 121.958C18.6617 127.485 17.5497 133.111 16.8412 138.795C16.6158 140.573 15.4721 144.604 16.3781 146.147C17.2842 147.69 20.6352 148.206 22.2852 148.477C26.179 149.1 30.0916 149.574 34.0229 149.899C40.0048 150.357 46.2113 150.395 51.7734 148.215C52.9318 148.004 53.9736 147.379 54.7049 146.459C55.4361 145.538 55.8069 144.383 55.748 143.21C55.8051 139.566 54.9477 135.996 54.4985 132.424C56.4912 134.168 58.7972 135.398 61.8519 134.965C67.3931 134.169 69.615 130.037 71.9118 125.611C74.5335 120.641 76.728 115.459 78.4718 110.12C79.4835 106.953 78.6431 104.175 75.5082 102.641Z" fill="#716AF4"/>
<path d="M76.356 102.651C76.6855 100.275 77.864 99.4939 78.5409 98.3104C79.1475 97.4711 78.662 96.253 77.5491 96.4624C77.2204 96.5284 76.9102 96.6659 76.6408 96.8651C76.8144 96.4401 77.3655 95.6239 76.8191 94.9086C76.6549 94.7279 76.4346 94.6074 76.1937 94.5665C75.9527 94.5256 75.7049 94.5666 75.4901 94.6829C75.0874 94.9321 74.752 95.2757 74.513 95.6839C74.8541 94.1339 73.5097 93.7636 72.6608 94.7245C71.8077 95.8597 71.3244 97.2289 71.2763 98.6469C70.9609 98.4494 70.6024 98.3306 70.2313 98.3004C68.2548 98.1064 68.0418 99.6156 69.005 99.9944C69.6329 100.357 70.1172 100.923 70.3772 101.599C69.906 101.726 69.4789 101.98 69.1423 102.332C68.8682 102.701 68.6773 103.124 68.5828 103.573C67.0784 109.094 64.8871 114.405 62.0599 119.382C61.914 119.63 61.7635 119.767 61.613 119.767C61.0805 119.783 60.3103 118.716 59.8056 118.037C54.9388 111.492 54.6008 108.778 51.5053 106.242C51.3854 105.723 51.1714 105.229 50.874 104.786C51.057 104.556 51.1751 104.282 51.2158 103.991C51.2565 103.7 51.2184 103.404 51.1055 103.133C50.831 102.518 50.3791 101.998 49.8074 101.641C47.3394 99.8669 44.3517 98.9595 41.3118 99.0604C41.1004 98.7144 40.8946 98.3643 40.6944 98.0101C45.3535 94.4866 45.3049 87.7167 42.0064 82.9119C40.8979 81.3202 39.6222 79.8512 38.2009 78.5299C38.2808 78.034 38.2088 77.5256 37.9943 77.0712C37.7797 76.6168 37.4326 76.2377 36.9984 75.9835C37.2792 75.7018 37.468 75.3421 37.54 74.9514C37.6121 74.5607 37.564 74.1575 37.4021 73.7946C37.2403 73.4317 36.9722 73.1261 36.633 72.918C36.2939 72.7099 35.8996 72.609 35.502 72.6286C35.6197 72.208 35.6126 71.7624 35.4815 71.3459C35.3504 70.9293 35.101 70.5596 34.7634 70.2816C33.8349 69.6059 32.6972 69.2787 31.5506 69.3576C26.9834 69.3881 22.5631 70.9718 19.0199 73.8471C15.4766 76.7225 13.0222 80.7176 12.062 85.1727C11.8141 86.2364 11.7899 87.3399 11.991 88.4134C12.1921 89.4869 12.6141 90.5071 13.2305 91.4097C13.7992 92.1372 14.526 92.7265 15.356 93.1333C16.186 93.54 17.0976 93.7537 18.0224 93.7582C17.8574 94.1799 17.7907 94.6335 17.8275 95.0847C17.8643 95.5358 18.0035 95.9728 18.2346 96.3623C18.3845 96.5753 18.5765 96.7555 18.7987 96.8919C19.0208 97.0283 19.2686 97.118 19.5267 97.1556C19.7849 97.1932 20.048 97.1777 20.3 97.1103C20.5519 97.0429 20.7874 96.9249 20.9921 96.7635C21.5496 97.5736 22.2783 98.252 23.1268 98.7508C23.6183 99.0223 24.1823 99.1342 24.7405 99.0708C25.2986 99.0075 25.8231 98.7721 26.2409 98.3974C26.8377 98.9124 27.5824 99.2258 28.3686 99.2929C28.6632 99.2748 28.9486 99.1839 29.1991 99.0284C29.4497 98.8729 29.6576 98.6576 29.8041 98.402C30.0707 98.64 30.3831 98.8213 30.7223 98.9347C31.0614 99.0482 31.4202 99.0915 31.7767 99.0619C31.9419 99.4585 32.1039 99.8974 32.2645 100.351C31.4499 100.598 30.6579 100.914 29.8967 101.294C29.5958 101.423 29.3243 101.611 29.0988 101.847C28.8732 102.084 28.6983 102.364 28.5847 102.67C28.5375 102.866 28.5354 103.069 28.5784 103.266C28.6215 103.462 28.7086 103.646 28.8332 103.804C26.9177 104.554 26.0441 104.728 25.3379 107.17C25.2521 107.375 25.2105 107.596 25.216 107.818C25.2214 108.04 25.2738 108.259 25.3695 108.46C19.721 116.348 16.4943 135.375 15.7742 145.662C15.7707 145.713 15.7772 145.764 15.7934 145.812C15.8096 145.86 15.8351 145.904 15.8684 145.942C15.9358 146.02 16.0311 146.067 16.1335 146.074C16.2358 146.081 16.3368 146.047 16.4141 145.98C16.4915 145.913 16.5389 145.818 16.546 145.715C17.2552 135.516 20.4403 116.676 25.9908 108.919C26.6954 109.157 28.9058 108.919 29.9692 108.672C33.5618 108.16 36.9367 106.889 40.4266 106.094C42.6331 105.591 46.6709 105.016 50.1053 106.432C51.932 107.184 53.3652 109.334 54.3399 111.042C55.8428 113.702 57.514 116.264 59.3433 118.712C59.8959 119.458 60.7325 120.573 61.6539 120.541C61.8843 120.516 62.1043 120.432 62.2925 120.297C62.4807 120.162 62.6308 119.981 62.7282 119.771C65.5924 114.729 67.8113 109.348 69.333 103.755C69.3999 103.425 69.5339 103.113 69.7266 102.836C70.0054 102.555 70.3673 102.37 70.7592 102.308C72.3214 102.041 73.9285 102.279 75.345 102.989C78.1233 104.351 79.1305 106.794 78.1048 110.004C76.3649 115.323 74.1774 120.486 71.5657 125.438C69.3276 129.743 67.2199 133.809 61.7944 134.587C57.711 135.163 55.0345 132.655 52.4306 129.809C49.1244 126.164 48.5255 124.846 46.0497 120.431C46.0255 120.386 45.9926 120.346 45.9527 120.313C45.9129 120.281 45.867 120.257 45.8176 120.242C45.7683 120.228 45.7166 120.223 45.6655 120.229C45.6145 120.235 45.5651 120.251 45.5202 120.276C45.4754 120.301 45.4361 120.335 45.4045 120.375C45.3729 120.416 45.3498 120.462 45.3364 120.512C45.323 120.561 45.3197 120.613 45.3266 120.664C45.3335 120.714 45.3506 120.763 45.3767 120.808C47.8394 125.197 48.5124 126.636 51.8595 130.326C52.5586 131.107 53.2965 131.852 54.0706 132.559C54.7921 136.167 55.3075 139.813 55.6141 143.479C55.6226 143.581 55.6714 143.676 55.7498 143.742C55.8282 143.808 55.9297 143.841 56.032 143.832C56.1344 143.824 56.2292 143.775 56.2955 143.697C56.3619 143.619 56.3944 143.518 56.3859 143.415C56.1034 140.036 55.6449 136.673 55.0121 133.342C55.9548 134.142 57.0561 134.735 58.244 135.081C59.432 135.428 60.68 135.521 61.9063 135.354C67.7254 134.518 70.0276 130.084 72.2533 125.798C74.8854 120.808 77.0897 115.605 78.8426 110.244C79.8961 106.931 78.9862 104.204 76.356 102.651ZM37.9508 79.3476C39.2251 80.5652 40.3746 81.9065 41.3821 83.3516C44.3402 87.6636 44.6559 93.9099 40.3201 97.3125C39.8571 96.4385 39.4357 95.5415 39.056 94.6329C39.0143 94.5424 38.9391 94.4715 38.8461 94.4351C38.7531 94.3988 38.6496 94.3998 38.5574 94.438C38.4652 94.4761 38.3914 94.5485 38.3515 94.6399C38.3116 94.7312 38.3088 94.8344 38.3436 94.9278C38.9401 96.3606 39.6364 97.75 40.4274 99.0858C37.9355 99.2936 35.458 99.6471 33.0077 100.145C32.8533 99.7056 32.699 99.2783 32.5353 98.8833C32.7431 98.7834 32.9333 98.6508 33.0987 98.4906C33.3958 98.2059 33.6093 97.8456 33.7162 97.4487C33.8231 97.0518 33.8194 96.6333 33.7053 96.2383C34.1303 96.1926 34.5312 96.019 34.855 95.7407C35.1787 95.4623 35.41 95.0924 35.5182 94.6799C35.6043 93.9866 35.5331 93.283 35.3098 92.6209C35.6028 92.6845 35.9023 92.713 36.202 92.7056C37.6614 92.5724 38.6137 91.9972 38.4254 90.5419C38.4189 90.4917 38.4025 90.4432 38.3772 90.3994C38.3519 90.3555 38.3182 90.317 38.278 90.2861C38.2378 90.2552 38.1919 90.2325 38.1429 90.2193C38.0939 90.2061 38.0428 90.2027 37.9925 90.2092C37.9422 90.2158 37.8936 90.2321 37.8496 90.2573C37.8056 90.2826 37.7671 90.3162 37.7361 90.3563C37.7052 90.3964 37.6824 90.4422 37.6692 90.4911C37.656 90.54 37.6525 90.591 37.6591 90.6412C37.6903 90.7801 37.6927 90.9239 37.6662 91.0637C37.6396 91.2035 37.5847 91.3365 37.5047 91.4543C37.1317 91.7799 36.6488 91.9524 36.1534 91.9371C34.0395 91.9933 32.594 89.7388 33.4229 88.0979C33.5101 87.9483 33.626 87.8173 33.764 87.7125C33.902 87.6076 34.0593 87.5309 34.227 87.4867C34.3947 87.4425 34.5695 87.4317 34.7414 87.4549C34.9133 87.4782 35.0789 87.5349 35.2288 87.622C35.3167 87.6661 35.4182 87.675 35.5125 87.6469C35.6067 87.6188 35.6867 87.5558 35.736 87.4708C35.7852 87.3859 35.8001 87.2853 35.7776 87.1898C35.755 87.0942 35.6968 87.0109 35.6147 86.9568C35.2175 86.7249 34.7544 86.6312 34.2981 86.6903C34.0177 86.3752 33.7838 86.0218 33.6035 85.6408C33.9759 85.6364 34.3432 85.5544 34.682 85.4C35.0207 85.2457 35.3234 85.0224 35.5707 84.7445C35.8047 84.4572 35.9509 84.1088 35.9919 83.7409C36.033 83.373 35.9671 83.001 35.8022 82.6694C36.1261 82.5419 36.3872 82.2932 36.53 81.9764C36.5956 81.7691 36.6087 81.5488 36.5683 81.3352C36.5279 81.1216 36.4352 80.9213 36.2985 80.7521C36.983 80.468 37.5609 79.9768 37.9508 79.3476ZM32.2398 98.1749C31.8249 98.3367 31.3656 98.3447 30.9453 98.1975C30.525 98.0503 30.1716 97.7576 29.9492 97.3725C29.9112 97.2489 29.8531 97.1324 29.7771 97.0276C29.7219 96.9513 29.6406 96.8978 29.5486 96.8772C29.4565 96.8566 29.3601 96.8704 29.2776 96.9159C29.195 96.9614 29.132 97.0355 29.1005 97.1241C29.069 97.2128 29.0711 97.3099 29.1064 97.3972C29.1403 97.4838 29.1787 97.5686 29.2214 97.6513C29.2754 98.0301 28.7869 98.5114 28.3948 98.5245C27.6737 98.456 27.0036 98.1232 26.5141 97.5905C26.4766 97.5498 26.4308 97.5176 26.3797 97.4962C26.3287 97.4748 26.2736 97.4646 26.2183 97.4662C26.1629 97.4679 26.1086 97.4815 26.059 97.5059C26.0093 97.5304 25.9655 97.5653 25.9306 97.6082C25.6458 97.9565 25.2478 98.1944 24.8056 98.2806C24.3634 98.3668 23.9049 98.2959 23.5096 98.0802C22.6308 97.5618 21.9002 96.8268 21.388 95.9457C21.3555 95.8898 21.3094 95.843 21.2539 95.8095C21.1985 95.776 21.1355 95.757 21.0707 95.7543C21.006 95.7515 20.9416 95.7651 20.8835 95.7937C20.8253 95.8223 20.7754 95.8651 20.7382 95.918C20.6341 96.0653 20.4965 96.1859 20.3368 96.27C20.177 96.3541 19.9996 96.3994 19.819 96.402C19.6383 96.4046 19.4597 96.3646 19.2975 96.2852C19.1354 96.2057 18.9943 96.0892 18.886 95.945C18.6718 95.5784 18.569 95.1576 18.5901 94.7339C18.6112 94.3101 18.7553 93.9015 19.0048 93.558C19.0487 93.4975 19.0741 93.4255 19.0777 93.3509C19.0814 93.2763 19.0632 93.2023 19.0254 93.1378C18.9876 93.0733 18.9318 93.0212 18.8649 92.9878C18.7979 92.9544 18.7226 92.9411 18.6483 92.9497C17.7452 93.0529 16.8306 92.9237 15.9917 92.5745C15.1527 92.2253 14.4174 91.6676 13.8556 90.9546C13.3038 90.141 12.9265 89.2224 12.7476 88.2564C12.5687 87.2904 12.592 86.2979 12.8161 85.3413C13.7413 81.0525 16.1055 77.207 19.5179 74.4404C22.9304 71.6738 27.1868 70.1516 31.5838 70.1253C32.5456 70.0564 33.5012 70.3255 34.2849 70.8861C34.4418 71.019 34.5693 71.183 34.6595 71.3675C34.7497 71.5521 34.8006 71.7532 34.809 71.9584C34.8174 72.1635 34.7831 72.3682 34.7083 72.5595C34.6336 72.7508 34.5199 72.9245 34.3745 73.0698C34.3045 73.1389 34.2637 73.2321 34.2604 73.3303C34.257 73.4284 34.2914 73.5242 34.3565 73.5979C34.4216 73.6716 34.5124 73.7176 34.6105 73.7267C34.7085 73.7357 34.8063 73.7071 34.8838 73.6465C35.0203 73.5403 35.1783 73.4649 35.3468 73.4254C35.5153 73.386 35.6904 73.3834 35.86 73.4178C36.0296 73.4523 36.1898 73.523 36.3294 73.6251C36.469 73.7272 36.5848 73.8583 36.6688 74.0093C36.7528 74.1603 36.803 74.3277 36.816 74.4999C36.8289 74.6721 36.8044 74.8451 36.744 75.0069C36.6835 75.1688 36.5887 75.3157 36.466 75.4374C36.3432 75.5592 36.1955 75.6531 36.033 75.7125C35.9542 75.7414 35.8871 75.7951 35.8417 75.8655C35.7963 75.9359 35.7752 76.0191 35.7814 76.1026C35.7877 76.1861 35.8211 76.2652 35.8765 76.3281C35.9319 76.3909 36.0064 76.434 36.0885 76.4509C36.3148 76.4986 36.5292 76.5908 36.7193 76.7221C36.9094 76.8535 37.0714 77.0213 37.1958 77.2157C37.3202 77.4102 37.4044 77.6275 37.4437 77.8549C37.483 78.0822 37.4764 78.3151 37.4245 78.5399C37.1675 79.6448 36.3702 79.7319 35.4179 80.4095C35.3623 80.4492 35.3182 80.503 35.2903 80.5653C35.2624 80.6276 35.2516 80.6962 35.2589 80.764C35.2663 80.8319 35.2916 80.8965 35.3323 80.9514C35.373 81.0063 35.4276 81.0494 35.4904 81.0763C35.6099 81.125 35.7082 81.2141 35.7682 81.3281C35.8282 81.442 35.846 81.5735 35.8184 81.6992C35.7624 81.8177 35.6615 81.9092 35.5379 81.9535C35.4143 81.9978 35.2782 81.9914 35.1593 81.9356C35.0726 81.8945 34.9736 81.8871 34.8817 81.9149C34.7898 81.9428 34.7116 82.0038 34.6624 82.0861C34.6132 82.1684 34.5965 82.2661 34.6156 82.36C34.6347 82.4539 34.6883 82.5373 34.7657 82.5939C34.89 82.687 34.9945 82.8037 35.0731 82.9374C35.1518 83.0711 35.203 83.2191 35.2238 83.3727C35.2446 83.5263 35.2347 83.6825 35.1944 83.8322C35.1542 83.9819 35.0846 84.1222 34.9896 84.2448C34.7586 84.5016 34.4615 84.6902 34.1306 84.7902C33.7996 84.8901 33.4475 84.8975 33.1126 84.8115C33.0462 84.7948 32.9764 84.796 32.9106 84.8151C32.8448 84.8341 32.7852 84.8703 32.738 84.92C32.6909 84.9696 32.6578 85.0309 32.6423 85.0975C32.6267 85.1641 32.6292 85.2336 32.6496 85.2989C32.8375 85.8986 33.133 86.4593 33.5217 86.9537C32.3015 87.659 32.1132 89.4608 32.8209 90.6759C33.1445 91.3353 33.6619 91.8806 34.3042 92.239C34.6919 92.9398 34.8519 93.7435 34.7619 94.5389C34.5944 95.2088 33.6421 95.771 33.1574 95.2936C33.0844 95.2273 32.9888 95.1914 32.8902 95.1933C32.7916 95.1952 32.6974 95.2347 32.6271 95.3037C32.5567 95.3727 32.5155 95.4659 32.512 95.5643C32.5084 95.6627 32.5427 95.7587 32.6079 95.8325C32.767 95.9982 32.8856 96.1982 32.9546 96.4171C33.0235 96.636 33.0409 96.8678 33.0053 97.0944C32.9698 97.3211 32.8823 97.5365 32.7496 97.7239C32.617 97.9113 32.4427 98.0657 32.2405 98.1749H32.2398ZM50.255 104.329C47.31 101.967 44.0408 101.134 39.7428 101.634C39.6915 101.638 39.6416 101.653 39.596 101.677C39.5505 101.701 39.5103 101.734 39.4777 101.774C39.4451 101.814 39.4209 101.86 39.4065 101.909C39.392 101.959 39.3876 102.01 39.3936 102.062C39.3995 102.113 39.4156 102.162 39.441 102.207C39.4664 102.252 39.5005 102.291 39.5413 102.322C39.5822 102.354 39.6289 102.376 39.6787 102.39C39.7286 102.403 39.7806 102.406 39.8316 102.398C43.8023 101.94 46.8407 102.671 49.5612 104.766C44.3132 101.927 38.2387 103.716 31.965 103.428C31.8627 103.421 31.7618 103.455 31.6845 103.522C31.6072 103.589 31.5599 103.685 31.5529 103.787C31.5459 103.889 31.5799 103.989 31.6474 104.067C31.7148 104.144 31.8102 104.191 31.9125 104.198C37.5842 104.583 43.5036 102.729 48.6598 105.168C42.062 103.595 36.2699 106.998 29.8288 107.919C28.3732 108.254 25.5069 108.807 26.0672 107.429C26.7958 104.919 27.5621 105.252 29.9337 104.183C30.0211 104.144 30.0906 104.074 30.1289 103.986C30.1672 103.898 30.1714 103.8 30.1408 103.709C30.1102 103.619 30.0469 103.543 29.9633 103.496C29.8797 103.449 29.7816 103.436 29.6883 103.457C29.4784 103.506 29.2669 103.117 29.3202 102.913C29.4004 102.707 29.5214 102.52 29.6761 102.363C29.8308 102.206 30.0158 102.081 30.2201 101.997C31.6781 101.266 33.2502 100.787 34.8692 100.581C40.1851 99.624 44.9453 99.0904 49.3821 102.288C49.8294 102.564 50.1841 102.966 50.4009 103.443C50.4606 103.59 50.4787 103.75 50.4531 103.906C50.4275 104.063 50.3592 104.209 50.2558 104.329H50.255ZM71.1505 101.472C70.8351 100.556 70.1936 99.7865 69.3476 99.3106C69.0505 99.1851 69.4819 99.0026 70.1603 99.0673C70.3801 99.0854 70.5935 99.1496 70.7866 99.2557C70.9798 99.3619 71.1482 99.5076 71.2809 99.6833C71.3278 99.7463 71.3928 99.7935 71.4673 99.8186C71.5418 99.8437 71.6223 99.8455 71.6978 99.8237C71.7734 99.8019 71.8404 99.7576 71.8901 99.6968C71.9397 99.6359 71.9695 99.5614 71.9755 99.4831C72.1159 97.7891 72.3089 96.2961 73.2389 95.2358C73.5931 94.8392 73.9643 94.8046 73.7336 95.6277C73.5286 96.3147 73.3799 97.0172 73.289 97.7283C73.2772 97.8202 73.299 97.9132 73.3504 97.9904C73.4018 98.0675 73.4794 98.1236 73.5689 98.1483C73.6583 98.173 73.7537 98.1647 73.8376 98.1249C73.9214 98.0851 73.9881 98.0164 74.0253 97.9316C74.3293 97.2792 74.711 96.6657 75.1621 96.1044C75.3333 95.8054 75.5725 95.5509 75.8605 95.3613C75.9174 95.3281 75.9835 95.3139 76.049 95.3208C76.1146 95.3278 76.1762 95.3554 76.2248 95.3998C76.4015 95.6308 76.1476 96.1267 75.9593 96.4986C75.7278 97.0615 75.4191 97.8138 75.1412 98.3343C75.0957 98.4185 75.0833 98.5167 75.1064 98.6096C75.1295 98.7026 75.1864 98.7836 75.2662 98.8368C75.3459 98.8901 75.4426 98.9118 75.5375 98.8978C75.6324 98.8838 75.7187 98.8349 75.7795 98.7609C76.1691 98.2888 76.6107 97.8621 77.0961 97.4888C77.2745 97.3593 77.4779 97.2681 77.6935 97.2209C77.7502 97.2121 77.8082 97.2177 77.8622 97.2372C77.9161 97.2567 77.9643 97.2895 78.0022 97.3325C78.2584 98.1872 76.1762 99.2159 75.6321 102.273C74.2477 101.579 72.6911 101.301 71.1512 101.472H71.1505Z" fill="#3D1D0B"/>
<path d="M108.324 51.9371C107.116 51.7197 105.87 51.9673 104.838 52.6301C103.265 52.4286 101.672 52.4639 100.11 52.7348C97.1439 53.2997 94.3479 54.538 91.9385 56.3538C91.9091 56.316 90.2251 54.1701 90.1858 54.1385C90.2275 53.9406 90.263 53.7412 90.2915 53.541C90.4579 53.5811 90.6296 53.5941 90.8001 53.5795C90.8616 54.0024 91.0109 54.4078 91.2385 54.7699C91.3463 54.9667 91.5025 55.133 91.6925 55.2531C91.8824 55.3731 92.0998 55.4431 92.3242 55.4563C92.5487 55.4695 92.7728 55.4257 92.9756 55.3287C93.1784 55.2318 93.3532 55.0851 93.4835 54.9023C93.8466 54.4186 94.0307 53.8244 94.0047 53.2206C93.9787 52.6169 93.7441 52.0406 93.3407 51.5898C93.5394 51.1774 93.6806 50.7398 93.7606 50.2893C93.9898 49.4441 93.9898 48.5534 93.7606 47.7082C94.6381 45.1491 94.5588 42.3597 93.5375 39.8542C91.6953 35.4013 86.9459 32.5146 81.7242 32.6655C79.5208 32.6655 77.8901 33.5764 75.9221 34.5789C72.1998 36.4865 69.2148 39.5694 67.4327 43.3469C66.0559 46.1074 65.7055 48.5352 66.3908 50.5634C66.415 50.6483 66.4677 50.7223 66.5401 50.773C66.6125 50.8237 66.7001 50.8481 66.7884 50.8421C66.8766 50.836 66.9601 50.7999 67.0249 50.7398C67.0896 50.6797 67.1317 50.5992 67.1441 50.5118C67.2089 50.1594 67.296 49.8114 67.4049 49.47C67.3025 51.0625 67.6392 52.6527 68.3785 54.0678C69.1178 55.4829 70.2315 56.669 71.5987 57.4972C71.6706 57.5398 71.7545 57.5579 71.8377 57.5487C71.9208 57.5396 71.9988 57.5037 72.0597 57.4466C72.1207 57.3894 72.1614 57.314 72.1756 57.2318C72.1899 57.1495 72.177 57.0649 72.1389 56.9906C71.7844 56.3104 71.5191 55.5876 71.3494 54.84C73.2973 58.5544 78.1108 61.077 78.5044 60.0467C79.9507 60.9346 81.6606 61.2954 83.3434 61.0679C85.0262 60.8404 86.5781 60.0385 87.7354 58.7985C87.9369 59.0403 88.0796 59.1943 88.2155 59.3375C83.8589 62.4468 75.8279 66.7988 70.5568 65.8671C70.102 65.8166 69.6736 65.6285 69.3289 65.3281C69.1126 65.0835 68.944 64.8007 68.8319 64.4942C68.0856 62.788 67.5061 61.0139 67.1016 59.1966C66.5668 56.7519 67.1124 54.8669 66.1562 53.012C65.6889 51.7955 65.0607 50.6468 64.2885 49.5963C64.455 48.4128 64.3797 47.2079 64.067 46.0543C65.4491 44.461 66.5727 42.6618 67.3972 40.722C69.4856 36.4522 70.6679 31.7982 70.8701 27.0514C70.9103 23.9591 69.4169 19.8843 66.8477 18.4159C66.1003 18.0062 65.2524 17.8147 64.401 17.8634C63.5496 17.912 62.7291 18.1987 62.0334 18.6908C60.2745 19.7715 58.7408 21.1804 57.5163 22.8403C53.1512 22.3606 50.3737 23.946 48.8965 26.3461C46.2725 30.6057 48.452 35.3551 52.6295 37.9169C52.5925 38.9051 52.6025 39.8966 52.6596 40.8914C52.6622 42.5679 53.1826 44.2029 54.1499 45.5738C55.0866 46.7471 56.3603 47.6068 57.8003 48.0378C57.7951 48.8255 58.0062 49.5997 58.4108 50.2762C58.003 51.2364 57.6558 52.2211 57.3712 53.2245C57.1406 53.8527 57.0103 54.5132 56.9854 55.1818C57.0257 55.8534 57.1608 56.516 57.3867 57.15C58.6539 60.8313 59.8393 67.5003 62.8145 72.4783C64.6953 75.623 67.6341 76.1443 70.5321 76.239C75.4798 76.4195 80.4163 75.6531 85.0752 73.9814C87.841 81.0956 92.7113 87.2016 99.0387 91.4881C98.8743 92.1657 100.75 92.9858 102.198 92.9858C111.366 92.9858 114.175 76.5155 114.491 68.9102C114.739 62.7548 113.954 52.9388 108.324 51.9371ZM49.2893 33.3246C48.7911 32.3656 48.5339 31.3001 48.5399 30.22C48.5458 29.1398 48.8147 28.0772 49.3234 27.1237C49.8322 26.1701 50.5655 25.3542 51.4603 24.7461C52.3551 24.138 53.3845 23.7558 54.4602 23.6326C55.3003 23.5253 56.1493 23.5036 56.9938 23.5679C54.4194 27.6067 52.931 32.2389 52.672 37.0183C51.2453 36.0972 50.0804 34.8251 49.2893 33.3246ZM63.4473 50.0783C63.1325 50.4774 62.7077 50.776 62.225 50.9374C61.7424 51.0989 61.223 51.1161 60.7307 50.9869C60.36 50.943 60.0015 50.8269 59.6757 50.645C59.0072 50.0161 58.6152 49.1488 58.5852 48.2326C59.1268 48.3299 59.681 48.3354 60.2244 48.2488C60.2535 48.4904 60.3251 48.725 60.4359 48.9418C60.4826 49.0326 60.5635 49.1013 60.6609 49.1326C60.7583 49.164 60.8642 49.1554 60.9553 49.1088C61.0464 49.0623 61.1152 48.9815 61.1466 48.8843C61.178 48.7872 61.1694 48.6815 61.1228 48.5906C61.0401 48.4293 60.9932 48.2521 60.9852 48.071C60.9772 47.89 61.0083 47.7093 61.0765 47.5414C61.1446 47.3734 61.2482 47.222 61.3802 47.0975C61.5121 46.9729 61.6694 46.8782 61.8413 46.8196C61.9 46.7997 61.9531 46.7658 61.9959 46.7211C62.0388 46.6763 62.0702 46.6218 62.0874 46.5624C62.1047 46.5029 62.1073 46.4401 62.0951 46.3794C62.0829 46.3187 62.0562 46.2619 62.0172 46.2136L61.3883 45.4359C61.0942 45.0748 60.8619 44.6028 61.017 44.4488C61.1085 44.3797 61.2189 44.3399 61.3335 44.3347C61.4482 44.3295 61.5617 44.359 61.6591 44.4195C62.1005 44.6238 62.4888 44.9265 62.7942 45.3044C63.0996 45.6822 63.3138 46.125 63.4203 46.5986C63.6516 47.7462 63.6607 48.9273 63.4473 50.0783ZM63.729 45.3043C63.3306 44.6185 62.731 44.071 62.0111 43.7358C61.7767 43.6037 61.5077 43.5457 61.2396 43.5696C60.9715 43.5936 60.7171 43.6982 60.51 43.8698C60.0238 44.3433 60.1287 45.1102 60.7886 45.9203L61.1158 46.3253C60.7131 46.5954 60.4198 46.9996 60.2885 47.4657C59.2422 47.5911 58.1812 47.4398 57.2121 47.0267C56.243 46.6137 55.3998 45.9535 54.7673 45.1125C53.8951 43.8682 53.4281 42.386 53.4298 40.8675C52.9784 33.0405 55.6811 23.424 62.4363 19.3522C63.0136 18.9308 63.6993 18.682 64.4131 18.635C65.1269 18.5879 65.8393 18.7446 66.4672 19.0865C68.7594 20.3955 70.1377 24.2363 70.1022 27.0314C69.9031 31.6707 68.7471 36.2191 66.7065 40.3924C65.9418 42.1576 64.9401 43.8107 63.729 45.3066V45.3043ZM92.8646 54.4388C92.8112 54.5232 92.7356 54.5914 92.6462 54.6361C92.5567 54.6808 92.4567 54.7002 92.357 54.6923C92.2572 54.6844 92.1616 54.6494 92.0803 54.5911C91.9991 54.5329 91.9353 54.4536 91.896 54.3618C91.713 54.0707 91.5971 53.7428 91.5564 53.4016C92.124 53.1897 92.6077 52.8005 92.9356 52.292C93.1349 52.6178 93.2343 52.9946 93.2217 53.376C93.2091 53.7574 93.085 54.1269 92.8646 54.4388ZM71.1402 52.0864C71.119 51.9971 71.0664 51.9183 70.9921 51.8642C70.9177 51.8102 70.8265 51.7844 70.7347 51.7915C70.643 51.7987 70.5568 51.8383 70.4918 51.9033C70.4268 51.9682 70.3871 52.0542 70.3801 52.1457C70.2832 53.461 70.4555 54.7821 70.8863 56.0288C69.5816 54.891 68.6833 53.3606 68.327 51.6686C67.9708 49.9766 68.1759 48.2149 68.9114 46.6495C68.9514 46.564 68.9586 46.4668 68.9315 46.3764C68.9044 46.2859 68.845 46.2086 68.7646 46.159C68.6841 46.1094 68.5882 46.091 68.495 46.1073C68.4019 46.1237 68.318 46.1735 68.2593 46.2475C67.6579 47.0044 67.1776 47.8496 66.8354 48.7531C66.8281 46.9811 67.2747 45.2366 68.1327 43.685C69.8398 40.0588 72.7019 37.0985 76.2725 35.2658C78.1756 34.2956 79.6944 33.4355 81.7365 33.4355C89.4611 33.196 95.2995 39.8188 93.1656 47.0375C92.8239 46.7598 92.4025 46.598 91.9624 46.5755C91.4874 46.6215 91.0323 46.7883 90.6404 47.0599C90.2485 47.3316 89.9331 47.699 89.7243 48.1271C89.4063 48.7729 89.1535 49.4487 88.9695 50.1445C87.8426 48.3644 86.0939 47.0647 84.0619 46.497C82.6154 46.2066 81.1499 46.0201 79.6767 45.9388C78.2928 45.8598 76.9765 45.3156 75.9421 44.3949C75.9011 44.3581 75.8525 44.3305 75.7999 44.314C75.7472 44.2975 75.6916 44.2925 75.6368 44.2993C75.582 44.3061 75.5293 44.3245 75.4822 44.3534C75.4352 44.3822 75.3949 44.4208 75.3641 44.4665C73.7835 46.8142 73.2093 49.1504 74.0166 52.9173C74.2186 54.0773 74.5842 55.2029 75.1025 56.2606C75.4374 56.9359 75.7515 57.8776 76.2763 58.7469C74.9934 58.0667 73.8713 57.1204 72.9854 55.9715C72.0995 54.8227 71.4704 53.498 71.1402 52.0864ZM75.8055 55.9364C75.1051 54.3975 74.6654 52.7533 74.5044 51.0708C74.2701 49.0457 74.7172 47.0004 75.7754 45.2565C76.8835 46.1215 78.2297 46.6287 79.6343 46.7103C81.0601 46.7895 82.4786 46.9696 83.8789 47.2493C84.9763 47.5588 85.9915 48.1068 86.8515 48.8539C87.7116 49.601 88.3954 50.5287 88.8537 51.5705C88.8932 51.6594 88.9649 51.7301 89.0545 51.7684C89.144 51.8067 89.2448 51.8098 89.3365 51.7771C89.4283 51.7443 89.5042 51.6781 89.5491 51.5918C89.5939 51.5055 89.6044 51.4055 89.5784 51.3118C89.4403 50.8167 90.104 49.1035 90.4158 48.4705C90.5623 48.1657 90.7838 47.9029 91.0597 47.7066C91.3355 47.5103 91.6567 47.3869 91.9932 47.3479C93.9126 47.3848 93.1509 51.6599 91.6151 52.5353C91.6632 52.3528 91.7331 52.1768 91.8235 52.011C91.8492 51.9665 91.8658 51.9173 91.8722 51.8663C91.8786 51.8154 91.8747 51.7636 91.8608 51.7142C91.8468 51.6647 91.8231 51.6185 91.791 51.5784C91.7589 51.5382 91.719 51.5049 91.6738 51.4803C91.6286 51.4557 91.5789 51.4405 91.5277 51.4354C91.4764 51.4302 91.4247 51.4354 91.3755 51.4506C91.3263 51.4657 91.2806 51.4906 91.2412 51.5236C91.2017 51.5566 91.1693 51.5972 91.1459 51.6429C90.9572 51.9889 90.8364 52.3675 90.7901 52.7586C90.6488 52.7694 90.5084 52.7733 90.3695 52.781C90.3864 52.5176 90.3926 52.252 90.388 51.9863C90.388 51.8995 90.3534 51.8163 90.2919 51.7549C90.2304 51.6936 90.147 51.6591 90.06 51.6591C89.973 51.6591 89.8896 51.6936 89.8281 51.7549C89.7665 51.8163 89.732 51.8995 89.732 51.9863C89.8732 60.4594 79.5988 64.0638 75.8055 55.938V55.9364ZM93.0467 66.5848C89.4526 68.2618 84.7665 67.0306 83.8805 62.9581C85.5593 62.0436 87.1803 61.0271 88.7341 59.9143C88.7974 59.9913 88.8661 60.0683 88.944 60.1684C88.975 60.21 89.0141 60.245 89.0589 60.2711C89.1038 60.2973 89.1535 60.3142 89.205 60.3208C89.2566 60.3274 89.3089 60.3235 89.3589 60.3094C89.4089 60.2953 89.4556 60.2712 89.496 60.2387C89.5365 60.2061 89.5699 60.1658 89.5944 60.12C89.6188 60.0743 89.6338 60.0241 89.6383 59.9724C89.6428 59.9208 89.6368 59.8687 89.6207 59.8194C89.6046 59.7701 89.5786 59.7246 89.5445 59.6856C88.8815 58.864 88.829 58.9156 88.2533 58.2156C89.0089 57.2776 89.5821 56.2068 89.9435 55.0586C90.54 55.8202 91.1783 56.6179 91.6529 57.2377C91.7015 57.3024 91.7692 57.3501 91.8466 57.3742C91.9239 57.3983 92.0068 57.3975 92.0836 57.372C92.1605 57.3464 92.2273 57.2974 92.2747 57.2318C92.322 57.1663 92.3475 57.0875 92.3475 57.0067C94.0723 55.722 95.9963 54.7276 98.0431 54.063C99.4037 60.1445 97.6348 64.5874 93.0467 66.5863V66.5848ZM106.195 52.8303C106.925 52.5947 107.705 52.5669 108.449 52.7498C109.194 52.9328 109.872 53.3193 110.408 53.8659C109.038 53.3961 107.628 53.0495 106.195 52.8303ZM113.616 70.5364C111.937 69.4107 110.316 65.2311 109.315 63.3461C110.898 63.4409 112.605 63.5525 113.743 63.7512C113.824 66.0135 113.781 68.2786 113.617 70.5364H113.616Z" fill="#3D1D0B"/>
<path d="M72.3328 54.1117C72.3328 54.4176 72.3931 54.7205 72.5105 55.0031C72.6278 55.2857 72.7998 55.5424 73.0165 55.7587C73.2333 55.975 73.4907 56.1466 73.7739 56.2636C74.0572 56.3807 74.3608 56.4409 74.6673 56.4409C74.9739 56.4409 75.2775 56.3807 75.5607 56.2636C75.844 56.1466 76.1014 55.975 76.3181 55.7587C76.5349 55.5424 76.7069 55.2857 76.8242 55.0031C76.9415 54.7205 77.0019 54.4176 77.0019 54.1117C77.0019 53.8058 76.9415 53.5029 76.8242 53.2203C76.7069 52.9377 76.5349 52.681 76.3181 52.4647C76.1014 52.2484 75.844 52.0768 75.5607 51.9597C75.2775 51.8427 74.9739 51.7824 74.6673 51.7824C74.3608 51.7824 74.0572 51.8427 73.7739 51.9597C73.4907 52.0768 73.2333 52.2484 73.0165 52.4647C72.7998 52.681 72.6278 52.9377 72.5105 53.2203C72.3931 53.5029 72.3328 53.8058 72.3328 54.1117Z" fill="#FFE55D"/>
<path d="M83.6538 53.8106C83.6538 54.5413 83.9447 55.242 84.4626 55.7587C84.9805 56.2754 85.6828 56.5656 86.4152 56.5656C87.1475 56.5656 87.8499 56.2754 88.3678 55.7587C88.8856 55.242 89.1765 54.5413 89.1765 53.8106C89.1765 53.0799 88.8856 52.3791 88.3678 51.8625C87.8499 51.3458 87.1475 51.0555 86.4152 51.0555C85.6828 51.0555 84.9805 51.3458 84.4626 51.8625C83.9447 52.3791 83.6538 53.0799 83.6538 53.8106Z" fill="#FFE55D"/>
</svg>
